<?xml version="1.0" encoding="UTF-8"?>
<svg viewBox="0 0 108 63" fill="none" xmlns="http://www.w3.org/2000/svg" class="h-6 transition-opacity duration-200 hover:opacity-70 text-[#153173] transition-colors dark:text-white"><path d="M59.3001 37.3C60.2001 36.4 60.5001 35 60.0001 33.8C59.5001 32.6 58.3001 31.8 57.0001 31.8H35.8001C34.5001 31.8 33.3001 31 32.8001 29.8C32.3001 28.6 32.6001 27.2 33.5001 26.3L57.2001 2.6C59.5001 0.3 63.3001 0.3 65.6001 2.6L90.7001 27.7C93.0001 30 93.0001 33.8 90.7001 36.1L65.6001 61C63.3001 63.3 59.5001 63.3 57.2001 61L46.4001 50.2L59.3001 37.3Z" fill="url(#paint0_linear_102_2)"></path><path d="M33.5 26.2C32.6 27.1 32.3 28.5 32.8 29.7C33.3 30.9 34.5 31.7 35.8 31.7H57C58.3 31.7 59.5 32.5 60 33.7C60.5 34.9 60.2 36.3 59.3 37.2L35.5 61C33.2 63.3 29.4 63.3 27.1 61L2.00002 35.9C-0.299976 33.6 -0.299976 29.8 2.00002 27.5L27.1 2.39999C29.4 0.0999877 33.2 0.0999877 35.5 2.39999L46.3 13.2L33.5 26.2Z" fill="url(#paint1_linear_102_2)"></path><defs><linearGradient id="paint0_linear_102_2" x1="34.3306" y1="41.8723" x2="86.6439" y2="22.2548" gradientUnits="userSpaceOnUse"><stop stop-color="#9ED7FF"></stop><stop offset="0.5" stop-color="#5277FF"></stop><stop offset="1" stop-color="#3624C7"></stop></linearGradient><linearGradient id="paint1_linear_102_2" x1="3.39313" y1="41.9262" x2="55.3795" y2="22.9626" gradientUnits="userSpaceOnUse"><stop stop-color="#9ED7FF"></stop><stop offset="0.5" stop-color="#5277FF"></stop><stop offset="1" stop-color="#3624C7"></stop></linearGradient></defs></svg>