<svg viewBox="0 0 159 32" xmlns="http://www.w3.org/2000/svg" fill="none"><rect width="32" height="32" fill="url(#a)" rx="8"/><g filter="url(#b)"><mask id="e" fill="#fff"><path fill-rule="evenodd" d="M20.407 14.007a.36.36 0 0 0 .256-.459 6.037 6.037 0 0 0-2.307-3.05 6.06 6.06 0 0 0-7.815.82 6.028 6.028 0 0 0 3.13 10.057 6.062 6.062 0 0 0 5.758-1.87l5.227 2.019.007-.017a.432.432 0 0 0 .523-.26l.465-1.207a.43.43 0 0 0-.179-.523l.003-.008-.83-.316-4.46-1.709-.011-.004-1.227-.47a.422.422 0 0 0-.082-.022l-.014-.005-.002.002a.483.483 0 0 0-.482.264 3.88 3.88 0 0 1-6.51.574 3.857 3.857 0 0 1 .264-5.01 3.875 3.875 0 0 1 6.413 1.25c.087.221.322.359.552.297l1.321-.353Z" clip-rule="evenodd"/></mask><path fill="url(#c)" fill-rule="evenodd" d="M20.407 14.007a.36.36 0 0 0 .256-.459 6.037 6.037 0 0 0-2.307-3.05 6.06 6.06 0 0 0-7.815.82 6.028 6.028 0 0 0 3.13 10.057 6.062 6.062 0 0 0 5.758-1.87l5.227 2.019.007-.017a.432.432 0 0 0 .523-.26l.465-1.207a.43.43 0 0 0-.179-.523l.003-.008-.83-.316-4.46-1.709-.011-.004-1.227-.47a.422.422 0 0 0-.082-.022l-.014-.005-.002.002a.483.483 0 0 0-.482.264 3.88 3.88 0 0 1-6.51.574 3.857 3.857 0 0 1 .264-5.01 3.875 3.875 0 0 1 6.413 1.25c.087.221.322.359.552.297l1.321-.353Z" clip-rule="evenodd"/><path fill="url(#d)" d="m20.663 13.548-.151.052.151-.052Zm-.256.46-.04-.155.04.154Zm-2.051-3.51-.09.132.09-.132Zm-4.059-1.029-.017-.159.017.16Zm-3.756 1.848-.116-.11.116.11Zm-1.653 3.839.16.008-.16-.008Zm1.242 3.99-.127.097.127-.097Zm3.542 2.23-.034.156.034-.157Zm4.144-.6-.076-.141.076.14Zm1.613-1.27.058-.15-.103-.04-.074.083.119.107Zm5.227 2.018-.058.15.147.056.059-.146-.148-.06Zm.007-.017.044-.154-.138-.04-.055.133.149.06Zm.523-.26-.149-.057.15.057Zm.465-1.207-.15-.058.15.058Zm-.179-.523-.148-.06-.052.126.117.07.083-.136Zm.003-.008.148.06.062-.15-.153-.06-.057.15Zm-.83-.316-.056.15.057-.15Zm-4.46-1.709-.06.15h.002l.058-.15Zm-.011-.004.059-.149h-.002l-.057.15Zm-1.227-.47.058-.149-.058.15Zm-.082-.022-.057.15.014.005.016.002.026-.157Zm-.014-.005.057-.15-.127-.048-.069.117.139.08Zm-.002.002-.02.159.105.014.053-.092-.138-.08Zm-.482.264-.142-.074.142.074Zm-1.59 1.617.076.14-.076-.14Zm-2.653.384-.033.157.033-.157Zm-3.061-3.98-.16-.009.16.008Zm1.058-2.457.116.11-.116-.11Zm5.001-.525-.09.132.09-.132Zm1.412 1.774.15-.058-.15.059Zm.552.298.042.155-.042-.155Zm1.426-.76a.2.2 0 0 1-.146.252l.083.31a.52.52 0 0 0 .366-.665l-.303.103Zm-2.247-2.97a5.878 5.878 0 0 1 2.247 2.97l.303-.103a6.197 6.197 0 0 0-2.369-3.131l-.18.264Zm-3.951-1.002a5.9 5.9 0 0 1 3.951 1.002l.181-.264A6.22 6.22 0 0 0 14.28 9.31l.034.318Zm-3.657 1.8a5.895 5.895 0 0 1 3.657-1.8l-.034-.318a6.215 6.215 0 0 0-3.855 1.897l.232.22Zm-1.609 3.736a5.869 5.869 0 0 1 1.61-3.737l-.233-.22a6.189 6.189 0 0 0-1.697 3.94l.32.017Zm1.209 3.884a5.866 5.866 0 0 1-1.209-3.884l-.32-.017a6.186 6.186 0 0 0 1.275 4.096l.254-.195Zm3.448 2.17a5.891 5.891 0 0 1-3.448-2.17l-.254.195a6.212 6.212 0 0 0 3.635 2.289l.067-.313Zm4.035-.583a5.901 5.901 0 0 1-4.035.584l-.067.313a6.222 6.222 0 0 0 4.254-.616l-.152-.281Zm1.57-1.236a5.886 5.886 0 0 1-1.57 1.236l.152.281a6.206 6.206 0 0 0 1.656-1.303l-.238-.214Zm.061.256 5.227 2.018.115-.298-5.227-2.018-.115.298Zm5.433 1.93.007-.018-.297-.12-.007.017.297.12Zm.233-.395a.272.272 0 0 1-.33.163l-.09.307a.592.592 0 0 0 .719-.355l-.299-.115Zm.465-1.208-.465 1.208.299.115.464-1.208-.298-.115Zm-.113-.328a.27.27 0 0 1 .113.328l.298.115a.59.59 0 0 0-.245-.717l-.166.274Zm.231-.077.003-.007-.296-.121-.003.007.296.121Zm-.088-.217-.83-.316-.113.299.83.316.113-.3Zm-5.405-1.726 4.462 1.708.114-.298-4.461-1.709-.115.299Zm-.012-.005.01.004.119-.297-.011-.005-.119.298Zm-1.225-.47 1.226.47.115-.298-1.227-.47-.114.299Zm-.052-.014a.28.28 0 0 1 .052.015l.114-.299a.586.586 0 0 0-.113-.031l-.053.316Zm.084-.307-.014-.005-.114.299.014.005.114-.299Zm-.21.064-.001.003.276.16.002-.002-.277-.161Zm-.203.42a.323.323 0 0 1 .32-.178l.041-.317a.643.643 0 0 0-.645.348l.284.148Zm-1.656 1.685a4.027 4.027 0 0 0 1.656-1.684l-.284-.148a3.707 3.707 0 0 1-1.524 1.55l.152.282Zm-2.762.4a4.04 4.04 0 0 0 2.762-.4l-.152-.281a3.72 3.72 0 0 1-2.543.367l-.067.314Zm-2.36-1.486a4.033 4.033 0 0 0 2.36 1.486l.067-.314a3.712 3.712 0 0 1-2.173-1.367l-.254.195Zm-.828-2.66c-.05.957.243 1.9.828 2.66l.254-.195a3.696 3.696 0 0 1-.762-2.448l-.32-.017Zm1.102-2.559a4.019 4.019 0 0 0-1.102 2.559l.32.017a3.698 3.698 0 0 1 1.014-2.355l-.232-.22Zm2.503-1.231c-.955.1-1.842.537-2.503 1.231l.232.22a3.715 3.715 0 0 1 2.304-1.133l-.033-.318Zm2.705.685a4.039 4.039 0 0 0-2.705-.685l.033.318a3.719 3.719 0 0 1 2.49.631l.182-.264Zm1.47 1.848a4.024 4.024 0 0 0-1.47-1.848l-.181.264a3.704 3.704 0 0 1 1.353 1.701l.298-.117Zm.362.202c-.142.038-.3-.046-.362-.202l-.298.117c.113.287.423.48.743.394l-.083-.31Zm1.321-.353-1.32.353.082.309 1.32-.353-.082-.31Z" mask="url(#e)"/><path fill="url(#f)" d="m20.663 13.548-.151.052.151-.052Zm-.256.46-.04-.155.04.154Zm-2.051-3.51-.09.132.09-.132Zm-4.059-1.029-.017-.159.017.16Zm-3.756 1.848-.116-.11.116.11Zm-1.653 3.839.16.008-.16-.008Zm1.242 3.99-.127.097.127-.097Zm3.542 2.23-.034.156.034-.157Zm4.144-.6-.076-.141.076.14Zm1.613-1.27.058-.15-.103-.04-.074.083.119.107Zm5.227 2.018-.058.15.147.056.059-.146-.148-.06Zm.007-.017.044-.154-.138-.04-.055.133.149.06Zm.523-.26-.149-.057.15.057Zm.465-1.207-.15-.058.15.058Zm-.179-.523-.148-.06-.052.126.117.07.083-.136Zm.003-.008.148.06.062-.15-.153-.06-.057.15Zm-.83-.316-.056.15.057-.15Zm-4.46-1.709-.06.15h.002l.058-.15Zm-.011-.004.059-.149h-.002l-.057.15Zm-1.227-.47.058-.149-.058.15Zm-.082-.022-.057.15.014.005.016.002.026-.157Zm-.014-.005.057-.15-.127-.048-.069.117.139.08Zm-.002.002-.02.159.105.014.053-.092-.138-.08Zm-.482.264-.142-.074.142.074Zm-1.59 1.617.076.14-.076-.14Zm-2.653.384-.033.157.033-.157Zm-3.061-3.98-.16-.009.16.008Zm1.058-2.457.116.11-.116-.11Zm5.001-.525-.09.132.09-.132Zm1.412 1.774.15-.058-.15.059Zm.552.298.042.155-.042-.155Zm1.426-.76a.2.2 0 0 1-.146.252l.083.31a.52.52 0 0 0 .366-.665l-.303.103Zm-2.247-2.97a5.878 5.878 0 0 1 2.247 2.97l.303-.103a6.197 6.197 0 0 0-2.369-3.131l-.18.264Zm-3.951-1.002a5.9 5.9 0 0 1 3.951 1.002l.181-.264A6.22 6.22 0 0 0 14.28 9.31l.034.318Zm-3.657 1.8a5.895 5.895 0 0 1 3.657-1.8l-.034-.318a6.215 6.215 0 0 0-3.855 1.897l.232.22Zm-1.609 3.736a5.869 5.869 0 0 1 1.61-3.737l-.233-.22a6.189 6.189 0 0 0-1.697 3.94l.32.017Zm1.209 3.884a5.866 5.866 0 0 1-1.209-3.884l-.32-.017a6.186 6.186 0 0 0 1.275 4.096l.254-.195Zm3.448 2.17a5.891 5.891 0 0 1-3.448-2.17l-.254.195a6.212 6.212 0 0 0 3.635 2.289l.067-.313Zm4.035-.583a5.901 5.901 0 0 1-4.035.584l-.067.313a6.222 6.222 0 0 0 4.254-.616l-.152-.281Zm1.57-1.236a5.886 5.886 0 0 1-1.57 1.236l.152.281a6.206 6.206 0 0 0 1.656-1.303l-.238-.214Zm.061.256 5.227 2.018.115-.298-5.227-2.018-.115.298Zm5.433 1.93.007-.018-.297-.12-.007.017.297.12Zm.233-.395a.272.272 0 0 1-.33.163l-.09.307a.592.592 0 0 0 .719-.355l-.299-.115Zm.465-1.208-.465 1.208.299.115.464-1.208-.298-.115Zm-.113-.328a.27.27 0 0 1 .113.328l.298.115a.59.59 0 0 0-.245-.717l-.166.274Zm.231-.077.003-.007-.296-.121-.003.007.296.121Zm-.088-.217-.83-.316-.113.299.83.316.113-.3Zm-5.405-1.726 4.462 1.708.114-.298-4.461-1.709-.115.299Zm-.012-.005.01.004.119-.297-.011-.005-.119.298Zm-1.225-.47 1.226.47.115-.298-1.227-.47-.114.299Zm-.052-.014a.28.28 0 0 1 .052.015l.114-.299a.586.586 0 0 0-.113-.031l-.053.316Zm.084-.307-.014-.005-.114.299.014.005.114-.299Zm-.21.064-.001.003.276.16.002-.002-.277-.161Zm-.203.42a.323.323 0 0 1 .32-.178l.041-.317a.643.643 0 0 0-.645.348l.284.148Zm-1.656 1.685a4.027 4.027 0 0 0 1.656-1.684l-.284-.148a3.707 3.707 0 0 1-1.524 1.55l.152.282Zm-2.762.4a4.04 4.04 0 0 0 2.762-.4l-.152-.281a3.72 3.72 0 0 1-2.543.367l-.067.314Zm-2.36-1.486a4.033 4.033 0 0 0 2.36 1.486l.067-.314a3.712 3.712 0 0 1-2.173-1.367l-.254.195Zm-.828-2.66c-.05.957.243 1.9.828 2.66l.254-.195a3.696 3.696 0 0 1-.762-2.448l-.32-.017Zm1.102-2.559a4.019 4.019 0 0 0-1.102 2.559l.32.017a3.698 3.698 0 0 1 1.014-2.355l-.232-.22Zm2.503-1.231c-.955.1-1.842.537-2.503 1.231l.232.22a3.715 3.715 0 0 1 2.304-1.133l-.033-.318Zm2.705.685a4.039 4.039 0 0 0-2.705-.685l.033.318a3.719 3.719 0 0 1 2.49.631l.182-.264Zm1.47 1.848a4.024 4.024 0 0 0-1.47-1.848l-.181.264a3.704 3.704 0 0 1 1.353 1.701l.298-.117Zm.362.202c-.142.038-.3-.046-.362-.202l-.298.117c.113.287.423.48.743.394l-.083-.31Zm1.321-.353-1.32.353.082.309 1.32-.353-.082-.31Z" mask="url(#e)"/><path fill="url(#g)" d="m20.663 13.548-.151.052.151-.052Zm-.256.46-.04-.155.04.154Zm-2.051-3.51-.09.132.09-.132Zm-4.059-1.029-.017-.159.017.16Zm-3.756 1.848-.116-.11.116.11Zm-1.653 3.839.16.008-.16-.008Zm1.242 3.99-.127.097.127-.097Zm3.542 2.23-.034.156.034-.157Zm4.144-.6-.076-.141.076.14Zm1.613-1.27.058-.15-.103-.04-.074.083.119.107Zm5.227 2.018-.058.15.147.056.059-.146-.148-.06Zm.007-.017.044-.154-.138-.04-.055.133.149.06Zm.523-.26-.149-.057.15.057Zm.465-1.207-.15-.058.15.058Zm-.179-.523-.148-.06-.052.126.117.07.083-.136Zm.003-.008.148.06.062-.15-.153-.06-.057.15Zm-.83-.316-.056.15.057-.15Zm-4.46-1.709-.06.15h.002l.058-.15Zm-.011-.004.059-.149h-.002l-.057.15Zm-1.227-.47.058-.149-.058.15Zm-.082-.022-.057.15.014.005.016.002.026-.157Zm-.014-.005.057-.15-.127-.048-.069.117.139.08Zm-.002.002-.02.159.105.014.053-.092-.138-.08Zm-.482.264-.142-.074.142.074Zm-1.59 1.617.076.14-.076-.14Zm-2.653.384-.033.157.033-.157Zm-3.061-3.98-.16-.009.16.008Zm1.058-2.457.116.11-.116-.11Zm5.001-.525-.09.132.09-.132Zm1.412 1.774.15-.058-.15.059Zm.552.298.042.155-.042-.155Zm1.426-.76a.2.2 0 0 1-.146.252l.083.31a.52.52 0 0 0 .366-.665l-.303.103Zm-2.247-2.97a5.878 5.878 0 0 1 2.247 2.97l.303-.103a6.197 6.197 0 0 0-2.369-3.131l-.18.264Zm-3.951-1.002a5.9 5.9 0 0 1 3.951 1.002l.181-.264A6.22 6.22 0 0 0 14.28 9.31l.034.318Zm-3.657 1.8a5.895 5.895 0 0 1 3.657-1.8l-.034-.318a6.215 6.215 0 0 0-3.855 1.897l.232.22Zm-1.609 3.736a5.869 5.869 0 0 1 1.61-3.737l-.233-.22a6.189 6.189 0 0 0-1.697 3.94l.32.017Zm1.209 3.884a5.866 5.866 0 0 1-1.209-3.884l-.32-.017a6.186 6.186 0 0 0 1.275 4.096l.254-.195Zm3.448 2.17a5.891 5.891 0 0 1-3.448-2.17l-.254.195a6.212 6.212 0 0 0 3.635 2.289l.067-.313Zm4.035-.583a5.901 5.901 0 0 1-4.035.584l-.067.313a6.222 6.222 0 0 0 4.254-.616l-.152-.281Zm1.57-1.236a5.886 5.886 0 0 1-1.57 1.236l.152.281a6.206 6.206 0 0 0 1.656-1.303l-.238-.214Zm.061.256 5.227 2.018.115-.298-5.227-2.018-.115.298Zm5.433 1.93.007-.018-.297-.12-.007.017.297.12Zm.233-.395a.272.272 0 0 1-.33.163l-.09.307a.592.592 0 0 0 .719-.355l-.299-.115Zm.465-1.208-.465 1.208.299.115.464-1.208-.298-.115Zm-.113-.328a.27.27 0 0 1 .113.328l.298.115a.59.59 0 0 0-.245-.717l-.166.274Zm.231-.077.003-.007-.296-.121-.003.007.296.121Zm-.088-.217-.83-.316-.113.299.83.316.113-.3Zm-5.405-1.726 4.462 1.708.114-.298-4.461-1.709-.115.299Zm-.012-.005.01.004.119-.297-.011-.005-.119.298Zm-1.225-.47 1.226.47.115-.298-1.227-.47-.114.299Zm-.052-.014a.28.28 0 0 1 .052.015l.114-.299a.586.586 0 0 0-.113-.031l-.053.316Zm.084-.307-.014-.005-.114.299.014.005.114-.299Zm-.21.064-.001.003.276.16.002-.002-.277-.161Zm-.203.42a.323.323 0 0 1 .32-.178l.041-.317a.643.643 0 0 0-.645.348l.284.148Zm-1.656 1.685a4.027 4.027 0 0 0 1.656-1.684l-.284-.148a3.707 3.707 0 0 1-1.524 1.55l.152.282Zm-2.762.4a4.04 4.04 0 0 0 2.762-.4l-.152-.281a3.72 3.72 0 0 1-2.543.367l-.067.314Zm-2.36-1.486a4.033 4.033 0 0 0 2.36 1.486l.067-.314a3.712 3.712 0 0 1-2.173-1.367l-.254.195Zm-.828-2.66c-.05.957.243 1.9.828 2.66l.254-.195a3.696 3.696 0 0 1-.762-2.448l-.32-.017Zm1.102-2.559a4.019 4.019 0 0 0-1.102 2.559l.32.017a3.698 3.698 0 0 1 1.014-2.355l-.232-.22Zm2.503-1.231c-.955.1-1.842.537-2.503 1.231l.232.22a3.715 3.715 0 0 1 2.304-1.133l-.033-.318Zm2.705.685a4.039 4.039 0 0 0-2.705-.685l.033.318a3.719 3.719 0 0 1 2.49.631l.182-.264Zm1.47 1.848a4.024 4.024 0 0 0-1.47-1.848l-.181.264a3.704 3.704 0 0 1 1.353 1.701l.298-.117Zm.362.202c-.142.038-.3-.046-.362-.202l-.298.117c.113.287.423.48.743.394l-.083-.31Zm1.321-.353-1.32.353.082.309 1.32-.353-.082-.31Z" mask="url(#e)"/></g><path fill="#0d2247" d="m50.596 18.275-1.932-.576c-.247 2.22-1.83 3.7-3.948 3.7-2.673 0-4.605-2.179-4.605-5.201 0-3.043 1.891-5.243 4.482-5.243 1.953 0 3.618 1.48 3.947 3.537l1.892-.658c-.494-2.653-2.94-4.565-5.84-4.565-3.68 0-6.332 2.92-6.332 6.929 0 4.01 2.714 6.929 6.456 6.929 3.043 0 5.387-1.933 5.88-4.852Zm6.33 4.852c2.981 0 5.14-2.262 5.14-5.387 0-3.125-2.159-5.387-5.14-5.387s-5.14 2.262-5.14 5.387c0 3.125 2.159 5.387 5.14 5.387Zm-3.413-5.387c0-2.2 1.44-3.783 3.413-3.783 1.974 0 3.413 1.583 3.413 3.783 0 2.18-1.44 3.742-3.413 3.742-1.974 0-3.413-1.563-3.413-3.742Zm23.818-1.028v6.168h1.645v-6.332c0-2.303-1.398-4.195-3.66-4.195-1.604 0-3.043.967-3.454 2.344-.576-1.418-1.83-2.344-3.372-2.344-1.46 0-2.693.823-3.125 2.036l-.288-1.789h-1.316v10.28h1.645v-5.469c0-1.953 1.254-3.372 2.837-3.372 1.44 0 2.365 1.152 2.365 2.755v6.086h1.624v-5.469c0-1.953 1.234-3.372 2.796-3.372 1.378 0 2.303 1.09 2.303 2.673Zm17.302 0v6.168h1.645v-6.332c0-2.303-1.398-4.195-3.66-4.195-1.603 0-3.042.967-3.453 2.344-.576-1.418-1.83-2.344-3.372-2.344-1.46 0-2.694.823-3.126 2.036L82.38 12.6h-1.316v10.28h1.645v-5.469c0-1.953 1.254-3.372 2.837-3.372 1.44 0 2.364 1.152 2.364 2.755v6.086h1.625v-5.469c0-1.953 1.233-3.372 2.796-3.372 1.377 0 2.302 1.09 2.302 2.673Zm9.778 1.234v.657c0 1.645-1.378 2.92-3.084 2.92-1.151 0-1.81-.555-1.81-1.357 0-.76.494-1.377 1.481-1.563l2.714-.493c.288-.062.555-.103.699-.164Zm-6.703 2.22c0 1.727 1.316 2.96 3.29 2.96 1.645 0 2.878-.74 3.475-1.932l.267 1.686h1.357l-.041-2.056v-4.77c0-2.241-1.727-3.7-3.948-3.7-2.2 0-3.865 1.541-4.07 3.659l1.809.288c.04-1.44.945-2.467 2.302-2.467 1.316 0 2.262.925 2.262 2.22v.082c0 .288-.267.514-.658.576l-3.166.576c-1.892.35-2.879 1.398-2.879 2.878Zm17.812-3.413v6.127h1.645v-6.25c0-2.488-1.665-4.277-3.989-4.277-1.644 0-2.858.864-3.392 2.139l-.226-1.892h-1.398v10.28h1.644v-5.51c0-1.953 1.419-3.372 3.126-3.372 1.542 0 2.59 1.151 2.59 2.755Zm8.2 6.374c1.542 0 2.816-.7 3.598-1.912l.205 1.665h1.398l-.041-2.056V8.899h-1.645v5.284c-.822-1.151-2.076-1.83-3.598-1.83-2.816 0-4.955 2.324-4.955 5.346 0 3.043 2.2 5.428 5.038 5.428Zm-3.311-5.387c0-2.2 1.419-3.783 3.393-3.783 2.015 0 3.474 1.583 3.474 3.783s-1.398 3.742-3.392 3.742c-2.015 0-3.475-1.583-3.475-3.742Zm11.056 5.14h6.25c2.22 0 3.947-1.583 3.947-3.619 0-1.521-.987-2.816-2.549-3.33 1.275-.555 2.056-1.686 2.056-3.002 0-1.953-1.707-3.413-3.989-3.413h-5.715V22.88Zm1.727-1.686v-4.317h4.276c1.398 0 2.426.904 2.426 2.158s-1.028 2.16-2.426 2.16h-4.276Zm0-5.962V11.16h3.947c1.337 0 2.303.863 2.303 2.035 0 1.172-.966 2.036-2.303 2.036h-3.947Zm16.275 2.714v.657c0 1.645-1.377 2.92-3.084 2.92-1.151 0-1.809-.555-1.809-1.357 0-.76.493-1.377 1.48-1.563l2.714-.493c.288-.062.555-.103.699-.164Zm-6.702 2.22c0 1.727 1.315 2.96 3.289 2.96 1.645 0 2.879-.74 3.475-1.932l.267 1.686h1.357l-.041-2.056v-4.77c0-2.241-1.727-3.7-3.948-3.7-2.2 0-3.865 1.541-4.07 3.659l1.809.288c.041-1.44.946-2.467 2.303-2.467 1.315 0 2.261.925 2.261 2.22v.082c0 .288-.267.514-.658.576l-3.166.576c-1.892.35-2.878 1.398-2.878 2.878Zm10.451 2.714h1.645v-5.921c0-1.604 1.028-2.755 2.467-2.755.329 0 .822.082 1.233.329l.083-1.933a3.042 3.042 0 0 0-1.152-.247c-1.192 0-2.179.761-2.673 1.954l-.205-1.707h-1.398v10.28Z"/><defs><linearGradient id="a" x1=".767" x2="25.948" y1="1.246" y2="24.588" gradientUnits="userSpaceOnUse"><stop/><stop offset=".368" stop-color="#0d2247"/><stop offset=".636" stop-color="#0d2247"/><stop offset="1"/></linearGradient><linearGradient id="c" x1="7.68" x2="26.04" y1="10.44" y2="21.52" gradientUnits="userSpaceOnUse"><stop stop-color="#fff"/><stop offset=".225" stop-color="#fff"/><stop offset=".367" stop-color="#D5D8DB"/><stop offset=".43" stop-color="#fff"/><stop offset=".812" stop-color="#fff"/><stop offset=".861" stop-color="#F8F8F8"/><stop offset=".902" stop-color="#fff"/><stop offset="1" stop-color="#fff"/></linearGradient><linearGradient id="d" x1="22.345" x2="16.824" y1="10.503" y2="20.554" gradientUnits="userSpaceOnUse"><stop stop-color="#BFBFBF"/><stop offset="1" stop-color="#fff" stop-opacity=".22"/></linearGradient><linearGradient id="f" x1="15.12" x2="15.6" y1="21" y2="19.6" gradientUnits="userSpaceOnUse"><stop stop-color="#001AFF" stop-opacity=".16"/><stop offset="1" stop-color="#FFF500" stop-opacity="0"/></linearGradient><linearGradient id="g" x1="14.12" x2="14.8" y1="9.88" y2="11.24" gradientUnits="userSpaceOnUse"><stop stop-color="#FFA41D" stop-opacity=".31"/><stop offset="1" stop-opacity="0"/></linearGradient><filter id="b" width="19.04" height="14.328" x="7.76" y="8.636" color-interpolation-filters="sRGB" filterUnits="userSpaceOnUse"><feFlood flood-opacity="0" result="BackgroundImageFix"/><feColorMatrix in="SourceAlpha" result="hardAlpha" values="0 0 0 0 0 0 0 0 0 0 0 0 0 0 0 0 0 0 127 0"/><feOffset dy=".32"/><feGaussianBlur stdDeviation=".56"/><feComposite in2="hardAlpha" operator="out"/><feColorMatrix values="0 0 0 0 0 0 0 0 0 0 0 0 0 0 0 0 0 0 1 0"/><feBlend in2="BackgroundImageFix" result="effect1_dropShadow_907_64619"/><feColorMatrix in="SourceAlpha" result="hardAlpha" values="0 0 0 0 0 0 0 0 0 0 0 0 0 0 0 0 0 0 127 0"/><feOffset dy=".32"/><feComposite in2="hardAlpha" operator="out"/><feColorMatrix values="0 0 0 0 0.42099 0 0 0 0 0.480927 0 0 0 0 0.570833 0 0 0 1 0"/><feBlend in2="effect1_dropShadow_907_64619" result="effect2_dropShadow_907_64619"/><feBlend in="SourceGraphic" in2="effect2_dropShadow_907_64619" result="shape"/></filter></defs></svg>