<svg viewBox="0 0 80 34" version="1.1" xmlns="http://www.w3.org/2000/svg" xmlns:xlink="http://www.w3.org/1999/xlink" data-v-e59d25d2=""><g id="Page-1" stroke="none" stroke-width="1" fill="none" fill-rule="evenodd" data-v-e59d25d2=""><g id="Duro-PDP-Product-3---R4-" transform="translate(-39.000000, -25.000000)" fill="#0d2247" fill-rule="nonzero" data-v-e59d25d2=""><path d="M46.5903919,50.025265 C46.5903919,51.7114912 47.6652971,52.1107037 48.5120101,52.1107037 L49.1125158,52.1107037 L49.1125158,58.0691002 C48.1457504,58.6998705 47.0085349,59.0240457 45.8517699,58.99861 C41.8163717,59.0343604 39,56.8595457 39,50.3887272 L39,42.1065561 C39,35.6357376 41.8163717,33.4609229 45.8337547,33.4609229 C46.9999908,33.4174371 48.1475059,33.7613233 49.0945006,34.4380999 L49.0945006,40.3964964 L48.4939949,40.3964964 C47.6472819,40.3964964 46.5723767,40.7957089 46.5723767,42.4759767 L46.5903919,50.025265 Z M58,58.623231 L50.4096081,58.623231 L50.4096081,25 L57.9819848,25 L58,58.623231 Z M62,34 L69.5555204,34 L69.5555204,58.8412138 C64.6807972,58.1413785 62,54.6422018 62,49.3081628 L62,34 Z M73.4204366,34 L81,34 L81,49.2905199 C81,55.2832275 77.4236001,59 71.5210376,59 L70.919962,59 L70.919962,52.4368384 C71.1177351,52.4755744 71.3194857,52.491366 71.5210376,52.4838861 C72.326479,52.4838861 73.4444796,52.0898612 73.4444796,50.4255469 L73.4204366,34 Z M92.3562698,59 L85,59 L85,34.2687205 L92.3562698,34.2687205 L92.3562698,59 Z M98,34.0912232 L98,41.0431978 L93.6274332,41.0431978 L93.6274332,34.9727928 C94.5568439,34.3080655 95.6770501,33.9672925 96.8171118,34.0024746 C97.2126706,34.0114415 97.6074989,34.0410643 98,34.0912232 Z M109.475949,59 C103.463291,59 100,55.3247267 100,49.39893 L100,43.4731333 C100,38.37311 102.723734,34.8664806 107.551899,34.133752 L107.551899,50.4805769 C107.551899,52.1263084 108.628165,52.5159339 109.475949,52.5159339 L110.077215,52.5159339 L110.077215,59 L109.475949,59 Z M108.874684,40.4898814 L108.874684,34 L109.475949,34 C115.422468,34 119,37.7217958 119,43.4731333 L119,49.39893 C119,54.6327053 116.186076,58.1218888 111.442089,58.8255408 L111.442089,42.5426843 C111.442089,40.8969528 110.371835,40.5073273 109.475949,40.5073273 L108.874684,40.4898814 Z" id="Combined-Shape" data-v-e59d25d2=""></path></g></g></svg>