<svg fill="none" height="31" viewBox="0 0 107 31" width="107" xmlns="http://www.w3.org/2000/svg"><g clip-rule="evenodd" fill="#0d2247" fill-rule="evenodd"><path d="m104.726 8.56083c-.95-1.10123-2.279-1.63286-3.988-1.63286-2.2021 0-4.1008.91137-5.6956 2.77207v-7.86053c0-.07595-.038-.11392-.114-.11392h-2.2784c-.0759 0-.1139.03797-.1139.11392v19.82219c0 .076.038.1139.1139.1139h2.2784c.076 0 .114-.0379.114-.1139v-7.3289c0-.7595.1898-1.5569.5316-2.3164.3417-.7594.8734-1.443 1.5949-1.9746.7215-.53163 1.6328-.79744 2.6961-.79744 1.177 0 2.127.41771 2.772 1.21514.684.7975 1.025 2.0886 1.025 3.8353v7.3669c0 .076.038.1139.114.1139h2.279c.076 0 .114-.0379.114-.1139v-8.4301c0-2.0126-.494-3.6075-1.443-4.67077zm-13.8611-1.25327h-3.1898v-3.22776c0-.07594-.038-.11392-.1139-.11392h-2.2405c-.0759 0-.1139.03798-.1139.11392v3.22776h-1.6329c-.0759 0-.1139.03797-.1139.11392v2.12652c0 .07595.038.11392.1139.11392h1.6329v7.40488c0 1.5569.4177 2.7721 1.2531 3.5695.7595.7215 1.8608 1.1392 3.1519 1.1392h1.2151c.076 0 .1139-.038.1139-.1139l-.0759-2.0126c0-.038-.038-.1139-.1139-.1139h-.8734c-1.4051 0-2.2405-.8734-2.2405-2.3924v-7.51875h3.1898c.076 0 .1139-.03797.1139-.11392v-2.12652c.038-.03798-.0379-.07595-.0759-.07595zm-12.7971.49374c.2658-.15189.5696-.30379.8734-.41771 1.7088-.5696 3.6075.34176 3.6075.34176s-.8354 1.82273-2.5063 2.39235c-.9113.3038-1.9366.1519-2.6201-.038-.7595-.11391-1.0253.6835-1.1013 1.6709v2.5822.3037.3798 6.5694c0 .076-.0379.1139-.1139.1139h-2.2784c-.076 0-.1139-.0379-.1139-.1139v-14.354c0-.07595.0379-.11393.1139-.11393h2.1265c.076 0 .1139.07595.1139.11393l.1139 2.7721c.019-.05699.0475-.10446.076-.15193.0285-.04746.057-.09493.0759-.15189.0235-.02345.0614-.09033.1138-.18276l.0001-.00018v-.00005l.0002-.00032.0003-.00047c.0323-.05705.0702-.12376.1135-.19596.2658-.49365.6076-.87339.9114-1.1392.0759-.11393.1898-.18987.3037-.26582.019 0 .0285-.00949.038-.01899.0095-.00949.019-.01898.038-.01898.019-.01899.038-.02848.057-.03798.0189-.00949.0379-.01898.0569-.03797zm-6.6836-.60741h-2.1645c-.076 0-.1139.03797-.1139.11392l-.114 3.45559c-.4936-1.1392-1.2531-2.05057-2.3164-2.77206-1.0632-.7215-2.2784-1.06327-3.6834-1.06327-1.3671 0-2.5822.34177-3.6835 1.02529-1.1012.68353-1.9746 1.59489-2.6201 2.73414-.6456 1.1771-.9494 2.4303-.9494 3.7973 0 1.3671.3038 2.6582.9494 3.7974.6455 1.1772 1.4809 2.0885 2.6201 2.7721 1.1013.6835 2.3164 1.0252 3.6835 1.0252 1.367 0 2.6202-.3417 3.6834-1.0632 1.0633-.7215 1.8228-1.6329 2.3164-2.7721l.114 3.4556c0 .076.0379.1139.1139.1139h2.1645c.0759 0 .1139-.0379.1139-.1139v-14.39199c0-.07595-.038-.11392-.1139-.11392zm-3.3037 9.91111c-.4557.7974-1.1013 1.443-1.8987 1.8987-.7975.4557-1.6709.7215-2.6582.7215-.9493 0-1.8227-.2279-2.6581-.7215-.7975-.4937-1.443-1.1392-1.8987-1.9367-.4557-.7974-.7215-1.6708-.7215-2.6202 0-.9113.2278-1.7847.7215-2.5822.4557-.7974 1.1012-1.443 1.8987-1.89864.7974-.45568 1.6708-.7215 2.6581-.7215s1.8607.22785 2.6582.7215c.7974.45564 1.405 1.10124 1.8987 1.89864.4557.7975.6835 1.6709.6835 2.6202 0 .9114-.2278 1.7848-.6835 2.6202zm-20.9232-10.21513c1.443 0 2.6961.37974 3.7973 1.06326 1.1013.7215 1.9747 1.63287 2.5443 2.84807.6075 1.1771.9113 2.4682.9113 3.8353v.6455h-12.0756c.038 1.3291.5316 2.3924 1.443 3.2658.9494.8734 2.1265 1.2911 3.6075 1.2911 1.1012 0 2.0126-.2658 2.7721-.7595.7215-.4937 1.2531-1.0633 1.6329-1.7468.0379-.038.1139-.0759.1518-.038l1.7468.8734c.038.038.076.1139.038.1519-.2278.4177-.4936.8734-.8734 1.3291-.5696.6835-1.3291 1.2531-2.2784 1.7088s-2.0126.6835-3.1898.6835c-1.443 0-2.7341-.3417-3.8733-.9873-1.1392-.6455-2.0126-1.5569-2.6582-2.7341-.6455-1.1392-.9493-2.4683-.9493-3.9113 0-1.367.3038-2.6201.9114-3.7593.6075-1.13925 1.4809-2.05062 2.5822-2.73414 1.1012-.68353 2.3543-1.02529 3.7594-1.02529zm-4.8207 6.53143h9.5674c-.038-.7594-.2658-1.4809-.6836-2.1265-.3797-.6455-.9493-1.1772-1.6708-1.59488-.7215-.41771-1.5189-.60758-2.4303-.60758-.8734 0-1.6708.18987-2.3923.5696-.7215.37976-1.2912.91136-1.7089 1.59486-.411.6727-.6382 1.3821-.6815 2.1645z"/><path d="m6.67768 27.9656c2.43032 1.5949 5.08842 2.3544 8.35422 2.3544.6835 0 1.367-.038 2.0885-.1899 2.0506-.1519 3.5316-.6075 4.9366-1.4809 1.2911-.7975 2.5063-1.9747 4.0252-3.4556.3418-.3418.6835-.6836 1.0633-1.0253 1.1772-1.1013 2.6581-3.3037 3.0379-7.3289.2658-2.5063-.038-4.8986-.4557-5.9239-.7595-1.89869-2.4303-5.39226-5.2404-7.70865-3.0379-2.468282-5.734-2.999913-7.9744-3.1518073-2.4304-.1898677-4.7088.1139203-6.94922.8733923-.87339.303785-2.24045.911365-3.72142 2.126525-1.51894 1.25313-2.84802 2.81004-3.94926 4.67075-1.101232 1.89868-1.70881 4.06319-1.8607049 6.45549-.1139209 1.8228.0759469 3.7594.5316309 5.772.379736 1.5569 1.139214 3.1138 2.354364 4.5948 1.02529 1.2911 2.35437 2.4683 3.75939 3.4176zm2.99992-26.58148c1.7468-.607579 3.5695-.911368 5.4302-.911368.4557 0 .9114 0 1.3671.037974 1.481.113921 2.6581.341762 3.7973.759474 1.3671.49365 2.6582 1.25313 3.9493 2.31639 2.7341 2.27841 4.367 5.69604 5.1644 7.44281.6835 1.7848 1.2911 9.2276-2.4683 12.8351-.3797.3418-.7215.6835-1.0632 1.0253-3.0379 2.9999-4.5948 4.5188-8.696 4.8606-2.2404.1899-4.1391.0759-5.8479-.3038-1.55695-.3418-2.99995-.9493-4.367-1.8607-1.40503-.9114-2.65816-2.0506-3.68345-3.3037-1.17718-1.405-1.93665-2.924-2.278414-4.4049-.455684-1.9367-.645552-3.8354-.531631-5.6581.113921-2.3544.721495-4.44292 1.784765-6.26565 2.65815-4.51886 6.11375-6.11375 7.44283-6.56943zm-1.55683 24.75888c2.05053 1.367 4.29103 2.0126 7.10103 2.0126.4983 0 1.03-.0334 1.595-.0688l.1139-.0072c3.5345-.2976 4.9912-1.6524 7.5846-4.0644l.162-.1506.8354-.8354c1.7848-1.7089 2.3544-4.329 2.5442-6.1897.1899-2.0886-.0379-4.1392-.3797-5.0126-.4937-1.2531-1.8987-4.40489-4.4049-6.53141-1.2152-1.02529-2.5063-1.78476-3.8354-2.20247-.9114-.26582-1.8607-.45568-2.9999-.53163-2.0506-.1519-3.9872.11392-5.8479.75947-.75951.26582-1.89872.75947-3.15185 1.78476-1.29111 1.02529-2.43032 2.35436-3.34168 3.91128-.94935 1.5569-1.48098 3.3797-1.5949 5.4302-.07594 1.5569.07595 3.2278.45569 4.9366.30379 1.3291.94934 2.6202 1.97463 3.8733.87339 1.1012 1.97462 2.0885 3.18978 2.886zm2.58223-22.4424c1.481-.49366 2.9999-.75948 4.5948-.75948.3418 0 .6835 0 1.0253.03798 1.1012.07595 2.0126.26581 2.886.53163 1.2911.41771 2.5442 1.13921 3.7214 2.12652 2.4303 2.05057 3.7973 5.12645 4.291 6.34155.5696 1.481 1.0633 7.7087-2.0885 10.7466l-.8355.8354-.1383.1324c-2.5657 2.4567-3.8721 3.7076-7.3045 3.9687h-.0001c-.5696.038-1.1391.076-1.6707.076-2.6962 0-4.8607-.6076-6.87326-1.9367-1.13921-.7974-2.20247-1.7468-3.07587-2.81-.98731-1.2152-1.59489-2.4683-1.89868-3.7214-.34176-1.6709-.49365-3.3037-.41771-4.8227.11392-1.9746.60758-3.7214 1.51895-5.24033 2.24044-3.79736 5.12644-5.12644 6.26567-5.50617zm4.6327 22.0625c-2.3164 0-4.1771-.5316-5.88588-1.6708-.98731-.6456-1.8607-1.481-2.5822-2.3544-.83542-1.0253-1.36705-2.0886-1.5949-3.1898-.30379-1.405-.41771-2.7721-.34176-4.0632.11392-1.6708.53163-3.1518 1.2911-4.4429.75948-1.2531 1.67084-2.31636 2.69613-3.15178s1.97461-1.25313 2.54421-1.443c1.519-.53163 3.0379-.7215 4.7467-.60758.9873.07595 1.7468.18987 2.5063.45569 1.1392.37973 2.2025.98731 3.1898 1.8607 1.7088 1.48097 2.9619 3.75937 3.5695 5.35427.4937 1.3291.8734 6.5694-1.8227 9.1516-.1535.1279-.2898.2731-.4204.4122l-.0001.0001c-.0632.0674-.1252.1334-.1871.1953l-.0097.0094c-2.1964 2.1206-3.4123 3.2947-6.4079 3.5222-.4177-.038-.8354-.038-1.2911-.038zm.038-20.54372c-1.3291 0-2.5442.18987-3.7594.60758-.9113.30378-3.22774 1.40502-5.05047 4.44294-.7215 1.2151-1.13921 2.6581-1.25313 4.253-.07595 1.2531.03797 2.5822.34176 3.9493.22784 1.0253.75947 2.0505 1.51894 2.9999.68353.8734 1.55692 1.6328 2.50626 2.2784 1.63284 1.1012 3.41764 1.5949 5.65804 1.5949.4177 0 .8355 0 1.2532-.038 2.848-.2278 3.9492-1.2911 6.1517-3.4176.0618-.0619.1277-.1237.195-.1869l.0003-.0002v-.0001h.0001c.1391-.1307.2843-.2669.4122-.4204 1.367-1.3291 1.8227-3.3417 1.9746-4.7847.1899-1.8607-.0759-3.3796-.2658-3.9112-.5696-1.557-1.7848-3.75943-3.4556-5.20243-.9494-.83542-1.9746-1.40502-3.0379-1.74678-.7215-.22784-1.481-.37974-2.3923-.41771zm-4.7465 17.01222c1.3291.9114 2.81 1.3291 4.6707 1.3291.3038 0 .6076 0 .8734.0379 2.3924-.1518 3.4556-1.1392 5.1644-2.81l.3798-.3797c1.1012-1.1013 1.5189-2.7341 1.6329-3.9113.1518-1.481-.038-2.7341-.1899-3.1898-.3038-.9114-1.2531-2.848-2.7341-4.1771-.7215-.68352-1.6329-1.21515-2.5443-1.51894-.5696-.18987-1.2151-.30379-2.0126-.34176-1.329-.07595-2.5062.11392-3.6454.49366-.7215.22784-2.62021 1.10123-4.0632 3.53154-.56961.9873-.94935 2.1645-1.02529 3.4556-.07595.9873.03797 2.0885.26581 3.1898.34177 1.5569 1.51895 3.1518 3.22778 4.291zm1.7468-14.08821c.9113-.34176 1.8607-.49366 2.9239-.49366.1899 0 .3798 0 .6076.03798.7215.03797 1.3291.11392 1.8987.30379.8354.26581 1.6708.75947 2.3923 1.40502 1.4051 1.29108 2.3164 3.15178 2.6202 4.02518.1139.4177.3038 1.5949.1519 2.9999-.1139 1.1013-.4936 2.6582-1.5189 3.6455-.0773.103-.172.1885-.2605.2685-.042.0379-.0826.0746-.1193.1112l-.0108.0104c-1.702 1.6264-2.6521 2.5342-4.8878 2.6858-2.2024.1519-3.8353-.2279-5.3163-1.2152-1.59487-1.0633-2.77205-2.5822-3.07584-4.0632-.22784-1.0632-.30379-2.0885-.22784-3.0758.07594-1.2152.41771-2.3164.98731-3.2658 1.36705-2.31635 3.15177-3.15177 3.83537-3.37961zm3.1133 12.87291c-1.3671 0-2.5063-.3038-3.4936-.9873-1.2151-.7975-2.05055-1.9746-2.27839-3.0759-.22785-1.0632-.41771-3.0758.60759-4.7846 1.0253-1.6709 2.3543-2.27846 2.848-2.46833.7595-.26582 1.5949-.37974 2.5442-.34176.6076.03797 1.1013.11392 1.519.22784.6835.22784 1.405.64555 1.8987 1.17715.9493.9114 1.6708 2.2025 1.8987 2.9999.1139.4178.1898 1.3291.0759 2.2785-.1139.8354-.3797 1.9746-1.1772 2.7341l-.1519.1519c-1.2911 1.2531-2.0885 2.0126-3.8353 2.0885zm-.0759-11.27816c-.7595 0-1.443.11392-2.0886.34176-.4557.1519-1.6708.7215-2.6582 2.3164-.4177.6835-1.02524 2.1645-.5696 4.4809.2279 1.0253.9874 2.0885 2.1266 2.81 1.0253.6835 2.1645.9494 3.6834.9114 1.5898-.074 2.2797-.7238 3.5065-1.8795l.101-.0951.1519-.1519c.7215-.6836.9873-1.7468 1.0633-2.5063.1139-.9493 0-1.7847-.076-2.0885-.2278-.7595-.9114-1.9747-1.8227-2.8481-.4937-.4556-1.1392-.8733-1.7468-1.06322-.3797-.11392-.8354-.18986-1.405-.22784zm-2.2406 8.46826c.6076.4557 1.3291.6456 2.2784.6456 1.149 0 1.7915-.5788 2.5278-1.2421l.0544-.049c.8355-.7975.8355-2.4304.7215-2.924-.1139-.5696-.6075-1.3291-1.0632-1.8607-.3418-.3798-.9114-.7215-1.2911-.8354-.3798-.114-.7215-.1899-1.0633-.1519h-.0759c-.4937.0379-.9114.0759-1.3291.2278-.3418.1519-1.0633.4937-1.6329 1.405-.6835 1.0253-.5696 2.2785-.4557 2.924.1899.9873.9874 1.6329 1.3291 1.8607zm-.9493-1.9366c-.1139-.5696-.1899-1.7089.3797-2.6202.5316-.7975 1.1392-1.1392 1.443-1.2532.3798-.1139.7595-.1518 1.2531-.1898h.076c.2658-.038.5696 0 .8354.0759.3418.1139.8354.3798 1.1012.7215.4937.5696.9114 1.2911.9874 1.6709.1139.4556.0759 1.8986-.6076 2.5442-.7975.7595-1.3291 1.2152-2.2784 1.2152-.8355 0-1.481-.1899-2.0506-.5697-.8734-.6075-1.1012-1.329-1.1392-1.5948zm3.1141.3038c-.076 0-.1519 0-.2279-.0379-.8354-.2658-.9493-.7595-.9873-.9494-.038-.4936.0759-.8734.3038-1.1012.1899-.1899.3797-.3038.6835-.3797.1899-.038.4177-.038.5696.0379.038 0 .5696.1899.6835.5696 0 .0556.0204.0909.0462.1356.0095.0164.0196.034.0298.0543.0759.1519.1519.3038.1139.4937-.0066.0198-.0144.0513-.0241.0906-.0461.1863-.1362.5501-.3556.7068-.1139.1139-.4937.3797-.8354.3797zm-.114-2.0885c-.2278.038-.3417.1139-.4936.2658-.1519.1139-.1899.4177-.1899.7595.038.3797.5316.5696.6835.6076.1899.0759.4937-.114.7215-.3038.076-.076.1899-.3418.2279-.5696 0-.038-.038-.1519-.076-.2279-.019-.0379-.0379-.0854-.0569-.1329-.019-.0474-.038-.0949-.057-.1329-.038-.0759-.2658-.2278-.4177-.3038-.076.038-.2278.038-.3418.038z"/></g></svg>