
<svg viewBox="0 0 140 36" version="1.1" xmlns="http://www.w3.org/2000/svg" xmlns:xlink="http://www.w3.org/1999/xlink">
    <!-- Generator: Sketch 59.1 (86144) - https://sketch.com -->
    <title>Logos/logo-hometap</title>
    <desc>Created with Sketch.</desc>
    <g id="Symbols" stroke="none" stroke-width="1" fill="none" fill-rule="evenodd">
        <g id="Components/Header---Mobile" transform="translate(-15.000000, -12.000000)">
            <g id="Logos/logo-hometap">
                <g transform="translate(15.000000, 11.000000)">
                    <g id="hometap-logo-horizontal" transform="translate(0.000000, 1.296296)">
                        <path d="M134.029851,27.3432836 C132.41791,27.3432836 130.925373,26.7462687 130.089552,25.641791 L130.089552,31.1940299 L127.61194,32.0597015 L127.61194,15.2835821 L130.089552,15.2835821 L130.089552,16.9253731 C131.044776,15.7313433 132.477612,15.0149254 134,15.0447761 C137.074627,15.0447761 139.850746,17.4029851 139.850746,21.1641791 C139.850746,24.9552239 136.985075,27.3432836 134.029851,27.3432836 L134.029851,27.3432836 Z M119.462687,25.0149254 C121.58209,25.0149254 123.164179,23.2835821 123.164179,21.1641791 C123.104478,19.1044776 121.373134,17.5223881 119.343284,17.5820896 C117.313433,17.641791 115.701493,19.3731343 115.761194,21.4029851 C115.820896,23.4328358 117.462687,25.0149254 119.462687,25.0149254 Z M133.791045,25.0149254 C135.910448,25.0149254 137.492537,23.2835821 137.492537,21.1641791 C137.432836,19.1044776 135.701493,17.5223881 133.671642,17.5820896 C131.641791,17.641791 130.029851,19.3731343 130.089552,21.4029851 C130.149254,23.4328358 131.791045,25.0149254 133.791045,25.0149254 Z M119.104478,27.3134328 C116.119403,27.3134328 113.283582,24.9253731 113.283582,21.1940299 C113.283582,17.4328358 116.059701,15.0746269 119.134328,15.0746269 C120.626866,15.0447761 122.059701,15.7014925 123.014925,16.8358209 L123.014925,15.3134328 L125.522388,15.3134328 L125.522388,27.0746269 L123.014925,27.0746269 L123.014925,25.4626866 C122.059701,26.6268657 120.626866,27.3134328 119.104478,27.3134328 L119.104478,27.3134328 Z" id="Shape" fill="#0d2247" fill-rule="nonzero"></path>
                        <path d="M107.164179,10.8955224 L109.641791,10 L109.641791,15.0447761 L112.089552,15.0447761 L112.089552,17.3432836 L109.641791,17.3432836 L109.641791,22.0895522 C109.641791,24.238806 109.970149,24.5671642 112.089552,24.5671642 L112.089552,26.9850746 L111.731343,26.9850746 C108.238806,26.9850746 107.19403,25.8507463 107.19403,22.0895522 L107.19403,17.3134328 L105.253731,17.3134328 L105.253731,15.0149254 L107.19403,15.0149254 L107.164179,10.8955224 Z" id="Path" fill="#0d2247" fill-rule="nonzero"></path>
                        <path d="M98.5373134,17.2835821 C96.8656716,17.2537313 95.4029851,18.3283582 94.9253731,19.9104478 L102.029851,19.9104478 C101.671642,18.238806 100.358209,17.2835821 98.5373134,17.2835821 Z M101.910448,23.3134328 L104.179104,24.119403 C103.134328,26.0597015 101.253731,27.3134328 98.6268657,27.3134328 C94.8955224,27.3134328 92.3880597,24.6567164 92.3880597,21.2537313 C92.3283582,17.9104478 95.0149254,15.1641791 98.358209,15.0746269 C98.4179104,15.0746269 98.4776119,15.0746269 98.5373134,15.0746269 C102.029851,15.0746269 104.626866,17.5820896 104.626866,21.0746269 L104.626866,22.0597015 L94.8358209,22.0597015 C95.1641791,23.880597 96.5970149,25.0746269 98.6567164,25.0746269 C99.9701493,25.1044776 101.223881,24.4477612 101.910448,23.3134328 L101.910448,23.3134328 Z" id="Shape" fill="#0d2247" fill-rule="nonzero"></path>
                        <path d="M72.0895522,27.1641791 L72.0895522,15.4626866 L74.5970149,15.4626866 L74.5970149,16.8656716 C75.4029851,15.7910448 76.7164179,15.1641791 78.0895522,15.2238806 C79.9701493,15.2238806 81.3134328,16.0298507 82,17.3432836 C82.8656716,16 84.3880597,15.1940299 86,15.2238806 C89.2238806,15.2238806 90.8955224,17.1343284 90.8955224,20.1492537 L90.8955224,27.1641791 L88.3283582,27.1641791 L88.3283582,20.2985075 C88.3283582,18.5373134 87.3432836,17.4029851 85.5820896,17.4029851 C84,17.4029851 82.7761194,18.4776119 82.7761194,20.5671642 L82.7761194,27.1641791 L80.2089552,27.1641791 L80.2089552,20.1791045 C80.2089552,18.4776119 79.2238806,17.4029851 77.5223881,17.4029851 C75.8507463,17.4029851 74.6268657,18.5074627 74.6268657,20.6567164 L74.6268657,27.1641791 L72.0895522,27.1641791 Z" id="Path" fill="#0d2247" fill-rule="nonzero"></path>
                        <path d="M64.2089552,24.9552239 C66.2985075,24.8656716 67.9104478,23.1044776 67.8208955,21.0447761 C67.7313433,19.0746269 66.1791045,17.5223881 64.2089552,17.4328358 C62.1791045,17.4328358 60.6268657,19.1343284 60.6268657,21.1940299 C60.5970149,23.2537313 62.1791045,24.9552239 64.2089552,24.9552239 L64.2089552,24.9552239 Z M64.2089552,27.3134328 C60.8358209,27.3134328 58.0895522,24.5970149 58.0597015,21.2238806 C58.0298507,17.8507463 60.7761194,15.1044776 64.1492537,15.0746269 C67.5223881,15.0746269 70.2686567,17.7910448 70.2985075,21.1641791 C70.2985075,21.1641791 70.2985075,21.1641791 70.2985075,21.1940299 C70.3283582,24.5373134 67.641791,27.2835821 64.2985075,27.3134328 C64.2686567,27.3134328 64.238806,27.3134328 64.2089552,27.3134328 L64.2089552,27.3134328 Z" id="Shape" fill="#0d2247" fill-rule="nonzero"></path>
                        <path d="M45.2238806,27.0149254 L45.2238806,10.8955224 L47.761194,10 L47.761194,16.5671642 C48.6567164,15.4328358 50,14.8059701 51.4328358,14.8059701 C54.4477612,14.8059701 56.2686567,16.7761194 56.2686567,20.0298507 L56.2686567,27.0149254 L53.6716418,27.0149254 L53.6716418,20.2686567 C53.6716418,18.2686567 52.7164179,17.0447761 50.7761194,17.0447761 C49.0746269,17.0447761 47.761194,18.3283582 47.761194,20.4477612 L47.761194,27.0149254 L45.2238806,27.0149254 L45.2238806,27.0149254 Z" id="Path" fill="#0d2247" fill-rule="nonzero"></path>
                        <g id="Group" fill-rule="nonzero">
                            <path d="M29.8507463,26.7164179 L29.7313433,26.7761194 L29.3432836,26.9253731 C25.641791,27.9104478 21.8507463,28.3880597 18.0298507,28.3880597 C13.9701493,28.4477612 9.94029851,27.880597 6.05970149,26.7462687 L6.05970149,26.7462687 L5.97014925,26.7164179 L1.1641791,23.8208955 C2.95522388,28.8656716 6.92537313,32.8358209 12,34.6567164 L12,34.6567164 L12,34.6567164 C15.8208955,36 20,36 23.8208955,34.6567164 L23.8208955,34.6567164 L23.8208955,34.6567164 C28.8656716,32.8656716 32.8656716,28.8955224 34.6567164,23.8208955 L29.8507463,26.7164179 Z" id="Path" fill="#0d2247"></path>
                            <path d="M35.6716418,17.9104478 L33.3731343,21.1641791 L29.7313433,26.7761194 L23.7910448,34.6567164 C28.8358209,32.8656716 32.8358209,28.8955224 34.6268657,23.8208955 L34.6268657,23.8208955 L34.6268657,23.8208955 C35.3432836,21.9402985 35.6716418,19.9402985 35.6716418,17.9104478 L35.6716418,17.9104478 Z" id="Path" fill="#0d2247"></path>
                            <path d="M6.05970149,26.7761194 L2.44776119,21.1641791 L0.149253731,17.9104478 L0.149253731,17.9104478 C0.149253731,19.9402985 0.47761194,21.9402985 1.1641791,23.8208955 L1.1641791,23.8208955 L1.1641791,23.8208955 C2.95522388,28.8656716 6.92537313,32.8358209 12,34.6567164 L6.05970149,26.7761194 Z" id="Path" fill="#0d2247"></path>
                            <path d="M4.68656716,6.05970149 C1.76119403,9.31343284 0.149253731,13.5522388 0.149253731,17.9104478 L0.149253731,17.9104478 C0.149253731,19.9402985 0.47761194,21.9402985 1.1641791,23.8208955 L1.1641791,23.8208955 L1.1641791,23.8208955 C2.14925373,26.6268657 3.85074627,29.1343284 6.05970149,31.1343284 L6.05970149,4.68656716 C5.58208955,5.10447761 5.13432836,5.58208955 4.68656716,6.05970149 Z" id="Path" fill="#0d2247"></path>
                            <path d="M35.6716418,17.9104478 C35.6716418,12.8656716 33.5223881,8.05970149 29.761194,4.68656716 L29.761194,31.1343284 C31.9701493,29.1343284 33.6716418,26.6268657 34.6567164,23.8208955 L34.6567164,23.8208955 L34.6567164,23.8208955 C35.3432836,21.9402985 35.6716418,19.9402985 35.6716418,17.9104478 L35.6716418,17.9104478 Z" id="Path" fill="#0d2247"></path>
                            <path d="M34.6567164,12 C32.8656716,6.95522388 28.8955224,2.95522388 23.8208955,1.1641791 L23.8208955,1.1641791 L23.8208955,1.1641791 C20,-0.179104478 15.8208955,-0.179104478 12,1.1641791 L17.9104478,5.34328358 L29.7313433,13.7313433 L35.641791,17.9104478 C35.6716418,15.880597 35.3134328,13.880597 34.6567164,12 Z" id="Path" fill="#0d2247"></path>
                            <path d="M17.9104478,31.8507463 L12,34.6567164 C15.8208955,36 20,36 23.8208955,34.6567164 L17.9104478,31.8507463 Z" id="Path" fill="#0d2247"></path>
                            <path d="M17.9104478,0.149253731 C15.9104478,0.149253731 13.9104478,0.507462687 12,1.1641791 L12,1.1641791 L12,1.1641791 C4.89552239,3.67164179 0.149253731,10.3880597 0.149253731,17.9104478 L6.05970149,13.7313433 L17.9104478,5.34328358 L23.8208955,1.1641791 C21.9104478,0.507462687 19.9104478,0.149253731 17.9104478,0.149253731 Z" id="Path" fill="#0d2247"></path>
                            <path d="M6.05970149,4.68656716 L6.05970149,13.7313433 L12,1.1641791 C9.82089552,1.94029851 7.79104478,3.13432836 6.05970149,4.68656716 Z" id="Path" fill="#0d2247"></path>
                            <path d="M4.68656716,6.05970149 C1.76119403,9.31343284 0.149253731,13.5522388 0.149253731,17.9104478 L6.05970149,13.7313433 L6.05970149,4.68656716 C5.58208955,5.10447761 5.13432836,5.58208955 4.68656716,6.05970149 Z" id="Path" fill="#0d2247"></path>
                            <polygon id="Path" fill="#0d2247" points="12 1.1641791 12 1.1641791 12 1.1641791 6.05970149 13.7313433 6.05970149 13.7313433 17.9104478 5.34328358 17.9104478 5.34328358"></polygon>
                            <path d="M0.149253731,17.9104478 L0.149253731,17.9104478 C0.149253731,19.9402985 0.47761194,21.9402985 1.1641791,23.8208955 L2.44776119,21.1343284 L0.149253731,17.9104478 Z" id="Path" fill="#0d2247"></path>
                            <path d="M6.05970149,26.7761194 L6.05970149,31.1641791 C7.79104478,32.7164179 9.79104478,33.9104478 12,34.6865672 L6.05970149,26.7761194 Z" id="Path" fill="#0d2247"></path>
                            <polygon id="Path" fill="#0d2247" points="2.44776119 21.1641791 1.1641791 23.8507463 1.1641791 23.8507463 1.1641791 23.8507463 6.05970149 26.7761194"></polygon>
                            <path d="M5.97014925,26.7164179 L1.1641791,23.8208955 C2.14925373,26.6268657 3.85074627,29.1343284 6.05970149,31.1343284 L6.05970149,26.7761194 L5.97014925,26.7164179 Z" id="Path" fill="#0d2247"></path>
                            <polygon id="Path" fill="#0d2247" points="0.149253731 17.9104478 0.149253731 17.9104478 2.44776119 21.1641791 6.05970149 13.7313433"></polygon>
                            <polygon id="Path" fill="#0d2247" points="6.05970149 13.7313433 2.44776119 21.1641791 6.05970149 26.7761194 6.05970149 26.7761194"></polygon>
                            <polygon id="Path" fill="#0d2247" points="6.05970149 26.7761194 12 34.6567164 12 34.6567164 12 34.6567164 17.9104478 31.8507463 17.9104478 31.8507463"></polygon>
                            <path d="M35.6716418,17.9104478 L35.6716418,17.9104478 C35.6716418,19.9402985 35.3432836,21.9402985 34.6567164,23.8208955 L33.3731343,21.1343284 L35.6716418,17.9104478 Z" id="Path" fill="#0d2247"></path>
                            <path d="M29.761194,4.68656716 L29.761194,13.7313433 L23.8208955,1.1641791 C26,1.94029851 28.0298507,3.13432836 29.761194,4.68656716 Z" id="Path" fill="#0d2247"></path>
                            <path d="M29.761194,26.7761194 L29.761194,31.1641791 C28.0298507,32.7164179 26.0298507,33.9104478 23.8208955,34.6865672 L29.761194,26.7761194 Z" id="Path" fill="#0d2247"></path>
                            <path d="M31.1343284,6.05970149 C34.0597015,9.31343284 35.6716418,13.5223881 35.6716418,17.9104478 L29.761194,13.7313433 L29.761194,4.68656716 C30.238806,5.10447761 30.6865672,5.58208955 31.1343284,6.05970149 Z" id="Path" fill="#0d2247"></path>
                            <polygon id="Path" fill="#0d2247" points="33.3731343 21.1641791 34.6567164 23.8507463 34.6567164 23.8507463 34.6567164 23.8507463 29.761194 26.7761194"></polygon>
                            <path d="M29.8507463,26.7164179 L34.6567164,23.8507463 C33.6716418,26.6567164 31.9701493,29.1641791 29.761194,31.1641791 L29.761194,26.7761194 L29.8507463,26.7164179 Z" id="Path" fill="#0d2247"></path>
                            <polygon id="Path" fill="#0d2247" points="35.6716418 17.9104478 35.6716418 17.9104478 33.3731343 21.1641791 29.761194 13.7313433"></polygon>
                            <polygon id="Path" fill="#0d2247" points="29.761194 13.7313433 33.3731343 21.1641791 29.761194 26.7761194 29.761194 26.7761194"></polygon>
                            <polygon id="Path" fill="#0d2247" points="23.8208955 1.1641791 23.8208955 1.1641791 23.8208955 1.1641791 29.761194 13.7313433 29.761194 13.7313433 17.9104478 5.34328358 17.9104478 5.34328358"></polygon>
                            <polygon id="Path" fill="#0d2247" points="29.761194 26.7761194 23.8208955 34.6567164 23.8208955 34.6567164 23.8208955 34.6567164 17.9104478 31.8507463 17.9104478 31.8507463"></polygon>
                            <path d="M18.0597015,28.3880597 C14,28.4477612 9.97014925,27.880597 6.08955224,26.7462687 L6.08955224,26.7761194 L17.9402985,31.8507463 L29.5223881,26.8955224 C25.761194,27.880597 21.9104478,28.3880597 18.0597015,28.3880597 Z" id="Path" fill="#0d2247"></path>
                        </g>
                    </g>
                </g>
            </g>
        </g>
    </g>
</svg>