<svg width="102" height="32" viewBox="0 0 102 32" fill="none" xmlns="http://www.w3.org/2000/svg">
<path fill-rule="evenodd" clip-rule="evenodd" d="M16.0685 5.69579C15.9882 5.64638 15.8868 5.64638 15.8065 5.69579L5.09948 12.282C5.02552 12.3275 4.98047 12.4081 4.98047 12.495V19.505C4.98047 19.5919 5.02552 19.6725 5.09948 19.718L15.8065 26.3042C15.8868 26.3536 15.9882 26.3536 16.0685 26.3042L26.7755 19.718C26.8495 19.6725 26.8945 19.5919 26.8945 19.505V12.495C26.8945 12.4081 26.8495 12.3275 26.7755 12.282L16.0685 5.69579ZM16.9625 0.291061C16.3316 -0.0970202 15.5434 -0.0970202 14.9125 0.291061L0.967215 8.86926C0.367158 9.23838 0 9.9032 0 10.6206V21.3794C0 22.0968 0.367158 22.7616 0.967215 23.1307L14.9125 31.7089C15.5434 32.097 16.3316 32.097 16.9625 31.7089L30.9078 23.1307C31.5078 22.7616 31.875 22.0968 31.875 21.3794V10.6206C31.875 9.9032 31.5078 9.23838 30.9078 8.86926L16.9625 0.291061Z" fill="#0d2247"/>
<path d="M49.0548 7.29282C48.9168 7.29282 48.8048 7.40475 48.8048 7.54282V15.8744C48.8048 16.1196 48.4885 16.2182 48.3491 16.0165L42.3971 7.40072C42.3504 7.33315 42.2735 7.29282 42.1914 7.29282H38.5C38.3619 7.29282 38.25 7.40475 38.25 7.54282V24.8914C38.25 25.0295 38.3619 25.1414 38.5 25.1414H42.5063C42.6444 25.1414 42.7563 25.0295 42.7563 24.8914V16.2771C42.7563 16.0321 43.0722 15.9333 43.2117 16.1347L49.3809 25.0339C49.4276 25.1012 49.5044 25.1414 49.5864 25.1414H53.0611C53.1992 25.1414 53.3111 25.0295 53.3111 24.8914V7.54282C53.3111 7.40475 53.1992 7.29282 53.0611 7.29282H49.0548Z" fill="#0d2247"/>
<path d="M61.8234 25.6004C66.0646 25.6004 69.125 22.5151 69.125 18.257C69.125 13.9988 66.0646 10.939 61.8234 10.939C57.5822 10.939 54.5459 13.9988 54.5459 18.257C54.5459 22.5151 57.5822 25.6004 61.8234 25.6004ZM61.8234 21.3422C60.2088 21.3422 59.028 20.0928 59.028 18.2825C59.028 16.4466 60.2088 15.1972 61.8234 15.1972C63.462 15.1972 64.6428 16.4721 64.6428 18.2825C64.6428 20.0928 63.462 21.3422 61.8234 21.3422Z" fill="#0d2247"/>
<path d="M78.3487 11.3725C78.2381 11.3725 78.1407 11.4451 78.1091 11.551L75.9669 18.7327C75.896 18.9704 75.5595 18.9709 75.4879 18.7333L73.3241 11.5504C73.2923 11.4448 73.195 11.3725 73.0847 11.3725H68.7187C68.5432 11.3725 68.4224 11.5486 68.4854 11.7123L73.5944 24.9813C73.6316 25.0778 73.7243 25.1414 73.8277 25.1414H77.532C77.6359 25.1414 77.7289 25.0773 77.7657 24.9802L82.8051 11.7113C82.8672 11.5477 82.7464 11.3725 82.5714 11.3725H78.3487Z" fill="#0d2247"/>
<path d="M96.3392 18.1295C96.3392 14.1008 93.4474 10.939 89.2544 10.939C85.1578 10.939 82.1938 14.0498 82.1938 18.257C82.1938 22.4641 85.1819 25.6004 89.2544 25.6004C92.3962 25.6004 94.976 23.7693 95.9739 20.819C96.0273 20.6611 95.9074 20.5008 95.7407 20.5008H91.7461C91.6516 20.5008 91.5662 20.5548 91.5178 20.6361C91.0809 21.37 90.232 21.8012 89.2544 21.8012C87.9233 21.8012 87.0147 21.086 86.6669 19.6975C86.629 19.5461 86.7475 19.4044 86.9035 19.4044H96.0431C96.1705 19.4044 96.2778 19.3086 96.2897 19.1818C96.3227 18.8292 96.3392 18.4881 96.3392 18.1295ZM89.2544 14.6617C90.4975 14.6617 91.3929 15.2891 91.8278 16.4642C91.8852 16.6195 91.7652 16.7781 91.5996 16.7781H87.0001C86.8362 16.7781 86.7164 16.6225 86.7705 16.4678C87.1825 15.2904 88.0546 14.6617 89.2544 14.6617Z" fill="#0d2247"/>
<path d="M97.5178 24.8914C97.5178 25.0295 97.6297 25.1414 97.7678 25.1414H101.75C101.888 25.1414 102 25.0295 102 24.8914V6.65039C102 6.51232 101.888 6.40039 101.75 6.40039H97.7678C97.6297 6.40039 97.5178 6.51232 97.5178 6.65039V24.8914Z" fill="#0d2247"/>
</svg>
