<svg width="3000" height="451" viewBox="0 0 3000 451" fill="none" xmlns="http://www.w3.org/2000/svg">
<path d="M974.999 313.754C974.999 385.008 916.429 450 802.499 450C682.335 450 629.999 371.233 629.999 289.961H691.716C692.951 333.79 715.786 394.963 802.808 394.963C887.792 394.963 911.245 350.633 911.245 317.448C911.245 278.753 887.175 257.465 802.19 246.883C701.159 234.361 645.12 198.734 645.12 123.723C645.12 54.8489 703.011 0 803.425 0C910.011 0 956.792 68.8743 958.644 140.003H898.593C898.593 101.245 872.733 54.9743 801.882 54.9743C729.179 54.9743 708.257 91.2273 708.257 119.967C708.257 146.89 719.921 173.751 808.054 185.585C903.53 198.734 974.999 221.212 974.999 313.754Z" fill="#0d2247"/>
<path d="M1095 0V435H1035V0H1095Z" fill="#0d2247"/>
<path d="M1253.14 255.634C1309.58 251.313 1366.71 258.139 1366.09 225.013C1365.48 198.776 1350.72 172.539 1286.16 172.539C1230.82 172.539 1211.88 193.767 1207.64 225.013H1150.02C1161.09 151.937 1216.31 120.002 1288.74 120.002C1359.33 120.002 1425 145.049 1425 262.522V445.055H1366.09V414.435C1366 401.588 1368.29 388.839 1372.86 376.863C1374.09 371.228 1376.55 366.218 1372.24 364.34C1367.94 362.461 1366.09 367.471 1364.86 370.602C1347.03 418.129 1305.34 450.002 1248.03 450.002C1188.45 450.002 1140 409.989 1140 355.573C1140.24 282.56 1193 260.017 1253.14 255.634ZM1256.83 303.787C1218.77 309.423 1199.15 323.137 1199.15 352.567C1199.15 378.178 1220 401.911 1270.97 395.023C1318.81 388.761 1365.48 353.194 1366.09 272.541C1347.03 296.273 1304.73 296.899 1256.83 303.787V303.787Z" fill="#0d2247"/>
<path d="M1567.7 194.862V354.185C1567.7 388.67 1575.15 399.332 1610.15 399.332H1657.67V449.303H1605.21C1538.9 449.303 1507.72 426.134 1507.72 359.963V194.862H1447.67V144.891H1507.72V59.3027H1567.7V144.891H1631.44C1638.39 144.906 1645.06 147.541 1649.97 152.217C1654.89 156.894 1657.66 163.233 1657.67 169.846V169.846C1657.67 176.471 1654.91 182.824 1649.99 187.514C1645.08 192.203 1638.4 194.846 1631.44 194.862H1567.7Z" fill="#0d2247"/>
<path d="M1978.11 302.501H1739.36C1743.74 353.775 1778.74 394.971 1836.85 394.971C1879.99 394.971 1901.22 373.747 1912.49 336.872H1974.36C1961.27 396.223 1917.5 450.002 1835.6 450.002C1734.98 450.002 1680 375.625 1680 285.033C1680 188.744 1742.62 120.002 1834.35 120.002C1905.6 120.002 1979.99 166.894 1979.99 280.651C1980.07 287.978 1979.44 295.294 1978.11 302.501ZM1920.01 252.415C1916.25 205.523 1886.26 172.404 1837.48 172.404C1777.49 172.404 1751.26 209.279 1742.49 252.415H1920.01Z" fill="#0d2247"/>
<path d="M2043.7 120.002L2108.02 355.62C2110.96 367.493 2112.4 379.688 2112.32 391.922C2112.32 395.619 2112.93 399.317 2117.23 399.317C2121.53 399.317 2122.08 395.619 2122.08 391.922C2122 379.688 2123.44 367.493 2126.37 355.62L2185.54 120.002H2254.15L2313.62 355.62C2316.56 367.493 2318 379.688 2317.92 391.922C2317.92 395.619 2318.53 399.317 2322.83 399.317C2327.13 399.317 2327.68 395.619 2327.68 391.922C2327.6 379.688 2329.04 367.493 2331.97 355.62L2396.29 120.002H2460L2364.44 435.002H2286.25L2228.07 211.032C2225.99 200.083 2224.96 188.959 2225 177.813C2225 174.176 2225 169.862 2220.15 169.862C2215.3 169.862 2215.24 174.176 2215.24 177.813C2215.28 188.959 2214.26 200.083 2212.17 211.032L2153.93 435.002H2075.56L1980 120.002H2043.7Z" fill="#0d2247"/>
<path d="M2758.35 302.501H2519.41C2523.79 353.775 2558.72 394.971 2616.87 394.971C2659.94 394.971 2681.22 373.747 2692.43 336.872H2754.34C2741.19 396.223 2697.44 450.002 2615.62 450.002C2515.03 450.002 2460 375.625 2460 285.033C2460 188.744 2522.6 120.002 2614.37 120.002C2685.61 120.002 2759.97 166.894 2759.97 280.651C2760.13 287.969 2759.59 295.286 2758.35 302.501ZM2700.19 252.415C2696.44 205.523 2666.45 172.404 2617.75 172.404C2557.72 172.404 2531.49 209.279 2522.79 252.415H2700.19Z" fill="#0d2247"/>
<path d="M2865 0V435H2805V0H2865Z" fill="#0d2247"/>
<path d="M3000 0V435H2940V0H3000Z" fill="#0d2247"/>
<path d="M435 15.0039H0V75.0039H435V15.0039Z" fill="#0d2247"/>
<path d="M0 138.212V324.282H341.821C350.031 324.282 357.905 327.594 363.711 333.488C369.516 339.383 372.778 347.377 372.778 355.713V355.713C372.778 364.049 369.516 372.044 363.711 377.938C357.905 383.833 350.031 387.144 341.821 387.144H0V450.006H435V261.232H93.2408C85.0307 261.232 77.1567 257.921 71.3513 252.026C65.5458 246.132 62.2844 238.137 62.2844 229.801V229.801C62.2844 221.465 65.5458 213.471 71.3513 207.576C77.1567 201.682 85.0307 198.37 93.2408 198.37H435V135.006H0V138.212Z" fill="#0d2247"/>
</svg>
