<svg width="97" height="27" viewBox="0 0 97 27" fill="none" xmlns="http://www.w3.org/2000/svg">
<path d="M0.836 6.992C0.836 5.816 1.064 4.808 1.52 3.968C2 3.128 2.624 2.444 3.392 1.916C4.184 1.388 5.072 1.004 6.056 0.763999C7.04 0.499999 8.036 0.368 9.044 0.368C9.524 0.368 10.088 0.391999 10.736 0.439999C11.408 0.487999 12.08 0.572 12.752 0.692C13.448 0.812 14.12 0.98 14.768 1.196C15.416 1.388 15.968 1.64 16.424 1.952V6.92C16.208 6.128 15.86 5.372 15.38 4.652C14.924 3.908 14.372 3.26 13.724 2.708C13.076 2.132 12.344 1.676 11.528 1.34C10.736 0.979998 9.884 0.799998 8.972 0.799998C8.252 0.799998 7.532 0.895998 6.812 1.088C6.116 1.256 5.48 1.532 4.904 1.916C4.352 2.276 3.896 2.744 3.536 3.32C3.2 3.896 3.032 4.592 3.032 5.408C3.032 6.272 3.236 7.028 3.644 7.676C4.076 8.3 4.64 8.864 5.336 9.368C6.032 9.872 6.824 10.34 7.712 10.772C8.6 11.18 9.5 11.6 10.412 12.032C11.348 12.44 12.26 12.872 13.148 13.328C14.036 13.784 14.828 14.312 15.524 14.912C16.22 15.488 16.772 16.16 17.18 16.928C17.612 17.696 17.828 18.584 17.828 19.592C17.828 20.912 17.564 22.016 17.036 22.904C16.508 23.768 15.812 24.464 14.948 24.992C14.108 25.496 13.148 25.856 12.068 26.072C10.988 26.288 9.896 26.396 8.792 26.396C8.288 26.396 7.676 26.36 6.956 26.288C6.236 26.24 5.492 26.132 4.724 25.964C3.98 25.796 3.26 25.592 2.564 25.352C1.868 25.088 1.292 24.752 0.836 24.344V19.016C1.076 20.024 1.436 20.96 1.916 21.824C2.42 22.688 3.02 23.432 3.716 24.056C4.436 24.656 5.24 25.136 6.128 25.496C7.04 25.832 8.024 26 9.08 26C9.824 26 10.556 25.916 11.276 25.748C11.996 25.556 12.644 25.268 13.22 24.884C13.796 24.476 14.252 23.972 14.588 23.372C14.948 22.748 15.128 22.004 15.128 21.14C15.128 19.868 14.768 18.812 14.048 17.972C13.352 17.132 12.476 16.412 11.42 15.812C10.364 15.188 9.212 14.624 7.964 14.12C6.74 13.592 5.6 13.016 4.544 12.392C3.488 11.768 2.6 11.036 1.88 10.196C1.184 9.356 0.836 8.288 0.836 6.992ZM28.8803 9.26C30.1763 9.26 31.3163 9.464 32.3003 9.872C33.3083 10.256 34.1603 10.796 34.8563 11.492C35.9123 10.46 36.9203 9.32 37.8803 8.072C38.8403 6.824 39.7283 5.6 40.5443 4.4C41.0243 3.704 41.4683 3.056 41.8763 2.456C42.2843 1.832 42.6563 1.28 42.9923 0.799998H43.3523V23.696C43.3523 24.152 43.4123 24.524 43.5323 24.812C43.6523 25.1 43.7963 25.328 43.9643 25.496C44.1563 25.64 44.3483 25.748 44.5403 25.82C44.7323 25.868 44.9003 25.892 45.0443 25.892V26H39.0323V25.892C39.2003 25.892 39.3803 25.868 39.5723 25.82C39.7643 25.748 39.9443 25.64 40.1123 25.496C40.2803 25.328 40.4123 25.1 40.5083 24.812C40.6043 24.524 40.6523 24.152 40.6523 23.696V4.976C40.1003 5.768 39.5123 6.596 38.8883 7.46C38.2643 8.3 37.6043 9.128 36.9083 9.944C36.2123 10.736 35.4683 11.492 34.6763 12.212C33.9083 12.908 33.1043 13.508 32.2643 14.012C31.3283 14.564 30.4643 14.912 29.6723 15.056C28.9043 15.2 28.2203 15.2 27.6203 15.056C27.0203 14.912 26.5283 14.66 26.1443 14.3C25.7603 13.916 25.4843 13.496 25.3163 13.04C25.0523 12.224 25.1363 11.456 25.5683 10.736C24.8003 11.384 24.2483 12.248 23.9123 13.328C23.5763 14.384 23.4083 15.476 23.4083 16.604C23.4083 17.492 23.5043 18.476 23.6963 19.556C23.8883 20.636 24.2003 21.656 24.6323 22.616C25.0883 23.552 25.6883 24.344 26.4323 24.992C27.1763 25.64 28.1123 25.964 29.2403 25.964C30.2003 25.964 31.0163 25.784 31.6883 25.424C32.3603 25.064 32.9003 24.584 33.3083 23.984C33.7163 23.36 34.0043 22.652 34.1723 21.86C34.3643 21.068 34.4603 20.252 34.4603 19.412C34.4603 17.468 34.1243 15.608 33.4523 13.832L35.4683 12.176C36.0923 13.016 36.5243 13.916 36.7643 14.876C37.0283 15.836 37.1603 16.844 37.1603 17.9C37.1603 19.172 36.9683 20.336 36.5843 21.392C36.2243 22.424 35.6843 23.312 34.9643 24.056C34.2683 24.8 33.4043 25.376 32.3723 25.784C31.3643 26.192 30.2123 26.396 28.9163 26.396C27.6203 26.396 26.4563 26.192 25.4243 25.784C24.4163 25.376 23.5523 24.8 22.8323 24.056C22.1363 23.312 21.5963 22.424 21.2123 21.392C20.8523 20.336 20.6723 19.172 20.6723 17.9C20.6723 16.676 20.8643 15.536 21.2483 14.48C21.6323 13.424 22.1723 12.512 22.8683 11.744C23.5883 10.952 24.4523 10.34 25.4603 9.908C26.4683 9.476 27.6083 9.26 28.8803 9.26ZM25.7483 12.752C25.8683 13.184 26.0963 13.58 26.4323 13.94C26.7683 14.3 27.2003 14.552 27.7283 14.696C28.2803 14.84 28.9163 14.852 29.6363 14.732C30.3803 14.588 31.2083 14.24 32.1203 13.688C32.2883 13.568 32.4443 13.46 32.5883 13.364C32.7563 13.244 32.9243 13.124 33.0923 13.004C32.6363 12.092 32.0363 11.324 31.2923 10.7C30.5723 10.076 29.6603 9.764 28.5563 9.764C27.8123 9.764 27.1763 9.872 26.6483 10.088C26.2163 10.424 25.9283 10.832 25.7843 11.312C25.6403 11.792 25.6283 12.272 25.7483 12.752ZM49.2111 19.268C50.0271 18.62 50.8191 18.116 51.5871 17.756C52.3791 17.396 53.1471 17.06 53.8911 16.748C54.6591 16.436 55.3191 16.136 55.8711 15.848C56.4231 15.56 56.8671 15.26 57.2031 14.948C57.5391 14.612 57.7791 14.24 57.9231 13.832C58.0911 13.4 58.1751 12.896 58.1751 12.32C58.1751 11.912 58.0911 11.528 57.9231 11.168C57.7791 10.808 57.5511 10.508 57.2391 10.268C56.9271 10.004 56.5311 9.812 56.0511 9.692C55.5711 9.572 54.9951 9.56 54.3231 9.656C53.1471 9.824 52.0191 10.424 50.9391 11.456C49.8831 12.464 48.9351 13.664 48.0951 15.056V12.104C48.4551 11.648 48.8751 11.252 49.3551 10.916C49.8591 10.556 50.3871 10.268 50.9391 10.052C51.4911 9.812 52.0551 9.632 52.6311 9.512C53.2311 9.392 53.8071 9.32 54.3591 9.296C56.3271 9.248 57.8631 9.668 58.9671 10.556C60.0711 11.444 60.6231 12.932 60.6231 15.02V23.156C60.6231 23.636 60.6951 24.08 60.8391 24.488C61.0071 24.872 61.4031 25.052 62.0271 25.028C62.1711 25.028 62.3271 25.004 62.4951 24.956C62.6631 24.884 62.8191 24.776 62.9631 24.632V24.812C62.7471 25.196 62.3991 25.52 61.9191 25.784C61.4391 26.048 60.8871 26.18 60.2631 26.18C59.8311 26.18 59.4711 26.096 59.1831 25.928C58.8951 25.76 58.6551 25.556 58.4631 25.316C58.2951 25.076 58.1751 24.836 58.1031 24.596C58.0311 24.332 57.9951 24.116 57.9951 23.948C57.6351 24.356 57.2511 24.716 56.8431 25.028C56.4591 25.316 56.0151 25.568 55.5111 25.784C55.0311 26 54.4671 26.156 53.8191 26.252C53.1951 26.372 52.4631 26.42 51.6231 26.396C50.9991 26.372 50.4231 26.276 49.8951 26.108C49.3671 25.964 48.9351 25.748 48.5991 25.46C48.2391 25.148 47.9631 24.788 47.7711 24.38C47.6031 23.972 47.5071 23.528 47.4831 23.048C47.4591 22.352 47.6031 21.656 47.9151 20.96C48.2271 20.264 48.6591 19.7 49.2111 19.268ZM50.3271 22.4C50.3271 23.576 50.6271 24.452 51.2271 25.028C51.8511 25.58 52.5471 25.868 53.3151 25.892C53.7951 25.916 54.2991 25.844 54.8271 25.676C55.3791 25.484 55.8831 25.244 56.3391 24.956C56.7951 24.668 57.1671 24.332 57.4551 23.948C57.7671 23.54 57.9231 23.132 57.9231 22.724V15.38C57.0831 15.668 56.2191 16.016 55.3311 16.424C54.4431 16.832 53.6271 17.312 52.8831 17.864C52.1391 18.416 51.5271 19.064 51.0471 19.808C50.5671 20.552 50.3271 21.416 50.3271 22.4ZM66.7901 23.84C66.1661 23.144 65.6741 22.304 65.3141 21.32C64.9781 20.312 64.8101 19.148 64.8101 17.828C64.8101 16.316 65.1101 14.96 65.7101 13.76C66.4061 12.344 67.4141 11.252 68.7341 10.484C70.0541 9.692 71.5301 9.296 73.1621 9.296C74.2901 9.296 75.4181 9.44 76.5461 9.728C77.6981 10.016 78.6221 10.556 79.3181 11.348V14.768C79.0541 14.216 78.7421 13.652 78.3821 13.076C78.0461 12.476 77.6501 11.924 77.1941 11.42C76.7381 10.916 76.2221 10.508 75.6461 10.196C75.0701 9.86 74.4101 9.692 73.6661 9.692C72.8741 9.668 72.0701 9.848 71.2541 10.232C70.4381 10.592 69.7541 11.084 69.2021 11.708C68.6741 12.332 68.2781 13.1 68.0141 14.012C67.7741 14.9 67.6421 15.836 67.6181 16.82C67.5941 17.78 67.6781 18.728 67.8701 19.664C68.0861 20.6 68.3861 21.416 68.7701 22.112C69.4181 23.312 70.2461 24.176 71.2541 24.704C72.2621 25.208 73.3061 25.46 74.3861 25.46C75.5381 25.46 76.5101 25.196 77.3021 24.668C78.1181 24.116 78.8381 23.456 79.4621 22.688L79.6781 22.832C79.0781 23.768 78.2141 24.596 77.0861 25.316C75.9581 26.036 74.5661 26.396 72.9101 26.396C71.7101 26.396 70.5821 26.192 69.5261 25.784C68.4701 25.352 67.5581 24.704 66.7901 23.84ZM82.5724 13.76C83.2684 12.344 84.2764 11.252 85.5964 10.484C86.9164 9.692 88.3924 9.296 90.0244 9.296C91.2484 9.296 92.3044 9.5 93.1924 9.908C94.0804 10.292 94.7884 10.82 95.3164 11.492C95.8444 12.14 96.2044 12.896 96.3964 13.76C96.5884 14.6 96.6124 15.464 96.4684 16.352L84.5164 18.26C84.5884 18.98 84.7204 19.676 84.9124 20.348C85.1044 20.996 85.3324 21.584 85.5964 22.112C86.2444 23.312 87.0724 24.176 88.0804 24.704C89.1124 25.208 90.1684 25.46 91.2484 25.46C92.4004 25.46 93.3724 25.196 94.1644 24.668C94.9804 24.116 95.7004 23.456 96.3244 22.688L96.5044 22.832C95.9284 23.768 95.0764 24.596 93.9484 25.316C92.8204 26.036 91.4284 26.396 89.7724 26.396C88.5724 26.396 87.4324 26.192 86.3524 25.784C85.2964 25.352 84.3964 24.704 83.6524 23.84C83.0284 23.144 82.5364 22.304 82.1764 21.32C81.8404 20.312 81.6724 19.148 81.6724 17.828C81.6724 16.316 81.9724 14.96 82.5724 13.76ZM84.4804 17.864L90.9964 16.64C91.3564 16.568 91.6684 16.472 91.9324 16.352C92.2204 16.232 92.4964 16.112 92.7604 15.992C93.3364 15.704 93.7564 15.332 94.0204 14.876C94.2844 14.396 94.4044 13.904 94.3804 13.4C94.3564 12.224 94.0204 11.348 93.3724 10.772C92.7244 10.172 91.9564 9.824 91.0684 9.728C90.1804 9.632 89.2684 9.752 88.3324 10.088C87.3964 10.424 86.6404 10.94 86.0644 11.636C85.4404 12.38 84.9964 13.316 84.7324 14.444C84.4924 15.548 84.4084 16.688 84.4804 17.864Z" fill="#0d2247"/>
</svg>
