<?xml version="1.0" encoding="utf-8"?>
<svg viewBox="0 0 175 38" version="1.1" xmlns:xlink="http://www.w3.org/1999/xlink" xmlns="http://www.w3.org/2000/svg">
  <desc>Created with Lunacy</desc>
  <g id="wagtopia-logo">
    <path d="M40.7328 9.11644L45.4774 8.36301C46.5711 8.20479 46.9332 7.6774 46.9332 6.98425C46.9332 5.81644 45.9224 4.79932 43.9763 4.79932C42.2111 4.68214 40.6774 5.99945 40.5291 7.76027L35.2112 6.68288C35.4526 3.80479 38.1304 0 44.0442 0C50.5388 0.00753425 52.9601 3.66918 52.9601 7.78288L52.9601 17.5774C52.9603 18.6218 53.041 19.6646 53.2015 20.6966L47.6498 20.6966C47.497 19.9532 47.4287 19.195 47.4461 18.4363C46.3976 20.1315 44.4289 21.2692 41.7737 21.2692C37.361 21.2692 34.8039 18.3534 34.8039 15.1589C34.8039 11.6253 37.4364 9.59863 40.7328 9.11644ZM62.0194 20.3274C62.4386 22.3716 64.2933 23.801 66.3793 23.6877C69.4569 23.6877 71.3653 22.1808 71.3653 18.5493L71.3653 17.6151C70.611 18.7075 68.8912 19.8753 65.972 19.8753C60.6239 19.8753 56.611 15.6637 56.611 10.0808C56.611 4.80685 60.4655 0.241096 65.972 0.241096C69.2532 0.241096 70.9957 1.70274 71.569 2.75L71.569 0.655479L77.445 0.655479L77.445 18.2253C77.445 24.0116 74.2015 29.0295 66.6659 29.0295C60.8653 29.0295 57.1767 25.4658 56.611 21.8644L62.0194 20.3274ZM24.1907 12.5897L20.2608 0.655479L13.736 0.655479L9.80603 12.5144L6.4041 0.655479L0 0.655479L6.32112 20.7342L12.5593 20.7342L16.8588 7.73767L21.2338 20.7719L27.3513 20.7719L33.5894 0.655479L27.555 0.655479L24.1907 12.5897ZM67.0808 5.77877C69.4637 5.77877 71.3955 7.70824 71.3955 10.0884C71.3955 12.8384 69.6153 14.5411 67.1336 14.5411C65.9428 14.5976 64.7846 14.1434 63.9503 13.2928C63.1161 12.4423 62.6852 11.2763 62.7662 10.0884C62.7662 7.70824 64.6979 5.77877 67.0808 5.77877ZM46.9332 11.9568L46.9332 12.8384L46.9634 12.8384C46.9634 15.9575 45.1002 16.8466 43.2899 16.8842C41.5851 16.8842 40.8987 15.8747 40.8987 14.8199C40.8987 13.3733 41.8642 12.763 43.1616 12.5596L46.9332 11.9568Z" transform="translate(0 9.139041)" id="Shape" fill="#0d2247" fill-rule="evenodd" stroke="none" />
    <path d="M68.2123 0.000140391C69.1746 -0.00587296 70.0998 0.370182 70.7845 1.04557C71.4692 1.72097 71.8572 2.64037 71.8631 3.60151C71.8672 5.5907 70.259 7.20809 68.2675 7.21771C66.276 7.22733 64.6522 5.62555 64.637 3.63641C64.6217 1.64728 66.2209 0.0209085 68.2123 0.000140391ZM13.5399 9.79466L9.60991 9.79466L9.64763 3.88781L4.13362 3.88781L4.13362 6.51726C4.13362 8.37822 3.12284 9.79466 1.01078 9.79466L0 9.79466L0 15.1364L3.56789 15.1364L3.56789 23.8008C3.56789 27.809 6.11746 30.2803 10.2963 30.2803C11.3913 30.3323 12.484 30.1393 13.4946 29.7152L13.4946 24.6145C12.9631 24.7416 12.4193 24.8098 11.8728 24.8179C10.5 24.8179 9.60991 24.3734 9.60991 22.7084L9.60991 15.1741L13.5399 15.1741L13.5399 9.79466ZM81.4881 18.2556L86.2252 17.5022C87.319 17.344 87.6886 16.8166 87.6886 16.1234C87.6886 14.9556 86.6703 13.9385 84.7241 13.9385C82.9618 13.8256 81.4328 15.1418 81.2845 16.8995L75.8987 15.8221C76.1401 12.944 78.8103 9.13918 84.7317 9.13918C91.2565 9.13918 93.6476 12.7858 93.6476 16.9145L93.6476 26.709C93.6437 27.7536 93.7244 28.7967 93.889 29.8282L88.3373 29.8282C88.1802 29.0855 88.1118 28.3268 88.1336 27.5679C86.8807 29.4515 84.7215 30.5298 82.4612 30.4008C78.0409 30.4008 75.4914 27.4851 75.4914 24.2906C75.4914 20.7645 78.1239 18.7378 81.4504 18.2556L81.4881 18.2556ZM26.944 9.16932C24.0901 9.08995 21.3289 10.1848 19.3066 12.1976C17.2844 14.2104 16.1785 16.9645 16.2478 19.8152C16.4018 25.6072 21.1469 30.2225 26.9477 30.2225C32.7485 30.2225 37.4936 25.6072 37.6476 19.8152C37.7306 16.9506 36.6235 14.1793 34.589 12.1586C32.5545 10.1378 29.7737 9.0477 26.9063 9.14672L26.944 9.16932ZM40.7629 37.596L40.7629 9.79466L46.722 9.79466L46.722 11.859C47.5744 10.5632 49.7392 9.30493 52.6358 9.30493C58.4741 9.30493 61.9968 13.7577 61.9968 19.7926C61.9968 25.9406 58.0291 30.3405 52.3944 30.3405C49.7996 30.3405 47.8685 29.4515 46.9256 28.3138L46.9256 37.581L40.7629 37.596ZM65.195 9.79466L65.195 29.8734L71.3578 29.9111L71.3578 9.79466L65.195 9.79466ZM30.9041 16.1159C30.9041 14.7748 30.1121 13.6899 29.139 13.6899L29.1013 13.6447C28.1282 13.6447 27.2759 14.7371 27.3739 16.1159C27.4343 17.3063 28.1659 18.5419 29.139 18.5419C30.1121 18.5419 30.9041 17.457 30.9041 16.1159ZM24.8093 13.9084C25.3442 13.8317 25.8836 14.0141 26.262 14.3994C26.6403 14.7848 26.8123 15.3271 26.7252 15.8597C26.5442 17.0803 26.25 18.1727 25.3147 18.2858C24.3793 18.3988 23.5043 17.5323 23.3534 16.2892C23.2026 15.046 23.8438 13.9837 24.7716 13.8632L24.8093 13.9084ZM46.8578 19.8303C46.8578 16.47 48.9925 14.8501 51.3836 14.8501L51.3836 14.8125C53.8125 14.8125 55.9623 16.47 55.9623 19.8303C55.9623 23.1906 53.7597 24.8481 51.3836 24.8481C49.0075 24.8481 46.8578 23.1906 46.8578 19.8303ZM20.6907 19.1522C20.7134 20.0487 21.3295 20.8211 22.1994 21.0433C22.9537 21.3447 23.708 20.1995 23.708 19.1522C23.746 18.2348 23.1031 17.429 22.1994 17.2611C21.3093 17.0878 20.6907 18.1049 20.6907 19.1522ZM30.5948 19.1522C30.5948 20.1995 31.3491 21.3447 32.1034 21.0433L32.0431 21.0433C32.9383 20.8468 33.585 20.0673 33.6121 19.1522C33.6121 18.1049 33.0086 17.0878 32.1034 17.2611C31.1997 17.429 30.5568 18.2348 30.5948 19.1522ZM29.0862 25.0138C28.5666 24.3041 27.6921 23.946 26.8233 24.0871C26.1273 24.3755 25.5427 24.8801 25.1563 25.5262C25.1563 25.5262 23.8513 26.8221 23.2629 24.2227C23.2629 24.2227 22.1466 20.4029 26.9741 19.559C26.9741 19.559 31.1078 19.009 31.0776 24.2227C31.0687 24.2227 31.0545 24.2599 31.0314 24.3203C30.8984 24.6689 30.4703 25.7908 29.056 25.0138L29.0862 25.0138ZM87.6886 21.096L87.6886 21.9775L87.6509 21.9775C87.6509 25.0967 85.7802 25.9858 84 26.0234C82.2953 26.0234 81.6088 25.0138 81.6088 23.959C81.6088 22.5125 82.5819 21.9022 83.8718 21.6988L87.6886 21.096Z" transform="translate(80.38686 -0.0001403909)" id="Shape" fill="#0d2247" fill-rule="evenodd" stroke="none" />
  </g>
</svg>