<?xml version="1.0" encoding="UTF-8"?>
<svg xmlns="http://www.w3.org/2000/svg" width="248" height="163" viewBox="0 0 248 163" fill="none">
<rect width="248" height="163" rx="8" fill="white"></rect>
<rect x="40" y="24" width="192" height="1" fill="#E7E9ED"></rect>
<path d="M18.8576 27.6364V21.2727H19.2653V27.6364H18.8576ZM20.1328 23.2464C20.1063 23.0111 19.9969 22.8288 19.8047 22.6996C19.6125 22.5687 19.3705 22.5032 19.0788 22.5032C18.87 22.5032 18.6894 22.5363 18.5369 22.6026C18.3845 22.6673 18.266 22.7567 18.1815 22.8711C18.0986 22.9838 18.0572 23.1122 18.0572 23.2564C18.0572 23.3774 18.0853 23.4818 18.1417 23.5696C18.1997 23.6574 18.2751 23.7312 18.3679 23.7908C18.4624 23.8488 18.5634 23.8977 18.6712 23.9375C18.7789 23.9756 18.8825 24.0071 18.9819 24.032L19.479 24.1612C19.6415 24.201 19.808 24.2549 19.9787 24.3228C20.1494 24.3907 20.3076 24.4802 20.4535 24.5913C20.5993 24.7023 20.717 24.8398 20.8065 25.0039C20.8976 25.168 20.9432 25.3643 20.9432 25.593C20.9432 25.8814 20.8686 26.1374 20.7195 26.3612C20.572 26.5849 20.3574 26.7614 20.0756 26.8906C19.7956 27.0199 19.4567 27.0845 19.0589 27.0845C18.6778 27.0845 18.348 27.024 18.0696 26.9031C17.7912 26.7821 17.5733 26.6106 17.4158 26.3885C17.2584 26.1648 17.1714 25.8996 17.1548 25.593H17.9254C17.9403 25.777 18 25.9303 18.1044 26.0529C18.2105 26.1739 18.3455 26.2642 18.5096 26.3239C18.6753 26.3819 18.8568 26.4109 19.054 26.4109C19.2711 26.4109 19.4641 26.3769 19.6332 26.3089C19.8039 26.2393 19.9381 26.1432 20.0359 26.0206C20.1336 25.8963 20.1825 25.7513 20.1825 25.5856C20.1825 25.4348 20.1394 25.3113 20.0533 25.2152C19.9688 25.1191 19.8536 25.0395 19.7077 24.9766C19.5636 24.9136 19.4003 24.8581 19.218 24.81L18.6165 24.646C18.2088 24.5349 17.8857 24.3717 17.647 24.1562C17.41 23.9408 17.2915 23.6558 17.2915 23.3011C17.2915 23.0078 17.3711 22.7518 17.5302 22.533C17.6893 22.3143 17.9047 22.1444 18.1765 22.0234C18.4483 21.9008 18.7549 21.8395 19.0962 21.8395C19.4409 21.8395 19.745 21.9 20.0085 22.021C20.2737 22.1419 20.4825 22.3085 20.6349 22.5206C20.7874 22.7311 20.867 22.973 20.8736 23.2464H20.1328ZM23.5638 27.0696C23.2224 27.0696 22.9175 27.0108 22.6491 26.8931C22.3823 26.7754 22.171 26.6122 22.0152 26.4034C21.8611 26.1929 21.7782 25.9493 21.7666 25.6726H22.5471C22.5571 25.8234 22.6076 25.9543 22.6988 26.0653C22.7916 26.1747 22.9126 26.2592 23.0617 26.3189C23.2108 26.3786 23.3766 26.4084 23.5589 26.4084C23.7594 26.4084 23.9367 26.3736 24.0908 26.304C24.2466 26.2344 24.3684 26.1374 24.4562 26.0131C24.5441 25.8872 24.588 25.7422 24.588 25.5781C24.588 25.4074 24.5441 25.2575 24.4562 25.1282C24.3701 24.9973 24.2433 24.8945 24.0759 24.82C23.9102 24.7454 23.7097 24.7081 23.4743 24.7081H23.0443V24.0817H23.4743C23.6633 24.0817 23.829 24.0477 23.9715 23.9798C24.1157 23.9118 24.2284 23.8174 24.3096 23.6964C24.3908 23.5737 24.4314 23.4304 24.4314 23.2663C24.4314 23.1089 24.3957 22.9722 24.3245 22.8562C24.2549 22.7385 24.1555 22.6465 24.0262 22.5803C23.8986 22.514 23.7478 22.4808 23.5738 22.4808C23.4081 22.4808 23.2531 22.5115 23.1089 22.5728C22.9664 22.6325 22.8504 22.7186 22.7609 22.8313C22.6714 22.9424 22.6234 23.0758 22.6167 23.2315H21.8735C21.8818 22.9564 21.963 22.7145 22.1171 22.5057C22.2729 22.2969 22.4784 22.1336 22.7336 22.016C22.9888 21.8983 23.2722 21.8395 23.5837 21.8395C23.9102 21.8395 24.1919 21.9033 24.4289 22.0309C24.6675 22.1568 24.8515 22.325 24.9807 22.5355C25.1117 22.746 25.1763 22.9763 25.1746 23.2266C25.1763 23.5116 25.0967 23.7536 24.936 23.9524C24.7769 24.1513 24.5648 24.2847 24.2996 24.3526V24.3924C24.6377 24.4438 24.8995 24.578 25.0851 24.7951C25.2724 25.0122 25.3652 25.2815 25.3635 25.603C25.3652 25.883 25.2873 26.1341 25.1299 26.3562C24.9741 26.5782 24.7612 26.7531 24.491 26.8807C24.2209 27.0066 23.9118 27.0696 23.5638 27.0696ZM26.3131 27V23.1818H27.0265V23.8033H27.0738C27.1533 23.5928 27.2834 23.4287 27.464 23.3111C27.6447 23.1918 27.8609 23.1321 28.1128 23.1321C28.368 23.1321 28.5818 23.1918 28.7542 23.3111C28.9282 23.4304 29.0566 23.5945 29.1395 23.8033H29.1792C29.2704 23.5994 29.4154 23.437 29.6143 23.3161C29.8131 23.1934 30.0501 23.1321 30.3252 23.1321C30.6715 23.1321 30.9541 23.2406 31.1729 23.4577C31.3933 23.6748 31.5035 24.0021 31.5035 24.4396V27H30.7602V24.5092C30.7602 24.2507 30.6898 24.0634 30.5489 23.9474C30.4081 23.8314 30.2398 23.7734 30.0443 23.7734C29.8023 23.7734 29.6143 23.848 29.48 23.9972C29.3458 24.1446 29.2787 24.3344 29.2787 24.5664V27H28.5379V24.462C28.5379 24.2549 28.4733 24.0883 28.344 23.9624C28.2148 23.8364 28.0465 23.7734 27.8394 23.7734C27.6985 23.7734 27.5684 23.8107 27.4491 23.8853C27.3315 23.9582 27.2362 24.0601 27.1633 24.1911C27.092 24.322 27.0564 24.4736 27.0564 24.646V27H26.3131Z" fill="#56647E"></path>
<path d="M12.8351 60.6364V54.2727H13.2428V60.6364H12.8351ZM14.1104 56.2464C14.0838 56.0111 13.9745 55.8288 13.7822 55.6996C13.59 55.5687 13.348 55.5032 13.0564 55.5032C12.8476 55.5032 12.6669 55.5363 12.5145 55.6026C12.362 55.6673 12.2435 55.7567 12.159 55.8711C12.0761 55.9838 12.0347 56.1122 12.0347 56.2564C12.0347 56.3774 12.0629 56.4818 12.1192 56.5696C12.1772 56.6574 12.2526 56.7312 12.3454 56.7908C12.4399 56.8488 12.541 56.8977 12.6487 56.9375C12.7564 56.9756 12.86 57.0071 12.9594 57.032L13.4566 57.1612C13.619 57.201 13.7855 57.2549 13.9562 57.3228C14.1269 57.3907 14.2852 57.4802 14.431 57.5913C14.5769 57.7023 14.6945 57.8398 14.784 58.0039C14.8751 58.168 14.9207 58.3643 14.9207 58.593C14.9207 58.8814 14.8461 59.1374 14.697 59.3612C14.5495 59.5849 14.3349 59.7614 14.0532 59.8906C13.7731 60.0199 13.4342 60.0845 13.0365 60.0845C12.6553 60.0845 12.3256 60.024 12.0471 59.9031C11.7687 59.7821 11.5508 59.6106 11.3934 59.3885C11.2359 59.1648 11.1489 58.8996 11.1324 58.593H11.903C11.9179 58.777 11.9775 58.9303 12.0819 59.0529C12.188 59.1739 12.3231 59.2642 12.4871 59.3239C12.6528 59.3819 12.8343 59.4109 13.0315 59.4109C13.2486 59.4109 13.4417 59.3769 13.6107 59.3089C13.7814 59.2393 13.9156 59.1432 14.0134 59.0206C14.1112 58.8963 14.1601 58.7513 14.1601 58.5856C14.1601 58.4348 14.117 58.3113 14.0308 58.2152C13.9463 58.1191 13.8311 58.0395 13.6853 57.9766C13.5411 57.9136 13.3779 57.8581 13.1956 57.81L12.594 57.646C12.1863 57.5349 11.8632 57.3717 11.6246 57.1562C11.3876 56.9408 11.2691 56.6558 11.2691 56.3011C11.2691 56.0078 11.3486 55.7518 11.5077 55.533C11.6668 55.3143 11.8823 55.1444 12.154 55.0234C12.4258 54.9008 12.7324 54.8395 13.0738 54.8395C13.4185 54.8395 13.7226 54.9 13.9861 55.021C14.2512 55.1419 14.46 55.3085 14.6125 55.5206C14.7649 55.7311 14.8445 55.973 14.8511 56.2464H14.1104ZM15.769 60V59.4432L17.4917 57.6584C17.6756 57.4645 17.8272 57.2946 17.9466 57.1488C18.0675 57.0013 18.1578 56.8613 18.2175 56.7287C18.2772 56.5961 18.307 56.4553 18.307 56.3061C18.307 56.1371 18.2672 55.9912 18.1877 55.8686C18.1081 55.7443 17.9996 55.649 17.862 55.5827C17.7245 55.5148 17.5695 55.4808 17.3972 55.4808C17.2149 55.4808 17.0558 55.5181 16.9199 55.5927C16.784 55.6673 16.6796 55.7725 16.6067 55.9084C16.5338 56.0443 16.4973 56.2034 16.4973 56.3857H15.764C15.764 56.0758 15.8353 55.8048 15.9778 55.5728C16.1203 55.3408 16.3159 55.161 16.5645 55.0334C16.813 54.9041 17.0956 54.8395 17.4121 54.8395C17.7319 54.8395 18.0137 54.9033 18.2573 55.0309C18.5025 55.1568 18.694 55.3292 18.8315 55.5479C18.969 55.765 19.0378 56.0103 19.0378 56.2837C19.0378 56.4727 19.0022 56.6574 18.9309 56.8381C18.8613 57.0187 18.7395 57.2201 18.5655 57.4421C18.3915 57.6625 18.1496 57.9302 17.8397 58.245L16.8279 59.304V59.3413H19.1199V60H15.769ZM20.5616 60.0472C20.4257 60.0472 20.3089 59.9992 20.2111 59.9031C20.1133 59.8053 20.0645 59.6876 20.0645 59.5501C20.0645 59.4142 20.1133 59.2982 20.2111 59.2021C20.3089 59.1043 20.4257 59.0554 20.5616 59.0554C20.6975 59.0554 20.8143 59.1043 20.9121 59.2021C21.0099 59.2982 21.0588 59.4142 21.0588 59.5501C21.0588 59.6412 21.0356 59.7249 20.9892 59.8011C20.9444 59.8757 20.8848 59.9354 20.8102 59.9801C20.7356 60.0249 20.6528 60.0472 20.5616 60.0472ZM23.6428 60.0696C23.3312 60.0696 23.0511 60.0099 22.8026 59.8906C22.5556 59.7696 22.3584 59.6039 22.2109 59.3935C22.0634 59.183 21.9847 58.9427 21.9748 58.6726H22.7205C22.7388 58.8913 22.8357 59.0711 23.0114 59.212C23.187 59.3529 23.3975 59.4233 23.6428 59.4233C23.8383 59.4233 24.0115 59.3786 24.1623 59.2891C24.3147 59.1979 24.4341 59.0728 24.5202 58.9137C24.6081 58.7546 24.652 58.5732 24.652 58.3693C24.652 58.1622 24.6072 57.9774 24.5178 57.815C24.4283 57.6526 24.3048 57.525 24.1474 57.4322C23.9916 57.3394 23.8126 57.2921 23.6104 57.2905C23.4563 57.2905 23.3014 57.317 23.1456 57.37C22.9898 57.4231 22.8639 57.4927 22.7678 57.5788L22.0643 57.4744L22.3501 54.9091H25.1491V55.5678H22.989L22.8274 56.9922H22.8572C22.9567 56.8961 23.0884 56.8157 23.2525 56.7511C23.4182 56.6864 23.5955 56.6541 23.7844 56.6541C24.0943 56.6541 24.3703 56.7279 24.6122 56.8754C24.8558 57.0228 25.0472 57.2242 25.1864 57.4794C25.3273 57.733 25.3969 58.0246 25.3952 58.3544C25.3969 58.6842 25.3223 58.9783 25.1715 59.2369C25.0224 59.4954 24.8152 59.6992 24.5501 59.8484C24.2866 59.9959 23.9841 60.0696 23.6428 60.0696ZM26.3131 60V56.1818H27.0265V56.8033H27.0738C27.1533 56.5928 27.2834 56.4287 27.464 56.3111C27.6447 56.1918 27.8609 56.1321 28.1128 56.1321C28.368 56.1321 28.5818 56.1918 28.7542 56.3111C28.9282 56.4304 29.0566 56.5945 29.1395 56.8033H29.1792C29.2704 56.5994 29.4154 56.437 29.6143 56.3161C29.8131 56.1934 30.0501 56.1321 30.3252 56.1321C30.6715 56.1321 30.9541 56.2406 31.1729 56.4577C31.3933 56.6748 31.5035 57.0021 31.5035 57.4396V60H30.7602V57.5092C30.7602 57.2507 30.6898 57.0634 30.5489 56.9474C30.4081 56.8314 30.2398 56.7734 30.0443 56.7734C29.8023 56.7734 29.6143 56.848 29.48 56.9972C29.3458 57.1446 29.2787 57.3344 29.2787 57.5664V60H28.5379V57.462C28.5379 57.2549 28.4733 57.0883 28.344 56.9624C28.2148 56.8364 28.0465 56.7734 27.8394 56.7734C27.6985 56.7734 27.5684 56.8107 27.4491 56.8853C27.3315 56.9582 27.2362 57.0601 27.1633 57.1911C27.092 57.322 27.0564 57.4736 27.0564 57.646V60H26.3131Z" fill="#56647E"></path>
<path d="M19.0763 93.6364V87.2727H19.484V93.6364H19.0763ZM20.3516 89.2464C20.325 89.0111 20.2157 88.8288 20.0234 88.6996C19.8312 88.5687 19.5893 88.5032 19.2976 88.5032C19.0888 88.5032 18.9081 88.5363 18.7557 88.6026C18.6032 88.6673 18.4847 88.7567 18.4002 88.8711C18.3174 88.9838 18.2759 89.1122 18.2759 89.2564C18.2759 89.3774 18.3041 89.4818 18.3604 89.5696C18.4184 89.6574 18.4938 89.7312 18.5866 89.7908C18.6811 89.8488 18.7822 89.8977 18.8899 89.9375C18.9976 89.9756 19.1012 90.0071 19.2006 90.032L19.6978 90.1612C19.8602 90.201 20.0268 90.2549 20.1974 90.3228C20.3681 90.3907 20.5264 90.4802 20.6722 90.5913C20.8181 90.7023 20.9357 90.8398 21.0252 91.0039C21.1164 91.168 21.1619 91.3643 21.1619 91.593C21.1619 91.8814 21.0874 92.1374 20.9382 92.3612C20.7907 92.5849 20.5761 92.7614 20.2944 92.8906C20.0143 93.0199 19.6754 93.0845 19.2777 93.0845C18.8965 93.0845 18.5668 93.024 18.2884 92.9031C18.0099 92.7821 17.792 92.6106 17.6346 92.3885C17.4772 92.1648 17.3902 91.8996 17.3736 91.593H18.1442C18.1591 91.777 18.2188 91.9303 18.3232 92.0529C18.4292 92.1739 18.5643 92.2642 18.7283 92.3239C18.8941 92.3819 19.0755 92.4109 19.2727 92.4109C19.4898 92.4109 19.6829 92.3769 19.8519 92.3089C20.0226 92.2393 20.1568 92.1432 20.2546 92.0206C20.3524 91.8963 20.4013 91.7513 20.4013 91.5856C20.4013 91.4348 20.3582 91.3113 20.272 91.2152C20.1875 91.1191 20.0723 91.0395 19.9265 90.9766C19.7823 90.9136 19.6191 90.8581 19.4368 90.81L18.8352 90.646C18.4276 90.5349 18.1044 90.3717 17.8658 90.1562C17.6288 89.9408 17.5103 89.6558 17.5103 89.3011C17.5103 89.0078 17.5898 88.7518 17.7489 88.533C17.908 88.3143 18.1235 88.1444 18.3952 88.0234C18.667 87.9008 18.9736 87.8395 19.315 87.8395C19.6597 87.8395 19.9638 87.9 20.2273 88.021C20.4924 88.1419 20.7012 88.3085 20.8537 88.5206C21.0062 88.7311 21.0857 88.973 21.0923 89.2464H20.3516ZM22.0102 93V92.4432L23.7329 90.6584C23.9168 90.4645 24.0684 90.2946 24.1878 90.1488C24.3087 90.0013 24.3991 89.8613 24.4587 89.7287C24.5184 89.5961 24.5482 89.4553 24.5482 89.3061C24.5482 89.1371 24.5084 88.9912 24.4289 88.8686C24.3493 88.7443 24.2408 88.649 24.1032 88.5827C23.9657 88.5148 23.8108 88.4808 23.6384 88.4808C23.4561 88.4808 23.297 88.5181 23.1611 88.5927C23.0252 88.6673 22.9208 88.7725 22.8479 88.9084C22.775 89.0443 22.7385 89.2034 22.7385 89.3857H22.0052C22.0052 89.0758 22.0765 88.8048 22.219 88.5728C22.3615 88.3408 22.5571 88.161 22.8057 88.0334C23.0542 87.9041 23.3368 87.8395 23.6533 87.8395C23.9732 87.8395 24.2549 87.9033 24.4985 88.0309C24.7438 88.1568 24.9352 88.3292 25.0727 88.5479C25.2103 88.765 25.279 89.0103 25.279 89.2837C25.279 89.4727 25.2434 89.6574 25.1721 89.8381C25.1025 90.0187 24.9807 90.2201 24.8067 90.4421C24.6327 90.6625 24.3908 90.9302 24.0809 91.245L23.0692 92.304V92.3413H25.3611V93H22.0102ZM26.3131 93V89.1818H27.0265V89.8033H27.0738C27.1533 89.5928 27.2834 89.4287 27.464 89.3111C27.6447 89.1918 27.8609 89.1321 28.1128 89.1321C28.368 89.1321 28.5818 89.1918 28.7542 89.3111C28.9282 89.4304 29.0566 89.5945 29.1395 89.8033H29.1792C29.2704 89.5994 29.4154 89.437 29.6143 89.3161C29.8131 89.1934 30.0501 89.1321 30.3252 89.1321C30.6715 89.1321 30.9541 89.2406 31.1729 89.4577C31.3933 89.6748 31.5035 90.0021 31.5035 90.4396V93H30.7602V90.5092C30.7602 90.2507 30.6898 90.0634 30.5489 89.9474C30.4081 89.8314 30.2398 89.7734 30.0443 89.7734C29.8023 89.7734 29.6143 89.848 29.48 89.9972C29.3458 90.1446 29.2787 90.3344 29.2787 90.5664V93H28.5379V90.462C28.5379 90.2549 28.4733 90.0883 28.344 89.9624C28.2148 89.8364 28.0465 89.7734 27.8394 89.7734C27.6985 89.7734 27.5684 89.8107 27.4491 89.8853C27.3315 89.9582 27.2362 90.0601 27.1633 90.1911C27.092 90.322 27.0564 90.4736 27.0564 90.646V93H26.3131Z" fill="#56647E"></path>
<path d="M14.1135 126.636V120.273H14.5211V126.636H14.1135ZM15.3887 122.246C15.3622 122.011 15.2528 121.829 15.0605 121.7C14.8683 121.569 14.6264 121.503 14.3347 121.503C14.1259 121.503 13.9453 121.536 13.7928 121.603C13.6403 121.667 13.5218 121.757 13.4373 121.871C13.3545 121.984 13.313 122.112 13.313 122.256C13.313 122.377 13.3412 122.482 13.3975 122.57C13.4556 122.657 13.531 122.731 13.6238 122.791C13.7182 122.849 13.8193 122.898 13.927 122.938C14.0347 122.976 14.1383 123.007 14.2377 123.032L14.7349 123.161C14.8973 123.201 15.0639 123.255 15.2346 123.323C15.4052 123.391 15.5635 123.48 15.7093 123.591C15.8552 123.702 15.9728 123.84 16.0623 124.004C16.1535 124.168 16.199 124.364 16.199 124.593C16.199 124.881 16.1245 125.137 15.9753 125.361C15.8278 125.585 15.6132 125.761 15.3315 125.891C15.0514 126.02 14.7125 126.085 14.3148 126.085C13.9337 126.085 13.6039 126.024 13.3255 125.903C13.0471 125.782 12.8291 125.611 12.6717 125.388C12.5143 125.165 12.4273 124.9 12.4107 124.593H13.1813C13.1962 124.777 13.2559 124.93 13.3603 125.053C13.4663 125.174 13.6014 125.264 13.7654 125.324C13.9312 125.382 14.1126 125.411 14.3098 125.411C14.5269 125.411 14.72 125.377 14.889 125.309C15.0597 125.239 15.194 125.143 15.2917 125.021C15.3895 124.896 15.4384 124.751 15.4384 124.586C15.4384 124.435 15.3953 124.311 15.3091 124.215C15.2246 124.119 15.1094 124.04 14.9636 123.977C14.8194 123.914 14.6562 123.858 14.4739 123.81L13.8723 123.646C13.4647 123.535 13.1415 123.372 12.9029 123.156C12.6659 122.941 12.5474 122.656 12.5474 122.301C12.5474 122.008 12.627 121.752 12.786 121.533C12.9451 121.314 13.1606 121.144 13.4324 121.023C13.7041 120.901 14.0107 120.839 14.3521 120.839C14.6968 120.839 15.0009 120.9 15.2644 121.021C15.5295 121.142 15.7383 121.308 15.8908 121.521C16.0433 121.731 16.1228 121.973 16.1294 122.246H15.3887ZM18.9788 120.909V126H18.2082V121.68H18.1784L16.9603 122.475V121.739L18.2306 120.909H18.9788ZM20.5616 126.047C20.4257 126.047 20.3089 125.999 20.2111 125.903C20.1133 125.805 20.0645 125.688 20.0645 125.55C20.0645 125.414 20.1133 125.298 20.2111 125.202C20.3089 125.104 20.4257 125.055 20.5616 125.055C20.6975 125.055 20.8143 125.104 20.9121 125.202C21.0099 125.298 21.0588 125.414 21.0588 125.55C21.0588 125.641 21.0356 125.725 20.9892 125.801C20.9444 125.876 20.8848 125.935 20.8102 125.98C20.7356 126.025 20.6528 126.047 20.5616 126.047ZM23.6428 126.07C23.3312 126.07 23.0511 126.01 22.8026 125.891C22.5556 125.77 22.3584 125.604 22.2109 125.393C22.0634 125.183 21.9847 124.943 21.9748 124.673H22.7205C22.7388 124.891 22.8357 125.071 23.0114 125.212C23.187 125.353 23.3975 125.423 23.6428 125.423C23.8383 125.423 24.0115 125.379 24.1623 125.289C24.3147 125.198 24.4341 125.073 24.5202 124.914C24.6081 124.755 24.652 124.573 24.652 124.369C24.652 124.162 24.6072 123.977 24.5178 123.815C24.4283 123.653 24.3048 123.525 24.1474 123.432C23.9916 123.339 23.8126 123.292 23.6104 123.29C23.4563 123.29 23.3014 123.317 23.1456 123.37C22.9898 123.423 22.8639 123.493 22.7678 123.579L22.0643 123.474L22.3501 120.909H25.1491V121.568H22.989L22.8274 122.992H22.8572C22.9567 122.896 23.0884 122.816 23.2525 122.751C23.4182 122.686 23.5955 122.654 23.7844 122.654C24.0943 122.654 24.3703 122.728 24.6122 122.875C24.8558 123.023 25.0472 123.224 25.1864 123.479C25.3273 123.733 25.3969 124.025 25.3952 124.354C25.3969 124.684 25.3223 124.978 25.1715 125.237C25.0224 125.495 24.8152 125.699 24.5501 125.848C24.2866 125.996 23.9841 126.07 23.6428 126.07ZM26.3131 126V122.182H27.0265V122.803H27.0738C27.1533 122.593 27.2834 122.429 27.464 122.311C27.6447 122.192 27.8609 122.132 28.1128 122.132C28.368 122.132 28.5818 122.192 28.7542 122.311C28.9282 122.43 29.0566 122.594 29.1395 122.803H29.1792C29.2704 122.599 29.4154 122.437 29.6143 122.316C29.8131 122.193 30.0501 122.132 30.3252 122.132C30.6715 122.132 30.9541 122.241 31.1729 122.458C31.3933 122.675 31.5035 123.002 31.5035 123.44V126H30.7602V123.509C30.7602 123.251 30.6898 123.063 30.5489 122.947C30.4081 122.831 30.2398 122.773 30.0443 122.773C29.8023 122.773 29.6143 122.848 29.48 122.997C29.3458 123.145 29.2787 123.334 29.2787 123.566V126H28.5379V123.462C28.5379 123.255 28.4733 123.088 28.344 122.962C28.2148 122.836 28.0465 122.773 27.8394 122.773C27.6985 122.773 27.5684 122.811 27.4491 122.885C27.3315 122.958 27.2362 123.06 27.1633 123.191C27.092 123.322 27.0564 123.474 27.0564 123.646V126H26.3131Z" fill="#56647E"></path>
<path d="M48.297 140H47.4816L49.3137 134.909H50.2011L52.0331 140H51.2178L49.7785 135.834H49.7387L48.297 140ZM48.4337 138.006H51.0786V138.653H48.4337V138.006ZM55.1273 138.417V136.182H55.873V140H55.1422V139.339H55.1025C55.0146 139.543 54.8738 139.712 54.6799 139.848C54.4876 139.983 54.2482 140.05 53.9615 140.05C53.7162 140.05 53.4991 139.996 53.3102 139.888C53.1229 139.779 52.9754 139.617 52.8677 139.403C52.7617 139.19 52.7086 138.925 52.7086 138.61V136.182H53.4519V138.521C53.4519 138.781 53.524 138.988 53.6681 139.142C53.8123 139.297 53.9996 139.374 54.2299 139.374C54.3691 139.374 54.5075 139.339 54.6451 139.269C54.7843 139.2 54.8994 139.094 54.9906 138.953C55.0834 138.813 55.129 138.634 55.1273 138.417ZM58.4726 141.511C58.1693 141.511 57.9083 141.472 57.6895 141.392C57.4724 141.313 57.2951 141.207 57.1576 141.076C57.02 140.945 56.9173 140.802 56.8493 140.646L57.4882 140.383C57.5329 140.456 57.5926 140.533 57.6672 140.614C57.7434 140.697 57.8461 140.767 57.9754 140.825C58.1063 140.883 58.2745 140.912 58.48 140.912C58.7617 140.912 58.9946 140.844 59.1785 140.706C59.3625 140.57 59.4545 140.353 59.4545 140.055V139.304H59.4072C59.3625 139.385 59.2979 139.475 59.2133 139.575C59.1305 139.674 59.0161 139.761 58.8703 139.833C58.7245 139.906 58.5347 139.943 58.301 139.943C57.9994 139.943 57.7277 139.872 57.4857 139.732C57.2454 139.589 57.0548 139.379 56.914 139.103C56.7748 138.824 56.7052 138.482 56.7052 138.076C56.7052 137.67 56.7739 137.322 56.9115 137.032C57.0507 136.742 57.2413 136.52 57.4832 136.366C57.7252 136.21 57.9994 136.132 58.306 136.132C58.543 136.132 58.7344 136.172 58.8802 136.251C59.0261 136.329 59.1396 136.42 59.2208 136.525C59.3037 136.629 59.3675 136.721 59.4122 136.801H59.4669V136.182H60.1952V140.085C60.1952 140.413 60.119 140.682 59.9665 140.892C59.8141 141.103 59.6077 141.259 59.3476 141.36C59.089 141.461 58.7974 141.511 58.4726 141.511ZM58.4651 139.326C58.6789 139.326 58.8595 139.277 59.007 139.177C59.1562 139.076 59.2689 138.932 59.3451 138.745C59.423 138.556 59.4619 138.33 59.4619 138.066C59.4619 137.809 59.4238 137.583 59.3476 137.387C59.2713 137.192 59.1595 137.039 59.012 136.93C58.8645 136.819 58.6822 136.763 58.4651 136.763C58.2414 136.763 58.055 136.821 57.9058 136.938C57.7567 137.052 57.644 137.208 57.5677 137.405C57.4932 137.602 57.4559 137.822 57.4559 138.066C57.4559 138.316 57.494 138.536 57.5702 138.725C57.6465 138.914 57.7591 139.061 57.9083 139.167C58.0591 139.273 58.2447 139.326 58.4651 139.326ZM49.3115 146.5V146.023C49.3115 145.882 49.338 145.734 49.391 145.578C49.4441 145.422 49.5178 145.273 49.6123 145.13C49.7067 144.988 49.8178 144.866 49.9454 144.765L50.3133 145.028C50.2122 145.176 50.126 145.33 50.0547 145.491C49.9835 145.652 49.9478 145.826 49.9478 146.015V146.5H49.3115ZM50.9453 150V149.443L52.6679 147.658C52.8519 147.464 53.0035 147.295 53.1228 147.149C53.2438 147.001 53.3341 146.861 53.3938 146.729C53.4534 146.596 53.4833 146.455 53.4833 146.306C53.4833 146.137 53.4435 145.991 53.3639 145.869C53.2844 145.744 53.1759 145.649 53.0383 145.583C52.9008 145.515 52.7458 145.481 52.5735 145.481C52.3912 145.481 52.2321 145.518 52.0962 145.593C51.9603 145.667 51.8559 145.772 51.783 145.908C51.7101 146.044 51.6736 146.203 51.6736 146.386H50.9403C50.9403 146.076 51.0116 145.805 51.1541 145.573C51.2966 145.341 51.4921 145.161 51.7407 145.033C51.9893 144.904 52.2719 144.839 52.5884 144.839C52.9082 144.839 53.1899 144.903 53.4335 145.031C53.6788 145.157 53.8702 145.329 54.0078 145.548C54.1453 145.765 54.2141 146.01 54.2141 146.284C54.2141 146.473 54.1785 146.657 54.1072 146.838C54.0376 147.019 53.9158 147.22 53.7418 147.442C53.5678 147.663 53.3258 147.93 53.0159 148.245L52.0042 149.304V149.341H54.2961V150H50.9453ZM55.2382 150V149.443L56.9609 147.658C57.1448 147.464 57.2965 147.295 57.4158 147.149C57.5368 147.001 57.6271 146.861 57.6867 146.729C57.7464 146.596 57.7762 146.455 57.7762 146.306C57.7762 146.137 57.7365 145.991 57.6569 145.869C57.5774 145.744 57.4688 145.649 57.3313 145.583C57.1937 145.515 57.0388 145.481 56.8664 145.481C56.6841 145.481 56.5251 145.518 56.3892 145.593C56.2533 145.667 56.1489 145.772 56.0759 145.908C56.003 146.044 55.9666 146.203 55.9666 146.386H55.2333C55.2333 146.076 55.3045 145.805 55.447 145.573C55.5896 145.341 55.7851 145.161 56.0337 145.033C56.2823 144.904 56.5648 144.839 56.8813 144.839C57.2012 144.839 57.4829 144.903 57.7265 145.031C57.9718 145.157 58.1632 145.329 58.3007 145.548C58.4383 145.765 58.5071 146.01 58.5071 146.284C58.5071 146.473 58.4714 146.657 58.4002 146.838C58.3306 147.019 58.2088 147.22 58.0348 147.442C57.8608 147.663 57.6188 147.93 57.3089 148.245L56.2972 149.304V149.341H58.5891V150H55.2382Z" fill="#56647E"></path>
<path d="M71.3691 136.246C71.3426 136.011 71.2333 135.829 71.041 135.7C70.8488 135.569 70.6068 135.503 70.3152 135.503C70.1064 135.503 69.9257 135.536 69.7733 135.603C69.6208 135.667 69.5023 135.757 69.4178 135.871C69.3349 135.984 69.2935 136.112 69.2935 136.256C69.2935 136.377 69.3217 136.482 69.378 136.57C69.436 136.657 69.5114 136.731 69.6042 136.791C69.6987 136.849 69.7998 136.898 69.9075 136.938C70.0152 136.976 70.1188 137.007 70.2182 137.032L70.7154 137.161C70.8778 137.201 71.0443 137.255 71.215 137.323C71.3857 137.391 71.544 137.48 71.6898 137.591C71.8356 137.702 71.9533 137.84 72.0428 138.004C72.1339 138.168 72.1795 138.364 72.1795 138.593C72.1795 138.881 72.1049 139.137 71.9558 139.361C71.8083 139.585 71.5937 139.761 71.312 139.891C71.0319 140.02 70.693 140.085 70.2953 140.085C69.9141 140.085 69.5843 140.024 69.3059 139.903C69.0275 139.782 68.8096 139.611 68.6522 139.388C68.4947 139.165 68.4077 138.9 68.3912 138.593H69.1618C69.1767 138.777 69.2363 138.93 69.3407 139.053C69.4468 139.174 69.5819 139.264 69.7459 139.324C69.9116 139.382 70.0931 139.411 70.2903 139.411C70.5074 139.411 70.7005 139.377 70.8695 139.309C71.0402 139.239 71.1744 139.143 71.2722 139.021C71.37 138.896 71.4189 138.751 71.4189 138.586C71.4189 138.435 71.3758 138.311 71.2896 138.215C71.2051 138.119 71.0899 138.04 70.9441 137.977C70.7999 137.914 70.6367 137.858 70.4544 137.81L69.8528 137.646C69.4451 137.535 69.122 137.372 68.8833 137.156C68.6464 136.941 68.5279 136.656 68.5279 136.301C68.5279 136.008 68.6074 135.752 68.7665 135.533C68.9256 135.314 69.141 135.144 69.4128 135.023C69.6846 134.901 69.9912 134.839 70.3326 134.839C70.6773 134.839 70.9814 134.9 71.2449 135.021C71.51 135.142 71.7188 135.308 71.8713 135.521C72.0237 135.731 72.1033 135.973 72.1099 136.246H71.3691ZM74.6833 140.077C74.3071 140.077 73.9832 139.997 73.7114 139.836C73.4413 139.674 73.2325 139.446 73.085 139.152C72.9391 138.857 72.8662 138.512 72.8662 138.116C72.8662 137.725 72.9391 137.38 73.085 137.082C73.2325 136.783 73.4379 136.551 73.7014 136.383C73.9666 136.216 74.2765 136.132 74.6311 136.132C74.8466 136.132 75.0554 136.168 75.2575 136.239C75.4597 136.31 75.6412 136.422 75.8019 136.575C75.9627 136.727 76.0895 136.925 76.1823 137.169C76.2751 137.411 76.3215 137.705 76.3215 138.051V138.315H73.2863V137.758H75.5931C75.5931 137.562 75.5534 137.389 75.4738 137.238C75.3943 137.086 75.2824 136.966 75.1382 136.878C74.9957 136.79 74.8283 136.746 74.6361 136.746C74.4273 136.746 74.245 136.797 74.0892 136.9C73.9351 137.001 73.8158 137.134 73.7313 137.298C73.6484 137.46 73.607 137.637 73.607 137.827V138.262C73.607 138.518 73.6517 138.735 73.7412 138.914C73.8324 139.093 73.9591 139.229 74.1215 139.324C74.2839 139.417 74.4737 139.463 74.6908 139.463C74.8316 139.463 74.9601 139.443 75.0761 139.403C75.1921 139.362 75.2923 139.301 75.3769 139.219C75.4614 139.138 75.526 139.038 75.5708 138.919L76.2742 139.045C76.2179 139.253 76.1168 139.434 75.971 139.59C75.8268 139.744 75.6453 139.864 75.4266 139.95C75.2095 140.035 74.9617 140.077 74.6833 140.077ZM77.1461 141.432V136.182H77.872V136.801H77.9341C77.9772 136.721 78.0394 136.629 78.1206 136.525C78.2018 136.42 78.3145 136.329 78.4586 136.251C78.6028 136.172 78.7934 136.132 79.0304 136.132C79.3386 136.132 79.6137 136.21 79.8556 136.366C80.0976 136.522 80.2873 136.746 80.4249 137.039C80.5641 137.333 80.6337 137.686 80.6337 138.098C80.6337 138.511 80.5649 138.865 80.4274 139.16C80.2898 139.453 80.1009 139.679 79.8606 139.838C79.6203 139.996 79.3461 140.075 79.0378 140.075C78.8058 140.075 78.6161 140.036 78.4686 139.958C78.3227 139.88 78.2084 139.789 78.1255 139.684C78.0427 139.58 77.9789 139.487 77.9341 139.406H77.8894V141.432H77.1461ZM77.8745 138.091C77.8745 138.359 77.9134 138.595 77.9913 138.797C78.0692 138.999 78.1819 139.157 78.3294 139.272C78.4769 139.384 78.6575 139.441 78.8713 139.441C79.0933 139.441 79.2789 139.382 79.4281 139.264C79.5772 139.145 79.6899 138.983 79.7662 138.779C79.844 138.576 79.883 138.346 79.883 138.091C79.883 137.839 79.8449 137.613 79.7686 137.412C79.6941 137.212 79.5814 137.054 79.4306 136.938C79.2814 136.821 79.095 136.763 78.8713 136.763C78.6558 136.763 78.4735 136.819 78.3244 136.93C78.1769 137.041 78.065 137.196 77.9888 137.395C77.9126 137.594 77.8745 137.826 77.8745 138.091ZM69.8115 146.5V146.023C69.8115 145.882 69.838 145.734 69.891 145.578C69.9441 145.422 70.0178 145.273 70.1123 145.13C70.2067 144.988 70.3178 144.866 70.4454 144.765L70.8133 145.028C70.7122 145.176 70.626 145.33 70.5547 145.491C70.4835 145.652 70.4478 145.826 70.4478 146.015V146.5H69.8115ZM71.4453 150V149.443L73.1679 147.658C73.3519 147.464 73.5035 147.295 73.6228 147.149C73.7438 147.001 73.8341 146.861 73.8938 146.729C73.9534 146.596 73.9833 146.455 73.9833 146.306C73.9833 146.137 73.9435 145.991 73.8639 145.869C73.7844 145.744 73.6759 145.649 73.5383 145.583C73.4008 145.515 73.2458 145.481 73.0735 145.481C72.8912 145.481 72.7321 145.518 72.5962 145.593C72.4603 145.667 72.3559 145.772 72.283 145.908C72.2101 146.044 72.1736 146.203 72.1736 146.386H71.4403C71.4403 146.076 71.5116 145.805 71.6541 145.573C71.7966 145.341 71.9921 145.161 72.2407 145.033C72.4893 144.904 72.7719 144.839 73.0884 144.839C73.4082 144.839 73.6899 144.903 73.9335 145.031C74.1788 145.157 74.3702 145.329 74.5078 145.548C74.6453 145.765 74.7141 146.01 74.7141 146.284C74.7141 146.473 74.6785 146.657 74.6072 146.838C74.5376 147.019 74.4158 147.22 74.2418 147.442C74.0678 147.663 73.8258 147.93 73.5159 148.245L72.5042 149.304V149.341H74.7961V150H71.4453ZM75.7382 150V149.443L77.4609 147.658C77.6448 147.464 77.7965 147.295 77.9158 147.149C78.0368 147.001 78.1271 146.861 78.1867 146.729C78.2464 146.596 78.2762 146.455 78.2762 146.306C78.2762 146.137 78.2365 145.991 78.1569 145.869C78.0774 145.744 77.9688 145.649 77.8313 145.583C77.6937 145.515 77.5388 145.481 77.3664 145.481C77.1841 145.481 77.0251 145.518 76.8892 145.593C76.7533 145.667 76.6489 145.772 76.5759 145.908C76.503 146.044 76.4666 146.203 76.4666 146.386H75.7333C75.7333 146.076 75.8045 145.805 75.947 145.573C76.0896 145.341 76.2851 145.161 76.5337 145.033C76.7823 144.904 77.0648 144.839 77.3813 144.839C77.7012 144.839 77.9829 144.903 78.2265 145.031C78.4718 145.157 78.6632 145.329 78.8007 145.548C78.9383 145.765 79.0071 146.01 79.0071 146.284C79.0071 146.473 78.9714 146.657 78.9002 146.838C78.8306 147.019 78.7088 147.22 78.5348 147.442C78.3608 147.663 78.1188 147.93 77.8089 148.245L76.7972 149.304V149.341H79.0891V150H75.7382Z" fill="#56647E"></path>
<path d="M93.0035 137.455C93.0035 137.998 92.9041 138.465 92.7052 138.857C92.5063 139.246 92.2337 139.546 91.8874 139.756C91.5427 139.965 91.1508 140.07 90.7116 140.07C90.2708 140.07 89.8772 139.965 89.5309 139.756C89.1862 139.546 88.9144 139.245 88.7155 138.854C88.5166 138.463 88.4172 137.996 88.4172 137.455C88.4172 136.911 88.5166 136.444 88.7155 136.055C88.9144 135.664 89.1862 135.364 89.5309 135.155C89.8772 134.945 90.2708 134.839 90.7116 134.839C91.1508 134.839 91.5427 134.945 91.8874 135.155C92.2337 135.364 92.5063 135.664 92.7052 136.055C92.9041 136.444 93.0035 136.911 93.0035 137.455ZM92.2429 137.455C92.2429 137.04 92.1757 136.691 92.0415 136.408C91.9089 136.123 91.7266 135.908 91.4946 135.762C91.2643 135.614 91.0033 135.54 90.7116 135.54C90.4183 135.54 90.1564 135.614 89.9261 135.762C89.6957 135.908 89.5134 136.123 89.3792 136.408C89.2466 136.691 89.1804 137.04 89.1804 137.455C89.1804 137.869 89.2466 138.219 89.3792 138.504C89.5134 138.787 89.6957 139.002 89.9261 139.15C90.1564 139.296 90.4183 139.369 90.7116 139.369C91.0033 139.369 91.2643 139.296 91.4946 139.15C91.7266 139.002 91.9089 138.787 92.0415 138.504C92.1757 138.219 92.2429 137.869 92.2429 137.455ZM95.5098 140.077C95.1403 140.077 94.8221 139.993 94.5553 139.826C94.2901 139.657 94.0863 139.424 93.9438 139.127C93.8012 138.831 93.73 138.491 93.73 138.108C93.73 137.721 93.8029 137.378 93.9487 137.082C94.0946 136.783 94.3001 136.551 94.5652 136.383C94.8304 136.216 95.1427 136.132 95.5024 136.132C95.7924 136.132 96.0509 136.186 96.2779 136.294C96.505 136.4 96.6881 136.549 96.8273 136.741C96.9681 136.933 97.0518 137.158 97.0783 137.415H96.355C96.3152 137.236 96.2241 137.082 96.0815 136.952C95.9407 136.823 95.7518 136.759 95.5148 136.759C95.3076 136.759 95.1262 136.813 94.9704 136.923C94.8163 137.03 94.6961 137.184 94.61 137.385C94.5238 137.584 94.4807 137.819 94.4807 138.091C94.4807 138.369 94.5229 138.61 94.6075 138.812C94.692 139.014 94.8113 139.171 94.9654 139.282C95.1212 139.393 95.3043 139.448 95.5148 139.448C95.6556 139.448 95.7832 139.422 95.8976 139.371C96.0136 139.318 96.1105 139.243 96.1884 139.145C96.268 139.047 96.3235 138.929 96.355 138.792H97.0783C97.0518 139.039 96.9715 139.259 96.8372 139.453C96.703 139.647 96.5232 139.799 96.2978 139.911C96.0741 140.022 95.8114 140.077 95.5098 140.077ZM99.6555 136.182V136.778H97.5699V136.182H99.6555ZM98.1292 135.267H98.8725V138.879C98.8725 139.023 98.894 139.132 98.9371 139.205C98.9802 139.276 99.0357 139.325 99.1036 139.351C99.1733 139.376 99.2487 139.388 99.3299 139.388C99.3895 139.388 99.4417 139.384 99.4865 139.376C99.5312 139.368 99.566 139.361 99.5909 139.356L99.7251 139.97C99.682 139.987 99.6207 140.003 99.5411 140.02C99.4616 140.038 99.3622 140.048 99.2429 140.05C99.0473 140.053 98.865 140.018 98.696 139.945C98.5269 139.872 98.3902 139.76 98.2858 139.607C98.1814 139.455 98.1292 139.263 98.1292 139.033V135.267ZM89.3115 146.5V146.023C89.3115 145.882 89.338 145.734 89.391 145.578C89.4441 145.422 89.5178 145.273 89.6123 145.13C89.7067 144.988 89.8178 144.866 89.9454 144.765L90.3133 145.028C90.2122 145.176 90.126 145.33 90.0547 145.491C89.9835 145.652 89.9478 145.826 89.9478 146.015V146.5H89.3115ZM90.9453 150V149.443L92.6679 147.658C92.8519 147.464 93.0035 147.295 93.1228 147.149C93.2438 147.001 93.3341 146.861 93.3938 146.729C93.4534 146.596 93.4833 146.455 93.4833 146.306C93.4833 146.137 93.4435 145.991 93.3639 145.869C93.2844 145.744 93.1759 145.649 93.0383 145.583C92.9008 145.515 92.7458 145.481 92.5735 145.481C92.3912 145.481 92.2321 145.518 92.0962 145.593C91.9603 145.667 91.8559 145.772 91.783 145.908C91.7101 146.044 91.6736 146.203 91.6736 146.386H90.9403C90.9403 146.076 91.0116 145.805 91.1541 145.573C91.2966 145.341 91.4921 145.161 91.7407 145.033C91.9893 144.904 92.2719 144.839 92.5884 144.839C92.9082 144.839 93.1899 144.903 93.4335 145.031C93.6788 145.157 93.8702 145.329 94.0078 145.548C94.1453 145.765 94.2141 146.01 94.2141 146.284C94.2141 146.473 94.1785 146.657 94.1072 146.838C94.0376 147.019 93.9158 147.22 93.7418 147.442C93.5678 147.663 93.3258 147.93 93.0159 148.245L92.0042 149.304V149.341H94.2961V150H90.9453ZM95.2382 150V149.443L96.9609 147.658C97.1448 147.464 97.2965 147.295 97.4158 147.149C97.5368 147.001 97.6271 146.861 97.6867 146.729C97.7464 146.596 97.7762 146.455 97.7762 146.306C97.7762 146.137 97.7365 145.991 97.6569 145.869C97.5774 145.744 97.4688 145.649 97.3313 145.583C97.1937 145.515 97.0388 145.481 96.8664 145.481C96.6841 145.481 96.5251 145.518 96.3892 145.593C96.2533 145.667 96.1489 145.772 96.0759 145.908C96.003 146.044 95.9666 146.203 95.9666 146.386H95.2333C95.2333 146.076 95.3045 145.805 95.447 145.573C95.5896 145.341 95.7851 145.161 96.0337 145.033C96.2823 144.904 96.5648 144.839 96.8813 144.839C97.2012 144.839 97.4829 144.903 97.7265 145.031C97.9718 145.157 98.1632 145.329 98.3007 145.548C98.4383 145.765 98.5071 146.01 98.5071 146.284C98.5071 146.473 98.4714 146.657 98.4002 146.838C98.3306 147.019 98.2088 147.22 98.0348 147.442C97.8608 147.663 97.6188 147.93 97.3089 148.245L96.2972 149.304V149.341H98.5891V150H95.2382Z" fill="#56647E"></path>
<path d="M112.027 134.909V140H111.321L108.734 136.266H108.686V140H107.918V134.909H108.629L111.219 138.648H111.267V134.909H112.027ZM114.696 140.077C114.338 140.077 114.026 139.995 113.759 139.831C113.492 139.667 113.285 139.437 113.138 139.142C112.99 138.847 112.917 138.503 112.917 138.108C112.917 137.712 112.99 137.366 113.138 137.069C113.285 136.773 113.492 136.542 113.759 136.378C114.026 136.214 114.338 136.132 114.696 136.132C115.054 136.132 115.367 136.214 115.633 136.378C115.9 136.542 116.107 136.773 116.255 137.069C116.402 137.366 116.476 137.712 116.476 138.108C116.476 138.503 116.402 138.847 116.255 139.142C116.107 139.437 115.9 139.667 115.633 139.831C115.367 139.995 115.054 140.077 114.696 140.077ZM114.699 139.453C114.931 139.453 115.123 139.392 115.276 139.269C115.428 139.147 115.541 138.983 115.614 138.779C115.688 138.576 115.725 138.351 115.725 138.106C115.725 137.862 115.688 137.638 115.614 137.435C115.541 137.229 115.428 137.064 115.276 136.94C115.123 136.816 114.931 136.754 114.699 136.754C114.465 136.754 114.271 136.816 114.117 136.94C113.965 137.064 113.851 137.229 113.777 137.435C113.704 137.638 113.667 137.862 113.667 138.106C113.667 138.351 113.704 138.576 113.777 138.779C113.851 138.983 113.965 139.147 114.117 139.269C114.271 139.392 114.465 139.453 114.699 139.453ZM120.442 136.182L119.058 140H118.262L116.875 136.182H117.673L118.64 139.12H118.68L119.644 136.182H120.442ZM109.311 146.5V146.023C109.311 145.882 109.338 145.734 109.391 145.578C109.444 145.422 109.518 145.273 109.612 145.13C109.707 144.988 109.818 144.866 109.945 144.765L110.313 145.028C110.212 145.176 110.126 145.33 110.055 145.491C109.983 145.652 109.948 145.826 109.948 146.015V146.5H109.311ZM110.945 150V149.443L112.668 147.658C112.852 147.464 113.004 147.295 113.123 147.149C113.244 147.001 113.334 146.861 113.394 146.729C113.453 146.596 113.483 146.455 113.483 146.306C113.483 146.137 113.443 145.991 113.364 145.869C113.284 145.744 113.176 145.649 113.038 145.583C112.901 145.515 112.746 145.481 112.573 145.481C112.391 145.481 112.232 145.518 112.096 145.593C111.96 145.667 111.856 145.772 111.783 145.908C111.71 146.044 111.674 146.203 111.674 146.386H110.94C110.94 146.076 111.012 145.805 111.154 145.573C111.297 145.341 111.492 145.161 111.741 145.033C111.989 144.904 112.272 144.839 112.588 144.839C112.908 144.839 113.19 144.903 113.434 145.031C113.679 145.157 113.87 145.329 114.008 145.548C114.145 145.765 114.214 146.01 114.214 146.284C114.214 146.473 114.178 146.657 114.107 146.838C114.038 147.019 113.916 147.22 113.742 147.442C113.568 147.663 113.326 147.93 113.016 148.245L112.004 149.304V149.341H114.296V150H110.945ZM115.238 150V149.443L116.961 147.658C117.145 147.464 117.296 147.295 117.416 147.149C117.537 147.001 117.627 146.861 117.687 146.729C117.746 146.596 117.776 146.455 117.776 146.306C117.776 146.137 117.736 145.991 117.657 145.869C117.577 145.744 117.469 145.649 117.331 145.583C117.194 145.515 117.039 145.481 116.866 145.481C116.684 145.481 116.525 145.518 116.389 145.593C116.253 145.667 116.149 145.772 116.076 145.908C116.003 146.044 115.967 146.203 115.967 146.386H115.233C115.233 146.076 115.305 145.805 115.447 145.573C115.59 145.341 115.785 145.161 116.034 145.033C116.282 144.904 116.565 144.839 116.881 144.839C117.201 144.839 117.483 144.903 117.727 145.031C117.972 145.157 118.163 145.329 118.301 145.548C118.438 145.765 118.507 146.01 118.507 146.284C118.507 146.473 118.471 146.657 118.4 146.838C118.331 147.019 118.209 147.22 118.035 147.442C117.861 147.663 117.619 147.93 117.309 148.245L116.297 149.304V149.341H118.589V150H115.238Z" fill="#56647E"></path>
<path d="M129.641 140H127.993V134.909H129.694C130.192 134.909 130.621 135.011 130.979 135.215C131.337 135.417 131.611 135.708 131.802 136.087C131.994 136.465 132.09 136.918 132.09 137.447C132.09 137.977 131.993 138.433 131.799 138.814C131.607 139.195 131.328 139.489 130.964 139.694C130.599 139.898 130.159 140 129.641 140ZM128.761 139.329H129.599C129.987 139.329 130.309 139.256 130.566 139.11C130.823 138.963 131.015 138.75 131.143 138.471C131.27 138.191 131.334 137.85 131.334 137.447C131.334 137.048 131.27 136.709 131.143 136.43C131.017 136.152 130.829 135.941 130.579 135.797C130.328 135.652 130.018 135.58 129.646 135.58H128.761V139.329ZM134.631 140.077C134.255 140.077 133.931 139.997 133.659 139.836C133.389 139.674 133.18 139.446 133.033 139.152C132.887 138.857 132.814 138.512 132.814 138.116C132.814 137.725 132.887 137.38 133.033 137.082C133.18 136.783 133.386 136.551 133.649 136.383C133.914 136.216 134.224 136.132 134.579 136.132C134.794 136.132 135.003 136.168 135.205 136.239C135.407 136.31 135.589 136.422 135.75 136.575C135.91 136.727 136.037 136.925 136.13 137.169C136.223 137.411 136.269 137.705 136.269 138.051V138.315H133.234V137.758H135.541C135.541 137.562 135.501 137.389 135.422 137.238C135.342 137.086 135.23 136.966 135.086 136.878C134.943 136.79 134.776 136.746 134.584 136.746C134.375 136.746 134.193 136.797 134.037 136.9C133.883 137.001 133.764 137.134 133.679 137.298C133.596 137.46 133.555 137.637 133.555 137.827V138.262C133.555 138.518 133.599 138.735 133.689 138.914C133.78 139.093 133.907 139.229 134.069 139.324C134.232 139.417 134.421 139.463 134.639 139.463C134.779 139.463 134.908 139.443 135.024 139.403C135.14 139.362 135.24 139.301 135.325 139.219C135.409 139.138 135.474 139.038 135.519 138.919L136.222 139.045C136.166 139.253 136.065 139.434 135.919 139.59C135.775 139.744 135.593 139.864 135.374 139.95C135.157 140.035 134.909 140.077 134.631 140.077ZM138.702 140.077C138.333 140.077 138.014 139.993 137.748 139.826C137.482 139.657 137.279 139.424 137.136 139.127C136.994 138.831 136.922 138.491 136.922 138.108C136.922 137.721 136.995 137.378 137.141 137.082C137.287 136.783 137.492 136.551 137.758 136.383C138.023 136.216 138.335 136.132 138.695 136.132C138.985 136.132 139.243 136.186 139.47 136.294C139.697 136.4 139.88 136.549 140.02 136.741C140.161 136.933 140.244 137.158 140.271 137.415H139.547C139.508 137.236 139.416 137.082 139.274 136.952C139.133 136.823 138.944 136.759 138.707 136.759C138.5 136.759 138.319 136.813 138.163 136.923C138.009 137.03 137.889 137.184 137.802 137.385C137.716 137.584 137.673 137.819 137.673 138.091C137.673 138.369 137.715 138.61 137.8 138.812C137.884 139.014 138.004 139.171 138.158 139.282C138.314 139.393 138.497 139.448 138.707 139.448C138.848 139.448 138.976 139.422 139.09 139.371C139.206 139.318 139.303 139.243 139.381 139.145C139.46 139.047 139.516 138.929 139.547 138.792H140.271C140.244 139.039 140.164 139.259 140.03 139.453C139.895 139.647 139.716 139.799 139.49 139.911C139.266 140.022 139.004 140.077 138.702 140.077ZM129.311 146.5V146.023C129.311 145.882 129.338 145.734 129.391 145.578C129.444 145.422 129.518 145.273 129.612 145.13C129.707 144.988 129.818 144.866 129.945 144.765L130.313 145.028C130.212 145.176 130.126 145.33 130.055 145.491C129.983 145.652 129.948 145.826 129.948 146.015V146.5H129.311ZM130.945 150V149.443L132.668 147.658C132.852 147.464 133.004 147.295 133.123 147.149C133.244 147.001 133.334 146.861 133.394 146.729C133.453 146.596 133.483 146.455 133.483 146.306C133.483 146.137 133.443 145.991 133.364 145.869C133.284 145.744 133.176 145.649 133.038 145.583C132.901 145.515 132.746 145.481 132.573 145.481C132.391 145.481 132.232 145.518 132.096 145.593C131.96 145.667 131.856 145.772 131.783 145.908C131.71 146.044 131.674 146.203 131.674 146.386H130.94C130.94 146.076 131.012 145.805 131.154 145.573C131.297 145.341 131.492 145.161 131.741 145.033C131.989 144.904 132.272 144.839 132.588 144.839C132.908 144.839 133.19 144.903 133.434 145.031C133.679 145.157 133.87 145.329 134.008 145.548C134.145 145.765 134.214 146.01 134.214 146.284C134.214 146.473 134.178 146.657 134.107 146.838C134.038 147.019 133.916 147.22 133.742 147.442C133.568 147.663 133.326 147.93 133.016 148.245L132.004 149.304V149.341H134.296V150H130.945ZM135.238 150V149.443L136.961 147.658C137.145 147.464 137.296 147.295 137.416 147.149C137.537 147.001 137.627 146.861 137.687 146.729C137.746 146.596 137.776 146.455 137.776 146.306C137.776 146.137 137.736 145.991 137.657 145.869C137.577 145.744 137.469 145.649 137.331 145.583C137.194 145.515 137.039 145.481 136.866 145.481C136.684 145.481 136.525 145.518 136.389 145.593C136.253 145.667 136.149 145.772 136.076 145.908C136.003 146.044 135.967 146.203 135.967 146.386H135.233C135.233 146.076 135.305 145.805 135.447 145.573C135.59 145.341 135.785 145.161 136.034 145.033C136.282 144.904 136.565 144.839 136.881 144.839C137.201 144.839 137.483 144.903 137.727 145.031C137.972 145.157 138.163 145.329 138.301 145.548C138.438 145.765 138.507 146.01 138.507 146.284C138.507 146.473 138.471 146.657 138.4 146.838C138.331 147.019 138.209 147.22 138.035 147.442C137.861 147.663 137.619 147.93 137.309 148.245L136.297 149.304V149.341H138.589V150H135.238Z" fill="#56647E"></path>
<path d="M151.022 134.909H151.788V138.518C151.788 138.845 151.723 139.124 151.594 139.356C151.467 139.588 151.287 139.766 151.055 139.888C150.823 140.009 150.551 140.07 150.239 140.07C149.953 140.07 149.695 140.017 149.466 139.913C149.239 139.809 149.059 139.657 148.927 139.458C148.796 139.258 148.73 139.014 148.73 138.727H149.494C149.494 138.868 149.526 138.99 149.591 139.093C149.657 139.195 149.747 139.276 149.862 139.334C149.978 139.39 150.11 139.418 150.259 139.418C150.422 139.418 150.559 139.384 150.672 139.316C150.786 139.247 150.873 139.145 150.933 139.011C150.993 138.876 151.022 138.712 151.022 138.518V134.909ZM153.957 140.085C153.716 140.085 153.497 140.04 153.301 139.95C153.106 139.859 152.951 139.727 152.836 139.555C152.724 139.383 152.667 139.171 152.667 138.921C152.667 138.706 152.709 138.528 152.792 138.389C152.874 138.25 152.986 138.14 153.127 138.059C153.268 137.977 153.426 137.916 153.6 137.875C153.774 137.833 153.951 137.802 154.131 137.78C154.36 137.754 154.546 137.732 154.688 137.716C154.831 137.697 154.934 137.668 154.999 137.629C155.064 137.589 155.096 137.524 155.096 137.435V137.417C155.096 137.2 155.035 137.032 154.912 136.913C154.791 136.793 154.61 136.734 154.37 136.734C154.12 136.734 153.923 136.789 153.778 136.9C153.636 137.01 153.537 137.131 153.483 137.266L152.784 137.107C152.867 136.875 152.988 136.687 153.147 136.545C153.308 136.401 153.493 136.296 153.701 136.232C153.91 136.165 154.13 136.132 154.36 136.132C154.513 136.132 154.674 136.15 154.845 136.187C155.017 136.222 155.178 136.286 155.327 136.381C155.478 136.475 155.601 136.61 155.698 136.786C155.794 136.96 155.842 137.186 155.842 137.464V140H155.116V139.478H155.086C155.038 139.574 154.966 139.669 154.87 139.761C154.774 139.854 154.65 139.931 154.499 139.993C154.349 140.054 154.168 140.085 153.957 140.085ZM154.119 139.488C154.325 139.488 154.5 139.447 154.646 139.366C154.794 139.285 154.905 139.179 154.982 139.048C155.06 138.915 155.098 138.774 155.098 138.623V138.131C155.072 138.157 155.021 138.182 154.944 138.205C154.87 138.227 154.784 138.246 154.688 138.262C154.592 138.277 154.499 138.291 154.407 138.305C154.316 138.316 154.24 138.326 154.179 138.335C154.035 138.353 153.903 138.383 153.783 138.426C153.666 138.47 153.571 138.532 153.5 138.613C153.43 138.692 153.396 138.799 153.396 138.931C153.396 139.115 153.464 139.254 153.6 139.349C153.735 139.442 153.909 139.488 154.119 139.488ZM157.575 137.733V140H156.832V136.182H157.545V136.803H157.592C157.68 136.601 157.818 136.439 158.005 136.316C158.194 136.193 158.432 136.132 158.718 136.132C158.979 136.132 159.206 136.187 159.402 136.296C159.598 136.404 159.749 136.565 159.857 136.778C159.965 136.992 160.018 137.257 160.018 137.571V140H159.275V137.661C159.275 137.384 159.203 137.168 159.059 137.012C158.915 136.855 158.717 136.776 158.465 136.776C158.292 136.776 158.139 136.813 158.005 136.888C157.872 136.962 157.767 137.072 157.689 137.216C157.613 137.358 157.575 137.531 157.575 137.733ZM149.702 146.5V146.023C149.702 145.882 149.729 145.734 149.782 145.578C149.835 145.422 149.908 145.273 150.003 145.13C150.097 144.988 150.208 144.866 150.336 144.765L150.704 145.028C150.603 145.176 150.517 145.33 150.445 145.491C150.374 145.652 150.338 145.826 150.338 146.015V146.5H149.702ZM151.336 150V149.443L153.059 147.658C153.242 147.464 153.394 147.295 153.513 147.149C153.634 147.001 153.725 146.861 153.784 146.729C153.844 146.596 153.874 146.455 153.874 146.306C153.874 146.137 153.834 145.991 153.755 145.869C153.675 145.744 153.566 145.649 153.429 145.583C153.291 145.515 153.136 145.481 152.964 145.481C152.782 145.481 152.623 145.518 152.487 145.593C152.351 145.667 152.247 145.772 152.174 145.908C152.101 146.044 152.064 146.203 152.064 146.386H151.331C151.331 146.076 151.402 145.805 151.545 145.573C151.687 145.341 151.883 145.161 152.131 145.033C152.38 144.904 152.662 144.839 152.979 144.839C153.299 144.839 153.581 144.903 153.824 145.031C154.069 145.157 154.261 145.329 154.398 145.548C154.536 145.765 154.605 146.01 154.605 146.284C154.605 146.473 154.569 146.657 154.498 146.838C154.428 147.019 154.306 147.22 154.132 147.442C153.958 147.663 153.716 147.93 153.407 148.245L152.395 149.304V149.341H154.687V150H151.336ZM157.401 150.07C157.06 150.07 156.755 150.011 156.486 149.893C156.22 149.775 156.008 149.612 155.853 149.403C155.698 149.193 155.616 148.949 155.604 148.673H156.385C156.394 148.823 156.445 148.954 156.536 149.065C156.629 149.175 156.75 149.259 156.899 149.319C157.048 149.379 157.214 149.408 157.396 149.408C157.597 149.408 157.774 149.374 157.928 149.304C158.084 149.234 158.206 149.137 158.294 149.013C158.381 148.887 158.425 148.742 158.425 148.578C158.425 148.407 158.381 148.257 158.294 148.128C158.207 147.997 158.081 147.895 157.913 147.82C157.748 147.745 157.547 147.708 157.312 147.708H156.882V147.082H157.312C157.501 147.082 157.666 147.048 157.809 146.98C157.953 146.912 158.066 146.817 158.147 146.696C158.228 146.574 158.269 146.43 158.269 146.266C158.269 146.109 158.233 145.972 158.162 145.856C158.092 145.739 157.993 145.647 157.864 145.58C157.736 145.514 157.585 145.481 157.411 145.481C157.245 145.481 157.091 145.511 156.946 145.573C156.804 145.632 156.688 145.719 156.598 145.831C156.509 145.942 156.461 146.076 156.454 146.232H155.711C155.719 145.956 155.8 145.714 155.955 145.506C156.11 145.297 156.316 145.134 156.571 145.016C156.826 144.898 157.11 144.839 157.421 144.839C157.748 144.839 158.029 144.903 158.266 145.031C158.505 145.157 158.689 145.325 158.818 145.536C158.949 145.746 159.014 145.976 159.012 146.227C159.014 146.512 158.934 146.754 158.773 146.952C158.614 147.151 158.402 147.285 158.137 147.353V147.392C158.475 147.444 158.737 147.578 158.923 147.795C159.11 148.012 159.203 148.281 159.201 148.603C159.203 148.883 159.125 149.134 158.967 149.356C158.812 149.578 158.599 149.753 158.328 149.881C158.058 150.007 157.749 150.07 157.401 150.07Z" fill="#56647E"></path>
<path d="M168.904 140V134.909H172.061V135.57H169.672V137.121H171.834V137.78H169.672V140H168.904ZM174.311 140.077C173.935 140.077 173.611 139.997 173.339 139.836C173.069 139.674 172.86 139.446 172.712 139.152C172.567 138.857 172.494 138.512 172.494 138.116C172.494 137.725 172.567 137.38 172.712 137.082C172.86 136.783 173.065 136.551 173.329 136.383C173.594 136.216 173.904 136.132 174.259 136.132C174.474 136.132 174.683 136.168 174.885 136.239C175.087 136.31 175.269 136.422 175.429 136.575C175.59 136.727 175.717 136.925 175.81 137.169C175.903 137.411 175.949 137.705 175.949 138.051V138.315H172.914V137.758H175.221C175.221 137.562 175.181 137.389 175.101 137.238C175.022 137.086 174.91 136.966 174.766 136.878C174.623 136.79 174.456 136.746 174.264 136.746C174.055 136.746 173.872 136.797 173.717 136.9C173.563 137.001 173.443 137.134 173.359 137.298C173.276 137.46 173.234 137.637 173.234 137.827V138.262C173.234 138.518 173.279 138.735 173.369 138.914C173.46 139.093 173.587 139.229 173.749 139.324C173.911 139.417 174.101 139.463 174.318 139.463C174.459 139.463 174.588 139.443 174.704 139.403C174.82 139.362 174.92 139.301 175.004 139.219C175.089 139.138 175.153 139.038 175.198 138.919L175.902 139.045C175.845 139.253 175.744 139.434 175.598 139.59C175.454 139.744 175.273 139.864 175.054 139.95C174.837 140.035 174.589 140.077 174.311 140.077ZM176.833 140V134.909H177.576V136.801H177.621C177.664 136.721 177.726 136.629 177.808 136.525C177.889 136.42 178.002 136.329 178.146 136.251C178.29 136.172 178.48 136.132 178.717 136.132C179.026 136.132 179.301 136.21 179.543 136.366C179.785 136.522 179.974 136.746 180.112 137.039C180.251 137.333 180.321 137.686 180.321 138.098C180.321 138.511 180.252 138.865 180.114 139.16C179.977 139.453 179.788 139.679 179.548 139.838C179.307 139.996 179.033 140.075 178.725 140.075C178.493 140.075 178.303 140.036 178.156 139.958C178.01 139.88 177.895 139.789 177.813 139.684C177.73 139.58 177.666 139.487 177.621 139.406H177.559V140H176.833ZM177.562 138.091C177.562 138.359 177.601 138.595 177.678 138.797C177.756 138.999 177.869 139.157 178.016 139.272C178.164 139.384 178.345 139.441 178.558 139.441C178.78 139.441 178.966 139.382 179.115 139.264C179.264 139.145 179.377 138.983 179.453 138.779C179.531 138.576 179.57 138.346 179.57 138.091C179.57 137.839 179.532 137.613 179.456 137.412C179.381 137.212 179.268 137.054 179.118 136.938C178.969 136.821 178.782 136.763 178.558 136.763C178.343 136.763 178.161 136.819 178.011 136.93C177.864 137.041 177.752 137.196 177.676 137.395C177.6 137.594 177.562 137.826 177.562 138.091ZM169.702 146.5V146.023C169.702 145.882 169.729 145.734 169.782 145.578C169.835 145.422 169.908 145.273 170.003 145.13C170.097 144.988 170.208 144.866 170.336 144.765L170.704 145.028C170.603 145.176 170.517 145.33 170.445 145.491C170.374 145.652 170.338 145.826 170.338 146.015V146.5H169.702ZM171.336 150V149.443L173.059 147.658C173.242 147.464 173.394 147.295 173.513 147.149C173.634 147.001 173.725 146.861 173.784 146.729C173.844 146.596 173.874 146.455 173.874 146.306C173.874 146.137 173.834 145.991 173.755 145.869C173.675 145.744 173.566 145.649 173.429 145.583C173.291 145.515 173.136 145.481 172.964 145.481C172.782 145.481 172.623 145.518 172.487 145.593C172.351 145.667 172.247 145.772 172.174 145.908C172.101 146.044 172.064 146.203 172.064 146.386H171.331C171.331 146.076 171.402 145.805 171.545 145.573C171.687 145.341 171.883 145.161 172.131 145.033C172.38 144.904 172.662 144.839 172.979 144.839C173.299 144.839 173.581 144.903 173.824 145.031C174.069 145.157 174.261 145.329 174.398 145.548C174.536 145.765 174.605 146.01 174.605 146.284C174.605 146.473 174.569 146.657 174.498 146.838C174.428 147.019 174.306 147.22 174.132 147.442C173.958 147.663 173.716 147.93 173.407 148.245L172.395 149.304V149.341H174.687V150H171.336ZM177.401 150.07C177.06 150.07 176.755 150.011 176.486 149.893C176.22 149.775 176.008 149.612 175.853 149.403C175.698 149.193 175.616 148.949 175.604 148.673H176.385C176.394 148.823 176.445 148.954 176.536 149.065C176.629 149.175 176.75 149.259 176.899 149.319C177.048 149.379 177.214 149.408 177.396 149.408C177.597 149.408 177.774 149.374 177.928 149.304C178.084 149.234 178.206 149.137 178.294 149.013C178.381 148.887 178.425 148.742 178.425 148.578C178.425 148.407 178.381 148.257 178.294 148.128C178.207 147.997 178.081 147.895 177.913 147.82C177.748 147.745 177.547 147.708 177.312 147.708H176.882V147.082H177.312C177.501 147.082 177.666 147.048 177.809 146.98C177.953 146.912 178.066 146.817 178.147 146.696C178.228 146.574 178.269 146.43 178.269 146.266C178.269 146.109 178.233 145.972 178.162 145.856C178.092 145.739 177.993 145.647 177.864 145.58C177.736 145.514 177.585 145.481 177.411 145.481C177.245 145.481 177.091 145.511 176.946 145.573C176.804 145.632 176.688 145.719 176.598 145.831C176.509 145.942 176.461 146.076 176.454 146.232H175.711C175.719 145.956 175.8 145.714 175.955 145.506C176.11 145.297 176.316 145.134 176.571 145.016C176.826 144.898 177.11 144.839 177.421 144.839C177.748 144.839 178.029 144.903 178.266 145.031C178.505 145.157 178.689 145.325 178.818 145.536C178.949 145.746 179.014 145.976 179.012 146.227C179.014 146.512 178.934 146.754 178.773 146.952C178.614 147.151 178.402 147.285 178.137 147.353V147.392C178.475 147.444 178.737 147.578 178.923 147.795C179.11 148.012 179.203 148.281 179.201 148.603C179.203 148.883 179.125 149.134 178.967 149.356C178.812 149.578 178.599 149.753 178.328 149.881C178.058 150.007 177.749 150.07 177.401 150.07Z" fill="#56647E"></path>
<path d="M188.582 134.909H189.514L191.135 138.866H191.195L192.816 134.909H193.748V140H193.017V136.316H192.97L191.468 139.993H190.862L189.36 136.314H189.313V140H188.582V134.909ZM195.916 140.085C195.674 140.085 195.455 140.04 195.26 139.95C195.064 139.859 194.909 139.727 194.795 139.555C194.682 139.383 194.626 139.171 194.626 138.921C194.626 138.706 194.667 138.528 194.75 138.389C194.833 138.25 194.945 138.14 195.086 138.059C195.227 137.977 195.384 137.916 195.558 137.875C195.732 137.833 195.909 137.802 196.09 137.78C196.319 137.754 196.504 137.732 196.647 137.716C196.789 137.697 196.893 137.668 196.958 137.629C197.022 137.589 197.054 137.524 197.054 137.435V137.417C197.054 137.2 196.993 137.032 196.871 136.913C196.75 136.793 196.569 136.734 196.329 136.734C196.078 136.734 195.881 136.789 195.737 136.9C195.594 137.01 195.496 137.131 195.441 137.266L194.743 137.107C194.826 136.875 194.947 136.687 195.106 136.545C195.266 136.401 195.451 136.296 195.66 136.232C195.869 136.165 196.088 136.132 196.319 136.132C196.471 136.132 196.633 136.15 196.803 136.187C196.976 136.222 197.136 136.286 197.286 136.381C197.436 136.475 197.56 136.61 197.656 136.786C197.752 136.96 197.8 137.186 197.8 137.464V140H197.074V139.478H197.045C196.996 139.574 196.924 139.669 196.828 139.761C196.732 139.854 196.609 139.931 196.458 139.993C196.307 140.054 196.126 140.085 195.916 140.085ZM196.078 139.488C196.283 139.488 196.459 139.447 196.605 139.366C196.752 139.285 196.864 139.179 196.94 139.048C197.018 138.915 197.057 138.774 197.057 138.623V138.131C197.03 138.157 196.979 138.182 196.903 138.205C196.828 138.227 196.743 138.246 196.647 138.262C196.551 138.277 196.457 138.291 196.366 138.305C196.275 138.316 196.199 138.326 196.137 138.335C195.993 138.353 195.861 138.383 195.742 138.426C195.624 138.47 195.53 138.532 195.459 138.613C195.389 138.692 195.354 138.799 195.354 138.931C195.354 139.115 195.422 139.254 195.558 139.349C195.694 139.442 195.867 139.488 196.078 139.488ZM198.79 140V136.182H199.509V136.788H199.548C199.618 136.583 199.741 136.421 199.916 136.304C200.094 136.184 200.294 136.125 200.518 136.125C200.564 136.125 200.619 136.126 200.682 136.13C200.746 136.133 200.797 136.137 200.833 136.142V136.853C200.804 136.845 200.751 136.836 200.674 136.826C200.598 136.814 200.522 136.808 200.446 136.808C200.27 136.808 200.113 136.846 199.976 136.92C199.84 136.993 199.732 137.095 199.653 137.226C199.573 137.355 199.533 137.503 199.533 137.668V140H198.79ZM189.702 146.5V146.023C189.702 145.882 189.729 145.734 189.782 145.578C189.835 145.422 189.908 145.273 190.003 145.13C190.097 144.988 190.208 144.866 190.336 144.765L190.704 145.028C190.603 145.176 190.517 145.33 190.445 145.491C190.374 145.652 190.338 145.826 190.338 146.015V146.5H189.702ZM191.336 150V149.443L193.059 147.658C193.242 147.464 193.394 147.295 193.513 147.149C193.634 147.001 193.725 146.861 193.784 146.729C193.844 146.596 193.874 146.455 193.874 146.306C193.874 146.137 193.834 145.991 193.755 145.869C193.675 145.744 193.566 145.649 193.429 145.583C193.291 145.515 193.136 145.481 192.964 145.481C192.782 145.481 192.623 145.518 192.487 145.593C192.351 145.667 192.247 145.772 192.174 145.908C192.101 146.044 192.064 146.203 192.064 146.386H191.331C191.331 146.076 191.402 145.805 191.545 145.573C191.687 145.341 191.883 145.161 192.131 145.033C192.38 144.904 192.662 144.839 192.979 144.839C193.299 144.839 193.581 144.903 193.824 145.031C194.069 145.157 194.261 145.329 194.398 145.548C194.536 145.765 194.605 146.01 194.605 146.284C194.605 146.473 194.569 146.657 194.498 146.838C194.428 147.019 194.306 147.22 194.132 147.442C193.958 147.663 193.716 147.93 193.407 148.245L192.395 149.304V149.341H194.687V150H191.336ZM197.401 150.07C197.06 150.07 196.755 150.011 196.486 149.893C196.22 149.775 196.008 149.612 195.853 149.403C195.698 149.193 195.616 148.949 195.604 148.673H196.385C196.394 148.823 196.445 148.954 196.536 149.065C196.629 149.175 196.75 149.259 196.899 149.319C197.048 149.379 197.214 149.408 197.396 149.408C197.597 149.408 197.774 149.374 197.928 149.304C198.084 149.234 198.206 149.137 198.294 149.013C198.381 148.887 198.425 148.742 198.425 148.578C198.425 148.407 198.381 148.257 198.294 148.128C198.207 147.997 198.081 147.895 197.913 147.82C197.748 147.745 197.547 147.708 197.312 147.708H196.882V147.082H197.312C197.501 147.082 197.666 147.048 197.809 146.98C197.953 146.912 198.066 146.817 198.147 146.696C198.228 146.574 198.269 146.43 198.269 146.266C198.269 146.109 198.233 145.972 198.162 145.856C198.092 145.739 197.993 145.647 197.864 145.58C197.736 145.514 197.585 145.481 197.411 145.481C197.245 145.481 197.091 145.511 196.946 145.573C196.804 145.632 196.688 145.719 196.598 145.831C196.509 145.942 196.461 146.076 196.454 146.232H195.711C195.719 145.956 195.8 145.714 195.955 145.506C196.11 145.297 196.316 145.134 196.571 145.016C196.826 144.898 197.11 144.839 197.421 144.839C197.748 144.839 198.029 144.903 198.266 145.031C198.505 145.157 198.689 145.325 198.818 145.536C198.949 145.746 199.014 145.976 199.012 146.227C199.014 146.512 198.934 146.754 198.773 146.952C198.614 147.151 198.402 147.285 198.137 147.353V147.392C198.475 147.444 198.737 147.578 198.923 147.795C199.11 148.012 199.203 148.281 199.201 148.603C199.203 148.883 199.125 149.134 198.967 149.356C198.812 149.578 198.599 149.753 198.328 149.881C198.058 150.007 197.749 150.07 197.401 150.07Z" fill="#56647E"></path>
<path d="M209.035 140H208.22L210.052 134.909H210.939L212.771 140H211.956L210.517 135.834H210.477L209.035 140ZM209.172 138.006H211.817V138.653H209.172V138.006ZM213.447 141.432V136.182H214.173V136.801H214.235C214.278 136.721 214.34 136.629 214.421 136.525C214.503 136.42 214.615 136.329 214.759 136.251C214.904 136.172 215.094 136.132 215.331 136.132C215.639 136.132 215.914 136.21 216.156 136.366C216.398 136.522 216.588 136.746 216.726 137.039C216.865 137.333 216.934 137.686 216.934 138.098C216.934 138.511 216.866 138.865 216.728 139.16C216.591 139.453 216.402 139.679 216.161 139.838C215.921 139.996 215.647 140.075 215.339 140.075C215.107 140.075 214.917 140.036 214.769 139.958C214.624 139.88 214.509 139.789 214.426 139.684C214.343 139.58 214.28 139.487 214.235 139.406H214.19V141.432H213.447ZM214.175 138.091C214.175 138.359 214.214 138.595 214.292 138.797C214.37 138.999 214.483 139.157 214.63 139.272C214.778 139.384 214.958 139.441 215.172 139.441C215.394 139.441 215.58 139.382 215.729 139.264C215.878 139.145 215.991 138.983 216.067 138.779C216.145 138.576 216.184 138.346 216.184 138.091C216.184 137.839 216.146 137.613 216.069 137.412C215.995 137.212 215.882 137.054 215.731 136.938C215.582 136.821 215.396 136.763 215.172 136.763C214.957 136.763 214.774 136.819 214.625 136.93C214.478 137.041 214.366 137.196 214.29 137.395C214.213 137.594 214.175 137.826 214.175 138.091ZM217.767 140V136.182H218.486V136.788H218.525C218.595 136.583 218.718 136.421 218.893 136.304C219.071 136.184 219.271 136.125 219.495 136.125C219.541 136.125 219.596 136.126 219.659 136.13C219.724 136.133 219.774 136.137 219.811 136.142V136.853C219.781 136.845 219.728 136.836 219.651 136.826C219.575 136.814 219.499 136.808 219.423 136.808C219.247 136.808 219.09 136.846 218.953 136.92C218.817 136.993 218.709 137.095 218.63 137.226C218.55 137.355 218.51 137.503 218.51 137.668V140H217.767ZM209.202 146.5V146.023C209.202 145.882 209.229 145.734 209.282 145.578C209.335 145.422 209.408 145.273 209.503 145.13C209.597 144.988 209.708 144.866 209.836 144.765L210.204 145.028C210.103 145.176 210.017 145.33 209.945 145.491C209.874 145.652 209.838 145.826 209.838 146.015V146.5H209.202ZM210.836 150V149.443L212.559 147.658C212.742 147.464 212.894 147.295 213.013 147.149C213.134 147.001 213.225 146.861 213.284 146.729C213.344 146.596 213.374 146.455 213.374 146.306C213.374 146.137 213.334 145.991 213.255 145.869C213.175 145.744 213.066 145.649 212.929 145.583C212.791 145.515 212.636 145.481 212.464 145.481C212.282 145.481 212.123 145.518 211.987 145.593C211.851 145.667 211.747 145.772 211.674 145.908C211.601 146.044 211.564 146.203 211.564 146.386H210.831C210.831 146.076 210.902 145.805 211.045 145.573C211.187 145.341 211.383 145.161 211.631 145.033C211.88 144.904 212.162 144.839 212.479 144.839C212.799 144.839 213.081 144.903 213.324 145.031C213.569 145.157 213.761 145.329 213.898 145.548C214.036 145.765 214.105 146.01 214.105 146.284C214.105 146.473 214.069 146.657 213.998 146.838C213.928 147.019 213.806 147.22 213.632 147.442C213.458 147.663 213.216 147.93 212.907 148.245L211.895 149.304V149.341H214.187V150H210.836ZM216.901 150.07C216.56 150.07 216.255 150.011 215.986 149.893C215.72 149.775 215.508 149.612 215.353 149.403C215.198 149.193 215.116 148.949 215.104 148.673H215.885C215.894 148.823 215.945 148.954 216.036 149.065C216.129 149.175 216.25 149.259 216.399 149.319C216.548 149.379 216.714 149.408 216.896 149.408C217.097 149.408 217.274 149.374 217.428 149.304C217.584 149.234 217.706 149.137 217.794 149.013C217.881 148.887 217.925 148.742 217.925 148.578C217.925 148.407 217.881 148.257 217.794 148.128C217.707 147.997 217.581 147.895 217.413 147.82C217.248 147.745 217.047 147.708 216.812 147.708H216.382V147.082H216.812C217.001 147.082 217.166 147.048 217.309 146.98C217.453 146.912 217.566 146.817 217.647 146.696C217.728 146.574 217.769 146.43 217.769 146.266C217.769 146.109 217.733 145.972 217.662 145.856C217.592 145.739 217.493 145.647 217.364 145.58C217.236 145.514 217.085 145.481 216.911 145.481C216.745 145.481 216.591 145.511 216.446 145.573C216.304 145.632 216.188 145.719 216.098 145.831C216.009 145.942 215.961 146.076 215.954 146.232H215.211C215.219 145.956 215.3 145.714 215.455 145.506C215.61 145.297 215.816 145.134 216.071 145.016C216.326 144.898 216.61 144.839 216.921 144.839C217.248 144.839 217.529 144.903 217.766 145.031C218.005 145.157 218.189 145.325 218.318 145.536C218.449 145.746 218.514 145.976 218.512 146.227C218.514 146.512 218.434 146.754 218.273 146.952C218.114 147.151 217.902 147.285 217.637 147.353V147.392C217.975 147.444 218.237 147.578 218.423 147.795C218.61 148.012 218.703 148.281 218.701 148.603C218.703 148.883 218.625 149.134 218.467 149.356C218.312 149.578 218.099 149.753 217.828 149.881C217.558 150.007 217.249 150.07 216.901 150.07Z" fill="#56647E"></path>
<path d="M48.297 140H47.4816L49.3137 134.909H50.2011L52.0331 140H51.2178L49.7785 135.834H49.7387L48.297 140ZM48.4337 138.006H51.0786V138.653H48.4337V138.006ZM55.1273 138.417V136.182H55.873V140H55.1422V139.339H55.1025C55.0146 139.543 54.8738 139.712 54.6799 139.848C54.4876 139.983 54.2482 140.05 53.9615 140.05C53.7162 140.05 53.4991 139.996 53.3102 139.888C53.1229 139.779 52.9754 139.617 52.8677 139.403C52.7617 139.19 52.7086 138.925 52.7086 138.61V136.182H53.4519V138.521C53.4519 138.781 53.524 138.988 53.6681 139.142C53.8123 139.297 53.9996 139.374 54.2299 139.374C54.3691 139.374 54.5075 139.339 54.6451 139.269C54.7843 139.2 54.8994 139.094 54.9906 138.953C55.0834 138.813 55.129 138.634 55.1273 138.417ZM58.4726 141.511C58.1693 141.511 57.9083 141.472 57.6895 141.392C57.4724 141.313 57.2951 141.207 57.1576 141.076C57.02 140.945 56.9173 140.802 56.8493 140.646L57.4882 140.383C57.5329 140.456 57.5926 140.533 57.6672 140.614C57.7434 140.697 57.8461 140.767 57.9754 140.825C58.1063 140.883 58.2745 140.912 58.48 140.912C58.7617 140.912 58.9946 140.844 59.1785 140.706C59.3625 140.57 59.4545 140.353 59.4545 140.055V139.304H59.4072C59.3625 139.385 59.2979 139.475 59.2133 139.575C59.1305 139.674 59.0161 139.761 58.8703 139.833C58.7245 139.906 58.5347 139.943 58.301 139.943C57.9994 139.943 57.7277 139.872 57.4857 139.732C57.2454 139.589 57.0548 139.379 56.914 139.103C56.7748 138.824 56.7052 138.482 56.7052 138.076C56.7052 137.67 56.7739 137.322 56.9115 137.032C57.0507 136.742 57.2413 136.52 57.4832 136.366C57.7252 136.21 57.9994 136.132 58.306 136.132C58.543 136.132 58.7344 136.172 58.8802 136.251C59.0261 136.329 59.1396 136.42 59.2208 136.525C59.3037 136.629 59.3675 136.721 59.4122 136.801H59.4669V136.182H60.1952V140.085C60.1952 140.413 60.119 140.682 59.9665 140.892C59.8141 141.103 59.6077 141.259 59.3476 141.36C59.089 141.461 58.7974 141.511 58.4726 141.511ZM58.4651 139.326C58.6789 139.326 58.8595 139.277 59.007 139.177C59.1562 139.076 59.2689 138.932 59.3451 138.745C59.423 138.556 59.4619 138.33 59.4619 138.066C59.4619 137.809 59.4238 137.583 59.3476 137.387C59.2713 137.192 59.1595 137.039 59.012 136.93C58.8645 136.819 58.6822 136.763 58.4651 136.763C58.2414 136.763 58.055 136.821 57.9058 136.938C57.7567 137.052 57.644 137.208 57.5677 137.405C57.4932 137.602 57.4559 137.822 57.4559 138.066C57.4559 138.316 57.494 138.536 57.5702 138.725C57.6465 138.914 57.7591 139.061 57.9083 139.167C58.0591 139.273 58.2447 139.326 58.4651 139.326ZM49.3115 146.5V146.023C49.3115 145.882 49.338 145.734 49.391 145.578C49.4441 145.422 49.5178 145.273 49.6123 145.13C49.7067 144.988 49.8178 144.866 49.9454 144.765L50.3133 145.028C50.2122 145.176 50.126 145.33 50.0547 145.491C49.9835 145.652 49.9478 145.826 49.9478 146.015V146.5H49.3115ZM50.9453 150V149.443L52.6679 147.658C52.8519 147.464 53.0035 147.295 53.1228 147.149C53.2438 147.001 53.3341 146.861 53.3938 146.729C53.4534 146.596 53.4833 146.455 53.4833 146.306C53.4833 146.137 53.4435 145.991 53.3639 145.869C53.2844 145.744 53.1759 145.649 53.0383 145.583C52.9008 145.515 52.7458 145.481 52.5735 145.481C52.3912 145.481 52.2321 145.518 52.0962 145.593C51.9603 145.667 51.8559 145.772 51.783 145.908C51.7101 146.044 51.6736 146.203 51.6736 146.386H50.9403C50.9403 146.076 51.0116 145.805 51.1541 145.573C51.2966 145.341 51.4921 145.161 51.7407 145.033C51.9893 144.904 52.2719 144.839 52.5884 144.839C52.9082 144.839 53.1899 144.903 53.4335 145.031C53.6788 145.157 53.8702 145.329 54.0078 145.548C54.1453 145.765 54.2141 146.01 54.2141 146.284C54.2141 146.473 54.1785 146.657 54.1072 146.838C54.0376 147.019 53.9158 147.22 53.7418 147.442C53.5678 147.663 53.3258 147.93 53.0159 148.245L52.0042 149.304V149.341H54.2961V150H50.9453ZM55.2382 150V149.443L56.9609 147.658C57.1448 147.464 57.2965 147.295 57.4158 147.149C57.5368 147.001 57.6271 146.861 57.6867 146.729C57.7464 146.596 57.7762 146.455 57.7762 146.306C57.7762 146.137 57.7365 145.991 57.6569 145.869C57.5774 145.744 57.4688 145.649 57.3313 145.583C57.1937 145.515 57.0388 145.481 56.8664 145.481C56.6841 145.481 56.5251 145.518 56.3892 145.593C56.2533 145.667 56.1489 145.772 56.0759 145.908C56.003 146.044 55.9666 146.203 55.9666 146.386H55.2333C55.2333 146.076 55.3045 145.805 55.447 145.573C55.5896 145.341 55.7851 145.161 56.0337 145.033C56.2823 144.904 56.5648 144.839 56.8813 144.839C57.2012 144.839 57.4829 144.903 57.7265 145.031C57.9718 145.157 58.1632 145.329 58.3007 145.548C58.4383 145.765 58.5071 146.01 58.5071 146.284C58.5071 146.473 58.4714 146.657 58.4002 146.838C58.3306 147.019 58.2088 147.22 58.0348 147.442C57.8608 147.663 57.6188 147.93 57.3089 148.245L56.2972 149.304V149.341H58.5891V150H55.2382Z" fill="#56647E"></path>
<path d="M209.035 140H208.22L210.052 134.909H210.939L212.771 140H211.956L210.517 135.834H210.477L209.035 140ZM209.172 138.006H211.817V138.653H209.172V138.006ZM213.447 141.432V136.182H214.173V136.801H214.235C214.278 136.721 214.34 136.629 214.421 136.525C214.503 136.42 214.615 136.329 214.759 136.251C214.904 136.172 215.094 136.132 215.331 136.132C215.639 136.132 215.914 136.21 216.156 136.366C216.398 136.522 216.588 136.746 216.726 137.039C216.865 137.333 216.934 137.686 216.934 138.098C216.934 138.511 216.866 138.865 216.728 139.16C216.591 139.453 216.402 139.679 216.161 139.838C215.921 139.996 215.647 140.075 215.339 140.075C215.107 140.075 214.917 140.036 214.769 139.958C214.624 139.88 214.509 139.789 214.426 139.684C214.343 139.58 214.28 139.487 214.235 139.406H214.19V141.432H213.447ZM214.175 138.091C214.175 138.359 214.214 138.595 214.292 138.797C214.37 138.999 214.483 139.157 214.63 139.272C214.778 139.384 214.958 139.441 215.172 139.441C215.394 139.441 215.58 139.382 215.729 139.264C215.878 139.145 215.991 138.983 216.067 138.779C216.145 138.576 216.184 138.346 216.184 138.091C216.184 137.839 216.146 137.613 216.069 137.412C215.995 137.212 215.882 137.054 215.731 136.938C215.582 136.821 215.396 136.763 215.172 136.763C214.957 136.763 214.774 136.819 214.625 136.93C214.478 137.041 214.366 137.196 214.29 137.395C214.213 137.594 214.175 137.826 214.175 138.091ZM217.767 140V136.182H218.486V136.788H218.525C218.595 136.583 218.718 136.421 218.893 136.304C219.071 136.184 219.271 136.125 219.495 136.125C219.541 136.125 219.596 136.126 219.659 136.13C219.724 136.133 219.774 136.137 219.811 136.142V136.853C219.781 136.845 219.728 136.836 219.651 136.826C219.575 136.814 219.499 136.808 219.423 136.808C219.247 136.808 219.09 136.846 218.953 136.92C218.817 136.993 218.709 137.095 218.63 137.226C218.55 137.355 218.51 137.503 218.51 137.668V140H217.767ZM209.202 146.5V146.023C209.202 145.882 209.229 145.734 209.282 145.578C209.335 145.422 209.408 145.273 209.503 145.13C209.597 144.988 209.708 144.866 209.836 144.765L210.204 145.028C210.103 145.176 210.017 145.33 209.945 145.491C209.874 145.652 209.838 145.826 209.838 146.015V146.5H209.202ZM210.836 150V149.443L212.559 147.658C212.742 147.464 212.894 147.295 213.013 147.149C213.134 147.001 213.225 146.861 213.284 146.729C213.344 146.596 213.374 146.455 213.374 146.306C213.374 146.137 213.334 145.991 213.255 145.869C213.175 145.744 213.066 145.649 212.929 145.583C212.791 145.515 212.636 145.481 212.464 145.481C212.282 145.481 212.123 145.518 211.987 145.593C211.851 145.667 211.747 145.772 211.674 145.908C211.601 146.044 211.564 146.203 211.564 146.386H210.831C210.831 146.076 210.902 145.805 211.045 145.573C211.187 145.341 211.383 145.161 211.631 145.033C211.88 144.904 212.162 144.839 212.479 144.839C212.799 144.839 213.081 144.903 213.324 145.031C213.569 145.157 213.761 145.329 213.898 145.548C214.036 145.765 214.105 146.01 214.105 146.284C214.105 146.473 214.069 146.657 213.998 146.838C213.928 147.019 213.806 147.22 213.632 147.442C213.458 147.663 213.216 147.93 212.907 148.245L211.895 149.304V149.341H214.187V150H210.836ZM216.901 150.07C216.56 150.07 216.255 150.011 215.986 149.893C215.72 149.775 215.508 149.612 215.353 149.403C215.198 149.193 215.116 148.949 215.104 148.673H215.885C215.894 148.823 215.945 148.954 216.036 149.065C216.129 149.175 216.25 149.259 216.399 149.319C216.548 149.379 216.714 149.408 216.896 149.408C217.097 149.408 217.274 149.374 217.428 149.304C217.584 149.234 217.706 149.137 217.794 149.013C217.881 148.887 217.925 148.742 217.925 148.578C217.925 148.407 217.881 148.257 217.794 148.128C217.707 147.997 217.581 147.895 217.413 147.82C217.248 147.745 217.047 147.708 216.812 147.708H216.382V147.082H216.812C217.001 147.082 217.166 147.048 217.309 146.98C217.453 146.912 217.566 146.817 217.647 146.696C217.728 146.574 217.769 146.43 217.769 146.266C217.769 146.109 217.733 145.972 217.662 145.856C217.592 145.739 217.493 145.647 217.364 145.58C217.236 145.514 217.085 145.481 216.911 145.481C216.745 145.481 216.591 145.511 216.446 145.573C216.304 145.632 216.188 145.719 216.098 145.831C216.009 145.942 215.961 146.076 215.954 146.232H215.211C215.219 145.956 215.3 145.714 215.455 145.506C215.61 145.297 215.816 145.134 216.071 145.016C216.326 144.898 216.61 144.839 216.921 144.839C217.248 144.839 217.529 144.903 217.766 145.031C218.005 145.157 218.189 145.325 218.318 145.536C218.449 145.746 218.514 145.976 218.512 146.227C218.514 146.512 218.434 146.754 218.273 146.952C218.114 147.151 217.902 147.285 217.637 147.353V147.392C217.975 147.444 218.237 147.578 218.423 147.795C218.61 148.012 218.703 148.281 218.701 148.603C218.703 148.883 218.625 149.134 218.467 149.356C218.312 149.578 218.099 149.753 217.828 149.881C217.558 150.007 217.249 150.07 216.901 150.07Z" fill="#56647E"></path>
<rect x="40" y="57" width="192" height="1" fill="#E7E9ED"></rect>
<rect x="40" y="90" width="192" height="1" fill="#E7E9ED"></rect>
<rect x="40" y="123" width="192" height="1" fill="#E7E9ED"></rect>
<path d="M70 75H82V83H70V75Z" fill="#F1C57E"></path>
<path d="M70 84H82V95H70V84Z" fill="#5EBD96"></path>
<path d="M70 96H82V103H70V96Z" fill="#489BC5"></path>
<path d="M70 104H82V124H70V104Z" fill="#3D4E6C"></path>
<path d="M70 125H82V127H70V125Z" fill="#EE4630"></path>
<path d="M170 75H182V83H170V75Z" fill="#F1C57E"></path>
<path d="M170 84H182V95H170V84Z" fill="#5EBD96"></path>
<path d="M170 96H182V103H170V96Z" fill="#489BC5"></path>
<path d="M170 104H182V124H170V104Z" fill="#3D4E6C"></path>
<path d="M170 125H182V127H170V125Z" fill="#EE4630"></path>
<path d="M90 69H102V79H90V69Z" fill="#F1C57E"></path>
<path d="M90 80H102V85H90V80Z" fill="#5EBD96"></path>
<path d="M90 86H102V87H90V86Z" fill="#489BC5"></path>
<path d="M90 88H102V124H90V88Z" fill="#3D4E6C"></path>
<path d="M110 74H122V91H110V74Z" fill="#F1C57E"></path>
<path d="M110 92H122V103H110V92Z" fill="#5EBD96"></path>
<path d="M110 104H122V111H110V104Z" fill="#489BC5"></path>
<path d="M110 112H122V124H110V112Z" fill="#3D4E6C"></path>
<path d="M150 78H162V95H150V78Z" fill="#F1C57E"></path>
<path d="M150 96H162V107H150V96Z" fill="#5EBD96"></path>
<path d="M150 108H162V115H150V108Z" fill="#489BC5"></path>
<path d="M150 116H162V124H150V116Z" fill="#3D4E6C"></path>
<path d="M50 95H62V92H50V95Z" fill="#F1C57E"></path>
<path d="M50 96H62V99H50V96Z" fill="#5EBD96"></path>
<path d="M50 100H62V104H50V100Z" fill="#489BC5"></path>
<path d="M50 105H62V125H50V105Z" fill="#3D4E6C"></path>
<path d="M130 77H142V94H130V77Z" fill="#F1C57E"></path>
<path d="M130 95H142V106H130V95Z" fill="#5EBD96"></path>
<path d="M130 107H142V114H130V107Z" fill="#489BC5"></path>
<path d="M130 115H142V123H130V115Z" fill="#3D4E6C"></path>
<path d="M208 50H220V67H208V50Z" fill="#F1C57E"></path>
<path d="M208 68H220V79H208V68Z" fill="#5EBD96"></path>
<path d="M208 80H220V87H208V80Z" fill="#489BC5"></path>
<rect x="208" y="88" width="12" height="36" fill="#3D4E6C"></rect>
<path d="M189 69H201V79H189V69Z" fill="#F1C57E"></path>
<path d="M189 80H201V85H189V80Z" fill="#5EBD96"></path>
<path d="M189 86H201V87H189V86Z" fill="#489BC5"></path>
<path d="M189 88H201V124H189V88Z" fill="#3D4E6C"></path>
</svg>