<?xml version="1.0" encoding="UTF-8"?>
<svg xmlns="http://www.w3.org/2000/svg" width="248" height="163" viewBox="0 0 248 163" fill="none">
<rect width="248" height="163" rx="8" fill="white"></rect>
<rect x="40" y="24" width="192" height="1" fill="#E7E9ED"></rect>
<path d="M18.8576 27.6364V21.2727H19.2653V27.6364H18.8576ZM20.1328 23.2464C20.1063 23.0111 19.9969 22.8288 19.8047 22.6996C19.6125 22.5687 19.3705 22.5032 19.0788 22.5032C18.87 22.5032 18.6894 22.5363 18.5369 22.6026C18.3845 22.6673 18.266 22.7567 18.1815 22.8711C18.0986 22.9838 18.0572 23.1122 18.0572 23.2564C18.0572 23.3774 18.0853 23.4818 18.1417 23.5696C18.1997 23.6574 18.2751 23.7312 18.3679 23.7908C18.4624 23.8488 18.5634 23.8977 18.6712 23.9375C18.7789 23.9756 18.8825 24.0071 18.9819 24.032L19.479 24.1612C19.6415 24.201 19.808 24.2549 19.9787 24.3228C20.1494 24.3907 20.3076 24.4802 20.4535 24.5913C20.5993 24.7023 20.717 24.8398 20.8065 25.0039C20.8976 25.168 20.9432 25.3643 20.9432 25.593C20.9432 25.8814 20.8686 26.1374 20.7195 26.3612C20.572 26.5849 20.3574 26.7614 20.0756 26.8906C19.7956 27.0199 19.4567 27.0845 19.0589 27.0845C18.6778 27.0845 18.348 27.024 18.0696 26.9031C17.7912 26.7821 17.5733 26.6106 17.4158 26.3885C17.2584 26.1648 17.1714 25.8996 17.1548 25.593H17.9254C17.9403 25.777 18 25.9303 18.1044 26.0529C18.2105 26.1739 18.3455 26.2642 18.5096 26.3239C18.6753 26.3819 18.8568 26.4109 19.054 26.4109C19.2711 26.4109 19.4641 26.3769 19.6332 26.3089C19.8039 26.2393 19.9381 26.1432 20.0359 26.0206C20.1336 25.8963 20.1825 25.7513 20.1825 25.5856C20.1825 25.4348 20.1394 25.3113 20.0533 25.2152C19.9688 25.1191 19.8536 25.0395 19.7077 24.9766C19.5636 24.9136 19.4003 24.8581 19.218 24.81L18.6165 24.646C18.2088 24.5349 17.8857 24.3717 17.647 24.1562C17.41 23.9408 17.2915 23.6558 17.2915 23.3011C17.2915 23.0078 17.3711 22.7518 17.5302 22.533C17.6893 22.3143 17.9047 22.1444 18.1765 22.0234C18.4483 21.9008 18.7549 21.8395 19.0962 21.8395C19.4409 21.8395 19.745 21.9 20.0085 22.021C20.2737 22.1419 20.4825 22.3085 20.6349 22.5206C20.7874 22.7311 20.867 22.973 20.8736 23.2464H20.1328ZM23.5638 27.0696C23.2224 27.0696 22.9175 27.0108 22.6491 26.8931C22.3823 26.7754 22.171 26.6122 22.0152 26.4034C21.8611 26.1929 21.7782 25.9493 21.7666 25.6726H22.5471C22.5571 25.8234 22.6076 25.9543 22.6988 26.0653C22.7916 26.1747 22.9126 26.2592 23.0617 26.3189C23.2108 26.3786 23.3766 26.4084 23.5589 26.4084C23.7594 26.4084 23.9367 26.3736 24.0908 26.304C24.2466 26.2344 24.3684 26.1374 24.4562 26.0131C24.5441 25.8872 24.588 25.7422 24.588 25.5781C24.588 25.4074 24.5441 25.2575 24.4562 25.1282C24.3701 24.9973 24.2433 24.8945 24.0759 24.82C23.9102 24.7454 23.7097 24.7081 23.4743 24.7081H23.0443V24.0817H23.4743C23.6633 24.0817 23.829 24.0477 23.9715 23.9798C24.1157 23.9118 24.2284 23.8174 24.3096 23.6964C24.3908 23.5737 24.4314 23.4304 24.4314 23.2663C24.4314 23.1089 24.3957 22.9722 24.3245 22.8562C24.2549 22.7385 24.1555 22.6465 24.0262 22.5803C23.8986 22.514 23.7478 22.4808 23.5738 22.4808C23.4081 22.4808 23.2531 22.5115 23.1089 22.5728C22.9664 22.6325 22.8504 22.7186 22.7609 22.8313C22.6714 22.9424 22.6234 23.0758 22.6167 23.2315H21.8735C21.8818 22.9564 21.963 22.7145 22.1171 22.5057C22.2729 22.2969 22.4784 22.1336 22.7336 22.016C22.9888 21.8983 23.2722 21.8395 23.5837 21.8395C23.9102 21.8395 24.1919 21.9033 24.4289 22.0309C24.6675 22.1568 24.8515 22.325 24.9807 22.5355C25.1117 22.746 25.1763 22.9763 25.1746 23.2266C25.1763 23.5116 25.0967 23.7536 24.936 23.9524C24.7769 24.1513 24.5648 24.2847 24.2996 24.3526V24.3924C24.6377 24.4438 24.8995 24.578 25.0851 24.7951C25.2724 25.0122 25.3652 25.2815 25.3635 25.603C25.3652 25.883 25.2873 26.1341 25.1299 26.3562C24.9741 26.5782 24.7612 26.7531 24.491 26.8807C24.2209 27.0066 23.9118 27.0696 23.5638 27.0696ZM26.3131 27V23.1818H27.0265V23.8033H27.0738C27.1533 23.5928 27.2834 23.4287 27.464 23.3111C27.6447 23.1918 27.8609 23.1321 28.1128 23.1321C28.368 23.1321 28.5818 23.1918 28.7542 23.3111C28.9282 23.4304 29.0566 23.5945 29.1395 23.8033H29.1792C29.2704 23.5994 29.4154 23.437 29.6143 23.3161C29.8131 23.1934 30.0501 23.1321 30.3252 23.1321C30.6715 23.1321 30.9541 23.2406 31.1729 23.4577C31.3933 23.6748 31.5035 24.0021 31.5035 24.4396V27H30.7602V24.5092C30.7602 24.2507 30.6898 24.0634 30.5489 23.9474C30.4081 23.8314 30.2398 23.7734 30.0443 23.7734C29.8023 23.7734 29.6143 23.848 29.48 23.9972C29.3458 24.1446 29.2787 24.3344 29.2787 24.5664V27H28.5379V24.462C28.5379 24.2549 28.4733 24.0883 28.344 23.9624C28.2148 23.8364 28.0465 23.7734 27.8394 23.7734C27.6985 23.7734 27.5684 23.8107 27.4491 23.8853C27.3315 23.9582 27.2362 24.0601 27.1633 24.1911C27.092 24.322 27.0564 24.4736 27.0564 24.646V27H26.3131Z" fill="#56647E"></path>
<path d="M12.8351 60.6364V54.2727H13.2428V60.6364H12.8351ZM14.1104 56.2464C14.0838 56.0111 13.9745 55.8288 13.7822 55.6996C13.59 55.5687 13.348 55.5032 13.0564 55.5032C12.8476 55.5032 12.6669 55.5363 12.5145 55.6026C12.362 55.6673 12.2435 55.7567 12.159 55.8711C12.0761 55.9838 12.0347 56.1122 12.0347 56.2564C12.0347 56.3774 12.0629 56.4818 12.1192 56.5696C12.1772 56.6574 12.2526 56.7312 12.3454 56.7908C12.4399 56.8488 12.541 56.8977 12.6487 56.9375C12.7564 56.9756 12.86 57.0071 12.9594 57.032L13.4566 57.1612C13.619 57.201 13.7855 57.2549 13.9562 57.3228C14.1269 57.3907 14.2852 57.4802 14.431 57.5913C14.5769 57.7023 14.6945 57.8398 14.784 58.0039C14.8751 58.168 14.9207 58.3643 14.9207 58.593C14.9207 58.8814 14.8461 59.1374 14.697 59.3612C14.5495 59.5849 14.3349 59.7614 14.0532 59.8906C13.7731 60.0199 13.4342 60.0845 13.0365 60.0845C12.6553 60.0845 12.3256 60.024 12.0471 59.9031C11.7687 59.7821 11.5508 59.6106 11.3934 59.3885C11.2359 59.1648 11.1489 58.8996 11.1324 58.593H11.903C11.9179 58.777 11.9775 58.9303 12.0819 59.0529C12.188 59.1739 12.3231 59.2642 12.4871 59.3239C12.6528 59.3819 12.8343 59.4109 13.0315 59.4109C13.2486 59.4109 13.4417 59.3769 13.6107 59.3089C13.7814 59.2393 13.9156 59.1432 14.0134 59.0206C14.1112 58.8963 14.1601 58.7513 14.1601 58.5856C14.1601 58.4348 14.117 58.3113 14.0308 58.2152C13.9463 58.1191 13.8311 58.0395 13.6853 57.9766C13.5411 57.9136 13.3779 57.8581 13.1956 57.81L12.594 57.646C12.1863 57.5349 11.8632 57.3717 11.6246 57.1562C11.3876 56.9408 11.2691 56.6558 11.2691 56.3011C11.2691 56.0078 11.3486 55.7518 11.5077 55.533C11.6668 55.3143 11.8823 55.1444 12.154 55.0234C12.4258 54.9008 12.7324 54.8395 13.0738 54.8395C13.4185 54.8395 13.7226 54.9 13.9861 55.021C14.2512 55.1419 14.46 55.3085 14.6125 55.5206C14.7649 55.7311 14.8445 55.973 14.8511 56.2464H14.1104ZM15.769 60V59.4432L17.4917 57.6584C17.6756 57.4645 17.8272 57.2946 17.9466 57.1488C18.0675 57.0013 18.1578 56.8613 18.2175 56.7287C18.2772 56.5961 18.307 56.4553 18.307 56.3061C18.307 56.1371 18.2672 55.9912 18.1877 55.8686C18.1081 55.7443 17.9996 55.649 17.862 55.5827C17.7245 55.5148 17.5695 55.4808 17.3972 55.4808C17.2149 55.4808 17.0558 55.5181 16.9199 55.5927C16.784 55.6673 16.6796 55.7725 16.6067 55.9084C16.5338 56.0443 16.4973 56.2034 16.4973 56.3857H15.764C15.764 56.0758 15.8353 55.8048 15.9778 55.5728C16.1203 55.3408 16.3159 55.161 16.5645 55.0334C16.813 54.9041 17.0956 54.8395 17.4121 54.8395C17.7319 54.8395 18.0137 54.9033 18.2573 55.0309C18.5025 55.1568 18.694 55.3292 18.8315 55.5479C18.969 55.765 19.0378 56.0103 19.0378 56.2837C19.0378 56.4727 19.0022 56.6574 18.9309 56.8381C18.8613 57.0187 18.7395 57.2201 18.5655 57.4421C18.3915 57.6625 18.1496 57.9302 17.8397 58.245L16.8279 59.304V59.3413H19.1199V60H15.769ZM20.5616 60.0472C20.4257 60.0472 20.3089 59.9992 20.2111 59.9031C20.1133 59.8053 20.0645 59.6876 20.0645 59.5501C20.0645 59.4142 20.1133 59.2982 20.2111 59.2021C20.3089 59.1043 20.4257 59.0554 20.5616 59.0554C20.6975 59.0554 20.8143 59.1043 20.9121 59.2021C21.0099 59.2982 21.0588 59.4142 21.0588 59.5501C21.0588 59.6412 21.0356 59.7249 20.9892 59.8011C20.9444 59.8757 20.8848 59.9354 20.8102 59.9801C20.7356 60.0249 20.6528 60.0472 20.5616 60.0472ZM23.6428 60.0696C23.3312 60.0696 23.0511 60.0099 22.8026 59.8906C22.5556 59.7696 22.3584 59.6039 22.2109 59.3935C22.0634 59.183 21.9847 58.9427 21.9748 58.6726H22.7205C22.7388 58.8913 22.8357 59.0711 23.0114 59.212C23.187 59.3529 23.3975 59.4233 23.6428 59.4233C23.8383 59.4233 24.0115 59.3786 24.1623 59.2891C24.3147 59.1979 24.4341 59.0728 24.5202 58.9137C24.6081 58.7546 24.652 58.5732 24.652 58.3693C24.652 58.1622 24.6072 57.9774 24.5178 57.815C24.4283 57.6526 24.3048 57.525 24.1474 57.4322C23.9916 57.3394 23.8126 57.2921 23.6104 57.2905C23.4563 57.2905 23.3014 57.317 23.1456 57.37C22.9898 57.4231 22.8639 57.4927 22.7678 57.5788L22.0643 57.4744L22.3501 54.9091H25.1491V55.5678H22.989L22.8274 56.9922H22.8572C22.9567 56.8961 23.0884 56.8157 23.2525 56.7511C23.4182 56.6864 23.5955 56.6541 23.7844 56.6541C24.0943 56.6541 24.3703 56.7279 24.6122 56.8754C24.8558 57.0228 25.0472 57.2242 25.1864 57.4794C25.3273 57.733 25.3969 58.0246 25.3952 58.3544C25.3969 58.6842 25.3223 58.9783 25.1715 59.2369C25.0224 59.4954 24.8152 59.6992 24.5501 59.8484C24.2866 59.9959 23.9841 60.0696 23.6428 60.0696ZM26.3131 60V56.1818H27.0265V56.8033H27.0738C27.1533 56.5928 27.2834 56.4287 27.464 56.3111C27.6447 56.1918 27.8609 56.1321 28.1128 56.1321C28.368 56.1321 28.5818 56.1918 28.7542 56.3111C28.9282 56.4304 29.0566 56.5945 29.1395 56.8033H29.1792C29.2704 56.5994 29.4154 56.437 29.6143 56.3161C29.8131 56.1934 30.0501 56.1321 30.3252 56.1321C30.6715 56.1321 30.9541 56.2406 31.1729 56.4577C31.3933 56.6748 31.5035 57.0021 31.5035 57.4396V60H30.7602V57.5092C30.7602 57.2507 30.6898 57.0634 30.5489 56.9474C30.4081 56.8314 30.2398 56.7734 30.0443 56.7734C29.8023 56.7734 29.6143 56.848 29.48 56.9972C29.3458 57.1446 29.2787 57.3344 29.2787 57.5664V60H28.5379V57.462C28.5379 57.2549 28.4733 57.0883 28.344 56.9624C28.2148 56.8364 28.0465 56.7734 27.8394 56.7734C27.6985 56.7734 27.5684 56.8107 27.4491 56.8853C27.3315 56.9582 27.2362 57.0601 27.1633 57.1911C27.092 57.322 27.0564 57.4736 27.0564 57.646V60H26.3131Z" fill="#56647E"></path>
<path d="M19.0763 93.6364V87.2727H19.484V93.6364H19.0763ZM20.3516 89.2464C20.325 89.0111 20.2157 88.8288 20.0234 88.6996C19.8312 88.5687 19.5893 88.5032 19.2976 88.5032C19.0888 88.5032 18.9081 88.5363 18.7557 88.6026C18.6032 88.6673 18.4847 88.7567 18.4002 88.8711C18.3174 88.9838 18.2759 89.1122 18.2759 89.2564C18.2759 89.3774 18.3041 89.4818 18.3604 89.5696C18.4184 89.6574 18.4938 89.7312 18.5866 89.7908C18.6811 89.8488 18.7822 89.8977 18.8899 89.9375C18.9976 89.9756 19.1012 90.0071 19.2006 90.032L19.6978 90.1612C19.8602 90.201 20.0268 90.2549 20.1974 90.3228C20.3681 90.3907 20.5264 90.4802 20.6722 90.5913C20.8181 90.7023 20.9357 90.8398 21.0252 91.0039C21.1164 91.168 21.1619 91.3643 21.1619 91.593C21.1619 91.8814 21.0874 92.1374 20.9382 92.3612C20.7907 92.5849 20.5761 92.7614 20.2944 92.8906C20.0143 93.0199 19.6754 93.0845 19.2777 93.0845C18.8965 93.0845 18.5668 93.024 18.2884 92.9031C18.0099 92.7821 17.792 92.6106 17.6346 92.3885C17.4772 92.1648 17.3902 91.8996 17.3736 91.593H18.1442C18.1591 91.777 18.2188 91.9303 18.3232 92.0529C18.4292 92.1739 18.5643 92.2642 18.7283 92.3239C18.8941 92.3819 19.0755 92.4109 19.2727 92.4109C19.4898 92.4109 19.6829 92.3769 19.8519 92.3089C20.0226 92.2393 20.1568 92.1432 20.2546 92.0206C20.3524 91.8963 20.4013 91.7513 20.4013 91.5856C20.4013 91.4348 20.3582 91.3113 20.272 91.2152C20.1875 91.1191 20.0723 91.0395 19.9265 90.9766C19.7823 90.9136 19.6191 90.8581 19.4368 90.81L18.8352 90.646C18.4276 90.5349 18.1044 90.3717 17.8658 90.1562C17.6288 89.9408 17.5103 89.6558 17.5103 89.3011C17.5103 89.0078 17.5898 88.7518 17.7489 88.533C17.908 88.3143 18.1235 88.1444 18.3952 88.0234C18.667 87.9008 18.9736 87.8395 19.315 87.8395C19.6597 87.8395 19.9638 87.9 20.2273 88.021C20.4924 88.1419 20.7012 88.3085 20.8537 88.5206C21.0062 88.7311 21.0857 88.973 21.0923 89.2464H20.3516ZM22.0102 93V92.4432L23.7329 90.6584C23.9168 90.4645 24.0684 90.2946 24.1878 90.1488C24.3087 90.0013 24.3991 89.8613 24.4587 89.7287C24.5184 89.5961 24.5482 89.4553 24.5482 89.3061C24.5482 89.1371 24.5084 88.9912 24.4289 88.8686C24.3493 88.7443 24.2408 88.649 24.1032 88.5827C23.9657 88.5148 23.8108 88.4808 23.6384 88.4808C23.4561 88.4808 23.297 88.5181 23.1611 88.5927C23.0252 88.6673 22.9208 88.7725 22.8479 88.9084C22.775 89.0443 22.7385 89.2034 22.7385 89.3857H22.0052C22.0052 89.0758 22.0765 88.8048 22.219 88.5728C22.3615 88.3408 22.5571 88.161 22.8057 88.0334C23.0542 87.9041 23.3368 87.8395 23.6533 87.8395C23.9732 87.8395 24.2549 87.9033 24.4985 88.0309C24.7438 88.1568 24.9352 88.3292 25.0727 88.5479C25.2103 88.765 25.279 89.0103 25.279 89.2837C25.279 89.4727 25.2434 89.6574 25.1721 89.8381C25.1025 90.0187 24.9807 90.2201 24.8067 90.4421C24.6327 90.6625 24.3908 90.9302 24.0809 91.245L23.0692 92.304V92.3413H25.3611V93H22.0102ZM26.3131 93V89.1818H27.0265V89.8033H27.0738C27.1533 89.5928 27.2834 89.4287 27.464 89.3111C27.6447 89.1918 27.8609 89.1321 28.1128 89.1321C28.368 89.1321 28.5818 89.1918 28.7542 89.3111C28.9282 89.4304 29.0566 89.5945 29.1395 89.8033H29.1792C29.2704 89.5994 29.4154 89.437 29.6143 89.3161C29.8131 89.1934 30.0501 89.1321 30.3252 89.1321C30.6715 89.1321 30.9541 89.2406 31.1729 89.4577C31.3933 89.6748 31.5035 90.0021 31.5035 90.4396V93H30.7602V90.5092C30.7602 90.2507 30.6898 90.0634 30.5489 89.9474C30.4081 89.8314 30.2398 89.7734 30.0443 89.7734C29.8023 89.7734 29.6143 89.848 29.48 89.9972C29.3458 90.1446 29.2787 90.3344 29.2787 90.5664V93H28.5379V90.462C28.5379 90.2549 28.4733 90.0883 28.344 89.9624C28.2148 89.8364 28.0465 89.7734 27.8394 89.7734C27.6985 89.7734 27.5684 89.8107 27.4491 89.8853C27.3315 89.9582 27.2362 90.0601 27.1633 90.1911C27.092 90.322 27.0564 90.4736 27.0564 90.646V93H26.3131Z" fill="#56647E"></path>
<path d="M14.1135 126.636V120.273H14.5211V126.636H14.1135ZM15.3887 122.246C15.3622 122.011 15.2528 121.829 15.0605 121.7C14.8683 121.569 14.6264 121.503 14.3347 121.503C14.1259 121.503 13.9453 121.536 13.7928 121.603C13.6403 121.667 13.5218 121.757 13.4373 121.871C13.3545 121.984 13.313 122.112 13.313 122.256C13.313 122.377 13.3412 122.482 13.3975 122.57C13.4556 122.657 13.531 122.731 13.6238 122.791C13.7182 122.849 13.8193 122.898 13.927 122.938C14.0347 122.976 14.1383 123.007 14.2377 123.032L14.7349 123.161C14.8973 123.201 15.0639 123.255 15.2346 123.323C15.4052 123.391 15.5635 123.48 15.7093 123.591C15.8552 123.702 15.9728 123.84 16.0623 124.004C16.1535 124.168 16.199 124.364 16.199 124.593C16.199 124.881 16.1245 125.137 15.9753 125.361C15.8278 125.585 15.6132 125.761 15.3315 125.891C15.0514 126.02 14.7125 126.085 14.3148 126.085C13.9337 126.085 13.6039 126.024 13.3255 125.903C13.0471 125.782 12.8291 125.611 12.6717 125.388C12.5143 125.165 12.4273 124.9 12.4107 124.593H13.1813C13.1962 124.777 13.2559 124.93 13.3603 125.053C13.4663 125.174 13.6014 125.264 13.7654 125.324C13.9312 125.382 14.1126 125.411 14.3098 125.411C14.5269 125.411 14.72 125.377 14.889 125.309C15.0597 125.239 15.194 125.143 15.2917 125.021C15.3895 124.896 15.4384 124.751 15.4384 124.586C15.4384 124.435 15.3953 124.311 15.3091 124.215C15.2246 124.119 15.1094 124.04 14.9636 123.977C14.8194 123.914 14.6562 123.858 14.4739 123.81L13.8723 123.646C13.4647 123.535 13.1415 123.372 12.9029 123.156C12.6659 122.941 12.5474 122.656 12.5474 122.301C12.5474 122.008 12.627 121.752 12.786 121.533C12.9451 121.314 13.1606 121.144 13.4324 121.023C13.7041 120.901 14.0107 120.839 14.3521 120.839C14.6968 120.839 15.0009 120.9 15.2644 121.021C15.5295 121.142 15.7383 121.308 15.8908 121.521C16.0433 121.731 16.1228 121.973 16.1294 122.246H15.3887ZM18.9788 120.909V126H18.2082V121.68H18.1784L16.9603 122.475V121.739L18.2306 120.909H18.9788ZM20.5616 126.047C20.4257 126.047 20.3089 125.999 20.2111 125.903C20.1133 125.805 20.0645 125.688 20.0645 125.55C20.0645 125.414 20.1133 125.298 20.2111 125.202C20.3089 125.104 20.4257 125.055 20.5616 125.055C20.6975 125.055 20.8143 125.104 20.9121 125.202C21.0099 125.298 21.0588 125.414 21.0588 125.55C21.0588 125.641 21.0356 125.725 20.9892 125.801C20.9444 125.876 20.8848 125.935 20.8102 125.98C20.7356 126.025 20.6528 126.047 20.5616 126.047ZM23.6428 126.07C23.3312 126.07 23.0511 126.01 22.8026 125.891C22.5556 125.77 22.3584 125.604 22.2109 125.393C22.0634 125.183 21.9847 124.943 21.9748 124.673H22.7205C22.7388 124.891 22.8357 125.071 23.0114 125.212C23.187 125.353 23.3975 125.423 23.6428 125.423C23.8383 125.423 24.0115 125.379 24.1623 125.289C24.3147 125.198 24.4341 125.073 24.5202 124.914C24.6081 124.755 24.652 124.573 24.652 124.369C24.652 124.162 24.6072 123.977 24.5178 123.815C24.4283 123.653 24.3048 123.525 24.1474 123.432C23.9916 123.339 23.8126 123.292 23.6104 123.29C23.4563 123.29 23.3014 123.317 23.1456 123.37C22.9898 123.423 22.8639 123.493 22.7678 123.579L22.0643 123.474L22.3501 120.909H25.1491V121.568H22.989L22.8274 122.992H22.8572C22.9567 122.896 23.0884 122.816 23.2525 122.751C23.4182 122.686 23.5955 122.654 23.7844 122.654C24.0943 122.654 24.3703 122.728 24.6122 122.875C24.8558 123.023 25.0472 123.224 25.1864 123.479C25.3273 123.733 25.3969 124.025 25.3952 124.354C25.3969 124.684 25.3223 124.978 25.1715 125.237C25.0224 125.495 24.8152 125.699 24.5501 125.848C24.2866 125.996 23.9841 126.07 23.6428 126.07ZM26.3131 126V122.182H27.0265V122.803H27.0738C27.1533 122.593 27.2834 122.429 27.464 122.311C27.6447 122.192 27.8609 122.132 28.1128 122.132C28.368 122.132 28.5818 122.192 28.7542 122.311C28.9282 122.43 29.0566 122.594 29.1395 122.803H29.1792C29.2704 122.599 29.4154 122.437 29.6143 122.316C29.8131 122.193 30.0501 122.132 30.3252 122.132C30.6715 122.132 30.9541 122.241 31.1729 122.458C31.3933 122.675 31.5035 123.002 31.5035 123.44V126H30.7602V123.509C30.7602 123.251 30.6898 123.063 30.5489 122.947C30.4081 122.831 30.2398 122.773 30.0443 122.773C29.8023 122.773 29.6143 122.848 29.48 122.997C29.3458 123.145 29.2787 123.334 29.2787 123.566V126H28.5379V123.462C28.5379 123.255 28.4733 123.088 28.344 122.962C28.2148 122.836 28.0465 122.773 27.8394 122.773C27.6985 122.773 27.5684 122.811 27.4491 122.885C27.3315 122.958 27.2362 123.06 27.1633 123.191C27.092 123.322 27.0564 123.474 27.0564 123.646V126H26.3131Z" fill="#56647E"></path>
<rect x="40" y="57" width="192" height="1" fill="#E7E9ED"></rect>
<rect x="40" y="90" width="192" height="1" fill="#E7E9ED"></rect>
<rect x="40" y="123" width="192" height="1" fill="#E7E9ED"></rect>
<rect x="55" y="24" width="1" height="100" fill="#E7E9ED"></rect>
<rect x="39" y="24" width="1" height="100" fill="#E7E9ED"></rect>
<rect x="75" y="24" width="1" height="100" fill="#E7E9ED"></rect>
<rect x="95" y="24" width="1" height="100" fill="#E7E9ED"></rect>
<rect x="115" y="24" width="1" height="100" fill="#E7E9ED"></rect>
<rect x="135" y="24" width="1" height="100" fill="#E7E9ED"></rect>
<rect x="155" y="24" width="1" height="100" fill="#E7E9ED"></rect>
<rect x="175" y="24" width="1" height="100" fill="#E7E9ED"></rect>
<rect x="195" y="24" width="1" height="100" fill="#E7E9ED"></rect>
<rect x="215" y="24" width="1" height="100" fill="#E7E9ED"></rect>
<rect x="231" y="24" width="1" height="100" fill="#E7E9ED"></rect>
<path d="M39 110C42.2167 109.315 48.65 108.019 55.0833 106.576C61.5167 105.134 64.7333 105.013 71.1667 102.788C77.6 100.564 80.8167 98.6752 87.25 95.4552C93.6833 92.2353 96.9 90.6033 103.333 86.6886C109.767 82.7739 112.983 78.7247 119.417 75.8816C125.85 73.0386 129.067 75.5763 135.5 72.4734C141.933 69.3705 145.15 65.3044 151.583 60.3671C158.017 55.4298 161.233 53.0392 167.667 47.787C174.1 42.5348 177.317 32.8823 183.75 34.1062C190.183 35.3301 193.4 49.2479 199.833 53.9064C206.267 58.565 209.483 57.7417 215.917 57.3989C222.35 57.0561 228.783 53.2338 232 52.1925" stroke="#2D68FF" stroke-width="1.5"></path>
<path d="M73.3691 134.246C73.3426 134.011 73.2333 133.829 73.041 133.7C72.8488 133.569 72.6068 133.503 72.3152 133.503C72.1064 133.503 71.9257 133.536 71.7733 133.603C71.6208 133.667 71.5023 133.757 71.4178 133.871C71.3349 133.984 71.2935 134.112 71.2935 134.256C71.2935 134.377 71.3217 134.482 71.378 134.57C71.436 134.657 71.5114 134.731 71.6042 134.791C71.6987 134.849 71.7998 134.898 71.9075 134.938C72.0152 134.976 72.1188 135.007 72.2182 135.032L72.7154 135.161C72.8778 135.201 73.0443 135.255 73.215 135.323C73.3857 135.391 73.544 135.48 73.6898 135.591C73.8356 135.702 73.9533 135.84 74.0428 136.004C74.1339 136.168 74.1795 136.364 74.1795 136.593C74.1795 136.881 74.1049 137.137 73.9558 137.361C73.8083 137.585 73.5937 137.761 73.312 137.891C73.0319 138.02 72.693 138.085 72.2953 138.085C71.9141 138.085 71.5843 138.024 71.3059 137.903C71.0275 137.782 70.8096 137.611 70.6522 137.388C70.4947 137.165 70.4077 136.9 70.3912 136.593H71.1618C71.1767 136.777 71.2363 136.93 71.3407 137.053C71.4468 137.174 71.5819 137.264 71.7459 137.324C71.9116 137.382 72.0931 137.411 72.2903 137.411C72.5074 137.411 72.7005 137.377 72.8695 137.309C73.0402 137.239 73.1744 137.143 73.2722 137.021C73.37 136.896 73.4189 136.751 73.4189 136.586C73.4189 136.435 73.3758 136.311 73.2896 136.215C73.2051 136.119 73.0899 136.04 72.9441 135.977C72.7999 135.914 72.6367 135.858 72.4544 135.81L71.8528 135.646C71.4451 135.535 71.122 135.372 70.8833 135.156C70.6464 134.941 70.5279 134.656 70.5279 134.301C70.5279 134.008 70.6074 133.752 70.7665 133.533C70.9256 133.314 71.141 133.144 71.4128 133.023C71.6846 132.901 71.9912 132.839 72.3326 132.839C72.6773 132.839 72.9814 132.9 73.2449 133.021C73.51 133.142 73.7188 133.308 73.8713 133.521C74.0237 133.731 74.1033 133.973 74.1099 134.246H73.3691ZM76.6833 138.077C76.3071 138.077 75.9832 137.997 75.7114 137.836C75.4413 137.674 75.2325 137.446 75.085 137.152C74.9391 136.857 74.8662 136.512 74.8662 136.116C74.8662 135.725 74.9391 135.38 75.085 135.082C75.2325 134.783 75.4379 134.551 75.7014 134.383C75.9666 134.216 76.2765 134.132 76.6311 134.132C76.8466 134.132 77.0554 134.168 77.2575 134.239C77.4597 134.31 77.6412 134.422 77.8019 134.575C77.9627 134.727 78.0895 134.925 78.1823 135.169C78.2751 135.411 78.3215 135.705 78.3215 136.051V136.315H75.2863V135.758H77.5931C77.5931 135.562 77.5534 135.389 77.4738 135.238C77.3943 135.086 77.2824 134.966 77.1382 134.878C76.9957 134.79 76.8283 134.746 76.6361 134.746C76.4273 134.746 76.245 134.797 76.0892 134.9C75.9351 135.001 75.8158 135.134 75.7313 135.298C75.6484 135.46 75.607 135.637 75.607 135.827V136.262C75.607 136.518 75.6517 136.735 75.7412 136.914C75.8324 137.093 75.9591 137.229 76.1215 137.324C76.2839 137.417 76.4737 137.463 76.6908 137.463C76.8316 137.463 76.9601 137.443 77.0761 137.403C77.1921 137.362 77.2923 137.301 77.3769 137.219C77.4614 137.138 77.526 137.038 77.5708 136.919L78.2742 137.045C78.2179 137.253 78.1168 137.434 77.971 137.59C77.8268 137.744 77.6453 137.864 77.4266 137.95C77.2095 138.035 76.9617 138.077 76.6833 138.077ZM79.1461 139.432V134.182H79.872V134.801H79.9341C79.9772 134.721 80.0394 134.629 80.1206 134.525C80.2018 134.42 80.3145 134.329 80.4586 134.251C80.6028 134.172 80.7934 134.132 81.0304 134.132C81.3386 134.132 81.6137 134.21 81.8556 134.366C82.0976 134.522 82.2873 134.746 82.4249 135.039C82.5641 135.333 82.6337 135.686 82.6337 136.098C82.6337 136.511 82.5649 136.865 82.4274 137.16C82.2898 137.453 82.1009 137.679 81.8606 137.838C81.6203 137.996 81.3461 138.075 81.0378 138.075C80.8058 138.075 80.6161 138.036 80.4686 137.958C80.3227 137.88 80.2084 137.789 80.1255 137.684C80.0427 137.58 79.9789 137.487 79.9341 137.406H79.8894V139.432H79.1461ZM79.8745 136.091C79.8745 136.359 79.9134 136.595 79.9913 136.797C80.0692 136.999 80.1819 137.157 80.3294 137.272C80.4769 137.384 80.6575 137.441 80.8713 137.441C81.0933 137.441 81.2789 137.382 81.4281 137.264C81.5772 137.145 81.6899 136.983 81.7662 136.779C81.844 136.576 81.883 136.346 81.883 136.091C81.883 135.839 81.8449 135.613 81.7686 135.412C81.6941 135.212 81.5814 135.054 81.4306 134.938C81.2814 134.821 81.095 134.763 80.8713 134.763C80.6558 134.763 80.4735 134.819 80.3244 134.93C80.1769 135.041 80.065 135.196 79.9888 135.395C79.9126 135.594 79.8745 135.826 79.8745 136.091ZM71.8115 144.5V144.023C71.8115 143.882 71.838 143.734 71.891 143.578C71.9441 143.422 72.0178 143.273 72.1123 143.13C72.2067 142.988 72.3178 142.866 72.4454 142.765L72.8133 143.028C72.7122 143.176 72.626 143.33 72.5547 143.491C72.4835 143.652 72.4478 143.826 72.4478 144.015V144.5H71.8115ZM73.4453 148V147.443L75.1679 145.658C75.3519 145.464 75.5035 145.295 75.6228 145.149C75.7438 145.001 75.8341 144.861 75.8938 144.729C75.9534 144.596 75.9833 144.455 75.9833 144.306C75.9833 144.137 75.9435 143.991 75.8639 143.869C75.7844 143.744 75.6759 143.649 75.5383 143.583C75.4008 143.515 75.2458 143.481 75.0735 143.481C74.8912 143.481 74.7321 143.518 74.5962 143.593C74.4603 143.667 74.3559 143.772 74.283 143.908C74.2101 144.044 74.1736 144.203 74.1736 144.386H73.4403C73.4403 144.076 73.5116 143.805 73.6541 143.573C73.7966 143.341 73.9921 143.161 74.2407 143.033C74.4893 142.904 74.7719 142.839 75.0884 142.839C75.4082 142.839 75.6899 142.903 75.9335 143.031C76.1788 143.157 76.3702 143.329 76.5078 143.548C76.6453 143.765 76.7141 144.01 76.7141 144.284C76.7141 144.473 76.6785 144.657 76.6072 144.838C76.5376 145.019 76.4158 145.22 76.2418 145.442C76.0678 145.663 75.8258 145.93 75.5159 146.245L74.5042 147.304V147.341H76.7961V148H73.4453ZM77.7382 148V147.443L79.4609 145.658C79.6448 145.464 79.7965 145.295 79.9158 145.149C80.0368 145.001 80.1271 144.861 80.1867 144.729C80.2464 144.596 80.2762 144.455 80.2762 144.306C80.2762 144.137 80.2365 143.991 80.1569 143.869C80.0774 143.744 79.9688 143.649 79.8313 143.583C79.6937 143.515 79.5388 143.481 79.3664 143.481C79.1841 143.481 79.0251 143.518 78.8892 143.593C78.7533 143.667 78.6489 143.772 78.5759 143.908C78.503 144.044 78.4666 144.203 78.4666 144.386H77.7333C77.7333 144.076 77.8045 143.805 77.947 143.573C78.0896 143.341 78.2851 143.161 78.5337 143.033C78.7823 142.904 79.0648 142.839 79.3813 142.839C79.7012 142.839 79.9829 142.903 80.2265 143.031C80.4718 143.157 80.6632 143.329 80.8007 143.548C80.9383 143.765 81.0071 144.01 81.0071 144.284C81.0071 144.473 80.9714 144.657 80.9002 144.838C80.8306 145.019 80.7088 145.22 80.5348 145.442C80.3608 145.663 80.1188 145.93 79.8089 146.245L78.7972 147.304V147.341H81.0891V148H77.7382Z" fill="#56647E"></path>
<path d="M95.0035 135.455C95.0035 135.998 94.9041 136.465 94.7052 136.857C94.5063 137.246 94.2337 137.546 93.8874 137.756C93.5427 137.965 93.1508 138.07 92.7116 138.07C92.2708 138.07 91.8772 137.965 91.5309 137.756C91.1862 137.546 90.9144 137.245 90.7155 136.854C90.5166 136.463 90.4172 135.996 90.4172 135.455C90.4172 134.911 90.5166 134.444 90.7155 134.055C90.9144 133.664 91.1862 133.364 91.5309 133.155C91.8772 132.945 92.2708 132.839 92.7116 132.839C93.1508 132.839 93.5427 132.945 93.8874 133.155C94.2337 133.364 94.5063 133.664 94.7052 134.055C94.9041 134.444 95.0035 134.911 95.0035 135.455ZM94.2429 135.455C94.2429 135.04 94.1757 134.691 94.0415 134.408C93.9089 134.123 93.7266 133.908 93.4946 133.762C93.2643 133.614 93.0033 133.54 92.7116 133.54C92.4183 133.54 92.1564 133.614 91.9261 133.762C91.6957 133.908 91.5134 134.123 91.3792 134.408C91.2466 134.691 91.1804 135.04 91.1804 135.455C91.1804 135.869 91.2466 136.219 91.3792 136.504C91.5134 136.787 91.6957 137.002 91.9261 137.15C92.1564 137.296 92.4183 137.369 92.7116 137.369C93.0033 137.369 93.2643 137.296 93.4946 137.15C93.7266 137.002 93.9089 136.787 94.0415 136.504C94.1757 136.219 94.2429 135.869 94.2429 135.455ZM97.5098 138.077C97.1403 138.077 96.8221 137.993 96.5553 137.826C96.2901 137.657 96.0863 137.424 95.9438 137.127C95.8012 136.831 95.73 136.491 95.73 136.108C95.73 135.721 95.8029 135.378 95.9487 135.082C96.0946 134.783 96.3001 134.551 96.5652 134.383C96.8304 134.216 97.1427 134.132 97.5024 134.132C97.7924 134.132 98.0509 134.186 98.2779 134.294C98.505 134.4 98.6881 134.549 98.8273 134.741C98.9681 134.933 99.0518 135.158 99.0783 135.415H98.355C98.3152 135.236 98.2241 135.082 98.0815 134.952C97.9407 134.823 97.7518 134.759 97.5148 134.759C97.3076 134.759 97.1262 134.813 96.9704 134.923C96.8163 135.03 96.6961 135.184 96.61 135.385C96.5238 135.584 96.4807 135.819 96.4807 136.091C96.4807 136.369 96.5229 136.61 96.6075 136.812C96.692 137.014 96.8113 137.171 96.9654 137.282C97.1212 137.393 97.3043 137.448 97.5148 137.448C97.6556 137.448 97.7832 137.422 97.8976 137.371C98.0136 137.318 98.1105 137.243 98.1884 137.145C98.268 137.047 98.3235 136.929 98.355 136.792H99.0783C99.0518 137.039 98.9715 137.259 98.8372 137.453C98.703 137.647 98.5232 137.799 98.2978 137.911C98.0741 138.022 97.8114 138.077 97.5098 138.077ZM101.655 134.182V134.778H99.5699V134.182H101.655ZM100.129 133.267H100.872V136.879C100.872 137.023 100.894 137.132 100.937 137.205C100.98 137.276 101.036 137.325 101.104 137.351C101.173 137.376 101.249 137.388 101.33 137.388C101.39 137.388 101.442 137.384 101.486 137.376C101.531 137.368 101.566 137.361 101.591 137.356L101.725 137.97C101.682 137.987 101.621 138.003 101.541 138.02C101.462 138.038 101.362 138.048 101.243 138.05C101.047 138.053 100.865 138.018 100.696 137.945C100.527 137.872 100.39 137.76 100.286 137.607C100.181 137.455 100.129 137.263 100.129 137.033V133.267ZM91.3115 144.5V144.023C91.3115 143.882 91.338 143.734 91.391 143.578C91.4441 143.422 91.5178 143.273 91.6123 143.13C91.7067 142.988 91.8178 142.866 91.9454 142.765L92.3133 143.028C92.2122 143.176 92.126 143.33 92.0547 143.491C91.9835 143.652 91.9478 143.826 91.9478 144.015V144.5H91.3115ZM92.9453 148V147.443L94.6679 145.658C94.8519 145.464 95.0035 145.295 95.1228 145.149C95.2438 145.001 95.3341 144.861 95.3938 144.729C95.4534 144.596 95.4833 144.455 95.4833 144.306C95.4833 144.137 95.4435 143.991 95.3639 143.869C95.2844 143.744 95.1759 143.649 95.0383 143.583C94.9008 143.515 94.7458 143.481 94.5735 143.481C94.3912 143.481 94.2321 143.518 94.0962 143.593C93.9603 143.667 93.8559 143.772 93.783 143.908C93.7101 144.044 93.6736 144.203 93.6736 144.386H92.9403C92.9403 144.076 93.0116 143.805 93.1541 143.573C93.2966 143.341 93.4921 143.161 93.7407 143.033C93.9893 142.904 94.2719 142.839 94.5884 142.839C94.9082 142.839 95.1899 142.903 95.4335 143.031C95.6788 143.157 95.8702 143.329 96.0078 143.548C96.1453 143.765 96.2141 144.01 96.2141 144.284C96.2141 144.473 96.1785 144.657 96.1072 144.838C96.0376 145.019 95.9158 145.22 95.7418 145.442C95.5678 145.663 95.3258 145.93 95.0159 146.245L94.0042 147.304V147.341H96.2961V148H92.9453ZM97.2382 148V147.443L98.9609 145.658C99.1448 145.464 99.2965 145.295 99.4158 145.149C99.5368 145.001 99.6271 144.861 99.6867 144.729C99.7464 144.596 99.7762 144.455 99.7762 144.306C99.7762 144.137 99.7365 143.991 99.6569 143.869C99.5774 143.744 99.4688 143.649 99.3313 143.583C99.1937 143.515 99.0388 143.481 98.8664 143.481C98.6841 143.481 98.5251 143.518 98.3892 143.593C98.2533 143.667 98.1489 143.772 98.0759 143.908C98.003 144.044 97.9666 144.203 97.9666 144.386H97.2333C97.2333 144.076 97.3045 143.805 97.447 143.573C97.5896 143.341 97.7851 143.161 98.0337 143.033C98.2823 142.904 98.5648 142.839 98.8813 142.839C99.2012 142.839 99.4829 142.903 99.7265 143.031C99.9718 143.157 100.163 143.329 100.301 143.548C100.438 143.765 100.507 144.01 100.507 144.284C100.507 144.473 100.471 144.657 100.4 144.838C100.331 145.019 100.209 145.22 100.035 145.442C99.8608 145.663 99.6188 145.93 99.3089 146.245L98.2972 147.304V147.341H100.589V148H97.2382Z" fill="#56647E"></path>
<path d="M114.027 132.909V138H113.321L110.734 134.266H110.686V138H109.918V132.909H110.629L113.219 136.648H113.267V132.909H114.027ZM116.696 138.077C116.338 138.077 116.026 137.995 115.759 137.831C115.492 137.667 115.285 137.437 115.138 137.142C114.99 136.847 114.917 136.503 114.917 136.108C114.917 135.712 114.99 135.366 115.138 135.069C115.285 134.773 115.492 134.542 115.759 134.378C116.026 134.214 116.338 134.132 116.696 134.132C117.054 134.132 117.367 134.214 117.633 134.378C117.9 134.542 118.107 134.773 118.255 135.069C118.402 135.366 118.476 135.712 118.476 136.108C118.476 136.503 118.402 136.847 118.255 137.142C118.107 137.437 117.9 137.667 117.633 137.831C117.367 137.995 117.054 138.077 116.696 138.077ZM116.699 137.453C116.931 137.453 117.123 137.392 117.276 137.269C117.428 137.147 117.541 136.983 117.614 136.779C117.688 136.576 117.725 136.351 117.725 136.106C117.725 135.862 117.688 135.638 117.614 135.435C117.541 135.229 117.428 135.064 117.276 134.94C117.123 134.816 116.931 134.754 116.699 134.754C116.465 134.754 116.271 134.816 116.117 134.94C115.965 135.064 115.851 135.229 115.777 135.435C115.704 135.638 115.667 135.862 115.667 136.106C115.667 136.351 115.704 136.576 115.777 136.779C115.851 136.983 115.965 137.147 116.117 137.269C116.271 137.392 116.465 137.453 116.699 137.453ZM122.442 134.182L121.058 138H120.262L118.875 134.182H119.673L120.64 137.12H120.68L121.644 134.182H122.442ZM111.311 144.5V144.023C111.311 143.882 111.338 143.734 111.391 143.578C111.444 143.422 111.518 143.273 111.612 143.13C111.707 142.988 111.818 142.866 111.945 142.765L112.313 143.028C112.212 143.176 112.126 143.33 112.055 143.491C111.983 143.652 111.948 143.826 111.948 144.015V144.5H111.311ZM112.945 148V147.443L114.668 145.658C114.852 145.464 115.004 145.295 115.123 145.149C115.244 145.001 115.334 144.861 115.394 144.729C115.453 144.596 115.483 144.455 115.483 144.306C115.483 144.137 115.443 143.991 115.364 143.869C115.284 143.744 115.176 143.649 115.038 143.583C114.901 143.515 114.746 143.481 114.573 143.481C114.391 143.481 114.232 143.518 114.096 143.593C113.96 143.667 113.856 143.772 113.783 143.908C113.71 144.044 113.674 144.203 113.674 144.386H112.94C112.94 144.076 113.012 143.805 113.154 143.573C113.297 143.341 113.492 143.161 113.741 143.033C113.989 142.904 114.272 142.839 114.588 142.839C114.908 142.839 115.19 142.903 115.434 143.031C115.679 143.157 115.87 143.329 116.008 143.548C116.145 143.765 116.214 144.01 116.214 144.284C116.214 144.473 116.178 144.657 116.107 144.838C116.038 145.019 115.916 145.22 115.742 145.442C115.568 145.663 115.326 145.93 115.016 146.245L114.004 147.304V147.341H116.296V148H112.945ZM117.238 148V147.443L118.961 145.658C119.145 145.464 119.296 145.295 119.416 145.149C119.537 145.001 119.627 144.861 119.687 144.729C119.746 144.596 119.776 144.455 119.776 144.306C119.776 144.137 119.736 143.991 119.657 143.869C119.577 143.744 119.469 143.649 119.331 143.583C119.194 143.515 119.039 143.481 118.866 143.481C118.684 143.481 118.525 143.518 118.389 143.593C118.253 143.667 118.149 143.772 118.076 143.908C118.003 144.044 117.967 144.203 117.967 144.386H117.233C117.233 144.076 117.305 143.805 117.447 143.573C117.59 143.341 117.785 143.161 118.034 143.033C118.282 142.904 118.565 142.839 118.881 142.839C119.201 142.839 119.483 142.903 119.727 143.031C119.972 143.157 120.163 143.329 120.301 143.548C120.438 143.765 120.507 144.01 120.507 144.284C120.507 144.473 120.471 144.657 120.4 144.838C120.331 145.019 120.209 145.22 120.035 145.442C119.861 145.663 119.619 145.93 119.309 146.245L118.297 147.304V147.341H120.589V148H117.238Z" fill="#56647E"></path>
<path d="M131.641 138H129.993V132.909H131.694C132.192 132.909 132.621 133.011 132.979 133.215C133.337 133.417 133.611 133.708 133.802 134.087C133.994 134.465 134.09 134.918 134.09 135.447C134.09 135.977 133.993 136.433 133.799 136.814C133.607 137.195 133.328 137.489 132.964 137.694C132.599 137.898 132.159 138 131.641 138ZM130.761 137.329H131.599C131.987 137.329 132.309 137.256 132.566 137.11C132.823 136.963 133.015 136.75 133.143 136.471C133.27 136.191 133.334 135.85 133.334 135.447C133.334 135.048 133.27 134.709 133.143 134.43C133.017 134.152 132.829 133.941 132.579 133.797C132.328 133.652 132.018 133.58 131.646 133.58H130.761V137.329ZM136.631 138.077C136.255 138.077 135.931 137.997 135.659 137.836C135.389 137.674 135.18 137.446 135.033 137.152C134.887 136.857 134.814 136.512 134.814 136.116C134.814 135.725 134.887 135.38 135.033 135.082C135.18 134.783 135.386 134.551 135.649 134.383C135.914 134.216 136.224 134.132 136.579 134.132C136.794 134.132 137.003 134.168 137.205 134.239C137.407 134.31 137.589 134.422 137.75 134.575C137.91 134.727 138.037 134.925 138.13 135.169C138.223 135.411 138.269 135.705 138.269 136.051V136.315H135.234V135.758H137.541C137.541 135.562 137.501 135.389 137.422 135.238C137.342 135.086 137.23 134.966 137.086 134.878C136.943 134.79 136.776 134.746 136.584 134.746C136.375 134.746 136.193 134.797 136.037 134.9C135.883 135.001 135.764 135.134 135.679 135.298C135.596 135.46 135.555 135.637 135.555 135.827V136.262C135.555 136.518 135.599 136.735 135.689 136.914C135.78 137.093 135.907 137.229 136.069 137.324C136.232 137.417 136.421 137.463 136.639 137.463C136.779 137.463 136.908 137.443 137.024 137.403C137.14 137.362 137.24 137.301 137.325 137.219C137.409 137.138 137.474 137.038 137.519 136.919L138.222 137.045C138.166 137.253 138.065 137.434 137.919 137.59C137.775 137.744 137.593 137.864 137.374 137.95C137.157 138.035 136.909 138.077 136.631 138.077ZM140.702 138.077C140.333 138.077 140.014 137.993 139.748 137.826C139.482 137.657 139.279 137.424 139.136 137.127C138.994 136.831 138.922 136.491 138.922 136.108C138.922 135.721 138.995 135.378 139.141 135.082C139.287 134.783 139.492 134.551 139.758 134.383C140.023 134.216 140.335 134.132 140.695 134.132C140.985 134.132 141.243 134.186 141.47 134.294C141.697 134.4 141.88 134.549 142.02 134.741C142.161 134.933 142.244 135.158 142.271 135.415H141.547C141.508 135.236 141.416 135.082 141.274 134.952C141.133 134.823 140.944 134.759 140.707 134.759C140.5 134.759 140.319 134.813 140.163 134.923C140.009 135.03 139.889 135.184 139.802 135.385C139.716 135.584 139.673 135.819 139.673 136.091C139.673 136.369 139.715 136.61 139.8 136.812C139.884 137.014 140.004 137.171 140.158 137.282C140.314 137.393 140.497 137.448 140.707 137.448C140.848 137.448 140.976 137.422 141.09 137.371C141.206 137.318 141.303 137.243 141.381 137.145C141.46 137.047 141.516 136.929 141.547 136.792H142.271C142.244 137.039 142.164 137.259 142.03 137.453C141.895 137.647 141.716 137.799 141.49 137.911C141.266 138.022 141.004 138.077 140.702 138.077ZM131.311 144.5V144.023C131.311 143.882 131.338 143.734 131.391 143.578C131.444 143.422 131.518 143.273 131.612 143.13C131.707 142.988 131.818 142.866 131.945 142.765L132.313 143.028C132.212 143.176 132.126 143.33 132.055 143.491C131.983 143.652 131.948 143.826 131.948 144.015V144.5H131.311ZM132.945 148V147.443L134.668 145.658C134.852 145.464 135.004 145.295 135.123 145.149C135.244 145.001 135.334 144.861 135.394 144.729C135.453 144.596 135.483 144.455 135.483 144.306C135.483 144.137 135.443 143.991 135.364 143.869C135.284 143.744 135.176 143.649 135.038 143.583C134.901 143.515 134.746 143.481 134.573 143.481C134.391 143.481 134.232 143.518 134.096 143.593C133.96 143.667 133.856 143.772 133.783 143.908C133.71 144.044 133.674 144.203 133.674 144.386H132.94C132.94 144.076 133.012 143.805 133.154 143.573C133.297 143.341 133.492 143.161 133.741 143.033C133.989 142.904 134.272 142.839 134.588 142.839C134.908 142.839 135.19 142.903 135.434 143.031C135.679 143.157 135.87 143.329 136.008 143.548C136.145 143.765 136.214 144.01 136.214 144.284C136.214 144.473 136.178 144.657 136.107 144.838C136.038 145.019 135.916 145.22 135.742 145.442C135.568 145.663 135.326 145.93 135.016 146.245L134.004 147.304V147.341H136.296V148H132.945ZM137.238 148V147.443L138.961 145.658C139.145 145.464 139.296 145.295 139.416 145.149C139.537 145.001 139.627 144.861 139.687 144.729C139.746 144.596 139.776 144.455 139.776 144.306C139.776 144.137 139.736 143.991 139.657 143.869C139.577 143.744 139.469 143.649 139.331 143.583C139.194 143.515 139.039 143.481 138.866 143.481C138.684 143.481 138.525 143.518 138.389 143.593C138.253 143.667 138.149 143.772 138.076 143.908C138.003 144.044 137.967 144.203 137.967 144.386H137.233C137.233 144.076 137.305 143.805 137.447 143.573C137.59 143.341 137.785 143.161 138.034 143.033C138.282 142.904 138.565 142.839 138.881 142.839C139.201 142.839 139.483 142.903 139.727 143.031C139.972 143.157 140.163 143.329 140.301 143.548C140.438 143.765 140.507 144.01 140.507 144.284C140.507 144.473 140.471 144.657 140.4 144.838C140.331 145.019 140.209 145.22 140.035 145.442C139.861 145.663 139.619 145.93 139.309 146.245L138.297 147.304V147.341H140.589V148H137.238Z" fill="#56647E"></path>
<path d="M153.022 132.909H153.788V136.518C153.788 136.845 153.723 137.124 153.594 137.356C153.467 137.588 153.287 137.766 153.055 137.888C152.823 138.009 152.551 138.07 152.239 138.07C151.953 138.07 151.695 138.017 151.466 137.913C151.239 137.809 151.059 137.657 150.927 137.458C150.796 137.258 150.73 137.014 150.73 136.727H151.494C151.494 136.868 151.526 136.99 151.591 137.093C151.657 137.195 151.747 137.276 151.862 137.334C151.978 137.39 152.11 137.418 152.259 137.418C152.422 137.418 152.559 137.384 152.672 137.316C152.786 137.247 152.873 137.145 152.933 137.011C152.993 136.876 153.022 136.712 153.022 136.518V132.909ZM155.957 138.085C155.716 138.085 155.497 138.04 155.301 137.95C155.106 137.859 154.951 137.727 154.836 137.555C154.724 137.383 154.667 137.171 154.667 136.921C154.667 136.706 154.709 136.528 154.792 136.389C154.874 136.25 154.986 136.14 155.127 136.059C155.268 135.977 155.426 135.916 155.6 135.875C155.774 135.833 155.951 135.802 156.131 135.78C156.36 135.754 156.546 135.732 156.688 135.716C156.831 135.697 156.934 135.668 156.999 135.629C157.064 135.589 157.096 135.524 157.096 135.435V135.417C157.096 135.2 157.035 135.032 156.912 134.913C156.791 134.793 156.61 134.734 156.37 134.734C156.12 134.734 155.923 134.789 155.778 134.9C155.636 135.01 155.537 135.131 155.483 135.266L154.784 135.107C154.867 134.875 154.988 134.687 155.147 134.545C155.308 134.401 155.493 134.296 155.701 134.232C155.91 134.165 156.13 134.132 156.36 134.132C156.513 134.132 156.674 134.15 156.845 134.187C157.017 134.222 157.178 134.286 157.327 134.381C157.478 134.475 157.601 134.61 157.698 134.786C157.794 134.96 157.842 135.186 157.842 135.464V138H157.116V137.478H157.086C157.038 137.574 156.966 137.669 156.87 137.761C156.774 137.854 156.65 137.931 156.499 137.993C156.349 138.054 156.168 138.085 155.957 138.085ZM156.119 137.488C156.325 137.488 156.5 137.447 156.646 137.366C156.794 137.285 156.905 137.179 156.982 137.048C157.06 136.915 157.098 136.774 157.098 136.623V136.131C157.072 136.157 157.021 136.182 156.944 136.205C156.87 136.227 156.784 136.246 156.688 136.262C156.592 136.277 156.499 136.291 156.407 136.305C156.316 136.316 156.24 136.326 156.179 136.335C156.035 136.353 155.903 136.383 155.783 136.426C155.666 136.47 155.571 136.532 155.5 136.613C155.43 136.692 155.396 136.799 155.396 136.931C155.396 137.115 155.464 137.254 155.6 137.349C155.735 137.442 155.909 137.488 156.119 137.488ZM159.575 135.733V138H158.832V134.182H159.545V134.803H159.592C159.68 134.601 159.818 134.439 160.005 134.316C160.194 134.193 160.432 134.132 160.718 134.132C160.979 134.132 161.206 134.187 161.402 134.296C161.598 134.404 161.749 134.565 161.857 134.778C161.965 134.992 162.018 135.257 162.018 135.571V138H161.275V135.661C161.275 135.384 161.203 135.168 161.059 135.012C160.915 134.855 160.717 134.776 160.465 134.776C160.292 134.776 160.139 134.813 160.005 134.888C159.872 134.962 159.767 135.072 159.689 135.216C159.613 135.358 159.575 135.531 159.575 135.733ZM151.702 144.5V144.023C151.702 143.882 151.729 143.734 151.782 143.578C151.835 143.422 151.908 143.273 152.003 143.13C152.097 142.988 152.208 142.866 152.336 142.765L152.704 143.028C152.603 143.176 152.517 143.33 152.445 143.491C152.374 143.652 152.338 143.826 152.338 144.015V144.5H151.702ZM153.336 148V147.443L155.059 145.658C155.242 145.464 155.394 145.295 155.513 145.149C155.634 145.001 155.725 144.861 155.784 144.729C155.844 144.596 155.874 144.455 155.874 144.306C155.874 144.137 155.834 143.991 155.755 143.869C155.675 143.744 155.566 143.649 155.429 143.583C155.291 143.515 155.136 143.481 154.964 143.481C154.782 143.481 154.623 143.518 154.487 143.593C154.351 143.667 154.247 143.772 154.174 143.908C154.101 144.044 154.064 144.203 154.064 144.386H153.331C153.331 144.076 153.402 143.805 153.545 143.573C153.687 143.341 153.883 143.161 154.131 143.033C154.38 142.904 154.662 142.839 154.979 142.839C155.299 142.839 155.581 142.903 155.824 143.031C156.069 143.157 156.261 143.329 156.398 143.548C156.536 143.765 156.605 144.01 156.605 144.284C156.605 144.473 156.569 144.657 156.498 144.838C156.428 145.019 156.306 145.22 156.132 145.442C155.958 145.663 155.716 145.93 155.407 146.245L154.395 147.304V147.341H156.687V148H153.336ZM159.401 148.07C159.06 148.07 158.755 148.011 158.486 147.893C158.22 147.775 158.008 147.612 157.853 147.403C157.698 147.193 157.616 146.949 157.604 146.673H158.385C158.394 146.823 158.445 146.954 158.536 147.065C158.629 147.175 158.75 147.259 158.899 147.319C159.048 147.379 159.214 147.408 159.396 147.408C159.597 147.408 159.774 147.374 159.928 147.304C160.084 147.234 160.206 147.137 160.294 147.013C160.381 146.887 160.425 146.742 160.425 146.578C160.425 146.407 160.381 146.257 160.294 146.128C160.207 145.997 160.081 145.895 159.913 145.82C159.748 145.745 159.547 145.708 159.312 145.708H158.882V145.082H159.312C159.501 145.082 159.666 145.048 159.809 144.98C159.953 144.912 160.066 144.817 160.147 144.696C160.228 144.574 160.269 144.43 160.269 144.266C160.269 144.109 160.233 143.972 160.162 143.856C160.092 143.739 159.993 143.647 159.864 143.58C159.736 143.514 159.585 143.481 159.411 143.481C159.245 143.481 159.091 143.511 158.946 143.573C158.804 143.632 158.688 143.719 158.598 143.831C158.509 143.942 158.461 144.076 158.454 144.232H157.711C157.719 143.956 157.8 143.714 157.955 143.506C158.11 143.297 158.316 143.134 158.571 143.016C158.826 142.898 159.11 142.839 159.421 142.839C159.748 142.839 160.029 142.903 160.266 143.031C160.505 143.157 160.689 143.325 160.818 143.536C160.949 143.746 161.014 143.976 161.012 144.227C161.014 144.512 160.934 144.754 160.773 144.952C160.614 145.151 160.402 145.285 160.137 145.353V145.392C160.475 145.444 160.737 145.578 160.923 145.795C161.11 146.012 161.203 146.281 161.201 146.603C161.203 146.883 161.125 147.134 160.967 147.356C160.812 147.578 160.599 147.753 160.328 147.881C160.058 148.007 159.749 148.07 159.401 148.07Z" fill="#56647E"></path>
<path d="M170.904 138V132.909H174.061V133.57H171.672V135.121H173.834V135.78H171.672V138H170.904ZM176.311 138.077C175.935 138.077 175.611 137.997 175.339 137.836C175.069 137.674 174.86 137.446 174.712 137.152C174.567 136.857 174.494 136.512 174.494 136.116C174.494 135.725 174.567 135.38 174.712 135.082C174.86 134.783 175.065 134.551 175.329 134.383C175.594 134.216 175.904 134.132 176.259 134.132C176.474 134.132 176.683 134.168 176.885 134.239C177.087 134.31 177.269 134.422 177.429 134.575C177.59 134.727 177.717 134.925 177.81 135.169C177.903 135.411 177.949 135.705 177.949 136.051V136.315H174.914V135.758H177.221C177.221 135.562 177.181 135.389 177.101 135.238C177.022 135.086 176.91 134.966 176.766 134.878C176.623 134.79 176.456 134.746 176.264 134.746C176.055 134.746 175.872 134.797 175.717 134.9C175.563 135.001 175.443 135.134 175.359 135.298C175.276 135.46 175.234 135.637 175.234 135.827V136.262C175.234 136.518 175.279 136.735 175.369 136.914C175.46 137.093 175.587 137.229 175.749 137.324C175.911 137.417 176.101 137.463 176.318 137.463C176.459 137.463 176.588 137.443 176.704 137.403C176.82 137.362 176.92 137.301 177.004 137.219C177.089 137.138 177.153 137.038 177.198 136.919L177.902 137.045C177.845 137.253 177.744 137.434 177.598 137.59C177.454 137.744 177.273 137.864 177.054 137.95C176.837 138.035 176.589 138.077 176.311 138.077ZM178.833 138V132.909H179.576V134.801H179.621C179.664 134.721 179.726 134.629 179.808 134.525C179.889 134.42 180.002 134.329 180.146 134.251C180.29 134.172 180.48 134.132 180.717 134.132C181.026 134.132 181.301 134.21 181.543 134.366C181.785 134.522 181.974 134.746 182.112 135.039C182.251 135.333 182.321 135.686 182.321 136.098C182.321 136.511 182.252 136.865 182.114 137.16C181.977 137.453 181.788 137.679 181.548 137.838C181.307 137.996 181.033 138.075 180.725 138.075C180.493 138.075 180.303 138.036 180.156 137.958C180.01 137.88 179.895 137.789 179.813 137.684C179.73 137.58 179.666 137.487 179.621 137.406H179.559V138H178.833ZM179.562 136.091C179.562 136.359 179.601 136.595 179.678 136.797C179.756 136.999 179.869 137.157 180.016 137.272C180.164 137.384 180.345 137.441 180.558 137.441C180.78 137.441 180.966 137.382 181.115 137.264C181.264 137.145 181.377 136.983 181.453 136.779C181.531 136.576 181.57 136.346 181.57 136.091C181.57 135.839 181.532 135.613 181.456 135.412C181.381 135.212 181.268 135.054 181.118 134.938C180.969 134.821 180.782 134.763 180.558 134.763C180.343 134.763 180.161 134.819 180.011 134.93C179.864 135.041 179.752 135.196 179.676 135.395C179.6 135.594 179.562 135.826 179.562 136.091ZM171.702 144.5V144.023C171.702 143.882 171.729 143.734 171.782 143.578C171.835 143.422 171.908 143.273 172.003 143.13C172.097 142.988 172.208 142.866 172.336 142.765L172.704 143.028C172.603 143.176 172.517 143.33 172.445 143.491C172.374 143.652 172.338 143.826 172.338 144.015V144.5H171.702ZM173.336 148V147.443L175.059 145.658C175.242 145.464 175.394 145.295 175.513 145.149C175.634 145.001 175.725 144.861 175.784 144.729C175.844 144.596 175.874 144.455 175.874 144.306C175.874 144.137 175.834 143.991 175.755 143.869C175.675 143.744 175.566 143.649 175.429 143.583C175.291 143.515 175.136 143.481 174.964 143.481C174.782 143.481 174.623 143.518 174.487 143.593C174.351 143.667 174.247 143.772 174.174 143.908C174.101 144.044 174.064 144.203 174.064 144.386H173.331C173.331 144.076 173.402 143.805 173.545 143.573C173.687 143.341 173.883 143.161 174.131 143.033C174.38 142.904 174.662 142.839 174.979 142.839C175.299 142.839 175.581 142.903 175.824 143.031C176.069 143.157 176.261 143.329 176.398 143.548C176.536 143.765 176.605 144.01 176.605 144.284C176.605 144.473 176.569 144.657 176.498 144.838C176.428 145.019 176.306 145.22 176.132 145.442C175.958 145.663 175.716 145.93 175.407 146.245L174.395 147.304V147.341H176.687V148H173.336ZM179.401 148.07C179.06 148.07 178.755 148.011 178.486 147.893C178.22 147.775 178.008 147.612 177.853 147.403C177.698 147.193 177.616 146.949 177.604 146.673H178.385C178.394 146.823 178.445 146.954 178.536 147.065C178.629 147.175 178.75 147.259 178.899 147.319C179.048 147.379 179.214 147.408 179.396 147.408C179.597 147.408 179.774 147.374 179.928 147.304C180.084 147.234 180.206 147.137 180.294 147.013C180.381 146.887 180.425 146.742 180.425 146.578C180.425 146.407 180.381 146.257 180.294 146.128C180.207 145.997 180.081 145.895 179.913 145.82C179.748 145.745 179.547 145.708 179.312 145.708H178.882V145.082H179.312C179.501 145.082 179.666 145.048 179.809 144.98C179.953 144.912 180.066 144.817 180.147 144.696C180.228 144.574 180.269 144.43 180.269 144.266C180.269 144.109 180.233 143.972 180.162 143.856C180.092 143.739 179.993 143.647 179.864 143.58C179.736 143.514 179.585 143.481 179.411 143.481C179.245 143.481 179.091 143.511 178.946 143.573C178.804 143.632 178.688 143.719 178.598 143.831C178.509 143.942 178.461 144.076 178.454 144.232H177.711C177.719 143.956 177.8 143.714 177.955 143.506C178.11 143.297 178.316 143.134 178.571 143.016C178.826 142.898 179.11 142.839 179.421 142.839C179.748 142.839 180.029 142.903 180.266 143.031C180.505 143.157 180.689 143.325 180.818 143.536C180.949 143.746 181.014 143.976 181.012 144.227C181.014 144.512 180.934 144.754 180.773 144.952C180.614 145.151 180.402 145.285 180.137 145.353V145.392C180.475 145.444 180.737 145.578 180.923 145.795C181.11 146.012 181.203 146.281 181.201 146.603C181.203 146.883 181.125 147.134 180.967 147.356C180.812 147.578 180.599 147.753 180.328 147.881C180.058 148.007 179.749 148.07 179.401 148.07Z" fill="#56647E"></path>
<path d="M190.582 132.909H191.514L193.135 136.866H193.195L194.816 132.909H195.748V138H195.017V134.316H194.97L193.468 137.993H192.862L191.36 134.314H191.313V138H190.582V132.909ZM197.916 138.085C197.674 138.085 197.455 138.04 197.26 137.95C197.064 137.859 196.909 137.727 196.795 137.555C196.682 137.383 196.626 137.171 196.626 136.921C196.626 136.706 196.667 136.528 196.75 136.389C196.833 136.25 196.945 136.14 197.086 136.059C197.227 135.977 197.384 135.916 197.558 135.875C197.732 135.833 197.909 135.802 198.09 135.78C198.319 135.754 198.504 135.732 198.647 135.716C198.789 135.697 198.893 135.668 198.958 135.629C199.022 135.589 199.054 135.524 199.054 135.435V135.417C199.054 135.2 198.993 135.032 198.871 134.913C198.75 134.793 198.569 134.734 198.329 134.734C198.078 134.734 197.881 134.789 197.737 134.9C197.594 135.01 197.496 135.131 197.441 135.266L196.743 135.107C196.826 134.875 196.947 134.687 197.106 134.545C197.266 134.401 197.451 134.296 197.66 134.232C197.869 134.165 198.088 134.132 198.319 134.132C198.471 134.132 198.633 134.15 198.803 134.187C198.976 134.222 199.136 134.286 199.286 134.381C199.436 134.475 199.56 134.61 199.656 134.786C199.752 134.96 199.8 135.186 199.8 135.464V138H199.074V137.478H199.045C198.996 137.574 198.924 137.669 198.828 137.761C198.732 137.854 198.609 137.931 198.458 137.993C198.307 138.054 198.126 138.085 197.916 138.085ZM198.078 137.488C198.283 137.488 198.459 137.447 198.605 137.366C198.752 137.285 198.864 137.179 198.94 137.048C199.018 136.915 199.057 136.774 199.057 136.623V136.131C199.03 136.157 198.979 136.182 198.903 136.205C198.828 136.227 198.743 136.246 198.647 136.262C198.551 136.277 198.457 136.291 198.366 136.305C198.275 136.316 198.199 136.326 198.137 136.335C197.993 136.353 197.861 136.383 197.742 136.426C197.624 136.47 197.53 136.532 197.459 136.613C197.389 136.692 197.354 136.799 197.354 136.931C197.354 137.115 197.422 137.254 197.558 137.349C197.694 137.442 197.867 137.488 198.078 137.488ZM200.79 138V134.182H201.509V134.788H201.548C201.618 134.583 201.741 134.421 201.916 134.304C202.094 134.184 202.294 134.125 202.518 134.125C202.564 134.125 202.619 134.126 202.682 134.13C202.746 134.133 202.797 134.137 202.833 134.142V134.853C202.804 134.845 202.751 134.836 202.674 134.826C202.598 134.814 202.522 134.808 202.446 134.808C202.27 134.808 202.113 134.846 201.976 134.92C201.84 134.993 201.732 135.095 201.653 135.226C201.573 135.355 201.533 135.503 201.533 135.668V138H200.79ZM191.702 144.5V144.023C191.702 143.882 191.729 143.734 191.782 143.578C191.835 143.422 191.908 143.273 192.003 143.13C192.097 142.988 192.208 142.866 192.336 142.765L192.704 143.028C192.603 143.176 192.517 143.33 192.445 143.491C192.374 143.652 192.338 143.826 192.338 144.015V144.5H191.702ZM193.336 148V147.443L195.059 145.658C195.242 145.464 195.394 145.295 195.513 145.149C195.634 145.001 195.725 144.861 195.784 144.729C195.844 144.596 195.874 144.455 195.874 144.306C195.874 144.137 195.834 143.991 195.755 143.869C195.675 143.744 195.566 143.649 195.429 143.583C195.291 143.515 195.136 143.481 194.964 143.481C194.782 143.481 194.623 143.518 194.487 143.593C194.351 143.667 194.247 143.772 194.174 143.908C194.101 144.044 194.064 144.203 194.064 144.386H193.331C193.331 144.076 193.402 143.805 193.545 143.573C193.687 143.341 193.883 143.161 194.131 143.033C194.38 142.904 194.662 142.839 194.979 142.839C195.299 142.839 195.581 142.903 195.824 143.031C196.069 143.157 196.261 143.329 196.398 143.548C196.536 143.765 196.605 144.01 196.605 144.284C196.605 144.473 196.569 144.657 196.498 144.838C196.428 145.019 196.306 145.22 196.132 145.442C195.958 145.663 195.716 145.93 195.407 146.245L194.395 147.304V147.341H196.687V148H193.336ZM199.401 148.07C199.06 148.07 198.755 148.011 198.486 147.893C198.22 147.775 198.008 147.612 197.853 147.403C197.698 147.193 197.616 146.949 197.604 146.673H198.385C198.394 146.823 198.445 146.954 198.536 147.065C198.629 147.175 198.75 147.259 198.899 147.319C199.048 147.379 199.214 147.408 199.396 147.408C199.597 147.408 199.774 147.374 199.928 147.304C200.084 147.234 200.206 147.137 200.294 147.013C200.381 146.887 200.425 146.742 200.425 146.578C200.425 146.407 200.381 146.257 200.294 146.128C200.207 145.997 200.081 145.895 199.913 145.82C199.748 145.745 199.547 145.708 199.312 145.708H198.882V145.082H199.312C199.501 145.082 199.666 145.048 199.809 144.98C199.953 144.912 200.066 144.817 200.147 144.696C200.228 144.574 200.269 144.43 200.269 144.266C200.269 144.109 200.233 143.972 200.162 143.856C200.092 143.739 199.993 143.647 199.864 143.58C199.736 143.514 199.585 143.481 199.411 143.481C199.245 143.481 199.091 143.511 198.946 143.573C198.804 143.632 198.688 143.719 198.598 143.831C198.509 143.942 198.461 144.076 198.454 144.232H197.711C197.719 143.956 197.8 143.714 197.955 143.506C198.11 143.297 198.316 143.134 198.571 143.016C198.826 142.898 199.11 142.839 199.421 142.839C199.748 142.839 200.029 142.903 200.266 143.031C200.505 143.157 200.689 143.325 200.818 143.536C200.949 143.746 201.014 143.976 201.012 144.227C201.014 144.512 200.934 144.754 200.773 144.952C200.614 145.151 200.402 145.285 200.137 145.353V145.392C200.475 145.444 200.737 145.578 200.923 145.795C201.11 146.012 201.203 146.281 201.201 146.603C201.203 146.883 201.125 147.134 200.967 147.356C200.812 147.578 200.599 147.753 200.328 147.881C200.058 148.007 199.749 148.07 199.401 148.07Z" fill="#56647E"></path>
<path d="M50.297 138H49.4816L51.3137 132.909H52.2011L54.0331 138H53.2178L51.7785 133.834H51.7387L50.297 138ZM50.4337 136.006H53.0786V136.653H50.4337V136.006ZM57.1273 136.417V134.182H57.873V138H57.1422V137.339H57.1025C57.0146 137.543 56.8738 137.712 56.6799 137.848C56.4876 137.983 56.2482 138.05 55.9615 138.05C55.7162 138.05 55.4991 137.996 55.3102 137.888C55.1229 137.779 54.9754 137.617 54.8677 137.403C54.7617 137.19 54.7086 136.925 54.7086 136.61V134.182H55.4519V136.521C55.4519 136.781 55.524 136.988 55.6681 137.142C55.8123 137.297 55.9996 137.374 56.2299 137.374C56.3691 137.374 56.5075 137.339 56.6451 137.269C56.7843 137.2 56.8994 137.094 56.9906 136.953C57.0834 136.813 57.129 136.634 57.1273 136.417ZM60.4726 139.511C60.1693 139.511 59.9083 139.472 59.6895 139.392C59.4724 139.313 59.2951 139.207 59.1576 139.076C59.02 138.945 58.9173 138.802 58.8493 138.646L59.4882 138.383C59.5329 138.456 59.5926 138.533 59.6672 138.614C59.7434 138.697 59.8461 138.767 59.9754 138.825C60.1063 138.883 60.2745 138.912 60.48 138.912C60.7617 138.912 60.9946 138.844 61.1785 138.706C61.3625 138.57 61.4545 138.353 61.4545 138.055V137.304H61.4072C61.3625 137.385 61.2979 137.475 61.2133 137.575C61.1305 137.674 61.0161 137.761 60.8703 137.833C60.7245 137.906 60.5347 137.943 60.301 137.943C59.9994 137.943 59.7277 137.872 59.4857 137.732C59.2454 137.589 59.0548 137.379 58.914 137.103C58.7748 136.824 58.7052 136.482 58.7052 136.076C58.7052 135.67 58.7739 135.322 58.9115 135.032C59.0507 134.742 59.2413 134.52 59.4832 134.366C59.7252 134.21 59.9994 134.132 60.306 134.132C60.543 134.132 60.7344 134.172 60.8802 134.251C61.0261 134.329 61.1396 134.42 61.2208 134.525C61.3037 134.629 61.3675 134.721 61.4122 134.801H61.4669V134.182H62.1952V138.085C62.1952 138.413 62.119 138.682 61.9665 138.892C61.8141 139.103 61.6077 139.259 61.3476 139.36C61.089 139.461 60.7974 139.511 60.4726 139.511ZM60.4651 137.326C60.6789 137.326 60.8595 137.277 61.007 137.177C61.1562 137.076 61.2689 136.932 61.3451 136.745C61.423 136.556 61.4619 136.33 61.4619 136.066C61.4619 135.809 61.4238 135.583 61.3476 135.387C61.2713 135.192 61.1595 135.039 61.012 134.93C60.8645 134.819 60.6822 134.763 60.4651 134.763C60.2414 134.763 60.055 134.821 59.9058 134.938C59.7567 135.052 59.644 135.208 59.5677 135.405C59.4932 135.602 59.4559 135.822 59.4559 136.066C59.4559 136.316 59.494 136.536 59.5702 136.725C59.6465 136.914 59.7591 137.061 59.9083 137.167C60.0591 137.273 60.2447 137.326 60.4651 137.326ZM51.3115 144.5V144.023C51.3115 143.882 51.338 143.734 51.391 143.578C51.4441 143.422 51.5178 143.273 51.6123 143.13C51.7067 142.988 51.8178 142.866 51.9454 142.765L52.3133 143.028C52.2122 143.176 52.126 143.33 52.0547 143.491C51.9835 143.652 51.9478 143.826 51.9478 144.015V144.5H51.3115ZM52.9453 148V147.443L54.6679 145.658C54.8519 145.464 55.0035 145.295 55.1228 145.149C55.2438 145.001 55.3341 144.861 55.3938 144.729C55.4534 144.596 55.4833 144.455 55.4833 144.306C55.4833 144.137 55.4435 143.991 55.3639 143.869C55.2844 143.744 55.1759 143.649 55.0383 143.583C54.9008 143.515 54.7458 143.481 54.5735 143.481C54.3912 143.481 54.2321 143.518 54.0962 143.593C53.9603 143.667 53.8559 143.772 53.783 143.908C53.7101 144.044 53.6736 144.203 53.6736 144.386H52.9403C52.9403 144.076 53.0116 143.805 53.1541 143.573C53.2966 143.341 53.4921 143.161 53.7407 143.033C53.9893 142.904 54.2719 142.839 54.5884 142.839C54.9082 142.839 55.1899 142.903 55.4335 143.031C55.6788 143.157 55.8702 143.329 56.0078 143.548C56.1453 143.765 56.2141 144.01 56.2141 144.284C56.2141 144.473 56.1785 144.657 56.1072 144.838C56.0376 145.019 55.9158 145.22 55.7418 145.442C55.5678 145.663 55.3258 145.93 55.0159 146.245L54.0042 147.304V147.341H56.2961V148H52.9453ZM57.2382 148V147.443L58.9609 145.658C59.1448 145.464 59.2965 145.295 59.4158 145.149C59.5368 145.001 59.6271 144.861 59.6867 144.729C59.7464 144.596 59.7762 144.455 59.7762 144.306C59.7762 144.137 59.7365 143.991 59.6569 143.869C59.5774 143.744 59.4688 143.649 59.3313 143.583C59.1937 143.515 59.0388 143.481 58.8664 143.481C58.6841 143.481 58.5251 143.518 58.3892 143.593C58.2533 143.667 58.1489 143.772 58.0759 143.908C58.003 144.044 57.9666 144.203 57.9666 144.386H57.2333C57.2333 144.076 57.3045 143.805 57.447 143.573C57.5896 143.341 57.7851 143.161 58.0337 143.033C58.2823 142.904 58.5648 142.839 58.8813 142.839C59.2012 142.839 59.4829 142.903 59.7265 143.031C59.9718 143.157 60.1632 143.329 60.3007 143.548C60.4383 143.765 60.5071 144.01 60.5071 144.284C60.5071 144.473 60.4714 144.657 60.4002 144.838C60.3306 145.019 60.2088 145.22 60.0348 145.442C59.8608 145.663 59.6188 145.93 59.3089 146.245L58.2972 147.304V147.341H60.5891V148H57.2382Z" fill="#56647E"></path>
<path d="M211.035 138H210.22L212.052 132.909H212.939L214.771 138H213.956L212.517 133.834H212.477L211.035 138ZM211.172 136.006H213.817V136.653H211.172V136.006ZM215.447 139.432V134.182H216.173V134.801H216.235C216.278 134.721 216.34 134.629 216.421 134.525C216.503 134.42 216.615 134.329 216.759 134.251C216.904 134.172 217.094 134.132 217.331 134.132C217.639 134.132 217.914 134.21 218.156 134.366C218.398 134.522 218.588 134.746 218.726 135.039C218.865 135.333 218.934 135.686 218.934 136.098C218.934 136.511 218.866 136.865 218.728 137.16C218.591 137.453 218.402 137.679 218.161 137.838C217.921 137.996 217.647 138.075 217.339 138.075C217.107 138.075 216.917 138.036 216.769 137.958C216.624 137.88 216.509 137.789 216.426 137.684C216.343 137.58 216.28 137.487 216.235 137.406H216.19V139.432H215.447ZM216.175 136.091C216.175 136.359 216.214 136.595 216.292 136.797C216.37 136.999 216.483 137.157 216.63 137.272C216.778 137.384 216.958 137.441 217.172 137.441C217.394 137.441 217.58 137.382 217.729 137.264C217.878 137.145 217.991 136.983 218.067 136.779C218.145 136.576 218.184 136.346 218.184 136.091C218.184 135.839 218.146 135.613 218.069 135.412C217.995 135.212 217.882 135.054 217.731 134.938C217.582 134.821 217.396 134.763 217.172 134.763C216.957 134.763 216.774 134.819 216.625 134.93C216.478 135.041 216.366 135.196 216.29 135.395C216.213 135.594 216.175 135.826 216.175 136.091ZM219.767 138V134.182H220.486V134.788H220.525C220.595 134.583 220.718 134.421 220.893 134.304C221.071 134.184 221.271 134.125 221.495 134.125C221.541 134.125 221.596 134.126 221.659 134.13C221.724 134.133 221.774 134.137 221.811 134.142V134.853C221.781 134.845 221.728 134.836 221.651 134.826C221.575 134.814 221.499 134.808 221.423 134.808C221.247 134.808 221.09 134.846 220.953 134.92C220.817 134.993 220.709 135.095 220.63 135.226C220.55 135.355 220.51 135.503 220.51 135.668V138H219.767ZM211.202 144.5V144.023C211.202 143.882 211.229 143.734 211.282 143.578C211.335 143.422 211.408 143.273 211.503 143.13C211.597 142.988 211.708 142.866 211.836 142.765L212.204 143.028C212.103 143.176 212.017 143.33 211.945 143.491C211.874 143.652 211.838 143.826 211.838 144.015V144.5H211.202ZM212.836 148V147.443L214.559 145.658C214.742 145.464 214.894 145.295 215.013 145.149C215.134 145.001 215.225 144.861 215.284 144.729C215.344 144.596 215.374 144.455 215.374 144.306C215.374 144.137 215.334 143.991 215.255 143.869C215.175 143.744 215.066 143.649 214.929 143.583C214.791 143.515 214.636 143.481 214.464 143.481C214.282 143.481 214.123 143.518 213.987 143.593C213.851 143.667 213.747 143.772 213.674 143.908C213.601 144.044 213.564 144.203 213.564 144.386H212.831C212.831 144.076 212.902 143.805 213.045 143.573C213.187 143.341 213.383 143.161 213.631 143.033C213.88 142.904 214.162 142.839 214.479 142.839C214.799 142.839 215.081 142.903 215.324 143.031C215.569 143.157 215.761 143.329 215.898 143.548C216.036 143.765 216.105 144.01 216.105 144.284C216.105 144.473 216.069 144.657 215.998 144.838C215.928 145.019 215.806 145.22 215.632 145.442C215.458 145.663 215.216 145.93 214.907 146.245L213.895 147.304V147.341H216.187V148H212.836ZM218.901 148.07C218.56 148.07 218.255 148.011 217.986 147.893C217.72 147.775 217.508 147.612 217.353 147.403C217.198 147.193 217.116 146.949 217.104 146.673H217.885C217.894 146.823 217.945 146.954 218.036 147.065C218.129 147.175 218.25 147.259 218.399 147.319C218.548 147.379 218.714 147.408 218.896 147.408C219.097 147.408 219.274 147.374 219.428 147.304C219.584 147.234 219.706 147.137 219.794 147.013C219.881 146.887 219.925 146.742 219.925 146.578C219.925 146.407 219.881 146.257 219.794 146.128C219.707 145.997 219.581 145.895 219.413 145.82C219.248 145.745 219.047 145.708 218.812 145.708H218.382V145.082H218.812C219.001 145.082 219.166 145.048 219.309 144.98C219.453 144.912 219.566 144.817 219.647 144.696C219.728 144.574 219.769 144.43 219.769 144.266C219.769 144.109 219.733 143.972 219.662 143.856C219.592 143.739 219.493 143.647 219.364 143.58C219.236 143.514 219.085 143.481 218.911 143.481C218.745 143.481 218.591 143.511 218.446 143.573C218.304 143.632 218.188 143.719 218.098 143.831C218.009 143.942 217.961 144.076 217.954 144.232H217.211C217.219 143.956 217.3 143.714 217.455 143.506C217.61 143.297 217.816 143.134 218.071 143.016C218.326 142.898 218.61 142.839 218.921 142.839C219.248 142.839 219.529 142.903 219.766 143.031C220.005 143.157 220.189 143.325 220.318 143.536C220.449 143.746 220.514 143.976 220.512 144.227C220.514 144.512 220.434 144.754 220.273 144.952C220.114 145.151 219.902 145.285 219.637 145.353V145.392C219.975 145.444 220.237 145.578 220.423 145.795C220.61 146.012 220.703 146.281 220.701 146.603C220.703 146.883 220.625 147.134 220.467 147.356C220.312 147.578 220.099 147.753 219.828 147.881C219.558 148.007 219.249 148.07 218.901 148.07Z" fill="#56647E"></path>
</svg>