<?xml version="1.0" encoding="UTF-8"?>
<svg xmlns="http://www.w3.org/2000/svg" width="248" height="163" viewBox="0 0 248 163" fill="none">
<rect width="248" height="163" rx="8" fill="white"></rect>
<rect x="40" y="24" width="192" height="1" fill="#E7E9ED"></rect>
<path d="M18.8576 27.6364V21.2727H19.2653V27.6364H18.8576ZM20.1328 23.2464C20.1063 23.0111 19.9969 22.8288 19.8047 22.6996C19.6125 22.5687 19.3705 22.5032 19.0788 22.5032C18.87 22.5032 18.6894 22.5363 18.5369 22.6026C18.3845 22.6673 18.266 22.7567 18.1815 22.8711C18.0986 22.9838 18.0572 23.1122 18.0572 23.2564C18.0572 23.3774 18.0853 23.4818 18.1417 23.5696C18.1997 23.6574 18.2751 23.7312 18.3679 23.7908C18.4624 23.8488 18.5634 23.8977 18.6712 23.9375C18.7789 23.9756 18.8825 24.0071 18.9819 24.032L19.479 24.1612C19.6415 24.201 19.808 24.2549 19.9787 24.3228C20.1494 24.3907 20.3076 24.4802 20.4535 24.5913C20.5993 24.7023 20.717 24.8398 20.8065 25.0039C20.8976 25.168 20.9432 25.3643 20.9432 25.593C20.9432 25.8814 20.8686 26.1374 20.7195 26.3612C20.572 26.5849 20.3574 26.7614 20.0756 26.8906C19.7956 27.0199 19.4567 27.0845 19.0589 27.0845C18.6778 27.0845 18.348 27.024 18.0696 26.9031C17.7912 26.7821 17.5733 26.6106 17.4158 26.3885C17.2584 26.1648 17.1714 25.8996 17.1548 25.593H17.9254C17.9403 25.777 18 25.9303 18.1044 26.0529C18.2105 26.1739 18.3455 26.2642 18.5096 26.3239C18.6753 26.3819 18.8568 26.4109 19.054 26.4109C19.2711 26.4109 19.4641 26.3769 19.6332 26.3089C19.8039 26.2393 19.9381 26.1432 20.0359 26.0206C20.1336 25.8963 20.1825 25.7513 20.1825 25.5856C20.1825 25.4348 20.1394 25.3113 20.0533 25.2152C19.9688 25.1191 19.8536 25.0395 19.7077 24.9766C19.5636 24.9136 19.4003 24.8581 19.218 24.81L18.6165 24.646C18.2088 24.5349 17.8857 24.3717 17.647 24.1562C17.41 23.9408 17.2915 23.6558 17.2915 23.3011C17.2915 23.0078 17.3711 22.7518 17.5302 22.533C17.6893 22.3143 17.9047 22.1444 18.1765 22.0234C18.4483 21.9008 18.7549 21.8395 19.0962 21.8395C19.4409 21.8395 19.745 21.9 20.0085 22.021C20.2737 22.1419 20.4825 22.3085 20.6349 22.5206C20.7874 22.7311 20.867 22.973 20.8736 23.2464H20.1328ZM23.5638 27.0696C23.2224 27.0696 22.9175 27.0108 22.6491 26.8931C22.3823 26.7754 22.171 26.6122 22.0152 26.4034C21.8611 26.1929 21.7782 25.9493 21.7666 25.6726H22.5471C22.5571 25.8234 22.6076 25.9543 22.6988 26.0653C22.7916 26.1747 22.9126 26.2592 23.0617 26.3189C23.2108 26.3786 23.3766 26.4084 23.5589 26.4084C23.7594 26.4084 23.9367 26.3736 24.0908 26.304C24.2466 26.2344 24.3684 26.1374 24.4562 26.0131C24.5441 25.8872 24.588 25.7422 24.588 25.5781C24.588 25.4074 24.5441 25.2575 24.4562 25.1282C24.3701 24.9973 24.2433 24.8945 24.0759 24.82C23.9102 24.7454 23.7097 24.7081 23.4743 24.7081H23.0443V24.0817H23.4743C23.6633 24.0817 23.829 24.0477 23.9715 23.9798C24.1157 23.9118 24.2284 23.8174 24.3096 23.6964C24.3908 23.5737 24.4314 23.4304 24.4314 23.2663C24.4314 23.1089 24.3957 22.9722 24.3245 22.8562C24.2549 22.7385 24.1555 22.6465 24.0262 22.5803C23.8986 22.514 23.7478 22.4808 23.5738 22.4808C23.4081 22.4808 23.2531 22.5115 23.1089 22.5728C22.9664 22.6325 22.8504 22.7186 22.7609 22.8313C22.6714 22.9424 22.6234 23.0758 22.6167 23.2315H21.8735C21.8818 22.9564 21.963 22.7145 22.1171 22.5057C22.2729 22.2969 22.4784 22.1336 22.7336 22.016C22.9888 21.8983 23.2722 21.8395 23.5837 21.8395C23.9102 21.8395 24.1919 21.9033 24.4289 22.0309C24.6675 22.1568 24.8515 22.325 24.9807 22.5355C25.1117 22.746 25.1763 22.9763 25.1746 23.2266C25.1763 23.5116 25.0967 23.7536 24.936 23.9524C24.7769 24.1513 24.5648 24.2847 24.2996 24.3526V24.3924C24.6377 24.4438 24.8995 24.578 25.0851 24.7951C25.2724 25.0122 25.3652 25.2815 25.3635 25.603C25.3652 25.883 25.2873 26.1341 25.1299 26.3562C24.9741 26.5782 24.7612 26.7531 24.491 26.8807C24.2209 27.0066 23.9118 27.0696 23.5638 27.0696ZM26.3131 27V23.1818H27.0265V23.8033H27.0738C27.1533 23.5928 27.2834 23.4287 27.464 23.3111C27.6447 23.1918 27.8609 23.1321 28.1128 23.1321C28.368 23.1321 28.5818 23.1918 28.7542 23.3111C28.9282 23.4304 29.0566 23.5945 29.1395 23.8033H29.1792C29.2704 23.5994 29.4154 23.437 29.6143 23.3161C29.8131 23.1934 30.0501 23.1321 30.3252 23.1321C30.6715 23.1321 30.9541 23.2406 31.1729 23.4577C31.3933 23.6748 31.5035 24.0021 31.5035 24.4396V27H30.7602V24.5092C30.7602 24.2507 30.6898 24.0634 30.5489 23.9474C30.4081 23.8314 30.2398 23.7734 30.0443 23.7734C29.8023 23.7734 29.6143 23.848 29.48 23.9972C29.3458 24.1446 29.2787 24.3344 29.2787 24.5664V27H28.5379V24.462C28.5379 24.2549 28.4733 24.0883 28.344 23.9624C28.2148 23.8364 28.0465 23.7734 27.8394 23.7734C27.6985 23.7734 27.5684 23.8107 27.4491 23.8853C27.3315 23.9582 27.2362 24.0601 27.1633 24.1911C27.092 24.322 27.0564 24.4736 27.0564 24.646V27H26.3131Z" fill="#56647E"></path>
<path d="M12.8351 60.6364V54.2727H13.2428V60.6364H12.8351ZM14.1104 56.2464C14.0838 56.0111 13.9745 55.8288 13.7822 55.6996C13.59 55.5687 13.348 55.5032 13.0564 55.5032C12.8476 55.5032 12.6669 55.5363 12.5145 55.6026C12.362 55.6673 12.2435 55.7567 12.159 55.8711C12.0761 55.9838 12.0347 56.1122 12.0347 56.2564C12.0347 56.3774 12.0629 56.4818 12.1192 56.5696C12.1772 56.6574 12.2526 56.7312 12.3454 56.7908C12.4399 56.8488 12.541 56.8977 12.6487 56.9375C12.7564 56.9756 12.86 57.0071 12.9594 57.032L13.4566 57.1612C13.619 57.201 13.7855 57.2549 13.9562 57.3228C14.1269 57.3907 14.2852 57.4802 14.431 57.5913C14.5769 57.7023 14.6945 57.8398 14.784 58.0039C14.8751 58.168 14.9207 58.3643 14.9207 58.593C14.9207 58.8814 14.8461 59.1374 14.697 59.3612C14.5495 59.5849 14.3349 59.7614 14.0532 59.8906C13.7731 60.0199 13.4342 60.0845 13.0365 60.0845C12.6553 60.0845 12.3256 60.024 12.0471 59.9031C11.7687 59.7821 11.5508 59.6106 11.3934 59.3885C11.2359 59.1648 11.1489 58.8996 11.1324 58.593H11.903C11.9179 58.777 11.9775 58.9303 12.0819 59.0529C12.188 59.1739 12.3231 59.2642 12.4871 59.3239C12.6528 59.3819 12.8343 59.4109 13.0315 59.4109C13.2486 59.4109 13.4417 59.3769 13.6107 59.3089C13.7814 59.2393 13.9156 59.1432 14.0134 59.0206C14.1112 58.8963 14.1601 58.7513 14.1601 58.5856C14.1601 58.4348 14.117 58.3113 14.0308 58.2152C13.9463 58.1191 13.8311 58.0395 13.6853 57.9766C13.5411 57.9136 13.3779 57.8581 13.1956 57.81L12.594 57.646C12.1863 57.5349 11.8632 57.3717 11.6246 57.1562C11.3876 56.9408 11.2691 56.6558 11.2691 56.3011C11.2691 56.0078 11.3486 55.7518 11.5077 55.533C11.6668 55.3143 11.8823 55.1444 12.154 55.0234C12.4258 54.9008 12.7324 54.8395 13.0738 54.8395C13.4185 54.8395 13.7226 54.9 13.9861 55.021C14.2512 55.1419 14.46 55.3085 14.6125 55.5206C14.7649 55.7311 14.8445 55.973 14.8511 56.2464H14.1104ZM15.769 60V59.4432L17.4917 57.6584C17.6756 57.4645 17.8272 57.2946 17.9466 57.1488C18.0675 57.0013 18.1578 56.8613 18.2175 56.7287C18.2772 56.5961 18.307 56.4553 18.307 56.3061C18.307 56.1371 18.2672 55.9912 18.1877 55.8686C18.1081 55.7443 17.9996 55.649 17.862 55.5827C17.7245 55.5148 17.5695 55.4808 17.3972 55.4808C17.2149 55.4808 17.0558 55.5181 16.9199 55.5927C16.784 55.6673 16.6796 55.7725 16.6067 55.9084C16.5338 56.0443 16.4973 56.2034 16.4973 56.3857H15.764C15.764 56.0758 15.8353 55.8048 15.9778 55.5728C16.1203 55.3408 16.3159 55.161 16.5645 55.0334C16.813 54.9041 17.0956 54.8395 17.4121 54.8395C17.7319 54.8395 18.0137 54.9033 18.2573 55.0309C18.5025 55.1568 18.694 55.3292 18.8315 55.5479C18.969 55.765 19.0378 56.0103 19.0378 56.2837C19.0378 56.4727 19.0022 56.6574 18.9309 56.8381C18.8613 57.0187 18.7395 57.2201 18.5655 57.4421C18.3915 57.6625 18.1496 57.9302 17.8397 58.245L16.8279 59.304V59.3413H19.1199V60H15.769ZM20.5616 60.0472C20.4257 60.0472 20.3089 59.9992 20.2111 59.9031C20.1133 59.8053 20.0645 59.6876 20.0645 59.5501C20.0645 59.4142 20.1133 59.2982 20.2111 59.2021C20.3089 59.1043 20.4257 59.0554 20.5616 59.0554C20.6975 59.0554 20.8143 59.1043 20.9121 59.2021C21.0099 59.2982 21.0588 59.4142 21.0588 59.5501C21.0588 59.6412 21.0356 59.7249 20.9892 59.8011C20.9444 59.8757 20.8848 59.9354 20.8102 59.9801C20.7356 60.0249 20.6528 60.0472 20.5616 60.0472ZM23.6428 60.0696C23.3312 60.0696 23.0511 60.0099 22.8026 59.8906C22.5556 59.7696 22.3584 59.6039 22.2109 59.3935C22.0634 59.183 21.9847 58.9427 21.9748 58.6726H22.7205C22.7388 58.8913 22.8357 59.0711 23.0114 59.212C23.187 59.3529 23.3975 59.4233 23.6428 59.4233C23.8383 59.4233 24.0115 59.3786 24.1623 59.2891C24.3147 59.1979 24.4341 59.0728 24.5202 58.9137C24.6081 58.7546 24.652 58.5732 24.652 58.3693C24.652 58.1622 24.6072 57.9774 24.5178 57.815C24.4283 57.6526 24.3048 57.525 24.1474 57.4322C23.9916 57.3394 23.8126 57.2921 23.6104 57.2905C23.4563 57.2905 23.3014 57.317 23.1456 57.37C22.9898 57.4231 22.8639 57.4927 22.7678 57.5788L22.0643 57.4744L22.3501 54.9091H25.1491V55.5678H22.989L22.8274 56.9922H22.8572C22.9567 56.8961 23.0884 56.8157 23.2525 56.7511C23.4182 56.6864 23.5955 56.6541 23.7844 56.6541C24.0943 56.6541 24.3703 56.7279 24.6122 56.8754C24.8558 57.0228 25.0472 57.2242 25.1864 57.4794C25.3273 57.733 25.3969 58.0246 25.3952 58.3544C25.3969 58.6842 25.3223 58.9783 25.1715 59.2369C25.0224 59.4954 24.8152 59.6992 24.5501 59.8484C24.2866 59.9959 23.9841 60.0696 23.6428 60.0696ZM26.3131 60V56.1818H27.0265V56.8033H27.0738C27.1533 56.5928 27.2834 56.4287 27.464 56.3111C27.6447 56.1918 27.8609 56.1321 28.1128 56.1321C28.368 56.1321 28.5818 56.1918 28.7542 56.3111C28.9282 56.4304 29.0566 56.5945 29.1395 56.8033H29.1792C29.2704 56.5994 29.4154 56.437 29.6143 56.3161C29.8131 56.1934 30.0501 56.1321 30.3252 56.1321C30.6715 56.1321 30.9541 56.2406 31.1729 56.4577C31.3933 56.6748 31.5035 57.0021 31.5035 57.4396V60H30.7602V57.5092C30.7602 57.2507 30.6898 57.0634 30.5489 56.9474C30.4081 56.8314 30.2398 56.7734 30.0443 56.7734C29.8023 56.7734 29.6143 56.848 29.48 56.9972C29.3458 57.1446 29.2787 57.3344 29.2787 57.5664V60H28.5379V57.462C28.5379 57.2549 28.4733 57.0883 28.344 56.9624C28.2148 56.8364 28.0465 56.7734 27.8394 56.7734C27.6985 56.7734 27.5684 56.8107 27.4491 56.8853C27.3315 56.9582 27.2362 57.0601 27.1633 57.1911C27.092 57.322 27.0564 57.4736 27.0564 57.646V60H26.3131Z" fill="#56647E"></path>
<path d="M19.0763 93.6364V87.2727H19.484V93.6364H19.0763ZM20.3516 89.2464C20.325 89.0111 20.2157 88.8288 20.0234 88.6996C19.8312 88.5687 19.5893 88.5032 19.2976 88.5032C19.0888 88.5032 18.9081 88.5363 18.7557 88.6026C18.6032 88.6673 18.4847 88.7567 18.4002 88.8711C18.3174 88.9838 18.2759 89.1122 18.2759 89.2564C18.2759 89.3774 18.3041 89.4818 18.3604 89.5696C18.4184 89.6574 18.4938 89.7312 18.5866 89.7908C18.6811 89.8488 18.7822 89.8977 18.8899 89.9375C18.9976 89.9756 19.1012 90.0071 19.2006 90.032L19.6978 90.1612C19.8602 90.201 20.0268 90.2549 20.1974 90.3228C20.3681 90.3907 20.5264 90.4802 20.6722 90.5913C20.8181 90.7023 20.9357 90.8398 21.0252 91.0039C21.1164 91.168 21.1619 91.3643 21.1619 91.593C21.1619 91.8814 21.0874 92.1374 20.9382 92.3612C20.7907 92.5849 20.5761 92.7614 20.2944 92.8906C20.0143 93.0199 19.6754 93.0845 19.2777 93.0845C18.8965 93.0845 18.5668 93.024 18.2884 92.9031C18.0099 92.7821 17.792 92.6106 17.6346 92.3885C17.4772 92.1648 17.3902 91.8996 17.3736 91.593H18.1442C18.1591 91.777 18.2188 91.9303 18.3232 92.0529C18.4292 92.1739 18.5643 92.2642 18.7283 92.3239C18.8941 92.3819 19.0755 92.4109 19.2727 92.4109C19.4898 92.4109 19.6829 92.3769 19.8519 92.3089C20.0226 92.2393 20.1568 92.1432 20.2546 92.0206C20.3524 91.8963 20.4013 91.7513 20.4013 91.5856C20.4013 91.4348 20.3582 91.3113 20.272 91.2152C20.1875 91.1191 20.0723 91.0395 19.9265 90.9766C19.7823 90.9136 19.6191 90.8581 19.4368 90.81L18.8352 90.646C18.4276 90.5349 18.1044 90.3717 17.8658 90.1562C17.6288 89.9408 17.5103 89.6558 17.5103 89.3011C17.5103 89.0078 17.5898 88.7518 17.7489 88.533C17.908 88.3143 18.1235 88.1444 18.3952 88.0234C18.667 87.9008 18.9736 87.8395 19.315 87.8395C19.6597 87.8395 19.9638 87.9 20.2273 88.021C20.4924 88.1419 20.7012 88.3085 20.8537 88.5206C21.0062 88.7311 21.0857 88.973 21.0923 89.2464H20.3516ZM22.0102 93V92.4432L23.7329 90.6584C23.9168 90.4645 24.0684 90.2946 24.1878 90.1488C24.3087 90.0013 24.3991 89.8613 24.4587 89.7287C24.5184 89.5961 24.5482 89.4553 24.5482 89.3061C24.5482 89.1371 24.5084 88.9912 24.4289 88.8686C24.3493 88.7443 24.2408 88.649 24.1032 88.5827C23.9657 88.5148 23.8108 88.4808 23.6384 88.4808C23.4561 88.4808 23.297 88.5181 23.1611 88.5927C23.0252 88.6673 22.9208 88.7725 22.8479 88.9084C22.775 89.0443 22.7385 89.2034 22.7385 89.3857H22.0052C22.0052 89.0758 22.0765 88.8048 22.219 88.5728C22.3615 88.3408 22.5571 88.161 22.8057 88.0334C23.0542 87.9041 23.3368 87.8395 23.6533 87.8395C23.9732 87.8395 24.2549 87.9033 24.4985 88.0309C24.7438 88.1568 24.9352 88.3292 25.0727 88.5479C25.2103 88.765 25.279 89.0103 25.279 89.2837C25.279 89.4727 25.2434 89.6574 25.1721 89.8381C25.1025 90.0187 24.9807 90.2201 24.8067 90.4421C24.6327 90.6625 24.3908 90.9302 24.0809 91.245L23.0692 92.304V92.3413H25.3611V93H22.0102ZM26.3131 93V89.1818H27.0265V89.8033H27.0738C27.1533 89.5928 27.2834 89.4287 27.464 89.3111C27.6447 89.1918 27.8609 89.1321 28.1128 89.1321C28.368 89.1321 28.5818 89.1918 28.7542 89.3111C28.9282 89.4304 29.0566 89.5945 29.1395 89.8033H29.1792C29.2704 89.5994 29.4154 89.437 29.6143 89.3161C29.8131 89.1934 30.0501 89.1321 30.3252 89.1321C30.6715 89.1321 30.9541 89.2406 31.1729 89.4577C31.3933 89.6748 31.5035 90.0021 31.5035 90.4396V93H30.7602V90.5092C30.7602 90.2507 30.6898 90.0634 30.5489 89.9474C30.4081 89.8314 30.2398 89.7734 30.0443 89.7734C29.8023 89.7734 29.6143 89.848 29.48 89.9972C29.3458 90.1446 29.2787 90.3344 29.2787 90.5664V93H28.5379V90.462C28.5379 90.2549 28.4733 90.0883 28.344 89.9624C28.2148 89.8364 28.0465 89.7734 27.8394 89.7734C27.6985 89.7734 27.5684 89.8107 27.4491 89.8853C27.3315 89.9582 27.2362 90.0601 27.1633 90.1911C27.092 90.322 27.0564 90.4736 27.0564 90.646V93H26.3131Z" fill="#56647E"></path>
<path d="M14.1135 126.636V120.273H14.5211V126.636H14.1135ZM15.3887 122.246C15.3622 122.011 15.2528 121.829 15.0605 121.7C14.8683 121.569 14.6264 121.503 14.3347 121.503C14.1259 121.503 13.9453 121.536 13.7928 121.603C13.6403 121.667 13.5218 121.757 13.4373 121.871C13.3545 121.984 13.313 122.112 13.313 122.256C13.313 122.377 13.3412 122.482 13.3975 122.57C13.4556 122.657 13.531 122.731 13.6238 122.791C13.7182 122.849 13.8193 122.898 13.927 122.938C14.0347 122.976 14.1383 123.007 14.2377 123.032L14.7349 123.161C14.8973 123.201 15.0639 123.255 15.2346 123.323C15.4052 123.391 15.5635 123.48 15.7093 123.591C15.8552 123.702 15.9728 123.84 16.0623 124.004C16.1535 124.168 16.199 124.364 16.199 124.593C16.199 124.881 16.1245 125.137 15.9753 125.361C15.8278 125.585 15.6132 125.761 15.3315 125.891C15.0514 126.02 14.7125 126.085 14.3148 126.085C13.9337 126.085 13.6039 126.024 13.3255 125.903C13.0471 125.782 12.8291 125.611 12.6717 125.388C12.5143 125.165 12.4273 124.9 12.4107 124.593H13.1813C13.1962 124.777 13.2559 124.93 13.3603 125.053C13.4663 125.174 13.6014 125.264 13.7654 125.324C13.9312 125.382 14.1126 125.411 14.3098 125.411C14.5269 125.411 14.72 125.377 14.889 125.309C15.0597 125.239 15.194 125.143 15.2917 125.021C15.3895 124.896 15.4384 124.751 15.4384 124.586C15.4384 124.435 15.3953 124.311 15.3091 124.215C15.2246 124.119 15.1094 124.04 14.9636 123.977C14.8194 123.914 14.6562 123.858 14.4739 123.81L13.8723 123.646C13.4647 123.535 13.1415 123.372 12.9029 123.156C12.6659 122.941 12.5474 122.656 12.5474 122.301C12.5474 122.008 12.627 121.752 12.786 121.533C12.9451 121.314 13.1606 121.144 13.4324 121.023C13.7041 120.901 14.0107 120.839 14.3521 120.839C14.6968 120.839 15.0009 120.9 15.2644 121.021C15.5295 121.142 15.7383 121.308 15.8908 121.521C16.0433 121.731 16.1228 121.973 16.1294 122.246H15.3887ZM18.9788 120.909V126H18.2082V121.68H18.1784L16.9603 122.475V121.739L18.2306 120.909H18.9788ZM20.5616 126.047C20.4257 126.047 20.3089 125.999 20.2111 125.903C20.1133 125.805 20.0645 125.688 20.0645 125.55C20.0645 125.414 20.1133 125.298 20.2111 125.202C20.3089 125.104 20.4257 125.055 20.5616 125.055C20.6975 125.055 20.8143 125.104 20.9121 125.202C21.0099 125.298 21.0588 125.414 21.0588 125.55C21.0588 125.641 21.0356 125.725 20.9892 125.801C20.9444 125.876 20.8848 125.935 20.8102 125.98C20.7356 126.025 20.6528 126.047 20.5616 126.047ZM23.6428 126.07C23.3312 126.07 23.0511 126.01 22.8026 125.891C22.5556 125.77 22.3584 125.604 22.2109 125.393C22.0634 125.183 21.9847 124.943 21.9748 124.673H22.7205C22.7388 124.891 22.8357 125.071 23.0114 125.212C23.187 125.353 23.3975 125.423 23.6428 125.423C23.8383 125.423 24.0115 125.379 24.1623 125.289C24.3147 125.198 24.4341 125.073 24.5202 124.914C24.6081 124.755 24.652 124.573 24.652 124.369C24.652 124.162 24.6072 123.977 24.5178 123.815C24.4283 123.653 24.3048 123.525 24.1474 123.432C23.9916 123.339 23.8126 123.292 23.6104 123.29C23.4563 123.29 23.3014 123.317 23.1456 123.37C22.9898 123.423 22.8639 123.493 22.7678 123.579L22.0643 123.474L22.3501 120.909H25.1491V121.568H22.989L22.8274 122.992H22.8572C22.9567 122.896 23.0884 122.816 23.2525 122.751C23.4182 122.686 23.5955 122.654 23.7844 122.654C24.0943 122.654 24.3703 122.728 24.6122 122.875C24.8558 123.023 25.0472 123.224 25.1864 123.479C25.3273 123.733 25.3969 124.025 25.3952 124.354C25.3969 124.684 25.3223 124.978 25.1715 125.237C25.0224 125.495 24.8152 125.699 24.5501 125.848C24.2866 125.996 23.9841 126.07 23.6428 126.07ZM26.3131 126V122.182H27.0265V122.803H27.0738C27.1533 122.593 27.2834 122.429 27.464 122.311C27.6447 122.192 27.8609 122.132 28.1128 122.132C28.368 122.132 28.5818 122.192 28.7542 122.311C28.9282 122.43 29.0566 122.594 29.1395 122.803H29.1792C29.2704 122.599 29.4154 122.437 29.6143 122.316C29.8131 122.193 30.0501 122.132 30.3252 122.132C30.6715 122.132 30.9541 122.241 31.1729 122.458C31.3933 122.675 31.5035 123.002 31.5035 123.44V126H30.7602V123.509C30.7602 123.251 30.6898 123.063 30.5489 122.947C30.4081 122.831 30.2398 122.773 30.0443 122.773C29.8023 122.773 29.6143 122.848 29.48 122.997C29.3458 123.145 29.2787 123.334 29.2787 123.566V126H28.5379V123.462C28.5379 123.255 28.4733 123.088 28.344 122.962C28.2148 122.836 28.0465 122.773 27.8394 122.773C27.6985 122.773 27.5684 122.811 27.4491 122.885C27.3315 122.958 27.2362 123.06 27.1633 123.191C27.092 123.322 27.0564 123.474 27.0564 123.646V126H26.3131Z" fill="#56647E"></path>
<rect x="40" y="57" width="192" height="1" fill="#E7E9ED"></rect>
<rect x="40" y="90" width="192" height="1" fill="#E7E9ED"></rect>
<rect x="40" y="123" width="192" height="1" fill="#E7E9ED"></rect>
<rect x="55" y="24" width="1" height="100" fill="#E7E9ED"></rect>
<rect x="39" y="24" width="1" height="100" fill="#E7E9ED"></rect>
<rect x="75" y="24" width="1" height="100" fill="#E7E9ED"></rect>
<rect x="95" y="24" width="1" height="100" fill="#E7E9ED"></rect>
<rect x="115" y="24" width="1" height="100" fill="#E7E9ED"></rect>
<rect x="135" y="24" width="1" height="100" fill="#E7E9ED"></rect>
<rect x="155" y="24" width="1" height="100" fill="#E7E9ED"></rect>
<rect x="175" y="24" width="1" height="100" fill="#E7E9ED"></rect>
<rect x="195" y="24" width="1" height="100" fill="#E7E9ED"></rect>
<rect x="215" y="24" width="1" height="100" fill="#E7E9ED"></rect>
<rect x="231" y="24" width="1" height="100" fill="#E7E9ED"></rect>
<path d="M39 110C42.2167 109.315 48.65 108.019 55.0833 106.576C61.5167 105.134 64.7333 105.013 71.1667 102.788C77.6 100.564 80.8167 98.6752 87.25 95.4552C93.6833 92.2353 96.9 90.6033 103.333 86.6886C109.767 82.7739 112.983 78.7247 119.417 75.8816C125.85 73.0386 129.067 75.5763 135.5 72.4734C141.933 69.3705 145.15 65.3044 151.583 60.3671C158.017 55.4298 161.233 53.0392 167.667 47.787C174.1 42.5348 177.317 32.8823 183.75 34.1062C190.183 35.3301 193.4 49.2479 199.833 53.9064C206.267 58.565 209.483 57.7417 215.917 57.3989C222.35 57.0561 228.783 53.2338 232 52.1925" stroke="#0D2247" stroke-width="1.5"></path>
<path d="M72.3691 134.246C72.3426 134.011 72.2333 133.829 72.041 133.7C71.8488 133.569 71.6068 133.503 71.3152 133.503C71.1064 133.503 70.9257 133.536 70.7733 133.603C70.6208 133.667 70.5023 133.757 70.4178 133.871C70.3349 133.984 70.2935 134.112 70.2935 134.256C70.2935 134.377 70.3217 134.482 70.378 134.57C70.436 134.657 70.5114 134.731 70.6042 134.791C70.6987 134.849 70.7998 134.898 70.9075 134.938C71.0152 134.976 71.1188 135.007 71.2182 135.032L71.7154 135.161C71.8778 135.201 72.0443 135.255 72.215 135.323C72.3857 135.391 72.544 135.48 72.6898 135.591C72.8356 135.702 72.9533 135.84 73.0428 136.004C73.1339 136.168 73.1795 136.364 73.1795 136.593C73.1795 136.881 73.1049 137.137 72.9558 137.361C72.8083 137.585 72.5937 137.761 72.312 137.891C72.0319 138.02 71.693 138.085 71.2953 138.085C70.9141 138.085 70.5843 138.024 70.3059 137.903C70.0275 137.782 69.8096 137.611 69.6522 137.388C69.4947 137.165 69.4077 136.9 69.3912 136.593H70.1618C70.1767 136.777 70.2363 136.93 70.3407 137.053C70.4468 137.174 70.5819 137.264 70.7459 137.324C70.9116 137.382 71.0931 137.411 71.2903 137.411C71.5074 137.411 71.7005 137.377 71.8695 137.309C72.0402 137.239 72.1744 137.143 72.2722 137.021C72.37 136.896 72.4189 136.751 72.4189 136.586C72.4189 136.435 72.3758 136.311 72.2896 136.215C72.2051 136.119 72.0899 136.04 71.9441 135.977C71.7999 135.914 71.6367 135.858 71.4544 135.81L70.8528 135.646C70.4451 135.535 70.122 135.372 69.8833 135.156C69.6464 134.941 69.5279 134.656 69.5279 134.301C69.5279 134.008 69.6074 133.752 69.7665 133.533C69.9256 133.314 70.141 133.144 70.4128 133.023C70.6846 132.901 70.9912 132.839 71.3326 132.839C71.6773 132.839 71.9814 132.9 72.2449 133.021C72.51 133.142 72.7188 133.308 72.8713 133.521C73.0237 133.731 73.1033 133.973 73.1099 134.246H72.3691ZM75.6833 138.077C75.3071 138.077 74.9832 137.997 74.7114 137.836C74.4413 137.674 74.2325 137.446 74.085 137.152C73.9391 136.857 73.8662 136.512 73.8662 136.116C73.8662 135.725 73.9391 135.38 74.085 135.082C74.2325 134.783 74.4379 134.551 74.7014 134.383C74.9666 134.216 75.2765 134.132 75.6311 134.132C75.8466 134.132 76.0554 134.168 76.2575 134.239C76.4597 134.31 76.6412 134.422 76.8019 134.575C76.9627 134.727 77.0895 134.925 77.1823 135.169C77.2751 135.411 77.3215 135.705 77.3215 136.051V136.315H74.2863V135.758H76.5931C76.5931 135.562 76.5534 135.389 76.4738 135.238C76.3943 135.086 76.2824 134.966 76.1382 134.878C75.9957 134.79 75.8283 134.746 75.6361 134.746C75.4273 134.746 75.245 134.797 75.0892 134.9C74.9351 135.001 74.8158 135.134 74.7313 135.298C74.6484 135.46 74.607 135.637 74.607 135.827V136.262C74.607 136.518 74.6517 136.735 74.7412 136.914C74.8324 137.093 74.9591 137.229 75.1215 137.324C75.2839 137.417 75.4737 137.463 75.6908 137.463C75.8316 137.463 75.9601 137.443 76.0761 137.403C76.1921 137.362 76.2923 137.301 76.3769 137.219C76.4614 137.138 76.526 137.038 76.5708 136.919L77.2742 137.045C77.2179 137.253 77.1168 137.434 76.971 137.59C76.8268 137.744 76.6453 137.864 76.4266 137.95C76.2095 138.035 75.9617 138.077 75.6833 138.077ZM78.1461 139.432V134.182H78.872V134.801H78.9341C78.9772 134.721 79.0394 134.629 79.1206 134.525C79.2018 134.42 79.3145 134.329 79.4586 134.251C79.6028 134.172 79.7934 134.132 80.0304 134.132C80.3386 134.132 80.6137 134.21 80.8556 134.366C81.0976 134.522 81.2873 134.746 81.4249 135.039C81.5641 135.333 81.6337 135.686 81.6337 136.098C81.6337 136.511 81.5649 136.865 81.4274 137.16C81.2898 137.453 81.1009 137.679 80.8606 137.838C80.6203 137.996 80.3461 138.075 80.0378 138.075C79.8058 138.075 79.6161 138.036 79.4686 137.958C79.3227 137.88 79.2084 137.789 79.1255 137.684C79.0427 137.58 78.9789 137.487 78.9341 137.406H78.8894V139.432H78.1461ZM78.8745 136.091C78.8745 136.359 78.9134 136.595 78.9913 136.797C79.0692 136.999 79.1819 137.157 79.3294 137.272C79.4769 137.384 79.6575 137.441 79.8713 137.441C80.0933 137.441 80.2789 137.382 80.4281 137.264C80.5772 137.145 80.6899 136.983 80.7662 136.779C80.844 136.576 80.883 136.346 80.883 136.091C80.883 135.839 80.8449 135.613 80.7686 135.412C80.6941 135.212 80.5814 135.054 80.4306 134.938C80.2814 134.821 80.095 134.763 79.8713 134.763C79.6558 134.763 79.4735 134.819 79.3244 134.93C79.1769 135.041 79.065 135.196 78.9888 135.395C78.9126 135.594 78.8745 135.826 78.8745 136.091ZM70.8115 144.5V144.023C70.8115 143.882 70.838 143.734 70.891 143.578C70.9441 143.422 71.0178 143.273 71.1123 143.13C71.2067 142.988 71.3178 142.866 71.4454 142.765L71.8133 143.028C71.7122 143.176 71.626 143.33 71.5547 143.491C71.4835 143.652 71.4478 143.826 71.4478 144.015V144.5H70.8115ZM72.4453 148V147.443L74.1679 145.658C74.3519 145.464 74.5035 145.295 74.6228 145.149C74.7438 145.001 74.8341 144.861 74.8938 144.729C74.9534 144.596 74.9833 144.455 74.9833 144.306C74.9833 144.137 74.9435 143.991 74.8639 143.869C74.7844 143.744 74.6759 143.649 74.5383 143.583C74.4008 143.515 74.2458 143.481 74.0735 143.481C73.8912 143.481 73.7321 143.518 73.5962 143.593C73.4603 143.667 73.3559 143.772 73.283 143.908C73.2101 144.044 73.1736 144.203 73.1736 144.386H72.4403C72.4403 144.076 72.5116 143.805 72.6541 143.573C72.7966 143.341 72.9921 143.161 73.2407 143.033C73.4893 142.904 73.7719 142.839 74.0884 142.839C74.4082 142.839 74.6899 142.903 74.9335 143.031C75.1788 143.157 75.3702 143.329 75.5078 143.548C75.6453 143.765 75.7141 144.01 75.7141 144.284C75.7141 144.473 75.6785 144.657 75.6072 144.838C75.5376 145.019 75.4158 145.22 75.2418 145.442C75.0678 145.663 74.8258 145.93 74.5159 146.245L73.5042 147.304V147.341H75.7961V148H72.4453ZM76.7382 148V147.443L78.4609 145.658C78.6448 145.464 78.7965 145.295 78.9158 145.149C79.0368 145.001 79.1271 144.861 79.1867 144.729C79.2464 144.596 79.2762 144.455 79.2762 144.306C79.2762 144.137 79.2365 143.991 79.1569 143.869C79.0774 143.744 78.9688 143.649 78.8313 143.583C78.6937 143.515 78.5388 143.481 78.3664 143.481C78.1841 143.481 78.0251 143.518 77.8892 143.593C77.7533 143.667 77.6489 143.772 77.5759 143.908C77.503 144.044 77.4666 144.203 77.4666 144.386H76.7333C76.7333 144.076 76.8045 143.805 76.947 143.573C77.0896 143.341 77.2851 143.161 77.5337 143.033C77.7823 142.904 78.0648 142.839 78.3813 142.839C78.7012 142.839 78.9829 142.903 79.2265 143.031C79.4718 143.157 79.6632 143.329 79.8007 143.548C79.9383 143.765 80.0071 144.01 80.0071 144.284C80.0071 144.473 79.9714 144.657 79.9002 144.838C79.8306 145.019 79.7088 145.22 79.5348 145.442C79.3608 145.663 79.1188 145.93 78.8089 146.245L77.7972 147.304V147.341H80.0891V148H76.7382Z" fill="#56647E"></path>
<path d="M94.0035 135.455C94.0035 135.998 93.9041 136.465 93.7052 136.857C93.5063 137.246 93.2337 137.546 92.8874 137.756C92.5427 137.965 92.1508 138.07 91.7116 138.07C91.2708 138.07 90.8772 137.965 90.5309 137.756C90.1862 137.546 89.9144 137.245 89.7155 136.854C89.5166 136.463 89.4172 135.996 89.4172 135.455C89.4172 134.911 89.5166 134.444 89.7155 134.055C89.9144 133.664 90.1862 133.364 90.5309 133.155C90.8772 132.945 91.2708 132.839 91.7116 132.839C92.1508 132.839 92.5427 132.945 92.8874 133.155C93.2337 133.364 93.5063 133.664 93.7052 134.055C93.9041 134.444 94.0035 134.911 94.0035 135.455ZM93.2429 135.455C93.2429 135.04 93.1757 134.691 93.0415 134.408C92.9089 134.123 92.7266 133.908 92.4946 133.762C92.2643 133.614 92.0033 133.54 91.7116 133.54C91.4183 133.54 91.1564 133.614 90.9261 133.762C90.6957 133.908 90.5134 134.123 90.3792 134.408C90.2466 134.691 90.1804 135.04 90.1804 135.455C90.1804 135.869 90.2466 136.219 90.3792 136.504C90.5134 136.787 90.6957 137.002 90.9261 137.15C91.1564 137.296 91.4183 137.369 91.7116 137.369C92.0033 137.369 92.2643 137.296 92.4946 137.15C92.7266 137.002 92.9089 136.787 93.0415 136.504C93.1757 136.219 93.2429 135.869 93.2429 135.455ZM96.5098 138.077C96.1403 138.077 95.8221 137.993 95.5553 137.826C95.2901 137.657 95.0863 137.424 94.9438 137.127C94.8012 136.831 94.73 136.491 94.73 136.108C94.73 135.721 94.8029 135.378 94.9487 135.082C95.0946 134.783 95.3001 134.551 95.5652 134.383C95.8304 134.216 96.1427 134.132 96.5024 134.132C96.7924 134.132 97.0509 134.186 97.2779 134.294C97.505 134.4 97.6881 134.549 97.8273 134.741C97.9681 134.933 98.0518 135.158 98.0783 135.415H97.355C97.3152 135.236 97.2241 135.082 97.0815 134.952C96.9407 134.823 96.7518 134.759 96.5148 134.759C96.3076 134.759 96.1262 134.813 95.9704 134.923C95.8163 135.03 95.6961 135.184 95.61 135.385C95.5238 135.584 95.4807 135.819 95.4807 136.091C95.4807 136.369 95.5229 136.61 95.6075 136.812C95.692 137.014 95.8113 137.171 95.9654 137.282C96.1212 137.393 96.3043 137.448 96.5148 137.448C96.6556 137.448 96.7832 137.422 96.8976 137.371C97.0136 137.318 97.1105 137.243 97.1884 137.145C97.268 137.047 97.3235 136.929 97.355 136.792H98.0783C98.0518 137.039 97.9715 137.259 97.8372 137.453C97.703 137.647 97.5232 137.799 97.2978 137.911C97.0741 138.022 96.8114 138.077 96.5098 138.077ZM100.655 134.182V134.778H98.5699V134.182H100.655ZM99.1292 133.267H99.8725V136.879C99.8725 137.023 99.894 137.132 99.9371 137.205C99.9802 137.276 100.036 137.325 100.104 137.351C100.173 137.376 100.249 137.388 100.33 137.388C100.39 137.388 100.442 137.384 100.486 137.376C100.531 137.368 100.566 137.361 100.591 137.356L100.725 137.97C100.682 137.987 100.621 138.003 100.541 138.02C100.462 138.038 100.362 138.048 100.243 138.05C100.047 138.053 99.865 138.018 99.696 137.945C99.5269 137.872 99.3902 137.76 99.2858 137.607C99.1814 137.455 99.1292 137.263 99.1292 137.033V133.267ZM90.3115 144.5V144.023C90.3115 143.882 90.338 143.734 90.391 143.578C90.4441 143.422 90.5178 143.273 90.6123 143.13C90.7067 142.988 90.8178 142.866 90.9454 142.765L91.3133 143.028C91.2122 143.176 91.126 143.33 91.0547 143.491C90.9835 143.652 90.9478 143.826 90.9478 144.015V144.5H90.3115ZM91.9453 148V147.443L93.6679 145.658C93.8519 145.464 94.0035 145.295 94.1228 145.149C94.2438 145.001 94.3341 144.861 94.3938 144.729C94.4534 144.596 94.4833 144.455 94.4833 144.306C94.4833 144.137 94.4435 143.991 94.3639 143.869C94.2844 143.744 94.1759 143.649 94.0383 143.583C93.9008 143.515 93.7458 143.481 93.5735 143.481C93.3912 143.481 93.2321 143.518 93.0962 143.593C92.9603 143.667 92.8559 143.772 92.783 143.908C92.7101 144.044 92.6736 144.203 92.6736 144.386H91.9403C91.9403 144.076 92.0116 143.805 92.1541 143.573C92.2966 143.341 92.4921 143.161 92.7407 143.033C92.9893 142.904 93.2719 142.839 93.5884 142.839C93.9082 142.839 94.1899 142.903 94.4335 143.031C94.6788 143.157 94.8702 143.329 95.0078 143.548C95.1453 143.765 95.2141 144.01 95.2141 144.284C95.2141 144.473 95.1785 144.657 95.1072 144.838C95.0376 145.019 94.9158 145.22 94.7418 145.442C94.5678 145.663 94.3258 145.93 94.0159 146.245L93.0042 147.304V147.341H95.2961V148H91.9453ZM96.2382 148V147.443L97.9609 145.658C98.1448 145.464 98.2965 145.295 98.4158 145.149C98.5368 145.001 98.6271 144.861 98.6867 144.729C98.7464 144.596 98.7762 144.455 98.7762 144.306C98.7762 144.137 98.7365 143.991 98.6569 143.869C98.5774 143.744 98.4688 143.649 98.3313 143.583C98.1937 143.515 98.0388 143.481 97.8664 143.481C97.6841 143.481 97.5251 143.518 97.3892 143.593C97.2533 143.667 97.1489 143.772 97.0759 143.908C97.003 144.044 96.9666 144.203 96.9666 144.386H96.2333C96.2333 144.076 96.3045 143.805 96.447 143.573C96.5896 143.341 96.7851 143.161 97.0337 143.033C97.2823 142.904 97.5648 142.839 97.8813 142.839C98.2012 142.839 98.4829 142.903 98.7265 143.031C98.9718 143.157 99.1632 143.329 99.3007 143.548C99.4383 143.765 99.5071 144.01 99.5071 144.284C99.5071 144.473 99.4714 144.657 99.4002 144.838C99.3306 145.019 99.2088 145.22 99.0348 145.442C98.8608 145.663 98.6188 145.93 98.3089 146.245L97.2972 147.304V147.341H99.5891V148H96.2382Z" fill="#56647E"></path>
<path d="M113.027 132.909V138H112.321L109.734 134.266H109.686V138H108.918V132.909H109.629L112.219 136.648H112.267V132.909H113.027ZM115.696 138.077C115.338 138.077 115.026 137.995 114.759 137.831C114.492 137.667 114.285 137.437 114.138 137.142C113.99 136.847 113.917 136.503 113.917 136.108C113.917 135.712 113.99 135.366 114.138 135.069C114.285 134.773 114.492 134.542 114.759 134.378C115.026 134.214 115.338 134.132 115.696 134.132C116.054 134.132 116.367 134.214 116.633 134.378C116.9 134.542 117.107 134.773 117.255 135.069C117.402 135.366 117.476 135.712 117.476 136.108C117.476 136.503 117.402 136.847 117.255 137.142C117.107 137.437 116.9 137.667 116.633 137.831C116.367 137.995 116.054 138.077 115.696 138.077ZM115.699 137.453C115.931 137.453 116.123 137.392 116.276 137.269C116.428 137.147 116.541 136.983 116.614 136.779C116.688 136.576 116.725 136.351 116.725 136.106C116.725 135.862 116.688 135.638 116.614 135.435C116.541 135.229 116.428 135.064 116.276 134.94C116.123 134.816 115.931 134.754 115.699 134.754C115.465 134.754 115.271 134.816 115.117 134.94C114.965 135.064 114.851 135.229 114.777 135.435C114.704 135.638 114.667 135.862 114.667 136.106C114.667 136.351 114.704 136.576 114.777 136.779C114.851 136.983 114.965 137.147 115.117 137.269C115.271 137.392 115.465 137.453 115.699 137.453ZM121.442 134.182L120.058 138H119.262L117.875 134.182H118.673L119.64 137.12H119.68L120.644 134.182H121.442ZM110.311 144.5V144.023C110.311 143.882 110.338 143.734 110.391 143.578C110.444 143.422 110.518 143.273 110.612 143.13C110.707 142.988 110.818 142.866 110.945 142.765L111.313 143.028C111.212 143.176 111.126 143.33 111.055 143.491C110.983 143.652 110.948 143.826 110.948 144.015V144.5H110.311ZM111.945 148V147.443L113.668 145.658C113.852 145.464 114.004 145.295 114.123 145.149C114.244 145.001 114.334 144.861 114.394 144.729C114.453 144.596 114.483 144.455 114.483 144.306C114.483 144.137 114.443 143.991 114.364 143.869C114.284 143.744 114.176 143.649 114.038 143.583C113.901 143.515 113.746 143.481 113.573 143.481C113.391 143.481 113.232 143.518 113.096 143.593C112.96 143.667 112.856 143.772 112.783 143.908C112.71 144.044 112.674 144.203 112.674 144.386H111.94C111.94 144.076 112.012 143.805 112.154 143.573C112.297 143.341 112.492 143.161 112.741 143.033C112.989 142.904 113.272 142.839 113.588 142.839C113.908 142.839 114.19 142.903 114.434 143.031C114.679 143.157 114.87 143.329 115.008 143.548C115.145 143.765 115.214 144.01 115.214 144.284C115.214 144.473 115.178 144.657 115.107 144.838C115.038 145.019 114.916 145.22 114.742 145.442C114.568 145.663 114.326 145.93 114.016 146.245L113.004 147.304V147.341H115.296V148H111.945ZM116.238 148V147.443L117.961 145.658C118.145 145.464 118.296 145.295 118.416 145.149C118.537 145.001 118.627 144.861 118.687 144.729C118.746 144.596 118.776 144.455 118.776 144.306C118.776 144.137 118.736 143.991 118.657 143.869C118.577 143.744 118.469 143.649 118.331 143.583C118.194 143.515 118.039 143.481 117.866 143.481C117.684 143.481 117.525 143.518 117.389 143.593C117.253 143.667 117.149 143.772 117.076 143.908C117.003 144.044 116.967 144.203 116.967 144.386H116.233C116.233 144.076 116.305 143.805 116.447 143.573C116.59 143.341 116.785 143.161 117.034 143.033C117.282 142.904 117.565 142.839 117.881 142.839C118.201 142.839 118.483 142.903 118.727 143.031C118.972 143.157 119.163 143.329 119.301 143.548C119.438 143.765 119.507 144.01 119.507 144.284C119.507 144.473 119.471 144.657 119.4 144.838C119.331 145.019 119.209 145.22 119.035 145.442C118.861 145.663 118.619 145.93 118.309 146.245L117.297 147.304V147.341H119.589V148H116.238Z" fill="#56647E"></path>
<path d="M130.641 138H128.993V132.909H130.694C131.192 132.909 131.621 133.011 131.979 133.215C132.337 133.417 132.611 133.708 132.802 134.087C132.994 134.465 133.09 134.918 133.09 135.447C133.09 135.977 132.993 136.433 132.799 136.814C132.607 137.195 132.328 137.489 131.964 137.694C131.599 137.898 131.159 138 130.641 138ZM129.761 137.329H130.599C130.987 137.329 131.309 137.256 131.566 137.11C131.823 136.963 132.015 136.75 132.143 136.471C132.27 136.191 132.334 135.85 132.334 135.447C132.334 135.048 132.27 134.709 132.143 134.43C132.017 134.152 131.829 133.941 131.579 133.797C131.328 133.652 131.018 133.58 130.646 133.58H129.761V137.329ZM135.631 138.077C135.255 138.077 134.931 137.997 134.659 137.836C134.389 137.674 134.18 137.446 134.033 137.152C133.887 136.857 133.814 136.512 133.814 136.116C133.814 135.725 133.887 135.38 134.033 135.082C134.18 134.783 134.386 134.551 134.649 134.383C134.914 134.216 135.224 134.132 135.579 134.132C135.794 134.132 136.003 134.168 136.205 134.239C136.407 134.31 136.589 134.422 136.75 134.575C136.91 134.727 137.037 134.925 137.13 135.169C137.223 135.411 137.269 135.705 137.269 136.051V136.315H134.234V135.758H136.541C136.541 135.562 136.501 135.389 136.422 135.238C136.342 135.086 136.23 134.966 136.086 134.878C135.943 134.79 135.776 134.746 135.584 134.746C135.375 134.746 135.193 134.797 135.037 134.9C134.883 135.001 134.764 135.134 134.679 135.298C134.596 135.46 134.555 135.637 134.555 135.827V136.262C134.555 136.518 134.599 136.735 134.689 136.914C134.78 137.093 134.907 137.229 135.069 137.324C135.232 137.417 135.421 137.463 135.639 137.463C135.779 137.463 135.908 137.443 136.024 137.403C136.14 137.362 136.24 137.301 136.325 137.219C136.409 137.138 136.474 137.038 136.519 136.919L137.222 137.045C137.166 137.253 137.065 137.434 136.919 137.59C136.775 137.744 136.593 137.864 136.374 137.95C136.157 138.035 135.909 138.077 135.631 138.077ZM139.702 138.077C139.333 138.077 139.014 137.993 138.748 137.826C138.482 137.657 138.279 137.424 138.136 137.127C137.994 136.831 137.922 136.491 137.922 136.108C137.922 135.721 137.995 135.378 138.141 135.082C138.287 134.783 138.492 134.551 138.758 134.383C139.023 134.216 139.335 134.132 139.695 134.132C139.985 134.132 140.243 134.186 140.47 134.294C140.697 134.4 140.88 134.549 141.02 134.741C141.161 134.933 141.244 135.158 141.271 135.415H140.547C140.508 135.236 140.416 135.082 140.274 134.952C140.133 134.823 139.944 134.759 139.707 134.759C139.5 134.759 139.319 134.813 139.163 134.923C139.009 135.03 138.889 135.184 138.802 135.385C138.716 135.584 138.673 135.819 138.673 136.091C138.673 136.369 138.715 136.61 138.8 136.812C138.884 137.014 139.004 137.171 139.158 137.282C139.314 137.393 139.497 137.448 139.707 137.448C139.848 137.448 139.976 137.422 140.09 137.371C140.206 137.318 140.303 137.243 140.381 137.145C140.46 137.047 140.516 136.929 140.547 136.792H141.271C141.244 137.039 141.164 137.259 141.03 137.453C140.895 137.647 140.716 137.799 140.49 137.911C140.266 138.022 140.004 138.077 139.702 138.077ZM130.311 144.5V144.023C130.311 143.882 130.338 143.734 130.391 143.578C130.444 143.422 130.518 143.273 130.612 143.13C130.707 142.988 130.818 142.866 130.945 142.765L131.313 143.028C131.212 143.176 131.126 143.33 131.055 143.491C130.983 143.652 130.948 143.826 130.948 144.015V144.5H130.311ZM131.945 148V147.443L133.668 145.658C133.852 145.464 134.004 145.295 134.123 145.149C134.244 145.001 134.334 144.861 134.394 144.729C134.453 144.596 134.483 144.455 134.483 144.306C134.483 144.137 134.443 143.991 134.364 143.869C134.284 143.744 134.176 143.649 134.038 143.583C133.901 143.515 133.746 143.481 133.573 143.481C133.391 143.481 133.232 143.518 133.096 143.593C132.96 143.667 132.856 143.772 132.783 143.908C132.71 144.044 132.674 144.203 132.674 144.386H131.94C131.94 144.076 132.012 143.805 132.154 143.573C132.297 143.341 132.492 143.161 132.741 143.033C132.989 142.904 133.272 142.839 133.588 142.839C133.908 142.839 134.19 142.903 134.434 143.031C134.679 143.157 134.87 143.329 135.008 143.548C135.145 143.765 135.214 144.01 135.214 144.284C135.214 144.473 135.178 144.657 135.107 144.838C135.038 145.019 134.916 145.22 134.742 145.442C134.568 145.663 134.326 145.93 134.016 146.245L133.004 147.304V147.341H135.296V148H131.945ZM136.238 148V147.443L137.961 145.658C138.145 145.464 138.296 145.295 138.416 145.149C138.537 145.001 138.627 144.861 138.687 144.729C138.746 144.596 138.776 144.455 138.776 144.306C138.776 144.137 138.736 143.991 138.657 143.869C138.577 143.744 138.469 143.649 138.331 143.583C138.194 143.515 138.039 143.481 137.866 143.481C137.684 143.481 137.525 143.518 137.389 143.593C137.253 143.667 137.149 143.772 137.076 143.908C137.003 144.044 136.967 144.203 136.967 144.386H136.233C136.233 144.076 136.305 143.805 136.447 143.573C136.59 143.341 136.785 143.161 137.034 143.033C137.282 142.904 137.565 142.839 137.881 142.839C138.201 142.839 138.483 142.903 138.727 143.031C138.972 143.157 139.163 143.329 139.301 143.548C139.438 143.765 139.507 144.01 139.507 144.284C139.507 144.473 139.471 144.657 139.4 144.838C139.331 145.019 139.209 145.22 139.035 145.442C138.861 145.663 138.619 145.93 138.309 146.245L137.297 147.304V147.341H139.589V148H136.238Z" fill="#56647E"></path>
<path d="M152.022 132.909H152.788V136.518C152.788 136.845 152.723 137.124 152.594 137.356C152.467 137.588 152.287 137.766 152.055 137.888C151.823 138.009 151.551 138.07 151.239 138.07C150.953 138.07 150.695 138.017 150.466 137.913C150.239 137.809 150.059 137.657 149.927 137.458C149.796 137.258 149.73 137.014 149.73 136.727H150.494C150.494 136.868 150.526 136.99 150.591 137.093C150.657 137.195 150.747 137.276 150.862 137.334C150.978 137.39 151.11 137.418 151.259 137.418C151.422 137.418 151.559 137.384 151.672 137.316C151.786 137.247 151.873 137.145 151.933 137.011C151.993 136.876 152.022 136.712 152.022 136.518V132.909ZM154.957 138.085C154.716 138.085 154.497 138.04 154.301 137.95C154.106 137.859 153.951 137.727 153.836 137.555C153.724 137.383 153.667 137.171 153.667 136.921C153.667 136.706 153.709 136.528 153.792 136.389C153.874 136.25 153.986 136.14 154.127 136.059C154.268 135.977 154.426 135.916 154.6 135.875C154.774 135.833 154.951 135.802 155.131 135.78C155.36 135.754 155.546 135.732 155.688 135.716C155.831 135.697 155.934 135.668 155.999 135.629C156.064 135.589 156.096 135.524 156.096 135.435V135.417C156.096 135.2 156.035 135.032 155.912 134.913C155.791 134.793 155.61 134.734 155.37 134.734C155.12 134.734 154.923 134.789 154.778 134.9C154.636 135.01 154.537 135.131 154.483 135.266L153.784 135.107C153.867 134.875 153.988 134.687 154.147 134.545C154.308 134.401 154.493 134.296 154.701 134.232C154.91 134.165 155.13 134.132 155.36 134.132C155.513 134.132 155.674 134.15 155.845 134.187C156.017 134.222 156.178 134.286 156.327 134.381C156.478 134.475 156.601 134.61 156.698 134.786C156.794 134.96 156.842 135.186 156.842 135.464V138H156.116V137.478H156.086C156.038 137.574 155.966 137.669 155.87 137.761C155.774 137.854 155.65 137.931 155.499 137.993C155.349 138.054 155.168 138.085 154.957 138.085ZM155.119 137.488C155.325 137.488 155.5 137.447 155.646 137.366C155.794 137.285 155.905 137.179 155.982 137.048C156.06 136.915 156.098 136.774 156.098 136.623V136.131C156.072 136.157 156.021 136.182 155.944 136.205C155.87 136.227 155.784 136.246 155.688 136.262C155.592 136.277 155.499 136.291 155.407 136.305C155.316 136.316 155.24 136.326 155.179 136.335C155.035 136.353 154.903 136.383 154.783 136.426C154.666 136.47 154.571 136.532 154.5 136.613C154.43 136.692 154.396 136.799 154.396 136.931C154.396 137.115 154.464 137.254 154.6 137.349C154.735 137.442 154.909 137.488 155.119 137.488ZM158.575 135.733V138H157.832V134.182H158.545V134.803H158.592C158.68 134.601 158.818 134.439 159.005 134.316C159.194 134.193 159.432 134.132 159.718 134.132C159.979 134.132 160.206 134.187 160.402 134.296C160.598 134.404 160.749 134.565 160.857 134.778C160.965 134.992 161.018 135.257 161.018 135.571V138H160.275V135.661C160.275 135.384 160.203 135.168 160.059 135.012C159.915 134.855 159.717 134.776 159.465 134.776C159.292 134.776 159.139 134.813 159.005 134.888C158.872 134.962 158.767 135.072 158.689 135.216C158.613 135.358 158.575 135.531 158.575 135.733ZM150.702 144.5V144.023C150.702 143.882 150.729 143.734 150.782 143.578C150.835 143.422 150.908 143.273 151.003 143.13C151.097 142.988 151.208 142.866 151.336 142.765L151.704 143.028C151.603 143.176 151.517 143.33 151.445 143.491C151.374 143.652 151.338 143.826 151.338 144.015V144.5H150.702ZM152.336 148V147.443L154.059 145.658C154.242 145.464 154.394 145.295 154.513 145.149C154.634 145.001 154.725 144.861 154.784 144.729C154.844 144.596 154.874 144.455 154.874 144.306C154.874 144.137 154.834 143.991 154.755 143.869C154.675 143.744 154.566 143.649 154.429 143.583C154.291 143.515 154.136 143.481 153.964 143.481C153.782 143.481 153.623 143.518 153.487 143.593C153.351 143.667 153.247 143.772 153.174 143.908C153.101 144.044 153.064 144.203 153.064 144.386H152.331C152.331 144.076 152.402 143.805 152.545 143.573C152.687 143.341 152.883 143.161 153.131 143.033C153.38 142.904 153.662 142.839 153.979 142.839C154.299 142.839 154.581 142.903 154.824 143.031C155.069 143.157 155.261 143.329 155.398 143.548C155.536 143.765 155.605 144.01 155.605 144.284C155.605 144.473 155.569 144.657 155.498 144.838C155.428 145.019 155.306 145.22 155.132 145.442C154.958 145.663 154.716 145.93 154.407 146.245L153.395 147.304V147.341H155.687V148H152.336ZM158.401 148.07C158.06 148.07 157.755 148.011 157.486 147.893C157.22 147.775 157.008 147.612 156.853 147.403C156.698 147.193 156.616 146.949 156.604 146.673H157.385C157.394 146.823 157.445 146.954 157.536 147.065C157.629 147.175 157.75 147.259 157.899 147.319C158.048 147.379 158.214 147.408 158.396 147.408C158.597 147.408 158.774 147.374 158.928 147.304C159.084 147.234 159.206 147.137 159.294 147.013C159.381 146.887 159.425 146.742 159.425 146.578C159.425 146.407 159.381 146.257 159.294 146.128C159.207 145.997 159.081 145.895 158.913 145.82C158.748 145.745 158.547 145.708 158.312 145.708H157.882V145.082H158.312C158.501 145.082 158.666 145.048 158.809 144.98C158.953 144.912 159.066 144.817 159.147 144.696C159.228 144.574 159.269 144.43 159.269 144.266C159.269 144.109 159.233 143.972 159.162 143.856C159.092 143.739 158.993 143.647 158.864 143.58C158.736 143.514 158.585 143.481 158.411 143.481C158.245 143.481 158.091 143.511 157.946 143.573C157.804 143.632 157.688 143.719 157.598 143.831C157.509 143.942 157.461 144.076 157.454 144.232H156.711C156.719 143.956 156.8 143.714 156.955 143.506C157.11 143.297 157.316 143.134 157.571 143.016C157.826 142.898 158.11 142.839 158.421 142.839C158.748 142.839 159.029 142.903 159.266 143.031C159.505 143.157 159.689 143.325 159.818 143.536C159.949 143.746 160.014 143.976 160.012 144.227C160.014 144.512 159.934 144.754 159.773 144.952C159.614 145.151 159.402 145.285 159.137 145.353V145.392C159.475 145.444 159.737 145.578 159.923 145.795C160.11 146.012 160.203 146.281 160.201 146.603C160.203 146.883 160.125 147.134 159.967 147.356C159.812 147.578 159.599 147.753 159.328 147.881C159.058 148.007 158.749 148.07 158.401 148.07Z" fill="#56647E"></path>
<path d="M169.904 138V132.909H173.061V133.57H170.672V135.121H172.834V135.78H170.672V138H169.904ZM175.311 138.077C174.935 138.077 174.611 137.997 174.339 137.836C174.069 137.674 173.86 137.446 173.712 137.152C173.567 136.857 173.494 136.512 173.494 136.116C173.494 135.725 173.567 135.38 173.712 135.082C173.86 134.783 174.065 134.551 174.329 134.383C174.594 134.216 174.904 134.132 175.259 134.132C175.474 134.132 175.683 134.168 175.885 134.239C176.087 134.31 176.269 134.422 176.429 134.575C176.59 134.727 176.717 134.925 176.81 135.169C176.903 135.411 176.949 135.705 176.949 136.051V136.315H173.914V135.758H176.221C176.221 135.562 176.181 135.389 176.101 135.238C176.022 135.086 175.91 134.966 175.766 134.878C175.623 134.79 175.456 134.746 175.264 134.746C175.055 134.746 174.872 134.797 174.717 134.9C174.563 135.001 174.443 135.134 174.359 135.298C174.276 135.46 174.234 135.637 174.234 135.827V136.262C174.234 136.518 174.279 136.735 174.369 136.914C174.46 137.093 174.587 137.229 174.749 137.324C174.911 137.417 175.101 137.463 175.318 137.463C175.459 137.463 175.588 137.443 175.704 137.403C175.82 137.362 175.92 137.301 176.004 137.219C176.089 137.138 176.153 137.038 176.198 136.919L176.902 137.045C176.845 137.253 176.744 137.434 176.598 137.59C176.454 137.744 176.273 137.864 176.054 137.95C175.837 138.035 175.589 138.077 175.311 138.077ZM177.833 138V132.909H178.576V134.801H178.621C178.664 134.721 178.726 134.629 178.808 134.525C178.889 134.42 179.002 134.329 179.146 134.251C179.29 134.172 179.48 134.132 179.717 134.132C180.026 134.132 180.301 134.21 180.543 134.366C180.785 134.522 180.974 134.746 181.112 135.039C181.251 135.333 181.321 135.686 181.321 136.098C181.321 136.511 181.252 136.865 181.114 137.16C180.977 137.453 180.788 137.679 180.548 137.838C180.307 137.996 180.033 138.075 179.725 138.075C179.493 138.075 179.303 138.036 179.156 137.958C179.01 137.88 178.895 137.789 178.813 137.684C178.73 137.58 178.666 137.487 178.621 137.406H178.559V138H177.833ZM178.562 136.091C178.562 136.359 178.601 136.595 178.678 136.797C178.756 136.999 178.869 137.157 179.016 137.272C179.164 137.384 179.345 137.441 179.558 137.441C179.78 137.441 179.966 137.382 180.115 137.264C180.264 137.145 180.377 136.983 180.453 136.779C180.531 136.576 180.57 136.346 180.57 136.091C180.57 135.839 180.532 135.613 180.456 135.412C180.381 135.212 180.268 135.054 180.118 134.938C179.969 134.821 179.782 134.763 179.558 134.763C179.343 134.763 179.161 134.819 179.011 134.93C178.864 135.041 178.752 135.196 178.676 135.395C178.6 135.594 178.562 135.826 178.562 136.091ZM170.702 144.5V144.023C170.702 143.882 170.729 143.734 170.782 143.578C170.835 143.422 170.908 143.273 171.003 143.13C171.097 142.988 171.208 142.866 171.336 142.765L171.704 143.028C171.603 143.176 171.517 143.33 171.445 143.491C171.374 143.652 171.338 143.826 171.338 144.015V144.5H170.702ZM172.336 148V147.443L174.059 145.658C174.242 145.464 174.394 145.295 174.513 145.149C174.634 145.001 174.725 144.861 174.784 144.729C174.844 144.596 174.874 144.455 174.874 144.306C174.874 144.137 174.834 143.991 174.755 143.869C174.675 143.744 174.566 143.649 174.429 143.583C174.291 143.515 174.136 143.481 173.964 143.481C173.782 143.481 173.623 143.518 173.487 143.593C173.351 143.667 173.247 143.772 173.174 143.908C173.101 144.044 173.064 144.203 173.064 144.386H172.331C172.331 144.076 172.402 143.805 172.545 143.573C172.687 143.341 172.883 143.161 173.131 143.033C173.38 142.904 173.662 142.839 173.979 142.839C174.299 142.839 174.581 142.903 174.824 143.031C175.069 143.157 175.261 143.329 175.398 143.548C175.536 143.765 175.605 144.01 175.605 144.284C175.605 144.473 175.569 144.657 175.498 144.838C175.428 145.019 175.306 145.22 175.132 145.442C174.958 145.663 174.716 145.93 174.407 146.245L173.395 147.304V147.341H175.687V148H172.336ZM178.401 148.07C178.06 148.07 177.755 148.011 177.486 147.893C177.22 147.775 177.008 147.612 176.853 147.403C176.698 147.193 176.616 146.949 176.604 146.673H177.385C177.394 146.823 177.445 146.954 177.536 147.065C177.629 147.175 177.75 147.259 177.899 147.319C178.048 147.379 178.214 147.408 178.396 147.408C178.597 147.408 178.774 147.374 178.928 147.304C179.084 147.234 179.206 147.137 179.294 147.013C179.381 146.887 179.425 146.742 179.425 146.578C179.425 146.407 179.381 146.257 179.294 146.128C179.207 145.997 179.081 145.895 178.913 145.82C178.748 145.745 178.547 145.708 178.312 145.708H177.882V145.082H178.312C178.501 145.082 178.666 145.048 178.809 144.98C178.953 144.912 179.066 144.817 179.147 144.696C179.228 144.574 179.269 144.43 179.269 144.266C179.269 144.109 179.233 143.972 179.162 143.856C179.092 143.739 178.993 143.647 178.864 143.58C178.736 143.514 178.585 143.481 178.411 143.481C178.245 143.481 178.091 143.511 177.946 143.573C177.804 143.632 177.688 143.719 177.598 143.831C177.509 143.942 177.461 144.076 177.454 144.232H176.711C176.719 143.956 176.8 143.714 176.955 143.506C177.11 143.297 177.316 143.134 177.571 143.016C177.826 142.898 178.11 142.839 178.421 142.839C178.748 142.839 179.029 142.903 179.266 143.031C179.505 143.157 179.689 143.325 179.818 143.536C179.949 143.746 180.014 143.976 180.012 144.227C180.014 144.512 179.934 144.754 179.773 144.952C179.614 145.151 179.402 145.285 179.137 145.353V145.392C179.475 145.444 179.737 145.578 179.923 145.795C180.11 146.012 180.203 146.281 180.201 146.603C180.203 146.883 180.125 147.134 179.967 147.356C179.812 147.578 179.599 147.753 179.328 147.881C179.058 148.007 178.749 148.07 178.401 148.07Z" fill="#56647E"></path>
<path d="M189.582 132.909H190.514L192.135 136.866H192.195L193.816 132.909H194.748V138H194.017V134.316H193.97L192.468 137.993H191.862L190.36 134.314H190.313V138H189.582V132.909ZM196.916 138.085C196.674 138.085 196.455 138.04 196.26 137.95C196.064 137.859 195.909 137.727 195.795 137.555C195.682 137.383 195.626 137.171 195.626 136.921C195.626 136.706 195.667 136.528 195.75 136.389C195.833 136.25 195.945 136.14 196.086 136.059C196.227 135.977 196.384 135.916 196.558 135.875C196.732 135.833 196.909 135.802 197.09 135.78C197.319 135.754 197.504 135.732 197.647 135.716C197.789 135.697 197.893 135.668 197.958 135.629C198.022 135.589 198.054 135.524 198.054 135.435V135.417C198.054 135.2 197.993 135.032 197.871 134.913C197.75 134.793 197.569 134.734 197.329 134.734C197.078 134.734 196.881 134.789 196.737 134.9C196.594 135.01 196.496 135.131 196.441 135.266L195.743 135.107C195.826 134.875 195.947 134.687 196.106 134.545C196.266 134.401 196.451 134.296 196.66 134.232C196.869 134.165 197.088 134.132 197.319 134.132C197.471 134.132 197.633 134.15 197.803 134.187C197.976 134.222 198.136 134.286 198.286 134.381C198.436 134.475 198.56 134.61 198.656 134.786C198.752 134.96 198.8 135.186 198.8 135.464V138H198.074V137.478H198.045C197.996 137.574 197.924 137.669 197.828 137.761C197.732 137.854 197.609 137.931 197.458 137.993C197.307 138.054 197.126 138.085 196.916 138.085ZM197.078 137.488C197.283 137.488 197.459 137.447 197.605 137.366C197.752 137.285 197.864 137.179 197.94 137.048C198.018 136.915 198.057 136.774 198.057 136.623V136.131C198.03 136.157 197.979 136.182 197.903 136.205C197.828 136.227 197.743 136.246 197.647 136.262C197.551 136.277 197.457 136.291 197.366 136.305C197.275 136.316 197.199 136.326 197.137 136.335C196.993 136.353 196.861 136.383 196.742 136.426C196.624 136.47 196.53 136.532 196.459 136.613C196.389 136.692 196.354 136.799 196.354 136.931C196.354 137.115 196.422 137.254 196.558 137.349C196.694 137.442 196.867 137.488 197.078 137.488ZM199.79 138V134.182H200.509V134.788H200.548C200.618 134.583 200.741 134.421 200.916 134.304C201.094 134.184 201.294 134.125 201.518 134.125C201.564 134.125 201.619 134.126 201.682 134.13C201.746 134.133 201.797 134.137 201.833 134.142V134.853C201.804 134.845 201.751 134.836 201.674 134.826C201.598 134.814 201.522 134.808 201.446 134.808C201.27 134.808 201.113 134.846 200.976 134.92C200.84 134.993 200.732 135.095 200.653 135.226C200.573 135.355 200.533 135.503 200.533 135.668V138H199.79ZM190.702 144.5V144.023C190.702 143.882 190.729 143.734 190.782 143.578C190.835 143.422 190.908 143.273 191.003 143.13C191.097 142.988 191.208 142.866 191.336 142.765L191.704 143.028C191.603 143.176 191.517 143.33 191.445 143.491C191.374 143.652 191.338 143.826 191.338 144.015V144.5H190.702ZM192.336 148V147.443L194.059 145.658C194.242 145.464 194.394 145.295 194.513 145.149C194.634 145.001 194.725 144.861 194.784 144.729C194.844 144.596 194.874 144.455 194.874 144.306C194.874 144.137 194.834 143.991 194.755 143.869C194.675 143.744 194.566 143.649 194.429 143.583C194.291 143.515 194.136 143.481 193.964 143.481C193.782 143.481 193.623 143.518 193.487 143.593C193.351 143.667 193.247 143.772 193.174 143.908C193.101 144.044 193.064 144.203 193.064 144.386H192.331C192.331 144.076 192.402 143.805 192.545 143.573C192.687 143.341 192.883 143.161 193.131 143.033C193.38 142.904 193.662 142.839 193.979 142.839C194.299 142.839 194.581 142.903 194.824 143.031C195.069 143.157 195.261 143.329 195.398 143.548C195.536 143.765 195.605 144.01 195.605 144.284C195.605 144.473 195.569 144.657 195.498 144.838C195.428 145.019 195.306 145.22 195.132 145.442C194.958 145.663 194.716 145.93 194.407 146.245L193.395 147.304V147.341H195.687V148H192.336ZM198.401 148.07C198.06 148.07 197.755 148.011 197.486 147.893C197.22 147.775 197.008 147.612 196.853 147.403C196.698 147.193 196.616 146.949 196.604 146.673H197.385C197.394 146.823 197.445 146.954 197.536 147.065C197.629 147.175 197.75 147.259 197.899 147.319C198.048 147.379 198.214 147.408 198.396 147.408C198.597 147.408 198.774 147.374 198.928 147.304C199.084 147.234 199.206 147.137 199.294 147.013C199.381 146.887 199.425 146.742 199.425 146.578C199.425 146.407 199.381 146.257 199.294 146.128C199.207 145.997 199.081 145.895 198.913 145.82C198.748 145.745 198.547 145.708 198.312 145.708H197.882V145.082H198.312C198.501 145.082 198.666 145.048 198.809 144.98C198.953 144.912 199.066 144.817 199.147 144.696C199.228 144.574 199.269 144.43 199.269 144.266C199.269 144.109 199.233 143.972 199.162 143.856C199.092 143.739 198.993 143.647 198.864 143.58C198.736 143.514 198.585 143.481 198.411 143.481C198.245 143.481 198.091 143.511 197.946 143.573C197.804 143.632 197.688 143.719 197.598 143.831C197.509 143.942 197.461 144.076 197.454 144.232H196.711C196.719 143.956 196.8 143.714 196.955 143.506C197.11 143.297 197.316 143.134 197.571 143.016C197.826 142.898 198.11 142.839 198.421 142.839C198.748 142.839 199.029 142.903 199.266 143.031C199.505 143.157 199.689 143.325 199.818 143.536C199.949 143.746 200.014 143.976 200.012 144.227C200.014 144.512 199.934 144.754 199.773 144.952C199.614 145.151 199.402 145.285 199.137 145.353V145.392C199.475 145.444 199.737 145.578 199.923 145.795C200.11 146.012 200.203 146.281 200.201 146.603C200.203 146.883 200.125 147.134 199.967 147.356C199.812 147.578 199.599 147.753 199.328 147.881C199.058 148.007 198.749 148.07 198.401 148.07Z" fill="#56647E"></path>
<path d="M49.297 138H48.4816L50.3137 132.909H51.2011L53.0331 138H52.2178L50.7785 133.834H50.7387L49.297 138ZM49.4337 136.006H52.0786V136.653H49.4337V136.006ZM56.1273 136.417V134.182H56.873V138H56.1422V137.339H56.1025C56.0146 137.543 55.8738 137.712 55.6799 137.848C55.4876 137.983 55.2482 138.05 54.9615 138.05C54.7162 138.05 54.4991 137.996 54.3102 137.888C54.1229 137.779 53.9754 137.617 53.8677 137.403C53.7617 137.19 53.7086 136.925 53.7086 136.61V134.182H54.4519V136.521C54.4519 136.781 54.524 136.988 54.6681 137.142C54.8123 137.297 54.9996 137.374 55.2299 137.374C55.3691 137.374 55.5075 137.339 55.6451 137.269C55.7843 137.2 55.8994 137.094 55.9906 136.953C56.0834 136.813 56.129 136.634 56.1273 136.417ZM59.4726 139.511C59.1693 139.511 58.9083 139.472 58.6895 139.392C58.4724 139.313 58.2951 139.207 58.1576 139.076C58.02 138.945 57.9173 138.802 57.8493 138.646L58.4882 138.383C58.5329 138.456 58.5926 138.533 58.6672 138.614C58.7434 138.697 58.8461 138.767 58.9754 138.825C59.1063 138.883 59.2745 138.912 59.48 138.912C59.7617 138.912 59.9946 138.844 60.1785 138.706C60.3625 138.57 60.4545 138.353 60.4545 138.055V137.304H60.4072C60.3625 137.385 60.2979 137.475 60.2133 137.575C60.1305 137.674 60.0161 137.761 59.8703 137.833C59.7245 137.906 59.5347 137.943 59.301 137.943C58.9994 137.943 58.7277 137.872 58.4857 137.732C58.2454 137.589 58.0548 137.379 57.914 137.103C57.7748 136.824 57.7052 136.482 57.7052 136.076C57.7052 135.67 57.7739 135.322 57.9115 135.032C58.0507 134.742 58.2413 134.52 58.4832 134.366C58.7252 134.21 58.9994 134.132 59.306 134.132C59.543 134.132 59.7344 134.172 59.8802 134.251C60.0261 134.329 60.1396 134.42 60.2208 134.525C60.3037 134.629 60.3675 134.721 60.4122 134.801H60.4669V134.182H61.1952V138.085C61.1952 138.413 61.119 138.682 60.9665 138.892C60.8141 139.103 60.6077 139.259 60.3476 139.36C60.089 139.461 59.7974 139.511 59.4726 139.511ZM59.4651 137.326C59.6789 137.326 59.8595 137.277 60.007 137.177C60.1562 137.076 60.2689 136.932 60.3451 136.745C60.423 136.556 60.4619 136.33 60.4619 136.066C60.4619 135.809 60.4238 135.583 60.3476 135.387C60.2713 135.192 60.1595 135.039 60.012 134.93C59.8645 134.819 59.6822 134.763 59.4651 134.763C59.2414 134.763 59.055 134.821 58.9058 134.938C58.7567 135.052 58.644 135.208 58.5677 135.405C58.4932 135.602 58.4559 135.822 58.4559 136.066C58.4559 136.316 58.494 136.536 58.5702 136.725C58.6465 136.914 58.7591 137.061 58.9083 137.167C59.0591 137.273 59.2447 137.326 59.4651 137.326ZM50.3115 144.5V144.023C50.3115 143.882 50.338 143.734 50.391 143.578C50.4441 143.422 50.5178 143.273 50.6123 143.13C50.7067 142.988 50.8178 142.866 50.9454 142.765L51.3133 143.028C51.2122 143.176 51.126 143.33 51.0547 143.491C50.9835 143.652 50.9478 143.826 50.9478 144.015V144.5H50.3115ZM51.9453 148V147.443L53.6679 145.658C53.8519 145.464 54.0035 145.295 54.1228 145.149C54.2438 145.001 54.3341 144.861 54.3938 144.729C54.4534 144.596 54.4833 144.455 54.4833 144.306C54.4833 144.137 54.4435 143.991 54.3639 143.869C54.2844 143.744 54.1759 143.649 54.0383 143.583C53.9008 143.515 53.7458 143.481 53.5735 143.481C53.3912 143.481 53.2321 143.518 53.0962 143.593C52.9603 143.667 52.8559 143.772 52.783 143.908C52.7101 144.044 52.6736 144.203 52.6736 144.386H51.9403C51.9403 144.076 52.0116 143.805 52.1541 143.573C52.2966 143.341 52.4921 143.161 52.7407 143.033C52.9893 142.904 53.2719 142.839 53.5884 142.839C53.9082 142.839 54.1899 142.903 54.4335 143.031C54.6788 143.157 54.8702 143.329 55.0078 143.548C55.1453 143.765 55.2141 144.01 55.2141 144.284C55.2141 144.473 55.1785 144.657 55.1072 144.838C55.0376 145.019 54.9158 145.22 54.7418 145.442C54.5678 145.663 54.3258 145.93 54.0159 146.245L53.0042 147.304V147.341H55.2961V148H51.9453ZM56.2382 148V147.443L57.9609 145.658C58.1448 145.464 58.2965 145.295 58.4158 145.149C58.5368 145.001 58.6271 144.861 58.6867 144.729C58.7464 144.596 58.7762 144.455 58.7762 144.306C58.7762 144.137 58.7365 143.991 58.6569 143.869C58.5774 143.744 58.4688 143.649 58.3313 143.583C58.1937 143.515 58.0388 143.481 57.8664 143.481C57.6841 143.481 57.5251 143.518 57.3892 143.593C57.2533 143.667 57.1489 143.772 57.0759 143.908C57.003 144.044 56.9666 144.203 56.9666 144.386H56.2333C56.2333 144.076 56.3045 143.805 56.447 143.573C56.5896 143.341 56.7851 143.161 57.0337 143.033C57.2823 142.904 57.5648 142.839 57.8813 142.839C58.2012 142.839 58.4829 142.903 58.7265 143.031C58.9718 143.157 59.1632 143.329 59.3007 143.548C59.4383 143.765 59.5071 144.01 59.5071 144.284C59.5071 144.473 59.4714 144.657 59.4002 144.838C59.3306 145.019 59.2088 145.22 59.0348 145.442C58.8608 145.663 58.6188 145.93 58.3089 146.245L57.2972 147.304V147.341H59.5891V148H56.2382Z" fill="#56647E"></path>
<path d="M210.035 138H209.22L211.052 132.909H211.939L213.771 138H212.956L211.517 133.834H211.477L210.035 138ZM210.172 136.006H212.817V136.653H210.172V136.006ZM214.447 139.432V134.182H215.173V134.801H215.235C215.278 134.721 215.34 134.629 215.421 134.525C215.503 134.42 215.615 134.329 215.759 134.251C215.904 134.172 216.094 134.132 216.331 134.132C216.639 134.132 216.914 134.21 217.156 134.366C217.398 134.522 217.588 134.746 217.726 135.039C217.865 135.333 217.934 135.686 217.934 136.098C217.934 136.511 217.866 136.865 217.728 137.16C217.591 137.453 217.402 137.679 217.161 137.838C216.921 137.996 216.647 138.075 216.339 138.075C216.107 138.075 215.917 138.036 215.769 137.958C215.624 137.88 215.509 137.789 215.426 137.684C215.343 137.58 215.28 137.487 215.235 137.406H215.19V139.432H214.447ZM215.175 136.091C215.175 136.359 215.214 136.595 215.292 136.797C215.37 136.999 215.483 137.157 215.63 137.272C215.778 137.384 215.958 137.441 216.172 137.441C216.394 137.441 216.58 137.382 216.729 137.264C216.878 137.145 216.991 136.983 217.067 136.779C217.145 136.576 217.184 136.346 217.184 136.091C217.184 135.839 217.146 135.613 217.069 135.412C216.995 135.212 216.882 135.054 216.731 134.938C216.582 134.821 216.396 134.763 216.172 134.763C215.957 134.763 215.774 134.819 215.625 134.93C215.478 135.041 215.366 135.196 215.29 135.395C215.213 135.594 215.175 135.826 215.175 136.091ZM218.767 138V134.182H219.486V134.788H219.525C219.595 134.583 219.718 134.421 219.893 134.304C220.071 134.184 220.271 134.125 220.495 134.125C220.541 134.125 220.596 134.126 220.659 134.13C220.724 134.133 220.774 134.137 220.811 134.142V134.853C220.781 134.845 220.728 134.836 220.651 134.826C220.575 134.814 220.499 134.808 220.423 134.808C220.247 134.808 220.09 134.846 219.953 134.92C219.817 134.993 219.709 135.095 219.63 135.226C219.55 135.355 219.51 135.503 219.51 135.668V138H218.767ZM210.202 144.5V144.023C210.202 143.882 210.229 143.734 210.282 143.578C210.335 143.422 210.408 143.273 210.503 143.13C210.597 142.988 210.708 142.866 210.836 142.765L211.204 143.028C211.103 143.176 211.017 143.33 210.945 143.491C210.874 143.652 210.838 143.826 210.838 144.015V144.5H210.202ZM211.836 148V147.443L213.559 145.658C213.742 145.464 213.894 145.295 214.013 145.149C214.134 145.001 214.225 144.861 214.284 144.729C214.344 144.596 214.374 144.455 214.374 144.306C214.374 144.137 214.334 143.991 214.255 143.869C214.175 143.744 214.066 143.649 213.929 143.583C213.791 143.515 213.636 143.481 213.464 143.481C213.282 143.481 213.123 143.518 212.987 143.593C212.851 143.667 212.747 143.772 212.674 143.908C212.601 144.044 212.564 144.203 212.564 144.386H211.831C211.831 144.076 211.902 143.805 212.045 143.573C212.187 143.341 212.383 143.161 212.631 143.033C212.88 142.904 213.162 142.839 213.479 142.839C213.799 142.839 214.081 142.903 214.324 143.031C214.569 143.157 214.761 143.329 214.898 143.548C215.036 143.765 215.105 144.01 215.105 144.284C215.105 144.473 215.069 144.657 214.998 144.838C214.928 145.019 214.806 145.22 214.632 145.442C214.458 145.663 214.216 145.93 213.907 146.245L212.895 147.304V147.341H215.187V148H211.836ZM217.901 148.07C217.56 148.07 217.255 148.011 216.986 147.893C216.72 147.775 216.508 147.612 216.353 147.403C216.198 147.193 216.116 146.949 216.104 146.673H216.885C216.894 146.823 216.945 146.954 217.036 147.065C217.129 147.175 217.25 147.259 217.399 147.319C217.548 147.379 217.714 147.408 217.896 147.408C218.097 147.408 218.274 147.374 218.428 147.304C218.584 147.234 218.706 147.137 218.794 147.013C218.881 146.887 218.925 146.742 218.925 146.578C218.925 146.407 218.881 146.257 218.794 146.128C218.707 145.997 218.581 145.895 218.413 145.82C218.248 145.745 218.047 145.708 217.812 145.708H217.382V145.082H217.812C218.001 145.082 218.166 145.048 218.309 144.98C218.453 144.912 218.566 144.817 218.647 144.696C218.728 144.574 218.769 144.43 218.769 144.266C218.769 144.109 218.733 143.972 218.662 143.856C218.592 143.739 218.493 143.647 218.364 143.58C218.236 143.514 218.085 143.481 217.911 143.481C217.745 143.481 217.591 143.511 217.446 143.573C217.304 143.632 217.188 143.719 217.098 143.831C217.009 143.942 216.961 144.076 216.954 144.232H216.211C216.219 143.956 216.3 143.714 216.455 143.506C216.61 143.297 216.816 143.134 217.071 143.016C217.326 142.898 217.61 142.839 217.921 142.839C218.248 142.839 218.529 142.903 218.766 143.031C219.005 143.157 219.189 143.325 219.318 143.536C219.449 143.746 219.514 143.976 219.512 144.227C219.514 144.512 219.434 144.754 219.273 144.952C219.114 145.151 218.902 145.285 218.637 145.353V145.392C218.975 145.444 219.237 145.578 219.423 145.795C219.61 146.012 219.703 146.281 219.701 146.603C219.703 146.883 219.625 147.134 219.467 147.356C219.312 147.578 219.099 147.753 218.828 147.881C218.558 148.007 218.249 148.07 217.901 148.07Z" fill="#56647E"></path>
</svg>