<?xml version="1.0" encoding="UTF-8"?>
<svg viewBox="0 0 384 268" fill="none" xmlns="http://www.w3.org/2000/svg" class="absolute w-full"><mask id="mask0_458_1728" style="mask-type:alpha" maskUnits="userSpaceOnUse" x="0" y="0" width="384" height="233"><rect width="384" height="233" fill="url(#paint0_radial_458_1728)"></rect></mask><g mask="url(#mask0_458_1728)"><path d="M29 80.5C29 80.2239 29.2239 80 29.5 80H44.5C44.7761 80 45 80.2239 45 80.5C45 80.7761 44.7761 81 44.5 81H29.5C29.2239 81 29 80.7761 29 80.5Z" fill="url(#paint1_linear_458_1728)"></path><path d="M149 88.5C149 88.2239 149.224 88 149.5 88H164.5C164.776 88 165 88.2239 165 88.5C165 88.7761 164.776 89 164.5 89H149.5C149.224 89 149 88.7761 149 88.5Z" fill="url(#paint2_linear_458_1728)"></path><path d="M133 120.5C133 120.224 133.224 120 133.5 120H164.5C164.776 120 165 120.224 165 120.5C165 120.776 164.776 121 164.5 121H133.5C133.224 121 133 120.776 133 120.5Z" fill="url(#paint3_radial_458_1728)"></path><path d="M23 121.5C23 121.224 23.2239 121 23.5 121H38.5C38.7761 121 39 121.224 39 121.5C39 121.776 38.7761 122 38.5 122H23.5C23.2239 122 23 121.776 23 121.5Z" fill="url(#paint4_radial_458_1728)"></path><path d="M53 184.5C53 184.224 53.2239 184 53.5 184H68.5C68.7761 184 69 184.224 69 184.5C69 184.776 68.7761 185 68.5 185H53.5C53.2239 185 53 184.776 53 184.5Z" fill="url(#paint5_radial_458_1728)"></path><path d="M23 225.5C23 225.224 23.2239 225 23.5 225H38.5C38.7761 225 39 225.224 39 225.5C39 225.776 38.7761 226 38.5 226H23.5C23.2239 226 23 225.776 23 225.5Z" fill="url(#paint6_radial_458_1728)"></path><g filter="url(#filter0_f_458_1728)"><path d="M1 10.5C1 10.2239 1.22386 10 1.5 10H16.5C16.7761 10 17 10.2239 17 10.5C17 10.7761 16.7761 11 16.5 11H1.5C1.22386 11 1 10.7761 1 10.5Z" fill="url(#paint7_radial_458_1728)" fill-opacity="0.5"></path></g><path d="M189 208.5C189 208.224 189.224 208 189.5 208H204.5C204.776 208 205 208.224 205 208.5C205 208.776 204.776 209 204.5 209H189.5C189.224 209 189 208.776 189 208.5Z" fill="url(#paint8_radial_458_1728)"></path><path d="M113 42.5C113 42.2239 113.224 42 113.5 42H128.5C128.776 42 129 42.2239 129 42.5C129 42.7761 128.776 43 128.5 43H113.5C113.224 43 113 42.7761 113 42.5Z" fill="url(#paint9_radial_458_1728)"></path><path d="M61 168.5C61 168.224 61.2239 168 61.5 168H108.5C108.776 168 109 168.224 109 168.5C109 168.776 108.776 169 108.5 169H61.5C61.2239 169 61 168.776 61 168.5Z" fill="url(#paint10_radial_458_1728)"></path><path d="M31 209.5C31 209.224 31.2239 209 31.5 209H78.5C78.7761 209 79 209.224 79 209.5C79 209.776 78.7761 210 78.5 210H31.5C31.2239 210 31 209.776 31 209.5Z" fill="url(#paint11_radial_458_1728)"></path><path opacity="0.2" d="M1 34.5C1 34.2239 1.22386 34 1.5 34H48.5C48.7761 34 49 34.2239 49 34.5C49 34.7761 48.7761 35 48.5 35H1.5C1.22386 35 1 34.7761 1 34.5Z" fill="url(#paint12_radial_458_1728)"></path><path d="M168 120.5C168 120.224 168.224 120 168.5 120H215.5C215.776 120 216 120.224 216 120.5C216 120.776 215.776 121 215.5 121H168.5C168.224 121 168 120.776 168 120.5Z" fill="url(#paint13_radial_458_1728)"></path><path opacity="0.2" d="M138 161.5C138 161.224 138.224 161 138.5 161H185.5C185.776 161 186 161.224 186 161.5C186 161.776 185.776 162 185.5 162H138.5C138.224 162 138 161.776 138 161.5Z" fill="url(#paint14_radial_458_1728)"></path><g filter="url(#filter1_f_458_1728)"><path d="M45 64.5C45 64.7761 45.2239 65 45.5 65H92.5C92.7761 65 93 64.7761 93 64.5C93 64.2239 92.7761 64 92.5 64H45.5C45.2239 64 45 64.2239 45 64.5Z" fill="url(#paint15_radial_458_1728)" fill-opacity="0.5"></path></g><g filter="url(#filter2_f_458_1728)"><path d="M85 137.5C85 137.776 85.2239 138 85.5 138H132.5C132.776 138 133 137.776 133 137.5C133 137.224 132.776 137 132.5 137H85.5C85.2239 137 85 137.224 85 137.5Z" fill="url(#paint16_radial_458_1728)" fill-opacity="0.5"></path></g><g filter="url(#filter3_f_458_1728)"><path d="M55 178.5C55 178.776 55.2239 179 55.5 179H102.5C102.776 179 103 178.776 103 178.5C103 178.224 102.776 178 102.5 178H55.5C55.2239 178 55 178.224 55 178.5Z" fill="url(#paint17_radial_458_1728)" fill-opacity="0.5"></path></g><path d="M93 184.5C93 184.224 93.2239 184 93.5 184H164.5C164.776 184 165 184.224 165 184.5C165 184.776 164.776 185 164.5 185H93.5C93.2239 185 93 184.776 93 184.5Z" fill="url(#paint18_linear_458_1728)"></path><path d="M63 225.5C63 225.224 63.2239 225 63.5 225H134.5C134.776 225 135 225.224 135 225.5C135 225.776 134.776 226 134.5 226H63.5C63.2239 226 63 225.776 63 225.5Z" fill="url(#paint19_linear_458_1728)"></path><g filter="url(#filter4_f_458_1728)"><path d="M41 10.5C41 10.2239 41.2239 10 41.5 10H112.5C112.776 10 113 10.2239 113 10.5C113 10.7761 112.776 11 112.5 11H41.5C41.2239 11 41 10.7761 41 10.5Z" fill="url(#paint20_radial_458_1728)" fill-opacity="0.5"></path></g><path d="M109 64.5C109 64.7761 109.224 65 109.5 65H180.5C180.776 65 181 64.7761 181 64.5C181 64.2239 180.776 64 180.5 64H109.5C109.224 64 109 64.2239 109 64.5Z" fill="url(#paint21_radial_458_1728)"></path><g filter="url(#filter5_f_458_1728)"><path d="M37 105.5C37 105.776 37.2239 106 37.5 106H108.5C108.776 106 109 105.776 109 105.5C109 105.224 108.776 105 108.5 105H37.5C37.2239 105 37 105.224 37 105.5Z" fill="url(#paint22_radial_458_1728)" fill-opacity="0.5"></path></g><path opacity="0.2" d="M7 146.5C7 146.776 7.22386 147 7.5 147H78.5C78.7761 147 79 146.776 79 146.5C79 146.224 78.7761 146 78.5 146H7.5C7.22386 146 7 146.224 7 146.5Z" fill="url(#paint23_radial_458_1728)"></path><path d="M117 160.5C117 160.224 117.224 160 117.5 160H132.5C132.776 160 133 160.224 133 160.5C133 160.776 132.776 161 132.5 161H117.5C117.224 161 117 160.776 117 160.5Z" fill="url(#paint24_radial_458_1728)"></path><path d="M87 201.5C87 201.224 87.2239 201 87.5 201H102.5C102.776 201 103 201.224 103 201.5C103 201.776 102.776 202 102.5 202H87.5C87.2239 202 87 201.776 87 201.5Z" fill="url(#paint25_radial_458_1728)"></path><path opacity="0.2" d="M121 26.5C121 26.2239 121.224 26 121.5 26H136.5C136.776 26 137 26.2239 137 26.5C137 26.7761 136.776 27 136.5 27H121.5C121.224 27 121 26.7761 121 26.5Z" fill="url(#paint26_radial_458_1728)"></path><path d="M69 90.5C69 90.2239 69.2239 90 69.5 90H76.5C76.7761 90 77 90.2239 77 90.5C77 90.7761 76.7761 91 76.5 91H69.5C69.2239 91 69 90.7761 69 90.5Z" fill="url(#paint27_radial_458_1728)"></path><path d="M205 90.5C205 90.2239 205.224 90 205.5 90H212.5C212.776 90 213 90.2239 213 90.5C213 90.7761 212.776 91 212.5 91H205.5C205.224 91 205 90.7761 205 90.5Z" fill="url(#paint28_radial_458_1728)"></path><path d="M21 162.5C21 162.224 21.2239 162 21.5 162H28.5C28.7761 162 29 162.224 29 162.5C29 162.776 28.7761 163 28.5 163H21.5C21.2239 163 21 162.776 21 162.5Z" fill="url(#paint29_radial_458_1728)"></path><path d="M167 227.5C167 227.224 167.224 227 167.5 227H174.5C174.776 227 175 227.224 175 227.5C175 227.776 174.776 228 174.5 228H167.5C167.224 228 167 227.776 167 227.5Z" fill="url(#paint30_radial_458_1728)"></path><path d="M145 12.5C145 12.2239 145.224 12 145.5 12H152.5C152.776 12 153 12.2239 153 12.5C153 12.7761 152.776 13 152.5 13H145.5C145.224 13 145 12.7761 145 12.5Z" fill="url(#paint31_radial_458_1728)"></path><path d="M165 130.5C165 130.224 165.224 130 165.5 130H172.5C172.776 130 173 130.224 173 130.5C173 130.776 172.776 131 172.5 131H165.5C165.224 131 165 130.776 165 130.5Z" fill="url(#paint32_linear_458_1728)"></path><path d="M135 171.5C135 171.224 135.224 171 135.5 171H142.5C142.776 171 143 171.224 143 171.5C143 171.776 142.776 172 142.5 172H135.5C135.224 172 135 171.776 135 171.5Z" fill="url(#paint33_linear_458_1728)"></path><path d="M93 194.5C93 194.224 93.2239 194 93.5 194H100.5C100.776 194 101 194.224 101 194.5C101 194.776 100.776 195 100.5 195H93.5C93.2239 195 93 194.776 93 194.5Z" fill="url(#paint34_radial_458_1728)"></path><path d="M41 20.5C41 20.2239 41.2239 20 41.5 20H48.5C48.7761 20 49 20.2239 49 20.5C49 20.7761 48.7761 21 48.5 21H41.5C41.2239 21 41 20.7761 41 20.5Z" fill="url(#paint35_radial_458_1728)"></path><path d="M169 44.5C169 44.2239 169.224 44 169.5 44H176.5C176.776 44 177 44.2239 177 44.5C177 44.7761 176.776 45 176.5 45H169.5C169.224 45 169 44.7761 169 44.5Z" fill="url(#paint36_radial_458_1728)"></path><g filter="url(#filter6_f_458_1728)"><path d="M157 218.5C157 218.224 157.224 218 157.5 218H164.5C164.776 218 165 218.224 165 218.5C165 218.776 164.776 219 164.5 219H157.5C157.224 219 157 218.776 157 218.5Z" fill="url(#paint37_radial_458_1728)" fill-opacity="0.5"></path></g><g filter="url(#filter7_f_458_1728)"><path d="M73 44.5C73 44.2239 73.2239 44 73.5 44H80.5C80.7761 44 81 44.2239 81 44.5C81 44.7761 80.7761 45 80.5 45H73.5C73.2239 45 73 44.7761 73 44.5Z" fill="url(#paint38_radial_458_1728)" fill-opacity="0.5"></path></g><g opacity="0.05" filter="url(#filter8_dd_458_1728)"><path d="M192 0H384V268H192V0Z" fill="url(#paint39_linear_458_1728)" shape-rendering="crispEdges"></path></g><mask id="mask1_458_1728" style="mask-type:alpha" maskUnits="userSpaceOnUse" x="192" y="0" width="192" height="268"><path d="M192 0H384V268H192V0Z" fill="#0D2247"></path></mask><g mask="url(#mask1_458_1728)"><path d="M181 39H279C283.418 39 287 35.4183 287 31V-57" stroke="#0D2247" stroke-opacity="0.1"></path><path d="M181 168H279C283.418 168 287 171.582 287 176V264" stroke="#0D2247" stroke-opacity="0.1"></path><path d="M319 72V-24" stroke="#0D2247" stroke-opacity="0.1"></path><path d="M319 232V136" stroke="#0D2247" stroke-opacity="0.1"></path><path d="M351 -24V65.3726C351 69.616 352.686 73.6857 355.686 76.6863L383 104L355.686 131.314C352.686 134.314 351 138.384 351 142.627V232" stroke="#0D2247" stroke-opacity="0.1"></path><path d="M351 65.3726C351 69.616 352.686 73.6857 355.686 76.6863L369.343 90.3431" stroke="url(#paint40_linear_458_1728)" stroke-linecap="round"></path><path d="M189 72H352.5" stroke="#0D2247" stroke-opacity="0.1"></path><path d="M189 136H352.5" stroke="#0D2247" stroke-opacity="0.1"></path><path d="M205 104H389.5" stroke="#0D2247" stroke-opacity="0.1"></path><path d="M290.5 72H247.75" stroke="url(#paint41_linear_458_1728)" stroke-linecap="round"></path><path d="M330.5 136H239.75" stroke="url(#paint42_linear_458_1728)" stroke-linecap="round"></path><path d="M338.5 104H295.75" stroke="url(#paint43_linear_458_1728)" stroke-linecap="round"></path><path d="M274.5 104H263.75" stroke="url(#paint44_linear_458_1728)" stroke-linecap="round"></path><g filter="url(#filter9_f_458_1728)"><rect x="143" y="56" width="96" height="96" rx="48" fill="url(#paint45_radial_458_1728)" fill-opacity="0.6"></rect></g><g filter="url(#filter10_b_458_1728)"><circle cx="191" cy="104" r="48" fill="white" fill-opacity="0.33"></circle><circle cx="191" cy="104" r="48.5" stroke="#0D2247" stroke-opacity="0.1"></circle></g><path opacity="0.1" d="M192 351L192 2.70117e-08L193 0L193 351H192Z" fill="#0D2247"></path></g></g><defs><filter id="filter0_f_458_1728" x="-1" y="8" width="20" height="5" filterUnits="userSpaceOnUse" color-interpolation-filters="sRGB"><feFlood flood-opacity="0" result="BackgroundImageFix"></feFlood><feBlend mode="normal" in="SourceGraphic" in2="BackgroundImageFix" result="shape"></feBlend><feGaussianBlur stdDeviation="1" result="effect1_foregroundBlur_458_1728"></feGaussianBlur></filter><filter id="filter1_f_458_1728" x="43" y="62" width="52" height="5" filterUnits="userSpaceOnUse" color-interpolation-filters="sRGB"><feFlood flood-opacity="0" result="BackgroundImageFix"></feFlood><feBlend mode="normal" in="SourceGraphic" in2="BackgroundImageFix" result="shape"></feBlend><feGaussianBlur stdDeviation="1" result="effect1_foregroundBlur_458_1728"></feGaussianBlur></filter><filter id="filter2_f_458_1728" x="83" y="135" width="52" height="5" filterUnits="userSpaceOnUse" color-interpolation-filters="sRGB"><feFlood flood-opacity="0" result="BackgroundImageFix"></feFlood><feBlend mode="normal" in="SourceGraphic" in2="BackgroundImageFix" result="shape"></feBlend><feGaussianBlur stdDeviation="1" result="effect1_foregroundBlur_458_1728"></feGaussianBlur></filter><filter id="filter3_f_458_1728" x="53" y="176" width="52" height="5" filterUnits="userSpaceOnUse" color-interpolation-filters="sRGB"><feFlood flood-opacity="0" result="BackgroundImageFix"></feFlood><feBlend mode="normal" in="SourceGraphic" in2="BackgroundImageFix" result="shape"></feBlend><feGaussianBlur stdDeviation="1" result="effect1_foregroundBlur_458_1728"></feGaussianBlur></filter><filter id="filter4_f_458_1728" x="39" y="8" width="76" height="5" filterUnits="userSpaceOnUse" color-interpolation-filters="sRGB"><feFlood flood-opacity="0" result="BackgroundImageFix"></feFlood><feBlend mode="normal" in="SourceGraphic" in2="BackgroundImageFix" result="shape"></feBlend><feGaussianBlur stdDeviation="1" result="effect1_foregroundBlur_458_1728"></feGaussianBlur></filter><filter id="filter5_f_458_1728" x="35" y="103" width="76" height="5" filterUnits="userSpaceOnUse" color-interpolation-filters="sRGB"><feFlood flood-opacity="0" result="BackgroundImageFix"></feFlood><feBlend mode="normal" in="SourceGraphic" in2="BackgroundImageFix" result="shape"></feBlend><feGaussianBlur stdDeviation="1" result="effect1_foregroundBlur_458_1728"></feGaussianBlur></filter><filter id="filter6_f_458_1728" x="155" y="216" width="12" height="5" filterUnits="userSpaceOnUse" color-interpolation-filters="sRGB"><feFlood flood-opacity="0" result="BackgroundImageFix"></feFlood><feBlend mode="normal" in="SourceGraphic" in2="BackgroundImageFix" result="shape"></feBlend><feGaussianBlur stdDeviation="1" result="effect1_foregroundBlur_458_1728"></feGaussianBlur></filter><filter id="filter7_f_458_1728" x="71" y="42" width="12" height="5" filterUnits="userSpaceOnUse" color-interpolation-filters="sRGB"><feFlood flood-opacity="0" result="BackgroundImageFix"></feFlood><feBlend mode="normal" in="SourceGraphic" in2="BackgroundImageFix" result="shape"></feBlend><feGaussianBlur stdDeviation="1" result="effect1_foregroundBlur_458_1728"></feGaussianBlur></filter><filter id="filter8_dd_458_1728" x="188" y="-3" width="198" height="274" filterUnits="userSpaceOnUse" color-interpolation-filters="sRGB"><feFlood flood-opacity="0" result="BackgroundImageFix"></feFlood><feColorMatrix in="SourceAlpha" type="matrix" values="0 0 0 0 0 0 0 0 0 0 0 0 0 0 0 0 0 0 127 0" result="hardAlpha"></feColorMatrix><feOffset dx="-1"></feOffset><feGaussianBlur stdDeviation="1"></feGaussianBlur><feComposite in2="hardAlpha" operator="out"></feComposite><feColorMatrix type="matrix" values="0 0 0 0 0 0 0 0 0 0 0 0 0 0 0 0 0 0 0.46 0"></feColorMatrix><feBlend mode="normal" in2="BackgroundImageFix" result="effect1_dropShadow_458_1728"></feBlend><feColorMatrix in="SourceAlpha" type="matrix" values="0 0 0 0 0 0 0 0 0 0 0 0 0 0 0 0 0 0 127 0" result="hardAlpha"></feColorMatrix><feOffset dx="-1"></feOffset><feGaussianBlur stdDeviation="1.5"></feGaussianBlur><feComposite in2="hardAlpha" operator="out"></feComposite><feColorMatrix type="matrix" values="0 0 0 0 0 0 0 0 0 0 0 0 0 0 0 0 0 0 0.1 0"></feColorMatrix><feBlend mode="normal" in2="effect1_dropShadow_458_1728" result="effect2_dropShadow_458_1728"></feBlend><feBlend mode="normal" in="SourceGraphic" in2="effect2_dropShadow_458_1728" result="shape"></feBlend></filter><filter id="filter9_f_458_1728" x="103" y="16" width="176" height="176" filterUnits="userSpaceOnUse" color-interpolation-filters="sRGB"><feFlood flood-opacity="0" result="BackgroundImageFix"></feFlood><feBlend mode="normal" in="SourceGraphic" in2="BackgroundImageFix" result="shape"></feBlend><feGaussianBlur stdDeviation="20" result="effect1_foregroundBlur_458_1728"></feGaussianBlur></filter><filter id="filter10_b_458_1728" x="141" y="54" width="100" height="100" filterUnits="userSpaceOnUse" color-interpolation-filters="sRGB"><feFlood flood-opacity="0" result="BackgroundImageFix"></feFlood><feGaussianBlur in="BackgroundImageFix" stdDeviation="0.5"></feGaussianBlur><feComposite in2="SourceAlpha" operator="in" result="effect1_backgroundBlur_458_1728"></feComposite><feBlend mode="normal" in="SourceGraphic" in2="effect1_backgroundBlur_458_1728" result="shape"></feBlend></filter><radialGradient id="paint0_radial_458_1728" cx="0" cy="0" r="1" gradientUnits="userSpaceOnUse" gradientTransform="translate(192 43) rotate(90) scale(167 493.309)"><stop offset="0.526946" stop-color="#D9D9D9" stop-opacity="0.9"></stop><stop offset="1" stop-color="#D9D9D9" stop-opacity="0"></stop></radialGradient><linearGradient id="paint1_linear_458_1728" x1="29" y1="80" x2="48.4286" y2="80.0021" gradientUnits="userSpaceOnUse"><stop stop-color="#F5F5F5" stop-opacity="0"></stop><stop offset="0.835056" stop-color="#DBDFE6"></stop></linearGradient><linearGradient id="paint2_linear_458_1728" x1="149" y1="88" x2="168.429" y2="88.0021" gradientUnits="userSpaceOnUse"><stop stop-color="#F5F5F5" stop-opacity="0"></stop><stop offset="0.835056" stop-color="#DBDFE6"></stop></linearGradient><radialGradient id="paint3_radial_458_1728" cx="0" cy="0" r="1" gradientUnits="userSpaceOnUse" gradientTransform="translate(165.5 121.501) rotate(-179.091) scale(31.504 13905.5)"><stop stop-color="#9EA7B5"></stop><stop offset="1" stop-color="#9EA7B5" stop-opacity="0"></stop></radialGradient><radialGradient id="paint4_radial_458_1728" cx="0" cy="0" r="1" gradientUnits="userSpaceOnUse" gradientTransform="translate(39 122) rotate(-179.999) scale(15 6620.83)"><stop stop-color="#9EA7B5"></stop><stop offset="1" stop-color="#9EA7B5" stop-opacity="0"></stop></radialGradient><radialGradient id="paint5_radial_458_1728" cx="0" cy="0" r="1" gradientUnits="userSpaceOnUse" gradientTransform="translate(69 185) rotate(-179.999) scale(15 6620.83)"><stop stop-color="#9EA7B5"></stop><stop offset="1" stop-color="#9EA7B5" stop-opacity="0"></stop></radialGradient><radialGradient id="paint6_radial_458_1728" cx="0" cy="0" r="1" gradientUnits="userSpaceOnUse" gradientTransform="translate(39 226) rotate(-179.999) scale(15 6620.83)"><stop stop-color="#9EA7B5"></stop><stop offset="1" stop-color="#9EA7B5" stop-opacity="0"></stop></radialGradient><radialGradient id="paint7_radial_458_1728" cx="0" cy="0" r="1" gradientUnits="userSpaceOnUse" gradientTransform="translate(17 11.0002) rotate(-179.999) scale(15 6620.83)"><stop stop-color="#9EA7B5"></stop><stop offset="1" stop-color="#9EA7B5" stop-opacity="0"></stop></radialGradient><radialGradient id="paint8_radial_458_1728" cx="0" cy="0" r="1" gradientUnits="userSpaceOnUse" gradientTransform="translate(205 209) rotate(-179.999) scale(15 6620.83)"><stop stop-color="#9EA7B5"></stop><stop offset="1" stop-color="#9EA7B5" stop-opacity="0"></stop></radialGradient><radialGradient id="paint9_radial_458_1728" cx="0" cy="0" r="1" gradientUnits="userSpaceOnUse" gradientTransform="translate(129 43.0002) rotate(-179.999) scale(15 6620.83)"><stop stop-color="#9EA7B5"></stop><stop offset="1" stop-color="#9EA7B5" stop-opacity="0"></stop></radialGradient><radialGradient id="paint10_radial_458_1728" cx="0" cy="0" r="1" gradientUnits="userSpaceOnUse" gradientTransform="translate(109 169) rotate(-180) scale(45 6620.83)"><stop stop-color="#9EA7B5"></stop><stop offset="1" stop-color="#9EA7B5" stop-opacity="0"></stop></radialGradient><radialGradient id="paint11_radial_458_1728" cx="0" cy="0" r="1" gradientUnits="userSpaceOnUse" gradientTransform="translate(79 210) rotate(-180) scale(45 6620.83)"><stop stop-color="#9EA7B5"></stop><stop offset="1" stop-color="#9EA7B5" stop-opacity="0"></stop></radialGradient><radialGradient id="paint12_radial_458_1728" cx="0" cy="0" r="1" gradientUnits="userSpaceOnUse" gradientTransform="translate(49 35.0002) rotate(-180) scale(45 6620.83)"><stop stop-color="#9EA7B5"></stop><stop offset="1" stop-color="#9EA7B5" stop-opacity="0"></stop></radialGradient><radialGradient id="paint13_radial_458_1728" cx="0" cy="0" r="1" gradientUnits="userSpaceOnUse" gradientTransform="translate(216 121) rotate(-180) scale(45 6620.83)"><stop stop-color="#9EA7B5"></stop><stop offset="1" stop-color="#9EA7B5" stop-opacity="0"></stop></radialGradient><radialGradient id="paint14_radial_458_1728" cx="0" cy="0" r="1" gradientUnits="userSpaceOnUse" gradientTransform="translate(186 162) rotate(-180) scale(45 6620.83)"><stop stop-color="#9EA7B5"></stop><stop offset="1" stop-color="#9EA7B5" stop-opacity="0"></stop></radialGradient><radialGradient id="paint15_radial_458_1728" cx="0" cy="0" r="1" gradientUnits="userSpaceOnUse" gradientTransform="translate(93 63.9998) rotate(180) scale(45 6620.83)"><stop stop-color="#9EA7B5"></stop><stop offset="1" stop-color="#9EA7B5" stop-opacity="0"></stop></radialGradient><radialGradient id="paint16_radial_458_1728" cx="0" cy="0" r="1" gradientUnits="userSpaceOnUse" gradientTransform="translate(133 137) rotate(180) scale(45 6620.83)"><stop stop-color="#9EA7B5"></stop><stop offset="1" stop-color="#9EA7B5" stop-opacity="0"></stop></radialGradient><radialGradient id="paint17_radial_458_1728" cx="0" cy="0" r="1" gradientUnits="userSpaceOnUse" gradientTransform="translate(103 178) rotate(180) scale(45 6620.83)"><stop stop-color="#9EA7B5"></stop><stop offset="1" stop-color="#9EA7B5" stop-opacity="0"></stop></radialGradient><linearGradient id="paint18_linear_458_1728" x1="93" y1="184" x2="180.429" y2="184.042" gradientUnits="userSpaceOnUse"><stop stop-color="#F5F5F5" stop-opacity="0"></stop><stop offset="0.835056" stop-color="#DBDFE6"></stop></linearGradient><linearGradient id="paint19_linear_458_1728" x1="63" y1="225" x2="150.429" y2="225.042" gradientUnits="userSpaceOnUse"><stop stop-color="#F5F5F5" stop-opacity="0"></stop><stop offset="0.835056" stop-color="#DBDFE6"></stop></linearGradient><radialGradient id="paint20_radial_458_1728" cx="0" cy="0" r="1" gradientUnits="userSpaceOnUse" gradientTransform="translate(113 11.0002) rotate(-180) scale(67.5 6620.83)"><stop stop-color="#9EA7B5"></stop><stop offset="1" stop-color="#9EA7B5" stop-opacity="0"></stop></radialGradient><radialGradient id="paint21_radial_458_1728" cx="0" cy="0" r="1" gradientUnits="userSpaceOnUse" gradientTransform="translate(181 65.0001) rotate(-179.17) scale(69.0072 10153)"><stop stop-color="#9EA7B5"></stop><stop offset="1" stop-color="#9EA7B5" stop-opacity="0"></stop></radialGradient><radialGradient id="paint22_radial_458_1728" cx="0" cy="0" r="1" gradientUnits="userSpaceOnUse" gradientTransform="translate(109 105) rotate(180) scale(67.5 6620.83)"><stop stop-color="#9EA7B5"></stop><stop offset="1" stop-color="#9EA7B5" stop-opacity="0"></stop></radialGradient><radialGradient id="paint23_radial_458_1728" cx="0" cy="0" r="1" gradientUnits="userSpaceOnUse" gradientTransform="translate(55 146) rotate(180) scale(45 6620.83)"><stop stop-color="#9EA7B5"></stop><stop offset="1" stop-color="#9EA7B5" stop-opacity="0"></stop></radialGradient><radialGradient id="paint24_radial_458_1728" cx="0" cy="0" r="1" gradientUnits="userSpaceOnUse" gradientTransform="translate(133 161) rotate(-179.999) scale(15 6620.83)"><stop stop-color="#9EA7B5"></stop><stop offset="1" stop-color="#9EA7B5" stop-opacity="0"></stop></radialGradient><radialGradient id="paint25_radial_458_1728" cx="0" cy="0" r="1" gradientUnits="userSpaceOnUse" gradientTransform="translate(103 202) rotate(-179.999) scale(15 6620.83)"><stop stop-color="#9EA7B5"></stop><stop offset="1" stop-color="#9EA7B5" stop-opacity="0"></stop></radialGradient><radialGradient id="paint26_radial_458_1728" cx="0" cy="0" r="1" gradientUnits="userSpaceOnUse" gradientTransform="translate(137 27.0002) rotate(-179.999) scale(15 6620.83)"><stop stop-color="#9EA7B5"></stop><stop offset="1" stop-color="#9EA7B5" stop-opacity="0"></stop></radialGradient><radialGradient id="paint27_radial_458_1728" cx="0" cy="0" r="1" gradientUnits="userSpaceOnUse" gradientTransform="translate(77 91.0002) rotate(-179.999) scale(7.5 6620.83)"><stop stop-color="#9EA7B5"></stop><stop offset="1" stop-color="#9EA7B5" stop-opacity="0"></stop></radialGradient><radialGradient id="paint28_radial_458_1728" cx="0" cy="0" r="1" gradientUnits="userSpaceOnUse" gradientTransform="translate(213 91.0002) rotate(-179.999) scale(7.5 6620.83)"><stop stop-color="#9EA7B5"></stop><stop offset="1" stop-color="#9EA7B5" stop-opacity="0"></stop></radialGradient><radialGradient id="paint29_radial_458_1728" cx="0" cy="0" r="1" gradientUnits="userSpaceOnUse" gradientTransform="translate(29 163) rotate(-179.999) scale(7.5 6620.83)"><stop stop-color="#9EA7B5"></stop><stop offset="1" stop-color="#9EA7B5" stop-opacity="0"></stop></radialGradient><radialGradient id="paint30_radial_458_1728" cx="0" cy="0" r="1" gradientUnits="userSpaceOnUse" gradientTransform="translate(175 228) rotate(-179.999) scale(7.5 6620.83)"><stop stop-color="#9EA7B5"></stop><stop offset="1" stop-color="#9EA7B5" stop-opacity="0"></stop></radialGradient><radialGradient id="paint31_radial_458_1728" cx="0" cy="0" r="1" gradientUnits="userSpaceOnUse" gradientTransform="translate(153 13.0002) rotate(-179.999) scale(7.5 6620.83)"><stop stop-color="#9EA7B5"></stop><stop offset="1" stop-color="#9EA7B5" stop-opacity="0"></stop></radialGradient><linearGradient id="paint32_linear_458_1728" x1="165" y1="130" x2="174.714" y2="130.001" gradientUnits="userSpaceOnUse"><stop stop-color="#F5F5F5" stop-opacity="0"></stop><stop offset="0.835056" stop-color="#DBDFE6"></stop></linearGradient><linearGradient id="paint33_linear_458_1728" x1="135" y1="171" x2="144.714" y2="171.001" gradientUnits="userSpaceOnUse"><stop stop-color="#F5F5F5" stop-opacity="0"></stop><stop offset="0.835056" stop-color="#DBDFE6"></stop></linearGradient><radialGradient id="paint34_radial_458_1728" cx="0" cy="0" r="1" gradientUnits="userSpaceOnUse" gradientTransform="translate(101 195) rotate(-179.999) scale(7.5 6620.83)"><stop stop-color="#9EA7B5"></stop><stop offset="1" stop-color="#9EA7B5" stop-opacity="0"></stop></radialGradient><radialGradient id="paint35_radial_458_1728" cx="0" cy="0" r="1" gradientUnits="userSpaceOnUse" gradientTransform="translate(49 21.0002) rotate(-179.999) scale(7.5 6620.83)"><stop stop-color="#9EA7B5"></stop><stop offset="1" stop-color="#9EA7B5" stop-opacity="0"></stop></radialGradient><radialGradient id="paint36_radial_458_1728" cx="0" cy="0" r="1" gradientUnits="userSpaceOnUse" gradientTransform="translate(177 45.0002) rotate(-179.999) scale(7.5 6620.83)"><stop stop-color="#9EA7B5"></stop><stop offset="1" stop-color="#9EA7B5" stop-opacity="0"></stop></radialGradient><radialGradient id="paint37_radial_458_1728" cx="0" cy="0" r="1" gradientUnits="userSpaceOnUse" gradientTransform="translate(165 219) rotate(-179.999) scale(7.5 6620.83)"><stop stop-color="#9EA7B5"></stop><stop offset="1" stop-color="#9EA7B5" stop-opacity="0"></stop></radialGradient><radialGradient id="paint38_radial_458_1728" cx="0" cy="0" r="1" gradientUnits="userSpaceOnUse" gradientTransform="translate(81 45.0002) rotate(-179.999) scale(7.5 6620.83)"><stop stop-color="#9EA7B5"></stop><stop offset="1" stop-color="#9EA7B5" stop-opacity="0"></stop></radialGradient><linearGradient id="paint39_linear_458_1728" x1="384" y1="82.8155" x2="216.168" y2="82.8155" gradientUnits="userSpaceOnUse"><stop stop-color="#0D2247" stop-opacity="0"></stop><stop offset="0.575758" stop-color="#0D2247"></stop></linearGradient><linearGradient id="paint40_linear_458_1728" x1="368" y1="77.0045" x2="356.182" y2="72.5001" gradientUnits="userSpaceOnUse"><stop stop-color="#2D68FF"></stop><stop offset="1" stop-color="#47DEFF" stop-opacity="0"></stop></linearGradient><linearGradient id="paint41_linear_458_1728" x1="300.5" y1="75.4998" x2="237.047" y2="86.7639" gradientUnits="userSpaceOnUse"><stop stop-color="#2D68FF"></stop><stop offset="1" stop-color="#47DEFF" stop-opacity="0"></stop></linearGradient><linearGradient id="paint42_linear_458_1728" x1="331" y1="137.5" x2="246.528" y2="144.351" gradientUnits="userSpaceOnUse"><stop stop-color="#2D68FF"></stop><stop offset="1" stop-color="#47DEFF" stop-opacity="0"></stop></linearGradient><linearGradient id="paint43_linear_458_1728" x1="337.5" y1="104" x2="293.026" y2="110.185" gradientUnits="userSpaceOnUse"><stop stop-color="#2D68FF"></stop><stop offset="1" stop-color="#47DEFF" stop-opacity="0"></stop></linearGradient><linearGradient id="paint44_linear_458_1728" x1="275" y1="105.5" x2="263.009" y2="107.55" gradientUnits="userSpaceOnUse"><stop stop-color="#2D68FF"></stop><stop offset="1" stop-color="#47DEFF" stop-opacity="0"></stop></linearGradient><radialGradient id="paint45_radial_458_1728" cx="0" cy="0" r="1" gradientUnits="userSpaceOnUse" gradientTransform="translate(181.809 90.7234) rotate(90) scale(61.2766 78.6262)"><stop offset="0.0479167" stop-color="#2D68FF"></stop><stop offset="0.846416" stop-color="#47DEFF" stop-opacity="0.69"></stop></radialGradient></defs></svg>