<?xml version="1.0" encoding="UTF-8"?>
<svg width="66" height="66" viewBox="0 0 66 66" fill="none" xmlns="http://www.w3.org/2000/svg" class="z-10"><g filter="url(#filter0_bi_458_1939)"><rect x="1" y="1" width="64" height="64" rx="32" fill="url(#paint0_radial_458_1939)"></rect><circle cx="33" cy="33" r="28.5" stroke="#253859" stroke-opacity="0.08"></circle><g filter="url(#filter1_d_458_1939)"><mask id="path-4-inside-1_458_1939" fill="white"><path fill-rule="evenodd" clip-rule="evenodd" d="M35.6989 31C35.313 31 35.0002 30.6872 35.0002 30.3013V16.992C35.0002 16.3316 34.1686 16.0399 33.756 16.5556L19.9083 33.8652C19.5424 34.3226 19.868 35.0003 20.4539 35.0003H30.3013C30.6872 35.0003 31 35.3131 31 35.699V49.0083C31 49.6687 31.8317 49.9604 32.2442 49.4447L46.0919 32.1351C46.4579 31.6777 46.1322 31 45.5463 31H35.6989Z"></path></mask><path fill-rule="evenodd" clip-rule="evenodd" d="M35.6989 31C35.313 31 35.0002 30.6872 35.0002 30.3013V16.992C35.0002 16.3316 34.1686 16.0399 33.756 16.5556L19.9083 33.8652C19.5424 34.3226 19.868 35.0003 20.4539 35.0003H30.3013C30.6872 35.0003 31 35.3131 31 35.699V49.0083C31 49.6687 31.8317 49.9604 32.2442 49.4447L46.0919 32.1351C46.4579 31.6777 46.1322 31 45.5463 31H35.6989Z" fill="url(#paint1_linear_458_1939)"></path><path d="M46.0919 32.1351L45.311 31.5104L46.0919 32.1351ZM32.2442 49.4447L31.4634 48.82L32.2442 49.4447ZM19.9083 33.8652L20.6892 34.4899L19.9083 33.8652ZM34.0002 16.992V30.3013H36.0002V16.992H34.0002ZM20.6892 34.4899L34.5369 17.1803L32.9751 15.9309L19.1274 33.2405L20.6892 34.4899ZM30.3013 34.0003H20.4539V36.0003H30.3013V34.0003ZM32 49.0083V35.699H30V49.0083H32ZM45.311 31.5104L31.4634 48.82L33.0251 50.0694L46.8728 32.7598L45.311 31.5104ZM35.6989 32H45.5463V30H35.6989V32ZM46.8728 32.7598C47.7626 31.6476 46.9707 30 45.5463 30V32C45.2937 32 45.1532 31.7077 45.311 31.5104L46.8728 32.7598ZM30 49.0083C30 50.614 32.022 51.3233 33.0251 50.0694L31.4634 48.82C31.6413 48.5976 32 48.7234 32 49.0083H30ZM30.3013 36.0003C30.1349 36.0003 30 35.8654 30 35.699H32C32 34.7608 31.2395 34.0003 30.3013 34.0003V36.0003ZM19.1274 33.2405C18.2377 34.3527 19.0295 36.0003 20.4539 36.0003V34.0003C20.7066 34.0003 20.847 34.2926 20.6892 34.4899L19.1274 33.2405ZM34.0002 30.3013C34.0002 31.2395 34.7607 32 35.6989 32V30C35.8653 30 36.0002 30.1349 36.0002 30.3013H34.0002ZM36.0002 16.992C36.0002 15.3863 33.9782 14.677 32.9751 15.9309L34.5369 17.1803C34.3589 17.4027 34.0002 17.2769 34.0002 16.992H36.0002Z" fill="#253859" fill-opacity="0.1" mask="url(#path-4-inside-1_458_1939)"></path></g><rect x="0.5" y="0.5" width="65" height="65" rx="32.5" stroke="#0D2247" stroke-opacity="0.15"></rect></g><defs><filter id="filter0_bi_458_1939" x="-3" y="-3" width="72" height="72" filterUnits="userSpaceOnUse" color-interpolation-filters="sRGB"><feFlood flood-opacity="0" result="BackgroundImageFix"></feFlood><feGaussianBlur in="BackgroundImageFix" stdDeviation="1.5"></feGaussianBlur><feComposite in2="SourceAlpha" operator="in" result="effect1_backgroundBlur_458_1939"></feComposite><feBlend mode="normal" in="SourceGraphic" in2="effect1_backgroundBlur_458_1939" result="shape"></feBlend><feColorMatrix in="SourceAlpha" type="matrix" values="0 0 0 0 0 0 0 0 0 0 0 0 0 0 0 0 0 0 127 0" result="hardAlpha"></feColorMatrix><feOffset dy="-0.8"></feOffset><feGaussianBlur stdDeviation="0.4"></feGaussianBlur><feComposite in2="hardAlpha" operator="arithmetic" k2="-1" k3="1"></feComposite><feColorMatrix type="matrix" values="0 0 0 0 0.0509804 0 0 0 0 0.133333 0 0 0 0 0.278431 0 0 0 0.12 0"></feColorMatrix><feBlend mode="normal" in2="shape" result="effect2_innerShadow_458_1939"></feBlend></filter><filter id="filter1_d_458_1939" x="14.7539" y="11.292" width="36.4922" height="43.4163" filterUnits="userSpaceOnUse" color-interpolation-filters="sRGB"><feFlood flood-opacity="0" result="BackgroundImageFix"></feFlood><feColorMatrix in="SourceAlpha" type="matrix" values="0 0 0 0 0 0 0 0 0 0 0 0 0 0 0 0 0 0 127 0" result="hardAlpha"></feColorMatrix><feOffset></feOffset><feGaussianBlur stdDeviation="2.5"></feGaussianBlur><feComposite in2="hardAlpha" operator="out"></feComposite><feColorMatrix type="matrix" values="0 0 0 0 0.239216 0 0 0 0 0.321569 0 0 0 0 1 0 0 0 0.2 0"></feColorMatrix><feBlend mode="normal" in2="BackgroundImageFix" result="effect1_dropShadow_458_1939"></feBlend><feBlend mode="normal" in="SourceGraphic" in2="effect1_dropShadow_458_1939" result="shape"></feBlend></filter><radialGradient id="paint0_radial_458_1939" cx="0" cy="0" r="1" gradientUnits="userSpaceOnUse" gradientTransform="translate(33 9) rotate(90) scale(56 78.5)"><stop offset="0.276786" stop-color="white"></stop><stop offset="0.830357" stop-color="white" stop-opacity="0.8"></stop></radialGradient><linearGradient id="paint1_linear_458_1939" x1="33.0001" y1="16.292" x2="33.0001" y2="49.7083" gradientUnits="userSpaceOnUse"><stop stop-color="#5B22FF"></stop><stop offset="1" stop-color="#2D68FF"></stop></linearGradient></defs></svg>